<svg width="101" height="32" viewBox="0 0 101 32" fill="none" xmlns="http://www.w3.org/2000/svg">
<path fill-rule="evenodd" clip-rule="evenodd" d="M25.0119 14.0377L24.1266 13.1484L14.4042 22.9118L6.59625 15.0694L5.71094 15.9586L13.5188 23.8031L14.4022 24.6903L14.4042 24.6923L25.0119 14.0377Z" fill="#70777C"/>
<path fill-rule="evenodd" clip-rule="evenodd" d="M15.2896 20.3031L25.012 10.5377L24.1267 9.64844L14.4043 19.4138L6.58843 11.5614L5.70312 12.4526L13.519 20.3031L14.4043 21.1923L15.2896 20.3031Z" fill="#70777C"/>
<path fill-rule="evenodd" clip-rule="evenodd" d="M25.0071 17.5319L24.1218 16.6406L14.3994 26.406L6.54156 18.5134L5.65625 19.4046L13.5141 27.2973L14.3894 28.1764L14.3994 28.1865L25.0071 17.5319Z" fill="#70777C"/>
<path fill-rule="evenodd" clip-rule="evenodd" d="M3.76562 17.5687L4.65293 18.4579L14.3753 8.69251L22.1553 16.5088L23.0426 15.6196L15.2606 7.80329L14.3773 6.91607L14.3753 6.91406L3.76562 17.5687Z" fill="#70777C"/>
<path fill-rule="evenodd" clip-rule="evenodd" d="M13.488 11.2955L3.76562 21.0609L4.65293 21.9501L14.3753 12.1847L22.1573 20.003L23.0426 19.1118L15.2606 11.2955L14.3753 10.4062L13.488 11.2955Z" fill="#70777C"/>
<path fill-rule="evenodd" clip-rule="evenodd" d="M3.76562 14.0687L4.65293 14.9599L14.3753 5.19452L22.0853 12.9386L22.9726 12.0494L15.2607 4.30329L14.3853 3.4241L14.3753 3.41406L3.76562 14.0687Z" fill="#70777C"/>
<path fill-rule="evenodd" clip-rule="evenodd" d="M96.0526 22.7868V20.3982L92.2655 20.3861C91.4821 20.3841 90.8886 20.1513 90.431 19.6735C89.8574 19.0734 89.7095 18.3246 89.7095 16.1488V15.4161C89.7095 14.1074 89.7095 12.6802 90.431 11.9295C90.8846 11.4477 91.5021 11.2169 92.2655 11.2169H96.0526V8.84829L92.2655 8.82822C90.6788 8.82019 89.3178 9.3481 88.2866 10.3317C87.1535 11.4116 86.8438 12.5076 86.8438 15.2435V15.8015C86.8438 18.0938 86.8438 19.9024 88.2866 21.2713C89.3198 22.2529 90.6987 22.7728 92.2855 22.7768L96.0506 22.7848L96.0526 22.7868Z" fill="#C31830"/>
<path fill-rule="evenodd" clip-rule="evenodd" d="M71.1059 22.659V8.94531H60.4062V22.659H63.272V11.334H68.2401V22.659H71.1059Z" fill="#C31830"/>
<path fill-rule="evenodd" clip-rule="evenodd" d="M57.3622 20.2403V8.94531H54.988L50.7853 15.6195V8.94531H48.1953V20.2403H50.5295L54.7322 13.548V20.2403H57.3622Z" fill="#C31830"/>
<path fill-rule="evenodd" clip-rule="evenodd" d="M41.3721 20.2724H36.7138C37.6211 17.96 38.2386 15.8423 38.2386 11.7776V11.334H41.3721V20.2724ZM45.9286 22.6871V20.2724H44.2379V8.94531H35.4148V9.56155C35.4148 14.8387 34.8992 17.5545 33.7441 20.2704H32.2812V22.6851H45.9286V22.6871Z" fill="#C31830"/>
<path fill-rule="evenodd" clip-rule="evenodd" d="M81.5203 15.5505C81.5203 18.3426 81.3964 19.0171 80.7989 19.6534C80.3452 20.1351 79.7057 20.386 78.9643 20.386C78.2229 20.386 77.6034 20.117 77.1097 19.6534C76.3263 18.9207 76.4083 17.2848 76.4083 15.6087C76.4083 13.9326 76.4503 12.6239 77.1097 11.9494C77.5634 11.4677 78.2229 11.2168 78.9643 11.2168C79.7057 11.2168 80.3452 11.4677 80.7989 11.9494C81.3764 12.5456 81.5203 13.2983 81.5203 15.5505ZM84.3861 15.8014V14.8379C84.3861 12.6219 83.9524 11.3131 82.9212 10.3316C81.89 9.35002 80.5291 8.82812 78.9623 8.82812C77.3955 8.82812 76.0146 9.34801 74.9834 10.3316C73.8503 11.4095 73.5405 12.5075 73.5405 15.2434V15.9941C73.5405 17.5156 73.4366 19.7879 74.9834 21.2712C76.0146 22.2528 77.3755 22.7767 78.9623 22.7767C80.5491 22.7767 81.89 22.2729 82.9212 21.2712C84.488 19.7497 84.3861 17.7645 84.3861 15.8014Z" fill="#C31830"/>
</svg>
