<svg width="138" height="44" viewBox="0 0 138 44" fill="none" xmlns="http://www.w3.org/2000/svg">
<path fill-rule="evenodd" clip-rule="evenodd" d="M34.3903 19.3008L33.173 18.0781L19.8047 31.5028L9.06886 20.7194L7.85156 21.9421L18.5874 32.7282L19.802 33.9482L19.8047 33.9509L34.3903 19.3008Z" fill="#70777C"/>
<path fill-rule="evenodd" clip-rule="evenodd" d="M21.0252 27.9235L34.3935 14.4961L33.1762 13.2734L19.8079 26.7009L9.06105 15.9037L7.84375 17.1292L18.5906 27.9235L19.8079 29.1462L21.0252 27.9235Z" fill="#70777C"/>
<path fill-rule="evenodd" clip-rule="evenodd" d="M34.3887 24.1083L33.1714 22.8828L19.8031 36.3102L8.99855 25.4579L7.78125 26.6833L18.5858 37.5357L19.7894 38.7446L19.8031 38.7584L34.3887 24.1083Z" fill="#70777C"/>
<path fill-rule="evenodd" clip-rule="evenodd" d="M5.17969 24.1501L6.39974 25.3728L19.768 11.9454L30.4654 22.6928L31.6855 21.4701L20.9853 10.7227L19.7708 9.50276L19.768 9.5L5.17969 24.1501Z" fill="#70777C"/>
<path fill-rule="evenodd" clip-rule="evenodd" d="M18.548 15.5352L5.17969 28.9626L6.39974 30.1853L19.768 16.7579L30.4682 27.5081L31.6855 26.2826L20.9853 15.5352L19.768 14.3125L18.548 15.5352Z" fill="#70777C"/>
<path fill-rule="evenodd" clip-rule="evenodd" d="M5.17969 19.3454L6.39974 20.5709L19.768 7.14344L30.3693 17.7915L31.5893 16.5689L20.9853 5.91799L19.7818 4.70911L19.768 4.69531L5.17969 19.3454Z" fill="#70777C"/>
<path fill-rule="evenodd" clip-rule="evenodd" d="M132.068 31.3338V28.0494L126.861 28.0329C125.784 28.0301 124.968 27.7099 124.339 27.0531C123.55 26.2278 123.347 25.1983 123.347 22.2065V21.1991C123.347 19.3996 123.347 17.4372 124.339 16.405C124.962 15.7426 125.811 15.4252 126.861 15.4252H132.068V12.1683L126.861 12.1407C124.679 12.1297 122.808 12.8556 121.39 14.208C119.832 15.6929 119.406 17.1998 119.406 20.9617V21.729C119.406 24.8809 119.406 27.3677 121.39 29.25C122.811 30.5997 124.707 31.3145 126.889 31.32L132.066 31.3311L132.068 31.3338Z" fill="#C31830"/>
<path fill-rule="evenodd" clip-rule="evenodd" d="M97.7667 31.1532V12.2969H83.0547V31.1532H86.9951V15.5813H93.8263V31.1532H97.7667Z" fill="#C31830"/>
<path fill-rule="evenodd" clip-rule="evenodd" d="M78.87 27.8274V12.2969H75.6056L69.8268 21.4739V12.2969H66.2656V27.8274H69.4751L75.2539 18.6256V27.8274H78.87Z" fill="#C31830"/>
<path fill-rule="evenodd" clip-rule="evenodd" d="M56.8828 27.8716H50.4776C51.7251 24.6921 52.5742 21.7803 52.5742 16.1912V15.5813H56.8828V27.8716ZM63.1479 31.1919V27.8716H60.8232V12.2969H48.6914V13.1442C48.6914 20.4002 47.9825 24.1345 46.3942 27.8688H44.3828V31.1891H63.1479V31.1919Z" fill="#C31830"/>
<path fill-rule="evenodd" clip-rule="evenodd" d="M112.084 21.3839C112.084 25.2231 111.913 26.1504 111.092 27.0253C110.468 27.6877 109.589 28.0327 108.569 28.0327C107.55 28.0327 106.698 27.6629 106.019 27.0253C104.942 26.0179 105.055 23.7685 105.055 21.4639C105.055 19.1593 105.112 17.3598 106.019 16.4324C106.643 15.77 107.55 15.425 108.569 15.425C109.589 15.425 110.468 15.77 111.092 16.4324C111.886 17.2522 112.084 18.2872 112.084 21.3839ZM116.024 21.7289V20.4041C116.024 17.357 115.428 15.5575 114.01 14.2079C112.592 12.8582 110.721 12.1406 108.566 12.1406C106.412 12.1406 104.513 12.8555 103.095 14.2079C101.537 15.69 101.111 17.1997 101.111 20.9616V21.9938C101.111 24.0859 100.968 27.2103 103.095 29.2499C104.513 30.5995 106.385 31.3199 108.566 31.3199C110.748 31.3199 112.592 30.6271 114.01 29.2499C116.164 27.1578 116.024 24.4282 116.024 21.7289Z" fill="#C31830"/>
<path d="M132.064 9.13916V4.61275H131.575L129.113 8.30012V4.61275H128.596V9.13916H129.085L131.548 5.44627V9.13916H132.064ZM131.418 3.49219H131.031C130.957 3.75991 130.767 3.96139 130.336 3.96139C129.904 3.96139 129.709 3.75715 129.635 3.49219H129.248C129.357 4.03867 129.717 4.32571 130.336 4.32571C130.954 4.32571 131.308 4.03867 131.418 3.49219ZM125.497 9.13916V4.61275H125.008L122.546 8.30012V4.61275H122.029V9.13916H122.518L124.98 5.44627V9.13916H125.497ZM118.932 9.13916V4.61275H118.415V6.64135H116.116V4.61275H115.599V9.13916H116.116V7.07191H118.415V9.13916H118.932ZM112.032 7.69567H110.221L111.134 5.30551L112.032 7.69567ZM113.12 9.13916L111.345 4.61275H110.911L109.128 9.13916H109.68L110.068 8.1152H112.183L112.571 9.13916H113.123H113.12ZM106.644 9.13916V4.61275H103.316V9.13916H103.833V5.04607H106.124V9.13916H106.641H106.644ZM100.222 9.13916V4.61275H99.7054L98.1666 7.82264L96.5893 4.61275H96.0727V9.13916H96.5893V5.70019L97.9357 8.42708H98.3781L99.7054 5.70019V9.13916H100.222ZM92.6406 6.87595C92.6406 7.48039 92.6818 8.06552 92.2999 8.42156C92.0746 8.63132 91.7833 8.74448 91.4645 8.74448C91.1458 8.74448 90.8518 8.63132 90.6264 8.42156C90.2445 8.06552 90.2857 7.48039 90.2857 6.87595C90.2857 6.18871 90.2582 5.67535 90.6264 5.33035C90.8518 5.12059 91.1513 5.00743 91.4645 5.00743C91.7778 5.00743 92.0773 5.12059 92.2999 5.33035C92.6681 5.67259 92.6406 6.24667 92.6406 6.87595ZM93.1572 6.87595C93.1572 6.23287 93.2039 5.51527 92.7011 5.04607C92.3741 4.73971 91.9399 4.57687 91.4618 4.57687C90.9837 4.57687 90.5495 4.74247 90.2225 5.04607C89.7197 5.51527 89.7664 6.23563 89.7664 6.87595C89.7664 7.77848 89.7801 8.2946 90.2225 8.70584C90.5495 9.00944 90.9782 9.1778 91.4618 9.1778C91.9454 9.1778 92.3741 9.0122 92.7011 8.70584C93.1435 8.29184 93.1572 7.77848 93.1572 6.87595ZM87.4637 9.13916L85.7215 6.35983L87.2466 4.61275H86.6146L84.3558 7.21267V4.61275H83.8392V9.13916H84.3558V7.87508L85.3753 6.72967L86.8509 9.13916H87.4637ZM76.192 7.73432H74.3811L75.2934 5.34415L76.192 7.73432ZM77.2801 9.1778L75.505 4.65139H75.0709L73.2875 9.1778H73.8398L74.2273 8.15384H76.3431L76.7305 9.1778H77.2829H77.2801ZM70.8034 9.1778V4.65139H67.4758V9.1778H67.9924V5.08471H70.2841V9.1778H70.8007H70.8034ZM64.3735 9.1778V4.65139H61.0458V9.1778H61.5624V5.08471H63.8541V9.1778H64.3707H64.3735ZM58.5892 4.65139H58.0369L56.8608 7.32859L55.5556 4.65139H55.0033L56.6025 7.86956L56.4047 8.2946C56.2618 8.60648 56.0997 8.74724 55.7644 8.74724H55.4594V9.18056H55.8826C56.3662 9.18056 56.6437 8.888 56.8361 8.474L58.592 4.65415L58.5892 4.65139ZM50.1725 6.88147V5.08195H51.4118C52.0576 5.08195 52.4395 5.41315 52.4395 5.97895C52.4395 6.54475 52.0576 6.88147 51.4118 6.88147H50.1725ZM49.6559 4.65139V9.1778H50.1725V7.31479H51.4585C52.3571 7.31479 52.9561 6.77935 52.9561 5.97895C52.9561 5.17855 52.3571 4.65139 51.4585 4.65139H49.6559ZM47.2955 5.08471V4.65139H44.3828V9.1778H44.8994V5.08471H47.2955Z" fill="#70777C"/>
<path d="M131.69 36.4509C131.69 36.9864 131.726 37.5025 131.391 37.8172C131.193 38.0021 130.932 38.1042 130.649 38.1042C130.366 38.1042 130.108 38.0021 129.907 37.8172C129.569 37.5025 129.605 36.9836 129.605 36.4509C129.605 35.8437 129.58 35.3883 129.907 35.0847C130.105 34.8998 130.371 34.7977 130.649 34.7977C130.926 34.7977 131.19 34.8998 131.391 35.0847C131.715 35.3883 131.69 35.8962 131.69 36.4509ZM132.149 36.4509C132.149 35.8824 132.19 35.2476 131.745 34.8308C131.457 34.5603 131.069 34.4141 130.649 34.4141C130.229 34.4141 129.841 34.5603 129.553 34.8308C129.107 35.2476 129.149 35.8824 129.149 36.4509C129.149 37.2514 129.16 37.7067 129.553 38.0711C129.841 38.3416 130.22 38.4878 130.649 38.4878C131.078 38.4878 131.457 38.3416 131.745 38.0711C132.136 37.7067 132.149 37.2486 132.149 36.4509ZM124.659 38.0738V36.6055H125.826C126.357 36.6055 126.687 36.887 126.687 37.3369C126.687 37.7868 126.354 38.0738 125.826 38.0738H124.659ZM124.659 36.2219V34.8308H125.78C126.31 34.8308 126.623 35.0903 126.623 35.5236C126.623 35.9569 126.31 36.2219 125.78 36.2219H124.659ZM126.447 36.3957C126.61 36.3267 126.676 36.2936 126.766 36.2108C126.972 36.0314 127.079 35.7885 127.079 35.5015C127.079 34.8722 126.574 34.4499 125.815 34.4499H124.202V38.4575H125.87C126.665 38.4575 127.148 38.0407 127.148 37.359C127.148 37.0554 127.041 36.807 126.829 36.6165C126.728 36.5199 126.648 36.4758 126.45 36.3985L126.447 36.3957ZM122.045 34.8308V34.4472H119.105V34.8308H120.344V38.4547H120.803V34.8308H122.045ZM117.195 37.9993L116.888 37.7123C116.621 37.9551 116.388 38.107 116.003 38.107C115.701 38.107 115.442 38.0104 115.25 37.8254C115.008 37.6019 114.948 37.3424 114.948 36.6055V36.4537C114.948 35.8023 114.959 35.358 115.25 35.082C115.442 34.9026 115.709 34.8005 116.003 34.8005C116.388 34.8005 116.624 34.9523 116.888 35.1951L117.195 34.9081C116.816 34.5879 116.519 34.4196 115.997 34.4196C115.569 34.4196 115.184 34.5659 114.896 34.8363C114.481 35.2255 114.492 35.6919 114.492 36.4565C114.492 37.1023 114.467 37.6709 114.896 38.0766C115.184 38.3471 115.571 38.4934 116.003 38.4934C116.519 38.4934 116.822 38.3167 117.195 38.0021V37.9993ZM111.914 38.4547V34.4472H111.455V36.2412H109.419V34.4472H108.96V38.4547H109.419V36.6248H111.455V38.4547H111.914ZM105.759 36.4233H104.662C104.091 36.4233 103.753 36.1308 103.753 35.6229C103.753 35.1151 104.091 34.8308 104.662 34.8308H105.759V36.4233ZM106.223 38.4547V34.4472H104.627C103.833 34.4472 103.302 34.9191 103.302 35.6229C103.302 36.197 103.651 36.6138 104.217 36.7435L103.231 38.4547H103.772L104.701 36.807H105.762V38.4547H106.226H106.223ZM100.478 36.4509C100.478 36.9864 100.513 37.5025 100.175 37.8172C99.9774 38.0021 99.7164 38.1042 99.4333 38.1042C99.1503 38.1042 98.892 38.0021 98.6914 37.8172C98.3534 37.5025 98.3891 36.9836 98.3891 36.4509C98.3891 35.8437 98.3644 35.3883 98.6914 35.0847C98.8893 34.8998 99.1558 34.7977 99.4333 34.7977C99.7109 34.7977 99.9747 34.8998 100.175 35.0847C100.499 35.3883 100.478 35.8962 100.478 36.4509ZM100.934 36.4509C100.934 35.8824 100.975 35.2476 100.53 34.8308C100.241 34.5603 99.8565 34.4141 99.4333 34.4141C99.0102 34.4141 98.6255 34.5603 98.3369 34.8308C97.8918 35.2476 97.933 35.8824 97.933 36.4509C97.933 37.2514 97.944 37.7067 98.3369 38.0711C98.6255 38.3416 99.0047 38.4878 99.4333 38.4878C99.862 38.4878 100.241 38.3416 100.53 38.0711C100.923 37.7067 100.934 37.2486 100.934 36.4509ZM95.9408 34.8308V34.4472H93.0006V34.8308H94.2399V38.4547H94.6988V34.8308H95.9408ZM91.0936 37.9993L90.7858 37.7123C90.5193 37.9551 90.2857 38.107 89.901 38.107C89.5988 38.107 89.3405 38.0104 89.1481 37.8254C88.9063 37.6019 88.8458 37.3424 88.8458 36.6055V36.4537C88.8458 35.8023 88.8568 35.358 89.1481 35.082C89.3405 34.9026 89.607 34.8005 89.901 34.8005C90.2857 34.8005 90.522 34.9523 90.7858 35.1951L91.0936 34.9081C90.7144 34.5879 90.4204 34.4196 89.8955 34.4196C89.4669 34.4196 89.0822 34.5659 88.7936 34.8363C88.3787 35.2255 88.3897 35.6919 88.3897 36.4565C88.3897 37.1023 88.365 37.6709 88.7936 38.0766C89.0822 38.3471 89.4669 38.4934 89.901 38.4934C90.4204 38.4934 90.7199 38.3167 91.0936 38.0021V37.9993ZM85.5154 36.4509C85.5154 36.9864 85.5512 37.5025 85.2132 37.8172C85.0153 38.0021 84.7543 38.1042 84.4713 38.1042C84.1882 38.1042 83.9299 38.0021 83.7293 37.8172C83.3914 37.5025 83.4271 36.9836 83.4271 36.4509C83.4271 35.8437 83.4023 35.3883 83.7293 35.0847C83.9272 34.8998 84.1937 34.7977 84.4713 34.7977C84.7488 34.7977 85.0126 34.8998 85.2132 35.0847C85.5374 35.3883 85.5154 35.8962 85.5154 36.4509ZM85.9743 36.4509C85.9743 35.8824 86.0156 35.2476 85.5704 34.8308C85.2819 34.5603 84.8972 34.4141 84.474 34.4141C84.0508 34.4141 83.6661 34.5603 83.3776 34.8308C82.9325 35.2476 82.9737 35.8824 82.9737 36.4509C82.9737 37.2514 82.9847 37.7067 83.3776 38.0711C83.6661 38.3416 84.0453 38.4878 84.474 38.4878C84.9027 38.4878 85.2819 38.3416 85.5704 38.0711C85.9633 37.7067 85.9743 37.2486 85.9743 36.4509ZM80.3907 38.4547V34.4472H77.445V38.4547H77.9039V34.8308H79.9346V38.4547H80.3934H80.3907ZM72.3422 38.4547V34.4472H71.9081L69.729 37.7123V34.4472H69.2701V38.4547H69.7043L71.8833 35.1841V38.4547H72.3422ZM63.6865 36.4509C63.6865 36.9864 63.7222 37.5025 63.387 37.8172C63.1891 38.0021 62.9281 38.1042 62.6451 38.1042C62.362 38.1042 62.1037 38.0021 61.9059 37.8172C61.5679 37.5025 61.6036 36.9836 61.6036 36.4509C61.6036 35.8437 61.5789 35.3883 61.9059 35.0847C62.1037 34.8998 62.3703 34.7977 62.6451 34.7977C62.9198 34.7977 63.1864 34.8998 63.387 35.0847C63.7112 35.3883 63.6865 35.8962 63.6865 36.4509ZM64.1454 36.4509C64.1454 35.8824 64.1866 35.2476 63.7414 34.8308C63.4529 34.5603 63.0655 34.4141 62.6451 34.4141C62.2246 34.4141 61.8372 34.5603 61.5487 34.8308C61.1035 35.2476 61.1447 35.8824 61.1447 36.4509C61.1447 37.2514 61.1557 37.7067 61.5487 38.0711C61.8372 38.3416 62.2164 38.4878 62.6451 38.4878C63.0737 38.4878 63.4529 38.3416 63.7414 38.0711C64.1316 37.7067 64.1454 37.2486 64.1454 36.4509ZM58.5617 38.4547V34.4472H56.2316L56.1656 36.5006C56.1244 37.8337 55.7919 38.0711 55.2671 38.0711H55.1049V38.4547H55.377C56.1848 38.4547 56.5695 37.9662 56.619 36.6248L56.685 34.8308H58.1056V38.4547H58.5645H58.5617ZM53.165 38.4547V38.0711H50.9612V36.6248H52.8407V36.2412H50.9612V34.8281H53.165V34.4444H50.5023V38.452H53.165V38.4547ZM47.1664 38.0738H45.3061C45.6551 37.2403 45.7952 36.6993 45.7952 35.1068V34.8308H47.1691V38.0711L47.1664 38.0738ZM48.1364 39.4814V38.0738H47.6253V34.4499H45.3363V34.7591C45.3363 36.5144 45.2154 37.1961 44.817 38.0738H44.3828V39.4814H44.8335V38.4575H47.683V39.4814H48.1336H48.1364Z" fill="#70777C"/>
</svg>
