<svg width="221" height="70" viewBox="0 0 221 70" fill="none" xmlns="http://www.w3.org/2000/svg">
<path fill-rule="evenodd" clip-rule="evenodd" d="M55.0708 30.7108L53.1214 28.7656L31.7127 50.123L14.5198 32.9677L12.5703 34.9129L29.7633 52.0726L31.7083 54.0134L31.7127 54.0178L55.0708 30.7108Z" fill="#70777C"/>
<path fill-rule="evenodd" clip-rule="evenodd" d="M33.6641 44.4242L55.0728 23.0624L53.1234 21.1172L31.7147 42.479L14.5041 25.3017L12.5547 27.2513L29.7652 44.4242L31.7147 46.3694L33.6641 44.4242Z" fill="#70777C"/>
<path fill-rule="evenodd" clip-rule="evenodd" d="M55.0715 38.3636L53.122 36.4141L31.7133 57.7759L14.4104 40.5108L12.4609 42.4604L29.7639 59.7254L31.6913 61.6487L31.7133 61.6706L55.0715 38.3636Z" fill="#70777C"/>
<path fill-rule="evenodd" clip-rule="evenodd" d="M8.28906 38.432L10.2429 40.3772L31.6516 19.0154L48.7829 36.1136L50.7368 34.1684L33.601 17.0702L31.656 15.1294L31.6516 15.125L8.28906 38.432Z" fill="#70777C"/>
<path fill-rule="evenodd" clip-rule="evenodd" d="M29.6977 24.7186L8.28906 46.0804L10.2429 48.0256L31.6516 26.6638L48.7873 43.7664L50.7368 41.8168L33.601 24.7186L31.6516 22.7734L29.6977 24.7186Z" fill="#70777C"/>
<path fill-rule="evenodd" clip-rule="evenodd" d="M8.28906 30.7835L10.2429 32.7331L31.6516 11.3713L48.6289 28.3115L50.5827 26.3663L33.601 9.42174L31.6736 7.49852L31.6516 7.47656L8.28906 30.7835Z" fill="#70777C"/>
<path fill-rule="evenodd" clip-rule="evenodd" d="M211.496 49.8549V44.6298L203.157 44.6034C201.432 44.599 200.125 44.0897 199.118 43.0446C197.855 41.7318 197.529 40.0939 197.529 35.3342V33.7315C197.529 30.8686 197.529 27.7467 199.118 26.1045C200.117 25.0507 201.476 24.5457 203.157 24.5457H211.496V19.3644L203.157 19.3205C199.663 19.3029 196.667 20.4578 194.396 22.6093C191.901 24.9716 191.219 27.3691 191.219 33.3539V34.5746C191.219 39.589 191.219 43.5452 194.396 46.5398C196.671 48.687 199.707 49.8242 203.201 49.833L211.492 49.8506L211.496 49.8549Z" fill="#C31830"/>
<path fill-rule="evenodd" clip-rule="evenodd" d="M156.561 49.5769V19.5781H133V49.5769H139.31V24.8033H150.25V49.5769H156.561Z" fill="#C31830"/>
<path fill-rule="evenodd" clip-rule="evenodd" d="M126.295 44.2858V19.5781H121.067L111.812 34.1779V19.5781H106.109V44.2858H111.249L120.504 29.6465V44.2858H126.295Z" fill="#C31830"/>
<path fill-rule="evenodd" clip-rule="evenodd" d="M91.0884 44.3483H80.8307C82.8286 39.2899 84.1884 34.6575 84.1884 25.7659V24.7955H91.0884V44.3483ZM101.122 49.6305V44.3483H97.3988V19.5703H77.9704V20.9183C77.9704 32.462 76.835 38.403 74.2915 44.3439H71.0703V49.6261H101.122V49.6305Z" fill="#C31830"/>
<path fill-rule="evenodd" clip-rule="evenodd" d="M179.489 34.0255C179.489 40.1333 179.216 41.6086 177.9 43.0005C176.901 44.0543 175.493 44.6032 173.86 44.6032C172.228 44.6032 170.864 44.0148 169.777 43.0005C168.052 41.3978 168.232 37.8192 168.232 34.1528C168.232 30.4864 168.324 27.6235 169.777 26.1482C170.776 25.0944 172.228 24.5455 173.86 24.5455C175.493 24.5455 176.901 25.0944 177.9 26.1482C179.172 27.4523 179.489 29.0989 179.489 34.0255ZM185.799 34.5744V32.4667C185.799 27.6191 184.844 24.7563 182.573 22.6091C180.303 20.462 177.306 19.3203 173.856 19.3203C170.406 19.3203 167.365 20.4576 165.094 22.6091C162.599 24.967 161.917 27.3689 161.917 33.3537V34.9959C161.917 38.3242 161.688 43.2947 165.094 46.5396C167.365 48.6868 170.362 49.8328 173.856 49.8328C177.35 49.8328 180.303 48.7307 182.573 46.5396C186.023 43.2113 185.799 38.8687 185.799 34.5744Z" fill="#C31830"/>
<path d="M211.487 14.5463V7.34521H210.704L206.761 13.2115V7.34521H205.934V14.5463H206.717L210.66 8.67127V14.5463H211.487ZM210.453 5.5625H209.833C209.714 5.98842 209.41 6.30896 208.719 6.30896C208.029 6.30896 207.716 5.98403 207.597 5.5625H206.977C207.153 6.4319 207.729 6.88856 208.719 6.88856C209.71 6.88856 210.277 6.4319 210.453 5.5625ZM200.97 14.5463V7.34521H200.187L196.244 13.2115V7.34521H195.417V14.5463H196.2L200.143 8.67127V14.5463H200.97ZM190.457 14.5463V7.34521H189.63V10.5725H185.947V7.34521H185.119V14.5463H185.947V11.2575H189.63V14.5463H190.457ZM179.407 12.2499H176.507L177.968 8.44733L179.407 12.2499ZM181.15 14.5463L178.307 7.34521H177.612L174.756 14.5463H175.641L176.261 12.9173H179.649L180.27 14.5463H181.154H181.15ZM170.778 14.5463V7.34521H165.449V14.5463H166.276V8.03459H169.946V14.5463H170.774H170.778ZM160.494 14.5463V7.34521H159.667L157.202 12.4518L154.676 7.34521H153.849V14.5463H154.676V9.07523L156.833 13.4135H157.541L159.667 9.07523V14.5463H160.494ZM148.353 10.9458C148.353 11.9074 148.419 12.8383 147.807 13.4047C147.446 13.7384 146.98 13.9184 146.469 13.9184C145.959 13.9184 145.488 13.7384 145.127 13.4047C144.515 12.8383 144.581 11.9074 144.581 10.9458C144.581 9.85243 144.537 9.03572 145.127 8.48685C145.488 8.15314 145.968 7.97311 146.469 7.97311C146.971 7.97311 147.451 8.15314 147.807 8.48685C148.397 9.03132 148.353 9.94464 148.353 10.9458ZM149.18 10.9458C149.18 9.92268 149.255 8.78104 148.45 8.03459C147.926 7.54719 147.231 7.28813 146.465 7.28813C145.699 7.28813 145.004 7.55159 144.48 8.03459C143.675 8.78104 143.75 9.92707 143.75 10.9458C143.75 12.3816 143.772 13.2027 144.48 13.8569C145.004 14.3399 145.69 14.6078 146.465 14.6078C147.239 14.6078 147.926 14.3443 148.45 13.8569C149.158 13.1983 149.18 12.3816 149.18 10.9458ZM140.062 14.5463L137.272 10.1247L139.714 7.34521H138.702L135.085 11.4815V7.34521H134.258V14.5463H135.085V12.5353L136.718 10.713L139.081 14.5463H140.062ZM122.011 12.3113H119.111L120.572 8.50881L122.011 12.3113ZM123.754 14.6078L120.911 7.40669H120.216L117.36 14.6078H118.244L118.865 12.9788H122.253L122.874 14.6078H123.758H123.754ZM113.382 14.6078V7.40669H108.053V14.6078H108.88V8.09606H112.55V14.6078H113.377H113.382ZM103.084 14.6078V7.40669H97.7552V14.6078H98.5825V8.09606H102.253V14.6078H103.08H103.084ZM93.8211 7.40669H92.9366L91.0532 11.6659L88.9629 7.40669H88.0784L90.6396 12.5265L90.3227 13.2027C90.0939 13.6989 89.8343 13.9228 89.2974 13.9228H88.8089V14.6122H89.4866C90.2611 14.6122 90.7056 14.1467 91.0136 13.4881L93.8255 7.41108L93.8211 7.40669ZM80.3423 10.9545V8.09167H82.3269C83.361 8.09167 83.9727 8.61858 83.9727 9.51872C83.9727 10.4189 83.361 10.9545 82.3269 10.9545H80.3423ZM79.515 7.40669V14.6078H80.3423V11.6439H82.4017C83.8407 11.6439 84.8 10.7921 84.8 9.51872C84.8 8.24535 83.8407 7.40669 82.4017 7.40669H79.515ZM75.7349 8.09606V7.40669H71.0703V14.6078H71.8976V8.09606H75.7349Z" fill="#70777C"/>
<path d="M210.889 57.9983C210.889 58.8501 210.946 59.6712 210.409 60.1718C210.092 60.466 209.674 60.6285 209.221 60.6285C208.768 60.6285 208.354 60.466 208.033 60.1718C207.492 59.6712 207.549 58.8458 207.549 57.9983C207.549 57.0323 207.509 56.3078 208.033 55.8248C208.35 55.5306 208.777 55.3681 209.221 55.3681C209.666 55.3681 210.088 55.5306 210.409 55.8248C210.929 56.3078 210.889 57.1157 210.889 57.9983ZM211.624 57.9983C211.624 57.0938 211.69 56.0839 210.977 55.4208C210.515 54.9905 209.894 54.7578 209.221 54.7578C208.548 54.7578 207.927 54.9905 207.465 55.4208C206.752 56.0839 206.818 57.0938 206.818 57.9983C206.818 59.2717 206.836 59.9962 207.465 60.5758C207.927 61.0061 208.535 61.2388 209.221 61.2388C209.908 61.2388 210.515 61.0061 210.977 60.5758C211.602 59.9962 211.624 59.2673 211.624 57.9983ZM199.628 60.5802V58.2442H201.498C202.348 58.2442 202.876 58.6921 202.876 59.4078C202.876 60.1235 202.343 60.5802 201.498 60.5802H199.628ZM199.628 57.6339V55.4208H201.423C202.273 55.4208 202.774 55.8336 202.774 56.523C202.774 57.2123 202.273 57.6339 201.423 57.6339H199.628ZM202.493 57.9105C202.752 57.8007 202.858 57.748 203.003 57.6163C203.333 57.3309 203.505 56.9445 203.505 56.4878C203.505 55.4867 202.695 54.8149 201.481 54.8149H198.897V61.1905H201.569C202.84 61.1905 203.615 60.5275 203.615 59.4429C203.615 58.9599 203.443 58.5647 203.104 58.2618C202.942 58.1081 202.814 58.0378 202.497 57.9149L202.493 57.9105ZM195.443 55.4208V54.8105H190.734V55.4208H192.719V61.1861H193.454V55.4208H195.443ZM187.676 60.4616L187.183 60.005C186.756 60.3914 186.382 60.6329 185.766 60.6329C185.282 60.6329 184.869 60.4792 184.56 60.185C184.173 59.8293 184.076 59.4166 184.076 58.2442V58.0027C184.076 56.9664 184.094 56.2595 184.56 55.8204C184.869 55.535 185.295 55.3725 185.766 55.3725C186.382 55.3725 186.761 55.614 187.183 56.0004L187.676 55.5438C187.069 55.0344 186.594 54.7666 185.757 54.7666C185.071 54.7666 184.455 54.9993 183.993 55.4296C183.328 56.0487 183.346 56.7908 183.346 58.0071C183.346 59.0346 183.306 59.9391 183.993 60.5846C184.455 61.0149 185.075 61.2476 185.766 61.2476C186.594 61.2476 187.078 60.9666 187.676 60.466V60.4616ZM179.218 61.1861V54.8105H178.483V57.6646H175.223V54.8105H174.488V61.1861H175.223V58.2749H178.483V61.1861H179.218ZM169.361 57.9544H167.605C166.69 57.9544 166.149 57.489 166.149 56.681C166.149 55.8731 166.69 55.4208 167.605 55.4208H169.361V57.9544ZM170.105 61.1861V54.8105H167.548C166.276 54.8105 165.427 55.5614 165.427 56.681C165.427 57.5943 165.986 58.2574 166.892 58.4637L165.312 61.1861H166.179L167.667 58.5647H169.365V61.1861H170.109H170.105ZM160.903 57.9983C160.903 58.8501 160.96 59.6712 160.419 60.1718C160.102 60.466 159.684 60.6285 159.231 60.6285C158.778 60.6285 158.364 60.466 158.043 60.1718C157.502 59.6712 157.559 58.8458 157.559 57.9983C157.559 57.0323 157.519 56.3078 158.043 55.8248C158.36 55.5306 158.786 55.3681 159.231 55.3681C159.675 55.3681 160.098 55.5306 160.419 55.8248C160.938 56.3078 160.903 57.1157 160.903 57.9983ZM161.634 57.9983C161.634 57.0938 161.7 56.0839 160.987 55.4208C160.525 54.9905 159.909 54.7578 159.231 54.7578C158.553 54.7578 157.937 54.9905 157.475 55.4208C156.762 56.0839 156.828 57.0938 156.828 57.9983C156.828 59.2717 156.846 59.9962 157.475 60.5758C157.937 61.0061 158.544 61.2388 159.231 61.2388C159.917 61.2388 160.525 61.0061 160.987 60.5758C161.616 59.9962 161.634 59.2673 161.634 57.9983ZM153.638 55.4208V54.8105H148.929V55.4208H150.914V61.1861H151.649V55.4208H153.638ZM145.875 60.4616L145.382 60.005C144.956 60.3914 144.581 60.6329 143.965 60.6329C143.481 60.6329 143.068 60.4792 142.76 60.185C142.372 59.8293 142.276 59.4166 142.276 58.2442V58.0027C142.276 56.9664 142.293 56.2595 142.76 55.8204C143.068 55.535 143.495 55.3725 143.965 55.3725C144.581 55.3725 144.96 55.614 145.382 56.0004L145.875 55.5438C145.268 55.0344 144.797 54.7666 143.957 54.7666C143.27 54.7666 142.654 54.9993 142.192 55.4296C141.528 56.0487 141.545 56.7908 141.545 58.0071C141.545 59.0346 141.506 59.9391 142.192 60.5846C142.654 61.0149 143.27 61.2476 143.965 61.2476C144.797 61.2476 145.277 60.9666 145.875 60.466V60.4616ZM136.942 57.9983C136.942 58.8501 136.999 59.6712 136.458 60.1718C136.141 60.466 135.723 60.6285 135.27 60.6285C134.817 60.6285 134.403 60.466 134.082 60.1718C133.541 59.6712 133.598 58.8458 133.598 57.9983C133.598 57.0323 133.558 56.3078 134.082 55.8248C134.399 55.5306 134.825 55.3681 135.27 55.3681C135.714 55.3681 136.137 55.5306 136.458 55.8248C136.977 56.3078 136.942 57.1157 136.942 57.9983ZM137.677 57.9983C137.677 57.0938 137.743 56.0839 137.03 55.4208C136.568 54.9905 135.952 54.7578 135.274 54.7578C134.597 54.7578 133.981 54.9905 133.519 55.4208C132.806 56.0839 132.872 57.0938 132.872 57.9983C132.872 59.2717 132.889 59.9962 133.519 60.5758C133.981 61.0061 134.588 61.2388 135.274 61.2388C135.961 61.2388 136.568 61.0061 137.03 60.5758C137.659 59.9962 137.677 59.2673 137.677 57.9983ZM128.735 61.1861V54.8105H124.018V61.1861H124.753V55.4208H128.005V61.1861H128.74H128.735ZM115.846 61.1861V54.8105H115.151L111.661 60.005V54.8105H110.926V61.1861H111.621L115.111 55.9829V61.1861H115.846ZM101.984 57.9983C101.984 58.8501 102.041 59.6712 101.505 60.1718C101.188 60.466 100.77 60.6285 100.316 60.6285C99.8631 60.6285 99.4495 60.466 99.1326 60.1718C98.5914 59.6712 98.6486 58.8458 98.6486 57.9983C98.6486 57.0323 98.609 56.3078 99.1326 55.8248C99.4495 55.5306 99.8763 55.3681 100.316 55.3681C100.756 55.3681 101.183 55.5306 101.505 55.8248C102.024 56.3078 101.984 57.1157 101.984 57.9983ZM102.719 57.9983C102.719 57.0938 102.785 56.0839 102.072 55.4208C101.61 54.9905 100.99 54.7578 100.316 54.7578C99.6431 54.7578 99.0226 54.9905 98.5605 55.4208C97.8477 56.0839 97.9137 57.0938 97.9137 57.9983C97.9137 59.2717 97.9313 59.9962 98.5605 60.5758C99.0226 61.0061 99.6299 61.2388 100.316 61.2388C101.003 61.2388 101.61 61.0061 102.072 60.5758C102.697 59.9962 102.719 59.2673 102.719 57.9983ZM93.7772 61.1861V54.8105H90.0455L89.9399 58.0773C89.8739 60.1982 89.3414 60.5758 88.5009 60.5758H88.2413V61.1861H88.6769C89.9707 61.1861 90.5868 60.4089 90.666 58.2749L90.7716 55.4208H93.0467V61.1861H93.7815H93.7772ZM85.1345 61.1861V60.5758H81.6052V58.2749H84.6152V57.6646H81.6052V55.4164H85.1345V54.8061H80.8703V61.1817H85.1345V61.1861ZM75.5281 60.5802H72.5489C73.1078 59.2541 73.3322 58.3935 73.3322 55.8599V55.4208H75.5325V60.5758L75.5281 60.5802ZM77.0815 62.8195V60.5802H76.263V54.8149H72.5973V55.3067C72.5973 58.0993 72.4037 59.1839 71.7656 60.5802H71.0703V62.8195H71.792V61.1905H76.3554V62.8195H77.0771H77.0815Z" fill="#70777C"/>
</svg>
