<svg width="305" height="389" viewBox="0 0 305 389" fill="none" xmlns="http://www.w3.org/2000/svg">
<g clip-path="url(#clip0_2888_1538)">
<g filter="url(#filter0_f_2888_1538)">
<ellipse cx="175.182" cy="292.415" rx="127.312" ry="149.918" transform="rotate(-46.3892 175.182 292.415)" fill="#9DC8DE"/>
</g>
</g>
<mask id="mask0_2888_1538" style="mask-type:alpha" maskUnits="userSpaceOnUse" x="0" y="165" width="305" height="224">
<rect x="0.484375" y="165.391" width="304" height="223" fill="#D9D9D9"/>
</mask>
<g mask="url(#mask0_2888_1538)">
<path d="M101.252 191.768L2.16203 191.768L2.16203 168.305L101.252 168.305L101.252 191.768ZM302.813 564.196L291.943 564.196L291.943 263.59L302.813 263.59L302.813 564.196ZM216.226 491.924L289.076 564.189L216.226 564.189L216.226 491.924ZM203.678 263.59L214.548 263.59L214.548 564.196L203.678 564.196L203.678 263.59ZM102.923 553.204L202.013 553.204L202.013 564.196L102.923 564.196L102.923 553.204ZM2.16206 553.204L6.10252 553.204L6.10252 564.196L2.16207 564.196L2.16206 553.204ZM15.359 215.938L7.24029 222.167L2.16204 222.167L2.16203 215.938L15.359 215.938ZM101.252 214.267L2.16203 214.267L2.16203 193.433L101.252 193.433L101.252 214.267ZM302.813 191.768L292.348 191.768L302.813 170.89L302.813 191.768ZM253.04 261.796C261.628 261.134 269.335 257.297 274.992 251.454L302.813 251.454L302.813 261.796L253.04 261.796ZM290.272 299.697L216.226 299.697L216.226 263.474L290.272 263.474L290.272 299.697ZM290.272 476.464L216.907 476.464L290.272 403.691L290.272 476.464ZM290.272 490.754L290.272 563.02L217.422 490.754L290.272 490.754ZM290.272 312.315L216.226 312.315L216.226 301.368L290.272 301.368L290.272 312.315ZM216.226 402.194L289.41 402.194L216.226 474.793L216.226 402.194ZM216.226 389.575L290.272 389.575L290.272 400.522L216.226 400.522L216.226 389.575ZM216.226 313.987L290.272 313.987L290.272 387.904L216.226 387.904L216.226 313.987ZM290.272 489.083L216.226 489.083L216.226 478.136L290.272 478.136L290.272 489.083ZM202.007 335.765L188.135 335.765L188.135 263.468L202.007 263.468L202.007 335.765ZM102.923 490.279L202.013 490.279L202.013 551.532L102.923 551.532L102.923 490.279ZM37.0541 387.165C37.0541 392.963 32.3358 397.681 26.5376 397.681C20.7394 397.681 16.0211 392.963 16.0211 387.165C16.0211 381.366 20.7394 376.648 26.5376 376.648C32.3358 376.648 37.0541 381.366 37.0541 387.165ZM50.8553 281.884L50.8553 476.465L27.1676 476.465L27.1676 429.494C30.3366 429.083 32.7922 426.37 32.7922 423.092C32.7922 419.53 29.8931 416.631 26.3319 416.631C22.7707 416.631 19.8716 419.53 19.8716 423.092C19.8716 426.37 22.3272 429.083 25.4963 429.494L25.4963 476.465L2.15566 476.465L2.15565 366.067C2.16208 372.785 7.62598 378.242 14.3434 378.242C21.0608 378.242 26.1069 373.177 26.4926 366.8C26.7433 370.837 28.9546 374.347 32.1944 376.378C30.4974 375.485 28.5753 374.97 26.5248 374.97C19.8009 374.97 14.337 380.441 14.337 387.158C14.337 393.876 19.8073 399.346 26.5248 399.346C33.2422 399.346 38.7125 393.876 38.7125 387.158C38.7125 382.806 36.4112 378.988 32.9722 376.835C34.6692 377.728 36.5912 378.242 38.6418 378.242C45.3657 378.242 50.8296 372.772 50.8296 366.055C50.8296 359.781 46.0663 354.606 39.966 353.944C46.0663 353.282 50.8296 348.101 50.8296 341.827C50.8296 335.958 46.6577 331.041 41.1231 329.89C46.6577 328.739 50.8296 323.828 50.8296 317.953C50.8296 312.077 46.6577 307.166 41.1231 306.016C46.6577 304.865 50.8296 299.954 50.8296 294.079C50.8296 287.355 45.3592 281.891 38.6418 281.891C31.9244 281.891 26.8783 286.956 26.4926 293.333C26.1005 286.963 20.8101 281.891 14.3434 281.891C7.87667 281.891 2.16207 287.355 2.15565 294.066L2.15565 281.872L50.8553 281.872L50.8553 281.884ZM2.16204 263.468L50.8617 263.468L50.8617 280.213L2.16204 280.213L2.16204 263.468ZM2.16204 255.407L7.26599 255.407L15.5969 261.803L2.16204 261.803L2.16204 255.407ZM2.16204 239.626L7.26599 239.626L16.4454 246.671L7.24029 253.736L2.15564 253.736L2.15564 239.626L2.16204 239.626ZM31.5001 222.996L22.3014 230.054L18.1039 230.054L8.9052 222.996L18.0974 215.938L22.3014 215.938L31.4937 222.996L31.5001 222.996ZM38.7961 222.167L33.165 222.167L25.0463 215.938L46.9148 215.938L38.7961 222.167ZM63.0816 222.996L53.8829 230.054L49.6596 230.054L40.4738 223.009L49.6789 215.944L53.8829 215.944L63.0752 223.003L63.0816 222.996ZM70.2426 222.167L64.7465 222.167L56.6278 215.938L78.3549 215.938L70.2362 222.167L70.2426 222.167ZM94.5024 222.996L85.3037 230.054L81.1062 230.054L71.9075 222.996L81.0997 215.938L85.3037 215.938L94.496 222.996L94.5024 222.996ZM101.252 222.167L96.1737 222.167L88.055 215.938L101.252 215.938L101.252 222.167ZM214.555 205.396L102.923 205.396L102.923 193.433L214.555 193.433L214.555 205.396ZM102.923 170.028L113.388 191.768L102.923 191.768L102.923 170.028ZM279.8 168.408L302.189 168.408L290.992 190.733L279.794 168.408L279.8 168.408ZM302.813 203.05L274.195 203.05C268.429 197.47 260.721 193.883 252.191 193.44L302.813 193.44L302.813 203.05ZM302.813 214.267L281.922 214.267C280.424 210.744 278.347 207.524 275.815 204.721L302.813 204.721L302.813 214.267ZM302.813 226.107L284.609 226.107C284.448 222.553 283.754 219.133 282.584 215.938L302.813 215.938L302.813 226.107ZM302.813 237.954L283.059 237.954C284.075 234.74 284.628 231.327 284.641 227.785L302.813 227.785L302.813 237.954ZM217.794 227.65C217.794 209.677 232.412 195.059 250.385 195.059C268.358 195.059 282.976 209.677 282.976 227.65C282.976 245.623 268.358 260.241 250.385 260.241C232.412 260.241 217.794 245.623 217.794 227.65ZM216.226 230.151C217.447 246.999 230.901 260.504 247.73 261.796L216.226 261.796L216.226 230.151ZM102.923 248.021L214.555 248.021L214.555 261.803L102.923 261.803L102.923 248.021ZM174.256 263.468L186.464 263.468L186.464 335.765L174.256 335.765L174.256 263.468ZM202.007 354.285L195.572 354.285L190.97 358.81L184.381 358.81L179.823 354.285L172.09 354.285L167.488 358.817L161.027 358.817L156.431 354.285L148.634 354.285L144.141 358.746L137.275 358.746L132.814 354.285L125.197 354.285L120.594 358.81L114.005 358.81L109.448 354.285L102.917 354.285L102.917 337.436L202.007 337.436L202.007 354.285ZM102.923 387.782L102.923 355.956L108.766 355.956L113.324 360.481L121.289 360.481L125.891 355.956L132.133 355.956L136.594 360.417L144.835 360.417L149.328 355.956L155.75 355.956L160.346 360.488L168.175 360.488L172.778 355.956L179.142 355.956L183.699 360.481L191.657 360.481L196.26 355.956L202.007 355.956L202.007 387.782L102.917 387.782L102.923 387.782ZM202.007 438.886L152.6 389.665L102.923 439.149L102.923 389.447L202.013 389.447L202.013 438.879L202.007 438.886ZM202.007 439.554L202.007 488.601L152.767 488.601L202.007 439.554ZM112.128 432.335L119.039 439.22L112.128 446.104L105.218 439.22L112.128 432.335ZM120.221 424.274L127.132 431.159L120.221 438.043L113.311 431.159L120.221 424.274ZM128.315 416.213L135.225 423.098L128.315 429.983L121.404 423.098L128.315 416.213ZM136.414 408.146L143.324 415.031L136.414 421.915L129.504 415.031L136.414 408.146ZM144.507 400.085L151.417 406.97L144.507 413.854L137.597 406.97L144.507 400.085ZM152.6 405.787L145.69 398.902L152.6 392.018L159.51 398.902L152.6 405.787ZM160.693 413.854L153.783 406.97L160.693 400.085L167.603 406.97L160.693 413.854ZM168.786 421.915L161.876 415.031L168.786 408.146L175.696 415.031L168.786 421.915ZM176.879 429.976L169.969 423.092L176.879 416.207L183.789 423.092L176.879 429.976ZM184.972 438.043L178.062 431.159L184.972 424.274L191.882 431.159L184.972 438.043ZM193.072 446.104L186.161 439.22L193.072 432.335L199.982 439.22L193.072 446.104ZM184.972 454.165L178.062 447.281L184.972 440.396L191.882 447.281L184.972 454.165ZM176.879 462.226L169.969 455.342L176.879 448.457L183.789 455.342L176.879 462.226ZM168.786 470.293L161.876 463.409L168.786 456.524L175.696 463.409L168.786 470.293ZM160.693 478.354L153.783 471.47L160.693 464.585L167.603 471.47L160.693 478.354ZM152.6 472.653L159.51 479.537L152.6 486.422L145.69 479.537L152.6 472.653ZM144.507 464.585L151.417 471.47L144.507 478.354L137.597 471.47L144.507 464.585ZM136.414 456.524L143.324 463.409L136.414 470.293L129.504 463.409L136.414 456.524ZM128.315 448.463L135.225 455.348L128.315 462.233L121.404 455.348L128.315 448.463ZM127.132 447.281L120.221 454.165L113.311 447.281L120.221 440.396L127.132 447.281ZM135.225 439.22L128.315 446.104L121.404 439.22L128.315 432.335L135.225 439.22ZM143.324 431.159L136.414 438.043L129.504 431.159L136.414 424.274L143.324 431.159ZM151.417 423.092L144.507 429.976L137.597 423.092L144.507 416.207L151.417 423.092ZM152.6 421.915L145.69 415.031L152.6 408.146L159.51 415.031L152.6 421.915ZM160.693 429.976L153.783 423.092L160.693 416.207L167.603 423.092L160.693 429.976ZM168.786 438.043L161.876 431.159L168.786 424.274L175.696 431.159L168.786 438.043ZM169.969 439.22L176.879 432.335L183.789 439.22L176.879 446.104L169.969 439.22ZM161.876 447.281L168.786 440.396L175.696 447.281L168.786 454.165L161.876 447.281ZM153.783 455.348L160.693 448.463L167.603 455.348L160.693 462.233L153.783 455.348ZM152.6 456.524L159.51 463.409L152.6 470.293L145.69 463.409L152.6 456.524ZM144.507 448.463L151.417 455.348L144.507 462.233L137.597 455.348L144.507 448.463ZM143.324 447.281L136.414 454.165L129.504 447.281L136.414 440.396L143.324 447.281ZM151.417 439.22L144.507 446.104L137.597 439.22L144.507 432.335L151.417 439.22ZM152.6 438.043L145.69 431.159L152.6 424.274L159.51 431.159L152.6 438.043ZM159.51 447.281L152.6 454.165L145.69 447.281L152.6 440.396L159.51 447.281ZM153.783 439.22L160.693 432.335L167.603 439.22L160.693 446.104L153.783 439.22ZM102.923 439.291L152.433 488.607L102.923 488.607L102.923 439.291ZM52.5266 355.956L59.9447 355.956L59.9447 476.465L52.5266 476.465L52.5266 355.956ZM52.5266 318.923L101.246 318.923L101.246 335.772L52.5266 335.772L52.5266 318.923ZM52.5266 300.404L101.246 300.404L101.246 317.252L52.5266 317.252L52.5266 300.404ZM52.5266 281.936L101.246 281.936L101.246 298.733L52.5266 298.733L52.5266 281.936ZM101.252 354.285L52.533 354.285L52.533 337.437L101.252 337.436L101.252 354.285ZM93.6989 355.956L101.252 355.956L101.252 476.465L93.6989 476.465L93.6989 355.956ZM92.0276 461.545L92.0276 476.465L77.7185 476.465L92.0276 461.545ZM61.616 461.577L75.8929 476.465L61.616 476.465L61.616 461.577ZM92.0276 357.936L77.6414 372.939L77.6414 355.956L92.0276 355.956L92.0276 357.936ZM77.6414 456.306L92.0276 441.309L92.0276 459.134L77.6414 474.138L77.6414 456.312L77.6414 456.306ZM61.616 441.341L75.9701 456.306L75.9701 474.131L61.616 459.166L61.616 441.341ZM75.9701 393.175L61.616 378.21L61.616 360.385L75.9701 375.35L75.9701 393.175ZM92.0276 378.178L77.6414 393.175L77.6414 375.35L92.0276 360.353L92.0276 378.178ZM92.0276 398.414L77.6414 413.417L77.6414 395.592L92.0276 380.595L92.0276 398.42L92.0276 398.414ZM92.0276 418.656L77.6414 433.659L77.6414 415.834L92.0276 400.837L92.0276 418.663L92.0276 418.656ZM75.9701 436.07L75.9701 453.895L61.616 438.931L61.616 421.105L75.9701 436.07ZM75.9701 415.828L75.9701 433.653L61.616 418.688L61.616 400.863L75.9701 415.828ZM75.9701 413.411L61.616 398.446L61.616 380.621L75.9701 395.586L75.9701 413.411ZM92.0276 438.892L77.6414 453.889L77.6414 436.064L92.0276 421.06L92.0276 438.886L92.0276 438.892ZM75.9701 355.956L75.9701 372.939L61.616 357.974L61.616 355.956L75.9701 355.956ZM117.059 335.765L102.917 335.765L102.917 263.468L117.059 263.468L117.059 335.765ZM130.944 335.765L118.73 335.765L118.73 263.468L130.944 263.468L130.944 335.765ZM144.822 335.765L132.608 335.765L132.608 263.468L144.822 263.468L144.822 335.765ZM158.707 335.765L146.493 335.765L146.493 263.468L158.707 263.468L158.707 335.765ZM160.378 263.468L172.585 263.468L172.585 335.765L160.378 335.765L160.378 263.468ZM101.252 280.265L52.533 280.265L52.533 263.468L101.252 263.468L101.252 280.265ZM33.1457 255.407L38.8411 255.407L47.172 261.803L24.8149 261.803L33.1457 255.407ZM18.1039 247.507L22.3079 247.507L31.5001 254.565L22.3079 261.623L18.1039 261.623L8.91159 254.565L18.1039 247.507ZM49.3961 230.922L49.3704 230.89L49.3961 230.858L49.3961 230.922ZM53.8829 231.726L63.0752 238.784L53.8829 245.842L49.6532 245.842L40.461 238.784L49.6532 231.726L53.8829 231.726ZM85.3037 231.726L94.496 238.784L85.3037 245.842L81.0997 245.842L71.9075 238.784L81.0997 231.726L85.3037 231.726ZM214.555 217.982L102.923 217.982L102.923 207.074L214.555 207.074L214.555 217.982ZM102.923 235.435L214.555 235.435L214.555 246.343L102.923 246.343L102.923 235.435ZM96.148 255.407L101.252 255.407L101.252 261.803L87.8171 261.803L96.148 255.407ZM64.7272 255.407L70.2683 255.407L78.5992 261.803L56.4028 261.803L64.7337 255.407L64.7272 255.407ZM85.3037 247.507L94.496 254.565L85.3037 261.623L81.0997 261.623L71.9075 254.565L81.0997 247.507L85.3037 247.507ZM214.555 233.77L102.923 233.77L102.923 219.653L214.555 219.653L214.555 233.77ZM96.1416 239.626L101.246 239.626L101.246 253.736L96.1609 253.736L86.9558 246.671L96.1352 239.626L96.1416 239.626ZM64.7208 239.626L70.2683 239.626L79.4477 246.671L70.2426 253.736L64.7401 253.736L55.535 246.671L64.7144 239.626L64.7208 239.626ZM49.6596 247.507L53.8894 247.507L63.0816 254.565L53.8894 261.623L49.6854 261.623L40.4802 254.558L49.6596 247.513L49.6596 247.507ZM39.0853 254.571L39.0918 254.571L39.0853 254.591L39.0853 254.571ZM49.3961 246.703L49.3704 246.671L49.3961 246.639L49.3961 246.703ZM33.165 253.736L23.9599 246.671L33.1393 239.626L38.8218 239.626L48.0012 246.671L38.7961 253.736L33.1586 253.736L33.165 253.736ZM248.579 193.44C231.358 194.339 217.473 208.019 216.226 225.156L216.226 193.44L248.579 193.44ZM202.701 169.109L214.06 191.762L191.342 191.762L202.701 169.109ZM177.252 169.07L188.63 191.762L165.874 191.762L177.252 169.07ZM153.764 168.318L175.767 168.318L164.544 190.708L153.77 168.318L153.764 168.318ZM152.561 169.668L163.194 191.762L141.486 191.762L152.561 169.668ZM129.304 168.318L151.372 168.318L140.117 190.772L129.311 168.318L129.304 168.318ZM115.22 191.723L103.952 168.312L126.958 168.312L115.22 191.723ZM128.122 169.72L138.735 191.768L117.072 191.768L128.128 169.72L128.122 169.72ZM201.184 168.408L189.986 190.733L178.743 168.312L198.735 168.312L198.735 168.402L201.178 168.402L201.184 168.408ZM278.405 169.366L289.635 191.768L267.169 191.768L278.399 169.366L278.405 169.366ZM254.628 168.408L277.017 168.408L265.819 190.733L254.621 168.408L254.628 168.408ZM253.213 169.321L264.469 191.768L241.958 191.768L253.213 169.321ZM229.41 168.408L251.799 168.408L240.601 190.733L229.404 168.408L229.41 168.408ZM215.409 190.74L204.212 168.415L226.601 168.415L215.403 190.74L215.409 190.74ZM228.009 169.347L239.251 191.768L216.766 191.768L228.009 169.347ZM96.1416 223.838L101.246 223.838L101.246 237.954L96.1673 237.954L86.9622 230.89L96.148 223.845L96.1416 223.838ZM64.7208 223.838L70.2683 223.838L79.4541 230.883L70.249 237.948L64.7529 237.948L55.5414 230.883L64.7272 223.838L64.7208 223.838ZM33.1393 223.838L38.8218 223.838L48.0076 230.883L38.8025 237.948L33.1714 237.948L23.9663 230.883L33.1522 223.838L33.1393 223.838ZM18.1039 231.726L22.3079 231.726L31.5001 238.784L22.3079 245.842L18.1039 245.842L8.91159 238.784L18.1039 231.726ZM26.3384 427.881C23.6964 427.881 21.5494 425.734 21.5494 423.092C21.5494 420.45 23.6964 418.303 26.3384 418.303C28.9803 418.303 31.1273 420.45 31.1273 423.092C31.1273 425.734 28.9803 427.881 26.3384 427.881ZM46.6899 501.798L2.16206 501.798L2.16206 490.279L70.1269 490.279C60.6518 490.426 52.2116 494.894 46.6899 501.798ZM41.6566 520.883C41.6566 504.922 54.6415 491.931 70.609 491.931C86.5765 491.931 99.5614 504.915 99.5614 520.883C99.5614 536.851 86.5765 549.835 70.609 549.835C54.6415 549.835 41.6566 536.851 41.6566 520.883ZM2.16206 528.905L41.0588 528.905C42.1709 532.987 44.1058 536.735 46.6706 539.949L2.15567 539.949L2.15567 528.905L2.16206 528.905ZM40.6538 514.519L2.15567 514.519L2.15566 503.469L45.4364 503.469C43.1608 506.748 41.5088 510.482 40.6538 514.519ZM2.16206 516.19L40.3517 516.19C40.1139 517.72 39.9917 519.289 39.9917 520.889C39.9917 523.069 40.2231 525.19 40.6603 527.24L2.1685 527.24L2.1685 516.197L2.16206 516.19ZM2.16205 341.84C2.16205 348.107 6.92532 353.275 13.0256 353.944C6.93175 354.606 2.16848 359.781 2.16205 366.042L2.16205 341.84ZM2.16204 317.972C2.16204 323.835 6.34036 328.746 11.8686 329.896C6.34037 331.047 2.16847 335.952 2.16205 341.821L2.16204 317.978L2.16204 317.972ZM14.3498 304.614C8.55164 304.614 3.83338 299.896 3.83338 294.098C3.83338 288.3 8.55163 283.581 14.3498 283.581C20.148 283.581 24.8663 288.3 24.8663 294.098C24.8663 299.896 20.148 304.614 14.3498 304.614ZM28.1318 294.091C28.1318 288.293 32.8501 283.575 38.6482 283.575C44.4464 283.575 49.1647 288.293 49.1647 294.091C49.1647 299.89 44.4464 304.608 38.6482 304.608C32.8501 304.608 28.1318 299.89 28.1318 294.091ZM28.1318 317.959C28.1318 312.161 32.8501 307.443 38.6482 307.443C44.4464 307.443 49.1647 312.161 49.1647 317.959C49.1647 323.757 44.4464 328.476 38.6482 328.476C32.8501 328.476 28.1318 323.757 28.1318 317.959ZM28.1318 341.827C28.1318 336.029 32.8501 331.31 38.6482 331.31C44.4464 331.31 49.1647 336.029 49.1647 341.827C49.1647 347.625 44.4464 352.343 38.6482 352.343C32.8501 352.343 28.1318 347.625 28.1318 341.827ZM38.6482 355.538C44.4464 355.538 49.1647 360.256 49.1647 366.055C49.1647 371.853 44.4464 376.571 38.6483 376.571C32.8501 376.571 28.1318 371.853 28.1318 366.055C28.1318 360.256 32.8501 355.538 38.6482 355.538ZM24.8663 366.055C24.8663 371.853 20.148 376.571 14.3498 376.571C8.55164 376.571 3.83339 371.853 3.83339 366.055C3.83339 360.256 8.55164 355.538 14.3498 355.538C20.148 355.538 24.8663 360.256 24.8663 366.055ZM24.8663 341.827C24.8663 347.625 20.148 352.343 14.3498 352.343C8.55164 352.343 3.83339 347.625 3.83339 341.827C3.83339 336.029 8.55164 331.31 14.3498 331.31C20.148 331.31 24.8663 336.029 24.8663 341.827ZM26.499 318.711C26.8397 324.246 30.8702 328.797 36.167 329.896C30.8702 330.995 26.8333 335.547 26.499 341.081C26.1584 335.547 22.1279 330.995 16.8311 329.896C22.1279 328.797 26.1584 324.246 26.499 318.711ZM24.8663 317.959C24.8663 323.757 20.148 328.476 14.3498 328.476C8.55164 328.476 3.83339 323.757 3.83339 317.959C3.83339 312.161 8.55164 307.443 14.3498 307.443C20.148 307.443 24.8663 312.161 24.8663 317.959ZM26.4991 365.309C26.1326 359.382 21.5301 354.58 15.674 353.944C21.5236 353.308 26.1326 348.506 26.499 342.579C26.8655 348.506 31.468 353.308 37.324 353.944C31.4744 354.58 26.8655 359.376 26.4991 365.309ZM26.499 294.844C26.8397 300.378 30.8702 304.929 36.167 306.029C30.8702 307.128 26.8333 311.679 26.499 317.214C26.1584 311.679 22.1279 307.128 16.8311 306.029C22.1279 304.929 26.1584 300.378 26.499 294.844ZM2.16204 294.104C2.16204 299.967 6.34036 304.878 11.8686 306.029C6.34036 307.179 2.16847 312.084 2.16204 317.953L2.16204 294.111L2.16204 294.104ZM101.252 488.607L2.16206 488.607L2.16206 478.136L101.252 478.136L101.252 488.607ZM302.813 249.782L276.503 249.782C279.042 246.793 281.079 243.36 282.481 239.619L302.813 239.619L302.813 249.782ZM2.16204 223.838L7.26599 223.838L16.4518 230.883L7.24029 237.948L2.16204 237.948L2.16204 223.832L2.16204 223.838ZM2.16206 551.532L2.16206 541.627L48.1041 541.627C53.703 547.695 61.7189 551.507 70.609 551.507C87.4958 551.507 101.233 537.77 101.233 520.883C101.233 503.996 87.7593 490.536 71.0911 490.272L101.252 490.272L101.252 551.526L2.16206 551.526L2.16206 551.532ZM97.4401 553.204L101.252 553.204L101.252 564.196L97.4401 564.196L97.4401 553.204ZM92.169 553.204L95.7752 553.204L95.7752 564.196L92.169 564.196L92.169 553.204ZM86.8915 553.204L90.4977 553.204L90.4977 564.196L86.8915 564.196L86.8915 553.204ZM81.614 553.204L85.2202 553.204L85.2202 564.196L81.614 564.196L81.614 553.204ZM76.3429 553.204L79.9491 553.204L79.9491 564.196L76.3429 564.196L76.3429 553.204ZM71.0654 553.204L74.6716 553.204L74.6716 564.196L71.0654 564.196L71.0654 553.204ZM65.7943 553.204L69.3941 553.204L69.3941 564.196L65.7943 564.196L65.7943 553.204ZM60.5168 553.204L64.123 553.204L64.123 564.196L60.5168 564.196L60.5168 553.204ZM55.2393 553.204L58.8455 553.204L58.8455 564.196L55.2393 564.196L55.2393 553.204ZM49.9682 553.204L53.5744 553.204L53.5744 564.196L49.9682 564.196L49.9682 553.204ZM44.6907 553.204L48.2969 553.204L48.2969 564.196L44.6907 564.196L44.6907 553.204ZM39.4196 553.204L43.0194 553.204L43.0194 564.196L39.4196 564.196L39.4196 553.204ZM34.1421 553.204L37.7483 553.204L37.7483 564.196L34.1421 564.196L34.1421 553.204ZM28.8646 553.204L32.4708 553.204L32.4708 564.196L28.8646 564.196L28.8646 553.204ZM23.5935 553.204L27.1997 553.204L27.1997 564.196L23.5935 564.196L23.5935 553.204ZM18.316 553.204L21.9222 553.204L21.9222 564.196L18.316 564.196L18.316 553.204ZM13.045 553.204L16.6511 553.204L16.6511 564.196L13.045 564.196L13.045 553.204ZM11.3736 564.196L7.77387 564.196L7.77387 553.204L11.3736 553.204L11.3736 564.196ZM202.007 565.867L304.484 565.867L304.484 166.634L0.484293 166.634L0.484328 565.867L202.007 565.867Z" fill="#FAFAFA"/>
<path d="M299.595 326.461C299.981 326.461 300.289 326.146 300.289 325.767C300.289 325.387 299.974 325.072 299.595 325.072C299.216 325.072 298.901 325.387 298.901 325.767C298.901 326.146 299.216 326.461 299.595 326.461Z" fill="#FAFAFA"/>
<path d="M299.595 332.961C299.981 332.961 300.289 332.646 300.289 332.267C300.289 331.887 299.974 331.572 299.595 331.572C299.216 331.572 298.901 331.887 298.901 332.267C298.901 332.646 299.216 332.961 299.595 332.961Z" fill="#FAFAFA"/>
<path d="M299.595 339.461C299.981 339.461 300.289 339.146 300.289 338.767C300.289 338.387 299.974 338.072 299.595 338.072C299.216 338.072 298.901 338.387 298.901 338.767C298.901 339.146 299.216 339.461 299.595 339.461Z" fill="#FAFAFA"/>
<path d="M299.595 345.961C299.981 345.961 300.289 345.646 300.289 345.267C300.289 344.887 299.974 344.572 299.595 344.572C299.216 344.572 298.901 344.887 298.901 345.267C298.901 345.646 299.216 345.961 299.595 345.961Z" fill="#FAFAFA"/>
<path d="M299.595 352.469C299.981 352.469 300.289 352.154 300.289 351.774C300.289 351.395 299.974 351.08 299.595 351.08C299.216 351.08 298.901 351.395 298.901 351.774C298.901 352.154 299.216 352.469 299.595 352.469Z" fill="#FAFAFA"/>
<path d="M299.595 358.961C299.981 358.961 300.289 358.646 300.289 358.267C300.289 357.887 299.974 357.572 299.595 357.572C299.216 357.572 298.901 357.887 298.901 358.267C298.901 358.646 299.216 358.961 299.595 358.961Z" fill="#FAFAFA"/>
<path d="M299.595 365.469C299.981 365.469 300.289 365.154 300.289 364.774C300.289 364.395 299.974 364.08 299.595 364.08C299.216 364.08 298.901 364.395 298.901 364.774C298.901 365.154 299.216 365.469 299.595 365.469Z" fill="#FAFAFA"/>
<path d="M299.595 371.969C299.981 371.969 300.289 371.654 300.289 371.275C300.289 370.895 299.974 370.58 299.595 370.58C299.216 370.58 298.901 370.895 298.901 371.275C298.901 371.654 299.216 371.969 299.595 371.969Z" fill="#FAFAFA"/>
<path d="M299.595 378.477C299.981 378.477 300.289 378.162 300.289 377.782C300.289 377.403 299.974 377.088 299.595 377.088C299.216 377.088 298.901 377.403 298.901 377.782C298.901 378.162 299.216 378.477 299.595 378.477Z" fill="#FAFAFA"/>
<path d="M299.595 384.977C299.981 384.977 300.289 384.662 300.289 384.282C300.289 383.903 299.974 383.588 299.595 383.588C299.216 383.588 298.901 383.903 298.901 384.282C298.901 384.662 299.216 384.977 299.595 384.977Z" fill="#FAFAFA"/>
<path d="M295.165 326.461C295.551 326.461 295.859 326.146 295.859 325.767C295.859 325.387 295.544 325.072 295.165 325.072C294.786 325.072 294.471 325.387 294.471 325.767C294.471 326.146 294.786 326.461 295.165 326.461Z" fill="#FAFAFA"/>
<path d="M299.595 319.961C299.981 319.961 300.289 319.646 300.289 319.267C300.289 318.887 299.974 318.572 299.595 318.572C299.216 318.572 298.901 318.887 298.901 319.267C298.901 319.646 299.216 319.961 299.595 319.961Z" fill="#FAFAFA"/>
<path d="M295.165 319.961C295.551 319.961 295.859 319.646 295.859 319.267C295.859 318.887 295.544 318.572 295.165 318.572C294.786 318.572 294.471 318.887 294.471 319.267C294.471 319.646 294.786 319.961 295.165 319.961Z" fill="#FAFAFA"/>
<path d="M299.595 313.453C299.981 313.453 300.289 313.138 300.289 312.759C300.289 312.38 299.974 312.065 299.595 312.065C299.216 312.065 298.901 312.38 298.901 312.759C298.901 313.138 299.216 313.453 299.595 313.453Z" fill="#FAFAFA"/>
<path d="M295.165 313.453C295.551 313.453 295.859 313.138 295.859 312.759C295.859 312.38 295.544 312.065 295.165 312.065C294.786 312.065 294.471 312.38 294.471 312.759C294.471 313.138 294.786 313.453 295.165 313.453Z" fill="#FAFAFA"/>
<path d="M299.595 306.953C299.981 306.953 300.289 306.638 300.289 306.259C300.289 305.88 299.974 305.565 299.595 305.565C299.216 305.565 298.901 305.88 298.901 306.259C298.901 306.638 299.216 306.953 299.595 306.953Z" fill="#FAFAFA"/>
<path d="M295.165 306.953C295.551 306.953 295.859 306.638 295.859 306.259C295.859 305.88 295.544 305.565 295.165 305.565C294.786 305.565 294.471 305.88 294.471 306.259C294.471 306.638 294.786 306.953 295.165 306.953Z" fill="#FAFAFA"/>
<path d="M295.165 332.961C295.551 332.961 295.859 332.646 295.859 332.267C295.859 331.887 295.544 331.572 295.165 331.572C294.786 331.572 294.471 331.887 294.471 332.267C294.471 332.646 294.786 332.961 295.165 332.961Z" fill="#FAFAFA"/>
<path d="M299.595 293.461C299.981 293.461 300.289 293.146 300.289 292.767C300.289 292.387 299.974 292.072 299.595 292.072C299.216 292.072 298.901 292.387 298.901 292.767C298.901 293.146 299.216 293.461 299.595 293.461Z" fill="#FAFAFA"/>
<path d="M299.595 299.961C299.981 299.961 300.289 299.646 300.289 299.267C300.289 298.887 299.974 298.572 299.595 298.572C299.216 298.572 298.901 298.887 298.901 299.267C298.901 299.646 299.216 299.961 299.595 299.961Z" fill="#FAFAFA"/>
<path d="M295.165 293.461C295.551 293.461 295.859 293.146 295.859 292.767C295.859 292.387 295.544 292.072 295.165 292.072C294.786 292.072 294.471 292.387 294.471 292.767C294.471 293.146 294.786 293.461 295.165 293.461Z" fill="#FAFAFA"/>
<path d="M299.595 286.953C299.981 286.953 300.289 286.638 300.289 286.259C300.289 285.88 299.974 285.565 299.595 285.565C299.216 285.565 298.901 285.88 298.901 286.259C298.901 286.638 299.216 286.953 299.595 286.953Z" fill="#FAFAFA"/>
<path d="M295.165 286.953C295.551 286.953 295.859 286.638 295.859 286.259C295.859 285.88 295.544 285.565 295.165 285.565C294.786 285.565 294.471 285.88 294.471 286.259C294.471 286.638 294.786 286.953 295.165 286.953Z" fill="#FAFAFA"/>
<path d="M299.595 280.461C299.981 280.461 300.289 280.146 300.289 279.767C300.289 279.387 299.974 279.072 299.595 279.072C299.216 279.072 298.901 279.387 298.901 279.767C298.901 280.146 299.216 280.461 299.595 280.461Z" fill="#FAFAFA"/>
<path d="M295.165 280.461C295.551 280.461 295.859 280.146 295.859 279.767C295.859 279.387 295.544 279.072 295.165 279.072C294.786 279.072 294.471 279.387 294.471 279.767C294.471 280.146 294.786 280.461 295.165 280.461Z" fill="#FAFAFA"/>
<path d="M299.595 273.961C299.981 273.961 300.289 273.646 300.289 273.267C300.289 272.887 299.974 272.572 299.595 272.572C299.216 272.572 298.901 272.887 298.901 273.267C298.901 273.646 299.216 273.961 299.595 273.961Z" fill="#FAFAFA"/>
<path d="M295.165 273.961C295.551 273.961 295.859 273.646 295.859 273.267C295.859 272.887 295.544 272.572 295.165 272.572C294.786 272.572 294.471 272.887 294.471 273.267C294.471 273.646 294.786 273.961 295.165 273.961Z" fill="#FAFAFA"/>
<path d="M295.165 299.961C295.551 299.961 295.859 299.646 295.859 299.267C295.859 298.887 295.544 298.572 295.165 298.572C294.786 298.572 294.471 298.887 294.471 299.267C294.471 299.646 294.786 299.961 295.165 299.961Z" fill="#FAFAFA"/>
<path d="M295.165 339.461C295.551 339.461 295.859 339.146 295.859 338.767C295.859 338.387 295.544 338.072 295.165 338.072C294.786 338.072 294.471 338.387 294.471 338.767C294.471 339.146 294.786 339.461 295.165 339.461Z" fill="#FAFAFA"/>
<path d="M299.595 267.453C299.981 267.453 300.289 267.138 300.289 266.759C300.289 266.38 299.974 266.065 299.595 266.065C299.216 266.065 298.901 266.38 298.901 266.759C298.901 267.138 299.216 267.453 299.595 267.453Z" fill="#FAFAFA"/>
<path d="M295.165 267.453C295.551 267.453 295.859 267.138 295.859 266.759C295.859 266.38 295.544 266.065 295.165 266.065C294.786 266.065 294.471 266.38 294.471 266.759C294.471 267.138 294.786 267.453 295.165 267.453Z" fill="#FAFAFA"/>
<path d="M295.165 345.961C295.551 345.961 295.859 345.646 295.859 345.267C295.859 344.887 295.544 344.572 295.165 344.572C294.786 344.572 294.471 344.887 294.471 345.267C294.471 345.646 294.786 345.961 295.165 345.961Z" fill="#FAFAFA"/>
<path d="M295.165 352.469C295.551 352.469 295.859 352.154 295.859 351.774C295.859 351.395 295.544 351.08 295.165 351.08C294.786 351.08 294.471 351.395 294.471 351.774C294.471 352.154 294.786 352.469 295.165 352.469Z" fill="#FAFAFA"/>
<path d="M295.165 358.961C295.551 358.961 295.859 358.646 295.859 358.267C295.859 357.887 295.544 357.572 295.165 357.572C294.786 357.572 294.471 357.887 294.471 358.267C294.471 358.646 294.786 358.961 295.165 358.961Z" fill="#FAFAFA"/>
<path d="M295.165 365.469C295.551 365.469 295.859 365.154 295.859 364.774C295.859 364.395 295.544 364.08 295.165 364.08C294.786 364.08 294.471 364.395 294.471 364.774C294.471 365.154 294.786 365.469 295.165 365.469Z" fill="#FAFAFA"/>
<path d="M295.165 371.969C295.551 371.969 295.859 371.654 295.859 371.275C295.859 370.895 295.544 370.58 295.165 370.58C294.786 370.58 294.471 370.895 294.471 371.275C294.471 371.654 294.786 371.969 295.165 371.969Z" fill="#FAFAFA"/>
<path d="M295.165 378.477C295.551 378.477 295.859 378.162 295.859 377.782C295.859 377.403 295.544 377.088 295.165 377.088C294.786 377.088 294.471 377.403 294.471 377.782C294.471 378.162 294.786 378.477 295.165 378.477Z" fill="#FAFAFA"/>
<path d="M295.165 384.977C295.551 384.977 295.859 384.662 295.859 384.282C295.859 383.903 295.544 383.588 295.165 383.588C294.786 383.588 294.471 383.903 294.471 384.282C294.471 384.662 294.786 384.977 295.165 384.977Z" fill="#FAFAFA"/>
<path d="M211.329 325.072C210.944 325.072 210.635 325.381 210.635 325.767C210.635 326.152 210.95 326.461 211.329 326.461C211.708 326.461 212.023 326.146 212.023 325.767C212.023 325.387 211.708 325.072 211.329 325.072Z" fill="#FAFAFA"/>
<path d="M211.329 331.565C210.944 331.565 210.635 331.873 210.635 332.259C210.635 332.645 210.95 332.953 211.329 332.953C211.708 332.953 212.023 332.638 212.023 332.259C212.023 331.88 211.708 331.565 211.329 331.565Z" fill="#FAFAFA"/>
<path d="M211.329 338.072C210.944 338.072 210.635 338.381 210.635 338.767C210.635 339.152 210.95 339.461 211.329 339.461C211.708 339.461 212.023 339.146 212.023 338.767C212.023 338.387 211.708 338.072 211.329 338.072Z" fill="#FAFAFA"/>
<path d="M211.329 344.572C210.944 344.572 210.635 344.881 210.635 345.267C210.635 345.652 210.95 345.961 211.329 345.961C211.708 345.961 212.023 345.646 212.023 345.267C212.023 344.887 211.708 344.572 211.329 344.572Z" fill="#FAFAFA"/>
<path d="M211.329 351.08C210.944 351.08 210.635 351.389 210.635 351.774C210.635 352.16 210.95 352.469 211.329 352.469C211.708 352.469 212.023 352.154 212.023 351.774C212.023 351.395 211.708 351.08 211.329 351.08Z" fill="#FAFAFA"/>
<path d="M211.329 357.572C210.944 357.572 210.635 357.881 210.635 358.267C210.635 358.652 210.95 358.961 211.329 358.961C211.708 358.961 212.023 358.646 212.023 358.267C212.023 357.887 211.708 357.572 211.329 357.572Z" fill="#FAFAFA"/>
<path d="M211.329 364.072C210.944 364.072 210.635 364.381 210.635 364.767C210.635 365.152 210.95 365.461 211.329 365.461C211.708 365.461 212.023 365.146 212.023 364.767C212.023 364.387 211.708 364.072 211.329 364.072Z" fill="#FAFAFA"/>
<path d="M211.329 370.58C210.944 370.58 210.635 370.889 210.635 371.275C210.635 371.66 210.95 371.969 211.329 371.969C211.708 371.969 212.023 371.654 212.023 371.275C212.023 370.895 211.708 370.58 211.329 370.58Z" fill="#FAFAFA"/>
<path d="M211.329 377.08C210.944 377.08 210.635 377.389 210.635 377.775C210.635 378.16 210.95 378.469 211.329 378.469C211.708 378.469 212.023 378.154 212.023 377.775C212.023 377.395 211.708 377.08 211.329 377.08Z" fill="#FAFAFA"/>
<path d="M211.329 383.588C210.944 383.588 210.635 383.897 210.635 384.282C210.635 384.668 210.95 384.977 211.329 384.977C211.708 384.977 212.023 384.662 212.023 384.282C212.023 383.903 211.708 383.588 211.329 383.588Z" fill="#FAFAFA"/>
<path d="M206.907 325.072C206.522 325.072 206.213 325.381 206.213 325.767C206.213 326.152 206.528 326.461 206.907 326.461C207.287 326.461 207.602 326.146 207.602 325.767C207.602 325.387 207.287 325.072 206.907 325.072Z" fill="#FAFAFA"/>
<path d="M211.329 318.565C210.944 318.565 210.635 318.873 210.635 319.259C210.635 319.645 210.95 319.953 211.329 319.953C211.708 319.953 212.023 319.638 212.023 319.259C212.023 318.88 211.708 318.565 211.329 318.565Z" fill="#FAFAFA"/>
<path d="M206.907 318.565C206.522 318.565 206.213 318.873 206.213 319.259C206.213 319.645 206.528 319.953 206.907 319.953C207.287 319.953 207.602 319.638 207.602 319.259C207.602 318.88 207.287 318.565 206.907 318.565Z" fill="#FAFAFA"/>
<path d="M211.329 312.065C210.944 312.065 210.635 312.373 210.635 312.759C210.635 313.145 210.95 313.453 211.329 313.453C211.708 313.453 212.023 313.138 212.023 312.759C212.023 312.38 211.708 312.065 211.329 312.065Z" fill="#FAFAFA"/>
<path d="M206.907 312.065C206.522 312.065 206.213 312.373 206.213 312.759C206.213 313.145 206.528 313.453 206.907 313.453C207.287 313.453 207.602 313.138 207.602 312.759C207.602 312.38 207.287 312.065 206.907 312.065Z" fill="#FAFAFA"/>
<path d="M211.329 305.565C210.944 305.565 210.635 305.873 210.635 306.259C210.635 306.645 210.95 306.953 211.329 306.953C211.708 306.953 212.023 306.638 212.023 306.259C212.023 305.88 211.708 305.565 211.329 305.565Z" fill="#FAFAFA"/>
<path d="M206.907 305.565C206.522 305.565 206.213 305.873 206.213 306.259C206.213 306.645 206.528 306.953 206.907 306.953C207.287 306.953 207.602 306.638 207.602 306.259C207.602 305.88 207.287 305.565 206.907 305.565Z" fill="#FAFAFA"/>
<path d="M206.907 331.565C206.522 331.565 206.213 331.873 206.213 332.259C206.213 332.645 206.528 332.953 206.907 332.953C207.287 332.953 207.602 332.638 207.602 332.259C207.602 331.88 207.287 331.565 206.907 331.565Z" fill="#FAFAFA"/>
<path d="M211.329 292.065C210.944 292.065 210.635 292.373 210.635 292.759C210.635 293.145 210.95 293.453 211.329 293.453C211.708 293.453 212.023 293.138 212.023 292.759C212.023 292.38 211.708 292.065 211.329 292.065Z" fill="#FAFAFA"/>
<path d="M211.329 298.572C210.944 298.572 210.635 298.881 210.635 299.267C210.635 299.652 210.95 299.961 211.329 299.961C211.708 299.961 212.023 299.646 212.023 299.267C212.023 298.887 211.708 298.572 211.329 298.572Z" fill="#FAFAFA"/>
<path d="M206.907 292.065C206.522 292.065 206.213 292.373 206.213 292.759C206.213 293.145 206.528 293.453 206.907 293.453C207.287 293.453 207.602 293.138 207.602 292.759C207.602 292.38 207.287 292.065 206.907 292.065Z" fill="#FAFAFA"/>
<path d="M211.329 285.565C210.944 285.565 210.635 285.873 210.635 286.259C210.635 286.645 210.95 286.953 211.329 286.953C211.708 286.953 212.023 286.638 212.023 286.259C212.023 285.88 211.708 285.565 211.329 285.565Z" fill="#FAFAFA"/>
<path d="M206.907 285.565C206.522 285.565 206.213 285.873 206.213 286.259C206.213 286.645 206.528 286.953 206.907 286.953C207.287 286.953 207.602 286.638 207.602 286.259C207.602 285.88 207.287 285.565 206.907 285.565Z" fill="#FAFAFA"/>
<path d="M211.329 279.072C210.944 279.072 210.635 279.381 210.635 279.767C210.635 280.152 210.95 280.461 211.329 280.461C211.708 280.461 212.023 280.146 212.023 279.767C212.023 279.387 211.708 279.072 211.329 279.072Z" fill="#FAFAFA"/>
<path d="M206.907 279.072C206.522 279.072 206.213 279.381 206.213 279.767C206.213 280.152 206.528 280.461 206.907 280.461C207.287 280.461 207.602 280.146 207.602 279.767C207.602 279.387 207.287 279.072 206.907 279.072Z" fill="#FAFAFA"/>
<path d="M211.329 272.565C210.944 272.565 210.635 272.873 210.635 273.259C210.635 273.645 210.95 273.953 211.329 273.953C211.708 273.953 212.023 273.638 212.023 273.259C212.023 272.88 211.708 272.565 211.329 272.565Z" fill="#FAFAFA"/>
<path d="M206.907 272.565C206.522 272.565 206.213 272.873 206.213 273.259C206.213 273.645 206.528 273.953 206.907 273.953C207.287 273.953 207.602 273.638 207.602 273.259C207.602 272.88 207.287 272.565 206.907 272.565Z" fill="#FAFAFA"/>
<path d="M206.907 298.572C206.522 298.572 206.213 298.881 206.213 299.267C206.213 299.652 206.528 299.961 206.907 299.961C207.287 299.961 207.602 299.646 207.602 299.267C207.602 298.887 207.287 298.572 206.907 298.572Z" fill="#FAFAFA"/>
<path d="M206.907 338.072C206.522 338.072 206.213 338.381 206.213 338.767C206.213 339.152 206.528 339.461 206.907 339.461C207.287 339.461 207.602 339.146 207.602 338.767C207.602 338.387 207.287 338.072 206.907 338.072Z" fill="#FAFAFA"/>
<path d="M211.329 266.065C210.944 266.065 210.635 266.373 210.635 266.759C210.635 267.145 210.95 267.453 211.329 267.453C211.708 267.453 212.023 267.138 212.023 266.759C212.023 266.38 211.708 266.065 211.329 266.065Z" fill="#FAFAFA"/>
<path d="M206.907 266.065C206.522 266.065 206.213 266.373 206.213 266.759C206.213 267.145 206.528 267.453 206.907 267.453C207.287 267.453 207.602 267.138 207.602 266.759C207.602 266.38 207.287 266.065 206.907 266.065Z" fill="#FAFAFA"/>
<path d="M206.907 344.572C206.522 344.572 206.213 344.881 206.213 345.267C206.213 345.652 206.528 345.961 206.907 345.961C207.287 345.961 207.602 345.646 207.602 345.267C207.602 344.887 207.287 344.572 206.907 344.572Z" fill="#FAFAFA"/>
<path d="M206.907 351.08C206.522 351.08 206.213 351.389 206.213 351.774C206.213 352.16 206.528 352.469 206.907 352.469C207.287 352.469 207.602 352.154 207.602 351.774C207.602 351.395 207.287 351.08 206.907 351.08Z" fill="#FAFAFA"/>
<path d="M206.907 357.572C206.522 357.572 206.213 357.881 206.213 358.267C206.213 358.652 206.528 358.961 206.907 358.961C207.287 358.961 207.602 358.646 207.602 358.267C207.602 357.887 207.287 357.572 206.907 357.572Z" fill="#FAFAFA"/>
<path d="M206.907 364.072C206.522 364.072 206.213 364.381 206.213 364.767C206.213 365.152 206.528 365.461 206.907 365.461C207.287 365.461 207.602 365.146 207.602 364.767C207.602 364.387 207.287 364.072 206.907 364.072Z" fill="#FAFAFA"/>
<path d="M206.907 370.58C206.522 370.58 206.213 370.889 206.213 371.275C206.213 371.66 206.528 371.969 206.907 371.969C207.287 371.969 207.602 371.654 207.602 371.275C207.602 370.895 207.287 370.58 206.907 370.58Z" fill="#FAFAFA"/>
<path d="M206.907 377.08C206.522 377.08 206.213 377.389 206.213 377.775C206.213 378.16 206.528 378.469 206.907 378.469C207.287 378.469 207.602 378.154 207.602 377.775C207.602 377.395 207.287 377.08 206.907 377.08Z" fill="#FAFAFA"/>
<path d="M206.907 383.588C206.522 383.588 206.213 383.897 206.213 384.282C206.213 384.668 206.528 384.977 206.907 384.977C207.287 384.977 207.602 384.662 207.602 384.282C207.602 383.903 207.287 383.588 206.907 383.588Z" fill="#FAFAFA"/>
<path d="M250.183 253.422C235.971 253.422 224.406 241.858 224.406 227.652C224.406 213.446 235.971 201.882 250.183 201.882C264.396 201.882 275.954 213.446 275.954 227.652C275.954 241.858 264.389 253.422 250.183 253.422ZM250.183 200.21C235.051 200.21 222.741 212.52 222.741 227.652C222.741 242.784 235.051 255.094 250.183 255.094C265.315 255.094 277.625 242.784 277.625 227.652C277.625 212.52 265.315 200.21 250.183 200.21Z" fill="#FAFAFA"/>
<path d="M222.678 319.637C221.965 319.637 221.38 320.216 221.38 320.936C221.38 321.656 221.958 322.234 222.678 322.234C223.398 322.234 223.977 321.656 223.977 320.936C223.977 320.216 223.398 319.637 222.678 319.637Z" fill="#FAFAFA"/>
<path d="M234.803 319.637C234.09 319.637 233.505 320.216 233.505 320.936C233.505 321.656 234.083 322.234 234.803 322.234C235.523 322.234 236.102 321.656 236.102 320.936C236.102 320.216 235.523 319.637 234.803 319.637Z" fill="#FAFAFA"/>
<path d="M246.928 319.637C246.215 319.637 245.63 320.216 245.63 320.936C245.63 321.656 246.208 322.234 246.928 322.234C247.648 322.234 248.227 321.656 248.227 320.936C248.227 320.216 247.648 319.637 246.928 319.637Z" fill="#FAFAFA"/>
<path d="M259.053 319.637C258.34 319.637 257.755 320.216 257.755 320.936C257.755 321.656 258.333 322.234 259.053 322.234C259.773 322.234 260.352 321.656 260.352 320.936C260.352 320.216 259.773 319.637 259.053 319.637Z" fill="#FAFAFA"/>
<path d="M271.17 319.637C270.457 319.637 269.872 320.216 269.872 320.936C269.872 321.656 270.45 322.234 271.17 322.234C271.89 322.234 272.469 321.656 272.469 320.936C272.469 320.216 271.89 319.637 271.17 319.637Z" fill="#FAFAFA"/>
<path d="M283.287 322.227C284.001 322.227 284.586 321.642 284.586 320.928C284.586 320.215 284.007 319.63 283.287 319.63C282.568 319.63 281.989 320.208 281.989 320.928C281.989 321.648 282.568 322.227 283.287 322.227Z" fill="#FAFAFA"/>
<path d="M222.678 331.731C221.965 331.731 221.38 332.31 221.38 333.03C221.38 333.75 221.958 334.328 222.678 334.328C223.398 334.328 223.977 333.75 223.977 333.03C223.977 332.31 223.398 331.731 222.678 331.731Z" fill="#FAFAFA"/>
<path d="M234.803 331.731C234.09 331.731 233.505 332.31 233.505 333.03C233.505 333.75 234.083 334.328 234.803 334.328C235.523 334.328 236.102 333.75 236.102 333.03C236.102 332.31 235.523 331.731 234.803 331.731Z" fill="#FAFAFA"/>
<path d="M246.928 331.731C246.215 331.731 245.63 332.31 245.63 333.03C245.63 333.75 246.208 334.328 246.928 334.328C247.648 334.328 248.227 333.75 248.227 333.03C248.227 332.31 247.648 331.731 246.928 331.731Z" fill="#FAFAFA"/>
<path d="M259.053 331.731C258.34 331.731 257.755 332.31 257.755 333.03C257.755 333.75 258.333 334.328 259.053 334.328C259.773 334.328 260.352 333.75 260.352 333.03C260.352 332.31 259.773 331.731 259.053 331.731Z" fill="#FAFAFA"/>
<path d="M271.17 331.731C270.457 331.731 269.872 332.31 269.872 333.03C269.872 333.75 270.45 334.328 271.17 334.328C271.89 334.328 272.469 333.75 272.469 333.03C272.469 332.31 271.89 331.731 271.17 331.731Z" fill="#FAFAFA"/>
<path d="M283.287 331.731C282.574 331.731 281.989 332.31 281.989 333.03C281.989 333.75 282.568 334.328 283.287 334.328C284.007 334.328 284.586 333.75 284.586 333.03C284.586 332.31 284.007 331.731 283.287 331.731Z" fill="#FAFAFA"/>
<path d="M222.678 343.833C221.965 343.833 221.38 344.411 221.38 345.131C221.38 345.851 221.958 346.43 222.678 346.43C223.398 346.43 223.977 345.851 223.977 345.131C223.977 344.411 223.398 343.833 222.678 343.833Z" fill="#FAFAFA"/>
<path d="M234.803 343.833C234.09 343.833 233.505 344.411 233.505 345.131C233.505 345.851 234.083 346.43 234.803 346.43C235.523 346.43 236.102 345.851 236.102 345.131C236.102 344.411 235.523 343.833 234.803 343.833Z" fill="#FAFAFA"/>
<path d="M246.928 343.833C246.215 343.833 245.63 344.411 245.63 345.131C245.63 345.851 246.208 346.43 246.928 346.43C247.648 346.43 248.227 345.851 248.227 345.131C248.227 344.411 247.648 343.833 246.928 343.833Z" fill="#FAFAFA"/>
<path d="M259.053 343.833C258.34 343.833 257.755 344.411 257.755 345.131C257.755 345.851 258.333 346.43 259.053 346.43C259.773 346.43 260.352 345.851 260.352 345.131C260.352 344.411 259.773 343.833 259.053 343.833Z" fill="#FAFAFA"/>
<path d="M271.17 343.833C270.457 343.833 269.872 344.411 269.872 345.131C269.872 345.851 270.45 346.43 271.17 346.43C271.89 346.43 272.469 345.851 272.469 345.131C272.469 344.411 271.89 343.833 271.17 343.833Z" fill="#FAFAFA"/>
<path d="M283.287 343.833C282.574 343.833 281.989 344.411 281.989 345.131C281.989 345.851 282.568 346.43 283.287 346.43C284.007 346.43 284.586 345.851 284.586 345.131C284.586 344.411 284.007 343.833 283.287 343.833Z" fill="#FAFAFA"/>
<path d="M222.678 355.926C221.965 355.926 221.38 356.505 221.38 357.225C221.38 357.945 221.958 358.523 222.678 358.523C223.398 358.523 223.977 357.945 223.977 357.225C223.977 356.505 223.398 355.926 222.678 355.926Z" fill="#FAFAFA"/>
<path d="M234.803 355.926C234.09 355.926 233.505 356.505 233.505 357.225C233.505 357.945 234.083 358.523 234.803 358.523C235.523 358.523 236.102 357.945 236.102 357.225C236.102 356.505 235.523 355.926 234.803 355.926Z" fill="#FAFAFA"/>
<path d="M246.928 355.926C246.215 355.926 245.63 356.505 245.63 357.225C245.63 357.945 246.208 358.523 246.928 358.523C247.648 358.523 248.227 357.945 248.227 357.225C248.227 356.505 247.648 355.926 246.928 355.926Z" fill="#FAFAFA"/>
<path d="M259.053 355.926C258.34 355.926 257.755 356.505 257.755 357.225C257.755 357.945 258.333 358.523 259.053 358.523C259.773 358.523 260.352 357.945 260.352 357.225C260.352 356.505 259.773 355.926 259.053 355.926Z" fill="#FAFAFA"/>
<path d="M271.17 355.926C270.457 355.926 269.872 356.505 269.872 357.225C269.872 357.945 270.45 358.523 271.17 358.523C271.89 358.523 272.469 357.945 272.469 357.225C272.469 356.505 271.89 355.926 271.17 355.926Z" fill="#FAFAFA"/>
<path d="M283.287 355.926C282.574 355.926 281.989 356.505 281.989 357.225C281.989 357.945 282.568 358.523 283.287 358.523C284.007 358.523 284.586 357.945 284.586 357.225C284.586 356.505 284.007 355.926 283.287 355.926Z" fill="#FAFAFA"/>
<path d="M222.678 368.036C221.965 368.036 221.38 368.614 221.38 369.334C221.38 370.054 221.958 370.633 222.678 370.633C223.398 370.633 223.977 370.054 223.977 369.334C223.977 368.614 223.398 368.036 222.678 368.036Z" fill="#FAFAFA"/>
<path d="M234.803 368.036C234.09 368.036 233.505 368.614 233.505 369.334C233.505 370.054 234.083 370.633 234.803 370.633C235.523 370.633 236.102 370.054 236.102 369.334C236.102 368.614 235.523 368.036 234.803 368.036Z" fill="#FAFAFA"/>
<path d="M246.928 368.036C246.215 368.036 245.63 368.614 245.63 369.334C245.63 370.054 246.208 370.633 246.928 370.633C247.648 370.633 248.227 370.054 248.227 369.334C248.227 368.614 247.648 368.036 246.928 368.036Z" fill="#FAFAFA"/>
<path d="M259.053 368.036C258.34 368.036 257.755 368.614 257.755 369.334C257.755 370.054 258.333 370.633 259.053 370.633C259.773 370.633 260.352 370.054 260.352 369.334C260.352 368.614 259.773 368.036 259.053 368.036Z" fill="#FAFAFA"/>
<path d="M271.17 368.036C270.457 368.036 269.872 368.614 269.872 369.334C269.872 370.054 270.45 370.633 271.17 370.633C271.89 370.633 272.469 370.054 272.469 369.334C272.469 368.614 271.89 368.036 271.17 368.036Z" fill="#FAFAFA"/>
<path d="M283.287 368.036C282.574 368.036 281.989 368.614 281.989 369.334C281.989 370.054 282.568 370.633 283.287 370.633C284.007 370.633 284.586 370.054 284.586 369.334C284.586 368.614 284.007 368.036 283.287 368.036Z" fill="#FAFAFA"/>
<path d="M222.678 380.13C221.965 380.13 221.38 380.708 221.38 381.428C221.38 382.148 221.958 382.727 222.678 382.727C223.398 382.727 223.977 382.148 223.977 381.428C223.977 380.708 223.398 380.13 222.678 380.13Z" fill="#FAFAFA"/>
<path d="M234.803 380.13C234.09 380.13 233.505 380.708 233.505 381.428C233.505 382.148 234.083 382.727 234.803 382.727C235.523 382.727 236.102 382.148 236.102 381.428C236.102 380.708 235.523 380.13 234.803 380.13Z" fill="#FAFAFA"/>
<path d="M246.928 380.13C246.215 380.13 245.63 380.708 245.63 381.428C245.63 382.148 246.208 382.727 246.928 382.727C247.648 382.727 248.227 382.148 248.227 381.428C248.227 380.708 247.648 380.13 246.928 380.13Z" fill="#FAFAFA"/>
<path d="M259.053 380.13C258.34 380.13 257.755 380.708 257.755 381.428C257.755 382.148 258.333 382.727 259.053 382.727C259.773 382.727 260.352 382.148 260.352 381.428C260.352 380.708 259.773 380.13 259.053 380.13Z" fill="#FAFAFA"/>
<path d="M271.17 380.13C270.457 380.13 269.872 380.708 269.872 381.428C269.872 382.148 270.45 382.727 271.17 382.727C271.89 382.727 272.469 382.148 272.469 381.428C272.469 380.708 271.89 380.13 271.17 380.13Z" fill="#FAFAFA"/>
<path d="M283.287 380.13C282.574 380.13 281.989 380.708 281.989 381.428C281.989 382.148 282.568 382.727 283.287 382.727C284.007 382.727 284.586 382.148 284.586 381.428C284.586 380.708 284.007 380.13 283.287 380.13Z" fill="#FAFAFA"/>
</g>
<defs>
<filter id="filter0_f_2888_1538" x="-64.4434" y="53.8848" width="479.25" height="477.06" filterUnits="userSpaceOnUse" color-interpolation-filters="sRGB">
<feFlood flood-opacity="0" result="BackgroundImageFix"/>
<feBlend mode="normal" in="SourceGraphic" in2="BackgroundImageFix" result="shape"/>
<feGaussianBlur stdDeviation="50" result="effect1_foregroundBlur_2888_1538"/>
</filter>
<clipPath id="clip0_2888_1538">
<rect width="304" height="388" fill="white" transform="translate(0.5 0.734375)"/>
</clipPath>
</defs>
</svg>
