<svg width="304" height="224" viewBox="0 0 304 224" fill="none" xmlns="http://www.w3.org/2000/svg">
<mask id="mask0_1287_8384" style="mask-type:alpha" maskUnits="userSpaceOnUse" x="0" y="0" width="304" height="224">
<rect y="0.4375" width="304" height="223" fill="#D9D9D9"/>
</mask>
<g mask="url(#mask0_1287_8384)">
<path d="M100.768 26.8151L1.67767 26.8151L1.67767 3.35232L100.768 3.35231L100.768 26.8151ZM302.329 399.243L291.459 399.243L291.459 98.6368L302.329 98.6368L302.329 399.243ZM215.742 326.971L288.592 399.236L215.742 399.236L215.742 326.971ZM203.194 98.6368L214.064 98.6368L214.064 399.243L203.194 399.243L203.194 98.6368ZM102.439 388.251L201.529 388.251L201.529 399.243L102.439 399.243L102.439 388.251ZM1.6777 388.251L5.61816 388.251L5.61816 399.243L1.6777 399.243L1.6777 388.251ZM14.8747 50.9849L6.75592 57.2138L1.67767 57.2138L1.67767 50.9849L14.8747 50.9849ZM100.768 49.3136L1.67767 49.3136L1.67767 28.48L100.768 28.48L100.768 49.3136ZM302.329 26.815L291.864 26.815L302.329 5.93643L302.329 26.815ZM252.555 96.8433C261.144 96.1812 268.851 92.3436 274.508 86.5004L302.329 86.5004L302.329 96.8433L252.555 96.8433ZM289.787 134.744L215.741 134.744L215.741 98.521L289.787 98.521L289.787 134.744ZM289.787 311.511L216.423 311.511L289.787 238.738L289.787 311.511ZM289.787 325.801L289.787 398.066L216.937 325.801L289.787 325.801ZM289.787 147.362L215.741 147.362L215.741 136.415L289.787 136.415L289.787 147.362ZM215.741 237.241L288.926 237.241L215.742 309.84L215.741 237.241ZM215.741 224.622L289.787 224.622L289.787 235.569L215.741 235.569L215.741 224.622ZM215.741 149.033L289.787 149.033L289.787 222.951L215.741 222.951L215.741 149.033ZM289.787 324.13L215.742 324.13L215.742 313.183L289.787 313.183L289.787 324.13ZM201.522 170.812L187.65 170.812L187.65 98.5147L201.522 98.5147L201.522 170.812ZM102.439 325.325L201.529 325.325L201.529 386.579L102.439 386.579L102.439 325.325ZM36.5697 222.212C36.5697 228.01 31.8514 232.728 26.0532 232.728C20.2551 232.728 15.5368 228.01 15.5368 222.212C15.5368 216.413 20.255 211.695 26.0532 211.695C31.8514 211.695 36.5697 216.413 36.5697 222.212ZM50.3709 116.931L50.3709 311.511L26.6832 311.511L26.6832 264.541C29.8523 264.129 32.3078 261.417 32.3078 258.138C32.3078 254.577 29.4087 251.678 25.8476 251.678C22.2863 251.678 19.3873 254.577 19.3873 258.138C19.3873 261.417 21.8428 264.129 25.0119 264.541L25.0119 311.511L1.67129 311.511L1.67128 201.114C1.67772 207.832 7.14162 213.289 13.859 213.289C20.5764 213.289 25.6225 208.224 26.0083 201.847C26.2589 205.884 28.4702 209.394 31.71 211.425C30.013 210.532 28.091 210.017 26.0404 210.017C19.3165 210.017 13.8526 215.488 13.8526 222.205C13.8526 228.923 19.323 234.393 26.0404 234.393C32.7578 234.393 38.2281 228.923 38.2281 222.205C38.2281 217.853 35.9269 214.035 32.4878 211.881C34.1848 212.775 36.1069 213.289 38.1575 213.289C44.8813 213.289 50.3452 207.819 50.3452 201.101C50.3452 194.828 45.582 189.653 39.4816 188.991C45.582 188.329 50.3452 183.148 50.3452 176.874C50.3452 171.005 46.1733 166.087 40.6387 164.937C46.1733 163.786 50.3452 158.875 50.3452 153C50.3452 147.124 46.1733 142.213 40.6387 141.063C46.1733 139.912 50.3452 135.001 50.3452 129.126C50.3452 122.402 44.8749 116.938 38.1574 116.938C31.44 116.938 26.3939 122.003 26.0082 128.38C25.6161 122.01 20.3257 116.938 13.859 116.938C7.39231 116.938 1.67771 122.402 1.67127 129.113L1.67127 116.918L50.3709 116.918L50.3709 116.931ZM1.67768 98.5147L50.3774 98.5147L50.3774 115.26L1.67768 115.26L1.67768 98.5147ZM1.67768 90.4537L6.78162 90.4537L15.1125 96.8498L1.67768 96.8498L1.67768 90.4537ZM1.67768 74.6726L6.78162 74.6726L15.961 81.7179L6.75592 88.7824L1.67127 88.7824L1.67127 74.6726L1.67768 74.6726ZM31.0157 58.043L21.8171 65.1011L17.6195 65.1011L8.42081 58.043L17.6131 50.9849L21.8171 50.9849L31.0093 58.043L31.0157 58.043ZM38.3117 57.2138L32.6807 57.2138L24.5619 50.9849L46.4305 50.9849L38.3117 57.2138ZM62.5972 58.043L53.3986 65.1011L49.1753 65.1011L39.9894 58.0559L49.1945 50.9914L53.3986 50.9914L62.5908 58.0495L62.5972 58.043ZM69.7582 57.2138L64.2621 57.2138L56.1434 50.9849L77.8705 50.9849L69.7518 57.2138L69.7582 57.2138ZM94.018 58.043L84.8194 65.1011L80.6218 65.1011L71.4231 58.043L80.6153 50.9849L84.8194 50.9849L94.0116 58.043L94.018 58.043ZM100.768 57.2138L95.6894 57.2138L87.5706 50.9849L100.768 50.9849L100.768 57.2138ZM214.07 40.4427L102.439 40.4427L102.439 28.48L214.07 28.48L214.07 40.4427ZM102.439 5.07506L112.904 26.815L102.439 26.8151L102.439 5.07506ZM279.316 3.45517L301.705 3.45517L290.507 25.7801L279.309 3.45517L279.316 3.45517ZM302.329 38.0964L273.711 38.0964C267.944 32.5168 260.237 28.9299 251.707 28.4864L302.329 28.4864L302.329 38.0964ZM302.329 49.3136L281.437 49.3136C279.939 45.7909 277.863 42.5704 275.33 39.7678L302.329 39.7678L302.329 49.3136ZM302.329 61.1542L284.124 61.1542C283.963 57.5995 283.269 54.1797 282.099 50.9849L302.329 50.9849L302.329 61.1542ZM302.329 73.0013L282.575 73.0013C283.591 69.7872 284.143 66.3739 284.156 62.832L302.329 62.832L302.329 73.0013ZM217.31 62.697C217.31 44.7239 231.928 30.1062 249.901 30.1062C267.874 30.1062 282.491 44.7239 282.491 62.697C282.491 80.6701 267.874 95.2877 249.901 95.2877C231.928 95.2877 217.31 80.6701 217.31 62.697ZM215.741 65.1975C216.963 82.0457 230.417 95.5512 247.246 96.8433L215.741 96.8433L215.741 65.1975ZM102.439 83.0678L214.07 83.0678L214.07 96.8497L102.439 96.8497L102.439 83.0678ZM173.772 98.5147L185.979 98.5147L185.979 170.812L173.772 170.812L173.772 98.5147ZM201.522 189.332L195.088 189.332L190.485 193.857L183.896 193.857L179.339 189.332L171.606 189.332L167.003 193.863L160.543 193.863L155.947 189.332L148.149 189.332L143.656 193.793L136.791 193.793L132.33 189.332L124.712 189.332L120.11 193.857L113.521 193.857L108.963 189.332L102.432 189.332L102.432 172.483L201.522 172.483L201.522 189.332ZM102.439 222.829L102.439 191.003L108.282 191.003L112.84 195.528L120.804 195.528L125.407 191.003L131.648 191.003L136.11 195.464L144.35 195.464L148.844 191.003L155.265 191.003L159.862 195.535L167.691 195.535L172.294 191.003L178.658 191.003L183.215 195.528L191.173 195.528L195.776 191.003L201.522 191.003L201.522 222.829L102.432 222.829L102.439 222.829ZM201.522 273.932L152.116 224.712L102.439 274.196L102.439 224.494L201.529 224.494L201.529 273.926L201.522 273.932ZM201.522 274.601L201.522 323.648L152.283 323.648L201.522 274.601ZM111.644 267.382L118.554 274.267L111.644 281.151L104.734 274.267L111.644 267.382ZM119.737 259.321L126.647 266.206L119.737 273.09L112.827 266.206L119.737 259.321ZM127.83 251.26L134.74 258.145L127.83 265.029L120.92 258.145L127.83 251.26ZM135.93 243.193L142.84 250.078L135.93 256.962L129.019 250.078L135.93 243.193ZM144.023 235.132L150.933 242.017L144.023 248.901L137.112 242.017L144.023 235.132ZM152.116 240.834L145.205 233.949L152.116 227.065L159.026 233.949L152.116 240.834ZM160.209 248.901L153.298 242.017L160.209 235.132L167.119 242.017L160.209 248.901ZM168.302 256.962L161.391 250.078L168.302 243.193L175.212 250.078L168.302 256.962ZM176.395 265.023L169.485 258.138L176.395 251.254L183.305 258.138L176.395 265.023ZM184.488 273.09L177.578 266.206L184.488 259.321L191.398 266.206L184.488 273.09ZM192.587 281.151L185.677 274.267L192.587 267.382L199.498 274.267L192.587 281.151ZM184.488 289.212L177.578 282.328L184.488 275.443L191.398 282.328L184.488 289.212ZM176.395 297.273L169.485 290.388L176.395 283.504L183.305 290.388L176.395 297.273ZM168.302 305.34L161.392 298.456L168.302 291.571L175.212 298.456L168.302 305.34ZM160.209 313.401L153.298 306.517L160.209 299.632L167.119 306.517L160.209 313.401ZM152.116 307.699L159.026 314.584L152.116 321.469L145.205 314.584L152.116 307.699ZM144.023 299.632L150.933 306.517L144.023 313.401L137.112 306.517L144.023 299.632ZM135.93 291.571L142.84 298.456L135.93 305.34L129.019 298.456L135.93 291.571ZM127.83 283.51L134.74 290.395L127.83 297.279L120.92 290.395L127.83 283.51ZM126.647 282.328L119.737 289.212L112.827 282.328L119.737 275.443L126.647 282.328ZM134.74 274.267L127.83 281.151L120.92 274.267L127.83 267.382L134.74 274.267ZM142.84 266.206L135.93 273.09L129.019 266.206L135.93 259.321L142.84 266.206ZM150.933 258.138L144.023 265.023L137.112 258.138L144.023 251.254L150.933 258.138ZM152.116 256.962L145.205 250.078L152.116 243.193L159.026 250.078L152.116 256.962ZM160.209 265.023L153.298 258.138L160.209 251.254L167.119 258.138L160.209 265.023ZM168.302 273.09L161.391 266.206L168.302 259.321L175.212 266.206L168.302 273.09ZM169.485 274.267L176.395 267.382L183.305 274.267L176.395 281.151L169.485 274.267ZM161.391 282.328L168.302 275.443L175.212 282.328L168.302 289.212L161.391 282.328ZM153.298 290.395L160.209 283.51L167.119 290.395L160.209 297.279L153.298 290.395ZM152.116 291.571L159.026 298.456L152.116 305.34L145.205 298.456L152.116 291.571ZM144.023 283.51L150.933 290.395L144.023 297.279L137.112 290.395L144.023 283.51ZM142.84 282.328L135.93 289.212L129.019 282.328L135.93 275.443L142.84 282.328ZM150.933 274.267L144.023 281.151L137.112 274.267L144.023 267.382L150.933 274.267ZM152.116 273.09L145.205 266.206L152.116 259.321L159.026 266.206L152.116 273.09ZM159.026 282.328L152.116 289.212L145.205 282.328L152.116 275.443L159.026 282.328ZM153.298 274.267L160.209 267.382L167.119 274.267L160.209 281.151L153.298 274.267ZM102.439 274.337L151.949 323.654L102.439 323.654L102.439 274.337ZM52.0422 191.003L59.4603 191.003L59.4603 311.511L52.0423 311.511L52.0422 191.003ZM52.0422 153.97L100.761 153.97L100.761 170.818L52.0422 170.818L52.0422 153.97ZM52.0422 135.451L100.761 135.451L100.761 152.299L52.0422 152.299L52.0422 135.451ZM52.0422 116.983L100.761 116.983L100.761 133.779L52.0422 133.779L52.0422 116.983ZM100.768 189.332L52.0487 189.332L52.0487 172.483L100.768 172.483L100.768 189.332ZM93.2145 191.003L100.768 191.003L100.768 311.511L93.2145 311.511L93.2145 191.003ZM91.5432 296.592L91.5432 311.511L77.2342 311.511L91.5432 296.592ZM61.1316 296.624L75.4086 311.511L61.1316 311.511L61.1316 296.624ZM91.5432 192.983L77.157 207.986L77.157 191.003L91.5432 191.003L91.5432 192.983ZM77.157 291.353L91.5432 276.356L91.5432 294.181L77.157 309.184L77.157 291.359L77.157 291.353ZM61.1316 276.388L75.4857 291.353L75.4857 309.178L61.1316 294.213L61.1316 276.388ZM75.4857 228.222L61.1316 213.257L61.1316 195.432L75.4857 210.397L75.4857 228.222ZM91.5432 213.225L77.157 228.222L77.157 210.397L91.5432 195.4L91.5432 213.225ZM91.5432 233.461L77.157 248.464L77.157 230.639L91.5432 215.642L91.5432 233.467L91.5432 233.461ZM91.5432 253.703L77.157 268.706L77.157 250.881L91.5432 235.884L91.5432 253.709L91.5432 253.703ZM75.4857 271.117L75.4857 288.942L61.1316 273.977L61.1316 256.152L75.4857 271.117ZM75.4857 250.875L75.4857 268.7L61.1316 253.735L61.1316 235.91L75.4857 250.875ZM75.4857 248.458L61.1316 233.493L61.1316 215.668L75.4857 230.632L75.4857 248.458ZM91.5432 273.939L77.157 288.936L77.157 271.11L91.5432 256.107L91.5432 273.932L91.5432 273.939ZM75.4857 191.003L75.4857 207.986L61.1316 193.021L61.1316 191.003L75.4857 191.003ZM116.574 170.812L102.432 170.812L102.432 98.5147L116.574 98.5147L116.574 170.812ZM130.459 170.812L118.246 170.812L118.246 98.5147L130.459 98.5147L130.459 170.812ZM144.338 170.812L132.124 170.812L132.124 98.5147L144.338 98.5147L144.338 170.812ZM158.222 170.812L146.009 170.812L146.009 98.5147L158.222 98.5147L158.222 170.812ZM159.894 98.5147L172.101 98.5147L172.101 170.812L159.894 170.812L159.894 98.5147ZM100.768 115.311L52.0487 115.311L52.0486 98.5147L100.768 98.5147L100.768 115.311ZM32.6613 90.4537L38.3567 90.4537L46.6876 96.8498L24.3305 96.8498L32.6613 90.4537ZM17.6195 82.5536L21.8235 82.5536L31.0158 89.6117L21.8235 96.6698L17.6195 96.6698L8.42722 89.6117L17.6195 82.5536ZM48.9117 65.9689L48.886 65.9368L48.9117 65.9046L48.9117 65.9689ZM53.3986 66.7725L62.5908 73.8306L53.3986 80.8886L49.1689 80.8886L39.9766 73.8306L49.1689 66.7725L53.3986 66.7725ZM84.8194 66.7724L94.0116 73.8306L84.8194 80.8886L80.6153 80.8886L71.4231 73.8306L80.6153 66.7724L84.8194 66.7724ZM214.07 53.0291L102.439 53.0291L102.439 42.1205L214.07 42.1205L214.07 53.0291ZM102.439 70.4815L214.07 70.4815L214.07 81.3901L102.439 81.3901L102.439 70.4815ZM95.6637 90.4537L100.768 90.4537L100.768 96.8497L87.3328 96.8498L95.6637 90.4537ZM64.2428 90.4537L69.7839 90.4537L78.1148 96.8498L55.9184 96.8498L64.2493 90.4537L64.2428 90.4537ZM84.8194 82.5535L94.0116 89.6117L84.8194 96.6698L80.6153 96.6698L71.4231 89.6117L80.6153 82.5535L84.8194 82.5535ZM214.07 68.8166L102.439 68.8166L102.439 54.7004L214.07 54.7004L214.07 68.8166ZM95.6572 74.6726L100.761 74.6726L100.761 88.7824L95.6765 88.7824L86.4714 81.7179L95.6508 74.6726L95.6572 74.6726ZM64.2364 74.6726L69.7839 74.6726L78.9633 81.7179L69.7582 88.7824L64.2557 88.7824L55.0506 81.7179L64.23 74.6726L64.2364 74.6726ZM49.1753 82.5536L53.405 82.5535L62.5972 89.6117L53.405 96.6698L49.201 96.6698L39.9959 89.6052L49.1753 82.56L49.1753 82.5536ZM38.601 89.6181L38.6074 89.6181L38.601 89.6374L38.601 89.6181ZM48.9117 81.75L48.886 81.7179L48.9117 81.6858L48.9117 81.75ZM32.6807 88.7824L23.4755 81.7179L32.6549 74.6726L38.3374 74.6726L47.5168 81.7179L38.3117 88.7824L32.6742 88.7824L32.6807 88.7824ZM248.094 28.4864C230.873 29.3863 216.989 43.0654 215.741 60.2029L215.741 28.4864L248.094 28.4864ZM202.217 4.15583L213.575 26.8086L190.858 26.8086L202.217 4.15583ZM176.768 4.11726L188.145 26.8086L165.39 26.8086L176.768 4.11726ZM153.279 3.36519L175.283 3.36518L164.059 25.7544L153.286 3.36519L153.279 3.36519ZM152.077 4.71507L162.709 26.8086L141.001 26.8086L152.077 4.71507ZM128.82 3.36519L150.888 3.36519L139.632 25.8187L128.826 3.36519L128.82 3.36519ZM114.736 26.77L103.467 3.35875L126.474 3.35875L114.736 26.77ZM127.637 4.76649L138.25 26.815L116.587 26.815L127.644 4.76649L127.637 4.76649ZM200.7 3.45518L189.502 25.7801L178.259 3.35875L198.25 3.35874L198.25 3.44874L200.693 3.44874L200.7 3.45518ZM277.921 4.41297L289.151 26.815L266.685 26.815L277.915 4.41297L277.921 4.41297ZM254.143 3.45517L276.532 3.45517L265.335 25.7801L254.137 3.45517L254.143 3.45517ZM252.729 4.36795L263.985 26.815L241.473 26.815L252.729 4.36795ZM228.926 3.45518L251.315 3.45517L240.117 25.7801L228.919 3.45518L228.926 3.45518ZM214.925 25.7866L203.727 3.46162L226.117 3.46162L214.919 25.7866L214.925 25.7866ZM227.524 4.39365L238.767 26.815L216.281 26.815L227.524 4.39365ZM95.6572 58.8851L100.761 58.8851L100.761 73.0013L95.6829 73.0013L86.4778 65.9368L95.6637 58.8915L95.6572 58.8851ZM64.2364 58.8851L69.7839 58.8851L78.9697 65.9304L69.7646 72.9949L64.2686 72.9949L55.057 65.9304L64.2428 58.8851L64.2364 58.8851ZM32.6549 58.8851L38.3374 58.8851L47.5233 65.9304L38.3181 72.9949L32.6871 72.9949L23.482 65.9304L32.6678 58.8851L32.6549 58.8851ZM17.6195 66.7725L21.8235 66.7725L31.0157 73.8306L21.8235 80.8886L17.6195 80.8886L8.42722 73.8306L17.6195 66.7725ZM25.854 262.927C23.212 262.927 21.065 260.78 21.065 258.138C21.065 255.496 23.212 253.349 25.854 253.349C28.496 253.349 30.6429 255.496 30.6429 258.138C30.6429 260.78 28.496 262.927 25.854 262.927ZM46.2055 336.845L1.6777 336.845L1.6777 325.325L69.6425 325.325C60.1674 325.473 51.7273 329.941 46.2055 336.845ZM41.1723 355.93C41.1723 339.969 54.1571 326.978 70.1246 326.978C86.0922 326.978 99.077 339.962 99.077 355.93C99.077 371.897 86.0922 384.882 70.1246 384.882C54.1571 384.882 41.1723 371.897 41.1723 355.93ZM1.6777 363.952L40.5745 363.952C41.6865 368.034 43.6214 371.782 46.1862 374.996L1.67129 374.996L1.67129 363.952L1.6777 363.952ZM40.1695 349.566L1.67129 349.566L1.67129 338.516L44.952 338.516C42.6764 341.794 41.0244 345.529 40.1695 349.566ZM1.6777 351.237L39.8673 351.237C39.6295 352.767 39.5074 354.336 39.5074 355.936C39.5074 358.115 39.7388 360.237 40.1759 362.287L1.68411 362.287L1.68411 351.244L1.6777 351.237ZM1.67768 176.887C1.67768 183.154 6.44096 188.322 12.5413 188.991C6.44737 189.653 1.68409 194.828 1.67769 201.089L1.67768 176.887ZM1.67768 153.019C1.67768 158.881 5.856 163.792 11.3842 164.943C5.856 166.094 1.68409 170.998 1.67768 176.867L1.67768 153.025L1.67768 153.019ZM13.8655 139.661C8.06727 139.661 3.34901 134.943 3.34901 129.145C3.34901 123.347 8.06727 118.628 13.8655 118.628C19.6636 118.628 24.3819 123.347 24.3819 129.145C24.3819 134.943 19.6636 139.661 13.8655 139.661ZM27.6474 129.138C27.6474 123.34 32.3657 118.622 38.1639 118.622C43.9621 118.622 48.6803 123.34 48.6803 129.138C48.6803 134.937 43.9621 139.655 38.1639 139.655C32.3657 139.655 27.6474 134.937 27.6474 129.138ZM27.6474 153.006C27.6474 147.208 32.3657 142.49 38.1639 142.49C43.9621 142.49 48.6803 147.208 48.6803 153.006C48.6803 158.804 43.9621 163.523 38.1639 163.523C32.3657 163.523 27.6474 158.804 27.6474 153.006ZM27.6474 176.874C27.6474 171.076 32.3657 166.357 38.1639 166.357C43.9621 166.357 48.6803 171.076 48.6803 176.874C48.6803 182.672 43.9621 187.39 38.1639 187.39C32.3657 187.39 27.6474 182.672 27.6474 176.874ZM38.1639 190.585C43.9621 190.585 48.6803 195.303 48.6803 201.101C48.6803 206.9 43.9621 211.618 38.1639 211.618C32.3657 211.618 27.6474 206.9 27.6474 201.101C27.6474 195.303 32.3657 190.585 38.1639 190.585ZM24.3819 201.101C24.3819 206.9 19.6636 211.618 13.8655 211.618C8.06727 211.618 3.34901 206.9 3.34901 201.101C3.34901 195.303 8.06727 190.585 13.8655 190.585C19.6636 190.585 24.3819 195.303 24.3819 201.101ZM24.3819 176.874C24.3819 182.672 19.6636 187.39 13.8655 187.39C8.06727 187.39 3.34901 182.672 3.34901 176.874C3.34901 171.076 8.06727 166.357 13.8655 166.357C19.6636 166.357 24.3819 171.076 24.3819 176.874ZM26.0147 153.758C26.3554 159.293 30.3858 163.844 35.6826 164.943C30.3858 166.042 26.3489 170.593 26.0147 176.128C25.674 170.593 21.6435 166.042 16.3467 164.943C21.6435 163.844 25.674 159.293 26.0147 153.758ZM24.3819 153.006C24.3819 158.804 19.6636 163.523 13.8655 163.523C8.06727 163.523 3.34901 158.804 3.34901 153.006C3.34901 147.208 8.06727 142.49 13.8655 142.49C19.6636 142.49 24.3819 147.208 24.3819 153.006ZM26.0147 200.356C25.6483 194.429 21.0457 189.627 15.1896 188.991C21.0393 188.354 25.6483 183.553 26.0147 177.626C26.3811 183.553 30.9836 188.354 36.8396 188.991C30.99 189.627 26.3811 194.423 26.0147 200.356ZM26.0147 129.89C26.3554 135.425 30.3858 139.976 35.6826 141.075C30.3858 142.175 26.3489 146.726 26.0147 152.26C25.674 146.726 21.6435 142.175 16.3467 141.075C21.6435 139.976 25.674 135.425 26.0147 129.89ZM1.67768 129.151C1.67768 135.014 5.856 139.925 11.3842 141.075C5.856 142.226 1.68409 147.131 1.67768 153L1.67768 129.158L1.67768 129.151ZM100.768 323.654L1.6777 323.654L1.6777 313.183L100.768 313.183L100.768 323.654ZM302.329 84.8291L276.018 84.8291C278.557 81.84 280.595 78.4074 281.996 74.6662L302.329 74.6662L302.329 84.8291ZM1.67767 58.8851L6.78162 58.8851L15.9675 65.9304L6.75592 72.9949L1.67768 72.9949L1.67767 58.8787L1.67767 58.8851ZM1.6777 386.579L1.6777 376.674L47.6197 376.674C53.2186 382.742 61.2345 386.554 70.1246 386.554C87.0114 386.554 100.748 372.817 100.748 355.93C100.748 339.043 87.2749 325.583 70.6068 325.319L100.768 325.319L100.768 386.573L1.6777 386.573L1.6777 386.579ZM96.9557 388.251L100.768 388.251L100.768 399.243L96.9557 399.243L96.9557 388.251ZM91.6846 388.251L95.2908 388.251L95.2908 399.243L91.6846 399.243L91.6846 388.251ZM86.4071 388.251L90.0133 388.251L90.0133 399.243L86.4072 399.243L86.4071 388.251ZM81.1296 388.251L84.7358 388.251L84.7358 399.243L81.1296 399.243L81.1296 388.251ZM75.8585 388.251L79.4648 388.251L79.4648 399.243L75.8586 399.243L75.8585 388.251ZM70.581 388.251L74.1872 388.251L74.1872 399.243L70.581 399.243L70.581 388.251ZM65.31 388.251L68.9097 388.251L68.9097 399.243L65.31 399.243L65.31 388.251ZM60.0325 388.251L63.6386 388.251L63.6386 399.243L60.0325 399.243L60.0325 388.251ZM54.7549 388.251L58.3611 388.251L58.3611 399.243L54.7549 399.243L54.7549 388.251ZM49.4839 388.251L53.0901 388.251L53.0901 399.243L49.4839 399.243L49.4839 388.251ZM44.2064 388.251L47.8125 388.251L47.8125 399.243L44.2064 399.243L44.2064 388.251ZM38.9353 388.251L42.535 388.251L42.535 399.243L38.9353 399.243L38.9353 388.251ZM33.6577 388.251L37.2639 388.251L37.2639 399.243L33.6577 399.243L33.6577 388.251ZM28.3802 388.251L31.9864 388.251L31.9864 399.243L28.3802 399.243L28.3802 388.251ZM23.1092 388.251L26.7153 388.251L26.7153 399.243L23.1092 399.243L23.1092 388.251ZM17.8316 388.251L21.4379 388.251L21.4379 399.243L17.8316 399.243L17.8316 388.251ZM12.5606 388.251L16.1668 388.251L16.1668 399.243L12.5606 399.243L12.5606 388.251ZM10.8893 399.243L7.28949 399.243L7.28949 388.251L10.8893 388.251L10.8893 399.243ZM201.522 400.914L304 400.914L304 1.681L-9.59372e-05 1.68103L-6.10352e-05 400.914L201.522 400.914Z" fill="#D1D4D5"/>
<path d="M299.11 161.508C299.496 161.508 299.805 161.193 299.805 160.814C299.805 160.434 299.49 160.119 299.11 160.119C298.731 160.119 298.416 160.434 298.416 160.814C298.416 161.193 298.731 161.508 299.11 161.508Z" fill="#D1D4D5"/>
<path d="M299.11 168.008C299.496 168.008 299.805 167.693 299.805 167.314C299.805 166.934 299.49 166.619 299.11 166.619C298.731 166.619 298.416 166.934 298.416 167.314C298.416 167.693 298.731 168.008 299.11 168.008Z" fill="#D1D4D5"/>
<path d="M299.11 174.508C299.496 174.508 299.805 174.193 299.805 173.814C299.805 173.434 299.49 173.119 299.11 173.119C298.731 173.119 298.416 173.434 298.416 173.814C298.416 174.193 298.731 174.508 299.11 174.508Z" fill="#D1D4D5"/>
<path d="M299.11 181.008C299.496 181.008 299.805 180.693 299.805 180.314C299.805 179.934 299.49 179.619 299.11 179.619C298.731 179.619 298.416 179.934 298.416 180.314C298.416 180.693 298.731 181.008 299.11 181.008Z" fill="#D1D4D5"/>
<path d="M299.11 187.516C299.496 187.516 299.805 187.201 299.805 186.821C299.805 186.442 299.49 186.127 299.11 186.127C298.731 186.127 298.416 186.442 298.416 186.821C298.416 187.201 298.731 187.516 299.11 187.516Z" fill="#D1D4D5"/>
<path d="M299.11 194.008C299.496 194.008 299.805 193.693 299.805 193.314C299.805 192.934 299.49 192.619 299.11 192.619C298.731 192.619 298.416 192.934 298.416 193.314C298.416 193.693 298.731 194.008 299.11 194.008Z" fill="#D1D4D5"/>
<path d="M299.11 200.516C299.496 200.516 299.805 200.201 299.805 199.821C299.805 199.442 299.49 199.127 299.11 199.127C298.731 199.127 298.416 199.442 298.416 199.821C298.416 200.201 298.731 200.516 299.11 200.516Z" fill="#D1D4D5"/>
<path d="M299.11 207.016C299.496 207.016 299.805 206.701 299.805 206.321C299.805 205.942 299.49 205.627 299.11 205.627C298.731 205.627 298.416 205.942 298.416 206.321C298.416 206.701 298.731 207.016 299.11 207.016Z" fill="#D1D4D5"/>
<path d="M299.11 213.523C299.496 213.523 299.805 213.208 299.805 212.829C299.805 212.45 299.49 212.135 299.11 212.135C298.731 212.135 298.416 212.45 298.416 212.829C298.416 213.208 298.731 213.523 299.11 213.523Z" fill="#D1D4D5"/>
<path d="M299.11 220.023C299.496 220.023 299.805 219.708 299.805 219.329C299.805 218.95 299.49 218.635 299.11 218.635C298.731 218.635 298.416 218.95 298.416 219.329C298.416 219.708 298.731 220.023 299.11 220.023Z" fill="#D1D4D5"/>
<path d="M294.681 161.508C295.066 161.508 295.375 161.193 295.375 160.814C295.375 160.434 295.06 160.119 294.681 160.119C294.301 160.119 293.987 160.434 293.987 160.814C293.987 161.193 294.301 161.508 294.681 161.508Z" fill="#D1D4D5"/>
<path d="M299.11 155.008C299.496 155.008 299.805 154.693 299.805 154.314C299.805 153.934 299.49 153.619 299.11 153.619C298.731 153.619 298.416 153.934 298.416 154.314C298.416 154.693 298.731 155.008 299.11 155.008Z" fill="#D1D4D5"/>
<path d="M294.681 155.008C295.066 155.008 295.375 154.693 295.375 154.314C295.375 153.934 295.06 153.619 294.681 153.619C294.301 153.619 293.987 153.934 293.987 154.314C293.987 154.693 294.301 155.008 294.681 155.008Z" fill="#D1D4D5"/>
<path d="M299.11 148.5C299.496 148.5 299.805 148.185 299.805 147.806C299.805 147.427 299.49 147.112 299.11 147.112C298.731 147.112 298.416 147.427 298.416 147.806C298.416 148.185 298.731 148.5 299.11 148.5Z" fill="#D1D4D5"/>
<path d="M294.681 148.5C295.066 148.5 295.375 148.185 295.375 147.806C295.375 147.427 295.06 147.112 294.681 147.112C294.301 147.112 293.987 147.427 293.987 147.806C293.987 148.185 294.301 148.5 294.681 148.5Z" fill="#D1D4D5"/>
<path d="M299.11 142C299.496 142 299.805 141.685 299.805 141.306C299.805 140.927 299.49 140.612 299.11 140.612C298.731 140.612 298.416 140.927 298.416 141.306C298.416 141.685 298.731 142 299.11 142Z" fill="#D1D4D5"/>
<path d="M294.681 142C295.066 142 295.375 141.685 295.375 141.306C295.375 140.927 295.06 140.612 294.681 140.612C294.301 140.612 293.987 140.927 293.987 141.306C293.987 141.685 294.301 142 294.681 142Z" fill="#D1D4D5"/>
<path d="M294.681 168.008C295.066 168.008 295.375 167.693 295.375 167.314C295.375 166.934 295.06 166.619 294.681 166.619C294.301 166.619 293.987 166.934 293.987 167.314C293.987 167.693 294.301 168.008 294.681 168.008Z" fill="#D1D4D5"/>
<path d="M299.11 128.508C299.496 128.508 299.805 128.193 299.805 127.814C299.805 127.434 299.49 127.119 299.11 127.119C298.731 127.119 298.416 127.434 298.416 127.814C298.416 128.193 298.731 128.508 299.11 128.508Z" fill="#D1D4D5"/>
<path d="M299.11 135.008C299.496 135.008 299.805 134.693 299.805 134.314C299.805 133.934 299.49 133.619 299.11 133.619C298.731 133.619 298.416 133.934 298.416 134.314C298.416 134.693 298.731 135.008 299.11 135.008Z" fill="#D1D4D5"/>
<path d="M294.681 128.508C295.066 128.508 295.375 128.193 295.375 127.814C295.375 127.434 295.06 127.119 294.681 127.119C294.301 127.119 293.987 127.434 293.987 127.814C293.987 128.193 294.301 128.508 294.681 128.508Z" fill="#D1D4D5"/>
<path d="M299.11 122C299.496 122 299.805 121.685 299.805 121.306C299.805 120.926 299.49 120.612 299.11 120.612C298.731 120.612 298.416 120.926 298.416 121.306C298.416 121.685 298.731 122 299.11 122Z" fill="#D1D4D5"/>
<path d="M294.681 122C295.066 122 295.375 121.685 295.375 121.306C295.375 120.926 295.06 120.612 294.681 120.612C294.301 120.612 293.987 120.926 293.987 121.306C293.987 121.685 294.301 122 294.681 122Z" fill="#D1D4D5"/>
<path d="M299.11 115.508C299.496 115.508 299.805 115.193 299.805 114.814C299.805 114.434 299.49 114.119 299.11 114.119C298.731 114.119 298.416 114.434 298.416 114.814C298.416 115.193 298.731 115.508 299.11 115.508Z" fill="#D1D4D5"/>
<path d="M294.681 115.508C295.066 115.508 295.375 115.193 295.375 114.814C295.375 114.434 295.06 114.119 294.681 114.119C294.301 114.119 293.987 114.434 293.987 114.814C293.987 115.193 294.301 115.508 294.681 115.508Z" fill="#D1D4D5"/>
<path d="M299.11 109.008C299.496 109.008 299.805 108.693 299.805 108.314C299.805 107.934 299.49 107.619 299.11 107.619C298.731 107.619 298.416 107.934 298.416 108.314C298.416 108.693 298.731 109.008 299.11 109.008Z" fill="#D1D4D5"/>
<path d="M294.681 109.008C295.066 109.008 295.375 108.693 295.375 108.314C295.375 107.934 295.06 107.619 294.681 107.619C294.301 107.619 293.987 107.934 293.987 108.314C293.987 108.693 294.301 109.008 294.681 109.008Z" fill="#D1D4D5"/>
<path d="M294.681 135.008C295.066 135.008 295.375 134.693 295.375 134.314C295.375 133.934 295.06 133.619 294.681 133.619C294.301 133.619 293.987 133.934 293.987 134.314C293.987 134.693 294.301 135.008 294.681 135.008Z" fill="#D1D4D5"/>
<path d="M294.681 174.508C295.066 174.508 295.375 174.193 295.375 173.814C295.375 173.434 295.06 173.119 294.681 173.119C294.301 173.119 293.987 173.434 293.987 173.814C293.987 174.193 294.301 174.508 294.681 174.508Z" fill="#D1D4D5"/>
<path d="M299.11 102.5C299.496 102.5 299.805 102.185 299.805 101.806C299.805 101.427 299.49 101.112 299.11 101.112C298.731 101.112 298.416 101.427 298.416 101.806C298.416 102.185 298.731 102.5 299.11 102.5Z" fill="#D1D4D5"/>
<path d="M294.681 102.5C295.066 102.5 295.375 102.185 295.375 101.806C295.375 101.427 295.06 101.112 294.681 101.112C294.301 101.112 293.987 101.427 293.987 101.806C293.987 102.185 294.301 102.5 294.681 102.5Z" fill="#D1D4D5"/>
<path d="M294.681 181.008C295.066 181.008 295.375 180.693 295.375 180.314C295.375 179.934 295.06 179.619 294.681 179.619C294.301 179.619 293.987 179.934 293.987 180.314C293.987 180.693 294.301 181.008 294.681 181.008Z" fill="#D1D4D5"/>
<path d="M294.681 187.516C295.066 187.516 295.375 187.201 295.375 186.821C295.375 186.442 295.06 186.127 294.681 186.127C294.301 186.127 293.987 186.442 293.987 186.821C293.987 187.201 294.301 187.516 294.681 187.516Z" fill="#D1D4D5"/>
<path d="M294.681 194.008C295.066 194.008 295.375 193.693 295.375 193.314C295.375 192.934 295.06 192.619 294.681 192.619C294.301 192.619 293.987 192.934 293.987 193.314C293.987 193.693 294.301 194.008 294.681 194.008Z" fill="#D1D4D5"/>
<path d="M294.681 200.516C295.066 200.516 295.375 200.201 295.375 199.821C295.375 199.442 295.06 199.127 294.681 199.127C294.301 199.127 293.987 199.442 293.987 199.821C293.987 200.201 294.301 200.516 294.681 200.516Z" fill="#D1D4D5"/>
<path d="M294.681 207.016C295.066 207.016 295.375 206.701 295.375 206.321C295.375 205.942 295.06 205.627 294.681 205.627C294.301 205.627 293.987 205.942 293.987 206.321C293.987 206.701 294.301 207.016 294.681 207.016Z" fill="#D1D4D5"/>
<path d="M294.681 213.523C295.066 213.523 295.375 213.208 295.375 212.829C295.375 212.45 295.06 212.135 294.681 212.135C294.301 212.135 293.987 212.45 293.987 212.829C293.987 213.208 294.301 213.523 294.681 213.523Z" fill="#D1D4D5"/>
<path d="M294.681 220.023C295.066 220.023 295.375 219.708 295.375 219.329C295.375 218.95 295.06 218.635 294.681 218.635C294.301 218.635 293.987 218.95 293.987 219.329C293.987 219.708 294.301 220.023 294.681 220.023Z" fill="#D1D4D5"/>
<path d="M210.845 160.119C210.459 160.119 210.151 160.428 210.151 160.814C210.151 161.199 210.466 161.508 210.845 161.508C211.224 161.508 211.539 161.193 211.539 160.814C211.539 160.434 211.224 160.119 210.845 160.119Z" fill="#D1D4D5"/>
<path d="M210.845 166.612C210.459 166.612 210.151 166.92 210.151 167.306C210.151 167.691 210.466 168 210.845 168C211.224 168 211.539 167.685 211.539 167.306C211.539 166.927 211.224 166.612 210.845 166.612Z" fill="#D1D4D5"/>
<path d="M210.845 173.119C210.459 173.119 210.151 173.428 210.151 173.814C210.151 174.199 210.466 174.508 210.845 174.508C211.224 174.508 211.539 174.193 211.539 173.814C211.539 173.434 211.224 173.119 210.845 173.119Z" fill="#D1D4D5"/>
<path d="M210.845 179.619C210.459 179.619 210.151 179.928 210.151 180.314C210.151 180.699 210.466 181.008 210.845 181.008C211.224 181.008 211.539 180.693 211.539 180.314C211.539 179.934 211.224 179.619 210.845 179.619Z" fill="#D1D4D5"/>
<path d="M210.845 186.127C210.459 186.127 210.151 186.436 210.151 186.821C210.151 187.207 210.466 187.516 210.845 187.516C211.224 187.516 211.539 187.201 211.539 186.821C211.539 186.442 211.224 186.127 210.845 186.127Z" fill="#D1D4D5"/>
<path d="M210.845 192.619C210.459 192.619 210.151 192.928 210.151 193.314C210.151 193.699 210.466 194.008 210.845 194.008C211.224 194.008 211.539 193.693 211.539 193.314C211.539 192.934 211.224 192.619 210.845 192.619Z" fill="#D1D4D5"/>
<path d="M210.845 199.119C210.459 199.119 210.151 199.428 210.151 199.814C210.151 200.199 210.466 200.508 210.845 200.508C211.224 200.508 211.539 200.193 211.539 199.814C211.539 199.434 211.224 199.119 210.845 199.119Z" fill="#D1D4D5"/>
<path d="M210.845 205.627C210.459 205.627 210.151 205.936 210.151 206.321C210.151 206.707 210.466 207.016 210.845 207.016C211.224 207.016 211.539 206.701 211.539 206.321C211.539 205.942 211.224 205.627 210.845 205.627Z" fill="#D1D4D5"/>
<path d="M210.845 212.127C210.459 212.127 210.151 212.436 210.151 212.821C210.151 213.207 210.466 213.516 210.845 213.516C211.224 213.516 211.539 213.201 211.539 212.821C211.539 212.442 211.224 212.127 210.845 212.127Z" fill="#D1D4D5"/>
<path d="M210.845 218.635C210.459 218.635 210.151 218.943 210.151 219.329C210.151 219.715 210.466 220.023 210.845 220.023C211.224 220.023 211.539 219.708 211.539 219.329C211.539 218.95 211.224 218.635 210.845 218.635Z" fill="#D1D4D5"/>
<path d="M206.423 160.119C206.037 160.119 205.729 160.428 205.729 160.814C205.729 161.199 206.044 161.508 206.423 161.508C206.802 161.508 207.117 161.193 207.117 160.814C207.117 160.434 206.802 160.119 206.423 160.119Z" fill="#D1D4D5"/>
<path d="M210.845 153.612C210.459 153.612 210.151 153.92 210.151 154.306C210.151 154.691 210.466 155 210.845 155C211.224 155 211.539 154.685 211.539 154.306C211.539 153.927 211.224 153.612 210.845 153.612Z" fill="#D1D4D5"/>
<path d="M206.423 153.612C206.037 153.612 205.729 153.92 205.729 154.306C205.729 154.691 206.044 155 206.423 155C206.802 155 207.117 154.685 207.117 154.306C207.117 153.927 206.802 153.612 206.423 153.612Z" fill="#D1D4D5"/>
<path d="M210.845 147.112C210.459 147.112 210.151 147.42 210.151 147.806C210.151 148.191 210.466 148.5 210.845 148.5C211.224 148.5 211.539 148.185 211.539 147.806C211.539 147.427 211.224 147.112 210.845 147.112Z" fill="#D1D4D5"/>
<path d="M206.423 147.112C206.037 147.112 205.729 147.42 205.729 147.806C205.729 148.191 206.044 148.5 206.423 148.5C206.802 148.5 207.117 148.185 207.117 147.806C207.117 147.427 206.802 147.112 206.423 147.112Z" fill="#D1D4D5"/>
<path d="M210.845 140.612C210.459 140.612 210.151 140.92 210.151 141.306C210.151 141.691 210.466 142 210.845 142C211.224 142 211.539 141.685 211.539 141.306C211.539 140.927 211.224 140.612 210.845 140.612Z" fill="#D1D4D5"/>
<path d="M206.423 140.612C206.037 140.612 205.729 140.92 205.729 141.306C205.729 141.691 206.044 142 206.423 142C206.802 142 207.117 141.685 207.117 141.306C207.117 140.927 206.802 140.612 206.423 140.612Z" fill="#D1D4D5"/>
<path d="M206.423 166.612C206.037 166.612 205.729 166.92 205.729 167.306C205.729 167.691 206.044 168 206.423 168C206.802 168 207.117 167.685 207.117 167.306C207.117 166.927 206.802 166.612 206.423 166.612Z" fill="#D1D4D5"/>
<path d="M210.845 127.112C210.459 127.112 210.151 127.42 210.151 127.806C210.151 128.191 210.466 128.5 210.845 128.5C211.224 128.5 211.539 128.185 211.539 127.806C211.539 127.427 211.224 127.112 210.845 127.112Z" fill="#D1D4D5"/>
<path d="M210.845 133.619C210.459 133.619 210.151 133.928 210.151 134.314C210.151 134.699 210.466 135.008 210.845 135.008C211.224 135.008 211.539 134.693 211.539 134.314C211.539 133.934 211.224 133.619 210.845 133.619Z" fill="#D1D4D5"/>
<path d="M206.423 127.112C206.037 127.112 205.729 127.42 205.729 127.806C205.729 128.191 206.044 128.5 206.423 128.5C206.802 128.5 207.117 128.185 207.117 127.806C207.117 127.427 206.802 127.112 206.423 127.112Z" fill="#D1D4D5"/>
<path d="M210.845 120.612C210.459 120.612 210.151 120.92 210.151 121.306C210.151 121.691 210.466 122 210.845 122C211.224 122 211.539 121.685 211.539 121.306C211.539 120.926 211.224 120.612 210.845 120.612Z" fill="#D1D4D5"/>
<path d="M206.423 120.612C206.037 120.612 205.729 120.92 205.729 121.306C205.729 121.691 206.044 122 206.423 122C206.802 122 207.117 121.685 207.117 121.306C207.117 120.926 206.802 120.612 206.423 120.612Z" fill="#D1D4D5"/>
<path d="M210.845 114.119C210.459 114.119 210.151 114.428 210.151 114.814C210.151 115.199 210.466 115.508 210.845 115.508C211.224 115.508 211.539 115.193 211.539 114.814C211.539 114.434 211.224 114.119 210.845 114.119Z" fill="#D1D4D5"/>
<path d="M206.423 114.119C206.037 114.119 205.729 114.428 205.729 114.814C205.729 115.199 206.044 115.508 206.423 115.508C206.802 115.508 207.117 115.193 207.117 114.814C207.117 114.434 206.802 114.119 206.423 114.119Z" fill="#D1D4D5"/>
<path d="M210.845 107.611C210.459 107.611 210.151 107.92 210.151 108.306C210.151 108.691 210.466 109 210.845 109C211.224 109 211.539 108.685 211.539 108.306C211.539 107.926 211.224 107.611 210.845 107.611Z" fill="#D1D4D5"/>
<path d="M206.423 107.611C206.037 107.611 205.729 107.92 205.729 108.306C205.729 108.691 206.044 109 206.423 109C206.802 109 207.117 108.685 207.117 108.306C207.117 107.926 206.802 107.611 206.423 107.611Z" fill="#D1D4D5"/>
<path d="M206.423 133.619C206.037 133.619 205.729 133.928 205.729 134.314C205.729 134.699 206.044 135.008 206.423 135.008C206.802 135.008 207.117 134.693 207.117 134.314C207.117 133.934 206.802 133.619 206.423 133.619Z" fill="#D1D4D5"/>
<path d="M206.423 173.119C206.037 173.119 205.729 173.428 205.729 173.814C205.729 174.199 206.044 174.508 206.423 174.508C206.802 174.508 207.117 174.193 207.117 173.814C207.117 173.434 206.802 173.119 206.423 173.119Z" fill="#D1D4D5"/>
<path d="M210.845 101.112C210.459 101.112 210.151 101.42 210.151 101.806C210.151 102.191 210.466 102.5 210.845 102.5C211.224 102.5 211.539 102.185 211.539 101.806C211.539 101.427 211.224 101.112 210.845 101.112Z" fill="#D1D4D5"/>
<path d="M206.423 101.112C206.037 101.112 205.729 101.42 205.729 101.806C205.729 102.191 206.044 102.5 206.423 102.5C206.802 102.5 207.117 102.185 207.117 101.806C207.117 101.427 206.802 101.112 206.423 101.112Z" fill="#D1D4D5"/>
<path d="M206.423 179.619C206.037 179.619 205.729 179.928 205.729 180.314C205.729 180.699 206.044 181.008 206.423 181.008C206.802 181.008 207.117 180.693 207.117 180.314C207.117 179.934 206.802 179.619 206.423 179.619Z" fill="#D1D4D5"/>
<path d="M206.423 186.127C206.037 186.127 205.729 186.436 205.729 186.821C205.729 187.207 206.044 187.516 206.423 187.516C206.802 187.516 207.117 187.201 207.117 186.821C207.117 186.442 206.802 186.127 206.423 186.127Z" fill="#D1D4D5"/>
<path d="M206.423 192.619C206.037 192.619 205.729 192.928 205.729 193.314C205.729 193.699 206.044 194.008 206.423 194.008C206.802 194.008 207.117 193.693 207.117 193.314C207.117 192.934 206.802 192.619 206.423 192.619Z" fill="#D1D4D5"/>
<path d="M206.423 199.119C206.037 199.119 205.729 199.428 205.729 199.814C205.729 200.199 206.044 200.508 206.423 200.508C206.802 200.508 207.117 200.193 207.117 199.814C207.117 199.434 206.802 199.119 206.423 199.119Z" fill="#D1D4D5"/>
<path d="M206.423 205.627C206.037 205.627 205.729 205.936 205.729 206.321C205.729 206.707 206.044 207.016 206.423 207.016C206.802 207.016 207.117 206.701 207.117 206.321C207.117 205.942 206.802 205.627 206.423 205.627Z" fill="#D1D4D5"/>
<path d="M206.423 212.127C206.037 212.127 205.729 212.436 205.729 212.821C205.729 213.207 206.044 213.516 206.423 213.516C206.802 213.516 207.117 213.201 207.117 212.821C207.117 212.442 206.802 212.127 206.423 212.127Z" fill="#D1D4D5"/>
<path d="M206.423 218.635C206.037 218.635 205.729 218.943 205.729 219.329C205.729 219.715 206.044 220.023 206.423 220.023C206.802 220.023 207.117 219.708 207.117 219.329C207.117 218.95 206.802 218.635 206.423 218.635Z" fill="#D1D4D5"/>
<path d="M249.699 88.4693C235.486 88.4693 223.922 76.9051 223.922 62.6989C223.922 48.4926 235.486 36.9284 249.699 36.9284C263.911 36.9284 275.469 48.4926 275.469 62.6989C275.469 76.9051 263.905 88.4693 249.699 88.4693ZM249.699 35.2571C234.567 35.2571 222.257 47.567 222.257 62.6989C222.257 77.8307 234.567 90.1406 249.699 90.1406C264.831 90.1406 277.141 77.8307 277.141 62.6989C277.141 47.567 264.831 35.2571 249.699 35.2571Z" fill="#D1D4D5"/>
<path d="M222.194 154.684C221.48 154.684 220.895 155.263 220.895 155.983C220.895 156.703 221.474 157.281 222.194 157.281C222.914 157.281 223.492 156.703 223.492 155.983C223.492 155.263 222.914 154.684 222.194 154.684Z" fill="#D1D4D5"/>
<path d="M234.319 154.684C233.605 154.684 233.02 155.263 233.02 155.983C233.02 156.703 233.599 157.281 234.319 157.281C235.039 157.281 235.617 156.703 235.617 155.983C235.617 155.263 235.039 154.684 234.319 154.684Z" fill="#D1D4D5"/>
<path d="M246.444 154.684C245.73 154.684 245.145 155.263 245.145 155.983C245.145 156.703 245.724 157.281 246.444 157.281C247.164 157.281 247.742 156.703 247.742 155.983C247.742 155.263 247.164 154.684 246.444 154.684Z" fill="#D1D4D5"/>
<path d="M258.569 154.684C257.855 154.684 257.27 155.263 257.27 155.983C257.27 156.703 257.849 157.281 258.569 157.281C259.289 157.281 259.867 156.703 259.867 155.983C259.867 155.263 259.289 154.684 258.569 154.684Z" fill="#D1D4D5"/>
<path d="M270.686 154.684C269.972 154.684 269.387 155.263 269.387 155.983C269.387 156.703 269.966 157.281 270.686 157.281C271.406 157.281 271.984 156.703 271.984 155.983C271.984 155.263 271.406 154.684 270.686 154.684Z" fill="#D1D4D5"/>
<path d="M282.803 157.273C283.517 157.273 284.102 156.688 284.102 155.975C284.102 155.261 283.523 154.676 282.803 154.676C282.083 154.676 281.505 155.255 281.505 155.975C281.505 156.695 282.083 157.273 282.803 157.273Z" fill="#D1D4D5"/>
<path d="M222.194 166.778C221.48 166.778 220.895 167.357 220.895 168.077C220.895 168.796 221.474 169.375 222.194 169.375C222.914 169.375 223.492 168.796 223.492 168.077C223.492 167.357 222.914 166.778 222.194 166.778Z" fill="#D1D4D5"/>
<path d="M234.319 166.778C233.605 166.778 233.02 167.357 233.02 168.077C233.02 168.796 233.599 169.375 234.319 169.375C235.039 169.375 235.617 168.796 235.617 168.077C235.617 167.357 235.039 166.778 234.319 166.778Z" fill="#D1D4D5"/>
<path d="M246.444 166.778C245.73 166.778 245.145 167.357 245.145 168.077C245.145 168.796 245.724 169.375 246.444 169.375C247.164 169.375 247.742 168.796 247.742 168.077C247.742 167.357 247.164 166.778 246.444 166.778Z" fill="#D1D4D5"/>
<path d="M258.569 166.778C257.855 166.778 257.27 167.357 257.27 168.077C257.27 168.796 257.849 169.375 258.569 169.375C259.289 169.375 259.867 168.796 259.867 168.077C259.867 167.357 259.289 166.778 258.569 166.778Z" fill="#D1D4D5"/>
<path d="M270.686 166.778C269.972 166.778 269.387 167.357 269.387 168.077C269.387 168.796 269.966 169.375 270.686 169.375C271.406 169.375 271.984 168.796 271.984 168.077C271.984 167.357 271.406 166.778 270.686 166.778Z" fill="#D1D4D5"/>
<path d="M282.803 166.778C282.09 166.778 281.505 167.357 281.505 168.077C281.505 168.796 282.083 169.375 282.803 169.375C283.523 169.375 284.102 168.796 284.102 168.077C284.102 167.357 283.523 166.778 282.803 166.778Z" fill="#D1D4D5"/>
<path d="M222.194 178.88C221.48 178.88 220.895 179.458 220.895 180.178C220.895 180.898 221.474 181.477 222.194 181.477C222.914 181.477 223.492 180.898 223.492 180.178C223.492 179.458 222.914 178.88 222.194 178.88Z" fill="#D1D4D5"/>
<path d="M234.319 178.88C233.605 178.88 233.02 179.458 233.02 180.178C233.02 180.898 233.599 181.477 234.319 181.477C235.039 181.477 235.617 180.898 235.617 180.178C235.617 179.458 235.039 178.88 234.319 178.88Z" fill="#D1D4D5"/>
<path d="M246.444 178.88C245.73 178.88 245.145 179.458 245.145 180.178C245.145 180.898 245.724 181.477 246.444 181.477C247.164 181.477 247.742 180.898 247.742 180.178C247.742 179.458 247.164 178.88 246.444 178.88Z" fill="#D1D4D5"/>
<path d="M258.569 178.88C257.855 178.88 257.27 179.458 257.27 180.178C257.27 180.898 257.849 181.477 258.569 181.477C259.289 181.477 259.867 180.898 259.867 180.178C259.867 179.458 259.289 178.88 258.569 178.88Z" fill="#D1D4D5"/>
<path d="M270.686 178.88C269.972 178.88 269.387 179.458 269.387 180.178C269.387 180.898 269.966 181.477 270.686 181.477C271.406 181.477 271.984 180.898 271.984 180.178C271.984 179.458 271.406 178.88 270.686 178.88Z" fill="#D1D4D5"/>
<path d="M282.803 178.88C282.09 178.88 281.505 179.458 281.505 180.178C281.505 180.898 282.083 181.477 282.803 181.477C283.523 181.477 284.102 180.898 284.102 180.178C284.102 179.458 283.523 178.88 282.803 178.88Z" fill="#D1D4D5"/>
<path d="M222.194 190.973C221.48 190.973 220.895 191.552 220.895 192.272C220.895 192.992 221.474 193.57 222.194 193.57C222.914 193.57 223.492 192.992 223.492 192.272C223.492 191.552 222.914 190.973 222.194 190.973Z" fill="#D1D4D5"/>
<path d="M234.319 190.973C233.605 190.973 233.02 191.552 233.02 192.272C233.02 192.992 233.599 193.57 234.319 193.57C235.039 193.57 235.617 192.992 235.617 192.272C235.617 191.552 235.039 190.973 234.319 190.973Z" fill="#D1D4D5"/>
<path d="M246.444 190.973C245.73 190.973 245.145 191.552 245.145 192.272C245.145 192.992 245.724 193.57 246.444 193.57C247.164 193.57 247.742 192.992 247.742 192.272C247.742 191.552 247.164 190.973 246.444 190.973Z" fill="#D1D4D5"/>
<path d="M258.569 190.973C257.855 190.973 257.27 191.552 257.27 192.272C257.27 192.992 257.849 193.57 258.569 193.57C259.289 193.57 259.867 192.992 259.867 192.272C259.867 191.552 259.289 190.973 258.569 190.973Z" fill="#D1D4D5"/>
<path d="M270.686 190.973C269.972 190.973 269.387 191.552 269.387 192.272C269.387 192.992 269.966 193.57 270.686 193.57C271.406 193.57 271.984 192.992 271.984 192.272C271.984 191.552 271.406 190.973 270.686 190.973Z" fill="#D1D4D5"/>
<path d="M282.803 190.973C282.09 190.973 281.505 191.552 281.505 192.272C281.505 192.992 282.083 193.57 282.803 193.57C283.523 193.57 284.102 192.992 284.102 192.272C284.102 191.552 283.523 190.973 282.803 190.973Z" fill="#D1D4D5"/>
<path d="M222.194 203.083C221.48 203.083 220.895 203.661 220.895 204.381C220.895 205.101 221.474 205.68 222.194 205.68C222.914 205.68 223.492 205.101 223.492 204.381C223.492 203.661 222.914 203.083 222.194 203.083Z" fill="#D1D4D5"/>
<path d="M234.319 203.083C233.605 203.083 233.02 203.661 233.02 204.381C233.02 205.101 233.599 205.68 234.319 205.68C235.039 205.68 235.617 205.101 235.617 204.381C235.617 203.661 235.039 203.083 234.319 203.083Z" fill="#D1D4D5"/>
<path d="M246.444 203.083C245.73 203.083 245.145 203.661 245.145 204.381C245.145 205.101 245.724 205.68 246.444 205.68C247.164 205.68 247.742 205.101 247.742 204.381C247.742 203.661 247.164 203.083 246.444 203.083Z" fill="#D1D4D5"/>
<path d="M258.569 203.083C257.855 203.083 257.27 203.661 257.27 204.381C257.27 205.101 257.849 205.68 258.569 205.68C259.289 205.68 259.867 205.101 259.867 204.381C259.867 203.661 259.289 203.083 258.569 203.083Z" fill="#D1D4D5"/>
<path d="M270.686 203.083C269.972 203.083 269.387 203.661 269.387 204.381C269.387 205.101 269.966 205.68 270.686 205.68C271.406 205.68 271.984 205.101 271.984 204.381C271.984 203.661 271.406 203.083 270.686 203.083Z" fill="#D1D4D5"/>
<path d="M282.803 203.083C282.09 203.083 281.505 203.661 281.505 204.381C281.505 205.101 282.083 205.68 282.803 205.68C283.523 205.68 284.102 205.101 284.102 204.381C284.102 203.661 283.523 203.083 282.803 203.083Z" fill="#D1D4D5"/>
<path d="M222.194 215.176C221.48 215.176 220.895 215.755 220.895 216.475C220.895 217.195 221.474 217.773 222.194 217.773C222.914 217.773 223.492 217.195 223.492 216.475C223.492 215.755 222.914 215.176 222.194 215.176Z" fill="#D1D4D5"/>
<path d="M234.319 215.176C233.605 215.176 233.02 215.755 233.02 216.475C233.02 217.195 233.599 217.773 234.319 217.773C235.039 217.773 235.617 217.195 235.617 216.475C235.617 215.755 235.039 215.176 234.319 215.176Z" fill="#D1D4D5"/>
<path d="M246.444 215.176C245.73 215.176 245.145 215.755 245.145 216.475C245.145 217.195 245.724 217.773 246.444 217.773C247.164 217.773 247.742 217.195 247.742 216.475C247.742 215.755 247.164 215.176 246.444 215.176Z" fill="#D1D4D5"/>
<path d="M258.569 215.176C257.855 215.176 257.27 215.755 257.27 216.475C257.27 217.195 257.849 217.773 258.569 217.773C259.289 217.773 259.867 217.195 259.867 216.475C259.867 215.755 259.289 215.176 258.569 215.176Z" fill="#D1D4D5"/>
<path d="M270.686 215.176C269.972 215.176 269.387 215.755 269.387 216.475C269.387 217.195 269.966 217.773 270.686 217.773C271.406 217.773 271.984 217.195 271.984 216.475C271.984 215.755 271.406 215.176 270.686 215.176Z" fill="#D1D4D5"/>
<path d="M282.803 215.176C282.09 215.176 281.505 215.755 281.505 216.475C281.505 217.195 282.083 217.773 282.803 217.773C283.523 217.773 284.102 217.195 284.102 216.475C284.102 215.755 283.523 215.176 282.803 215.176Z" fill="#D1D4D5"/>
</g>
</svg>
