<svg width="305" height="389" viewBox="0 0 305 389" fill="none" xmlns="http://www.w3.org/2000/svg">
<g clip-path="url(#clip0_2888_1786)">
<g filter="url(#filter0_f_2888_1786)">
<ellipse cx="175.182" cy="292.415" rx="127.312" ry="149.918" transform="rotate(-46.3892 175.182 292.415)" fill="#FED794"/>
</g>
</g>
<mask id="mask0_2888_1786" style="mask-type:alpha" maskUnits="userSpaceOnUse" x="0" y="132" width="305" height="257">
<rect x="0.484375" y="132.453" width="304" height="256" fill="#D9D9D9"/>
</mask>
<g mask="url(#mask0_2888_1786)">
<path d="M38.7421 376.842C39.3592 376.842 39.867 376.341 39.867 375.718C39.867 375.095 39.3656 374.594 38.7421 374.594C38.1186 374.594 37.6172 375.095 37.6172 375.718C37.6172 376.341 38.1186 376.842 38.7421 376.842Z" fill="#FAFAFA"/>
<path d="M26.2968 376.842C26.9139 376.842 27.4217 376.341 27.4217 375.718C27.4217 375.095 26.9203 374.594 26.2968 374.594C25.6733 374.594 25.1719 375.095 25.1719 375.718C25.1719 376.341 25.6733 376.842 26.2968 376.842Z" fill="#FAFAFA"/>
<path d="M13.8593 376.842C14.4764 376.842 14.9842 376.341 14.9842 375.718C14.9842 375.095 14.4828 374.594 13.8593 374.594C13.2358 374.594 12.7344 375.095 12.7344 375.718C12.7344 376.341 13.2358 376.842 13.8593 376.842Z" fill="#FAFAFA"/>
<path d="M88.4921 376.842C89.1092 376.842 89.617 376.341 89.617 375.718C89.617 375.095 89.1156 374.594 88.4921 374.594C87.8686 374.594 87.3672 375.095 87.3672 375.718C87.3672 376.341 87.8686 376.842 88.4921 376.842Z" fill="#FAFAFA"/>
<path d="M76.0546 376.842C76.6717 376.842 77.1795 376.341 77.1795 375.718C77.1795 375.095 76.6781 374.594 76.0546 374.594C75.4311 374.594 74.9297 375.095 74.9297 375.718C74.9297 376.341 75.4311 376.842 76.0546 376.842Z" fill="#FAFAFA"/>
<path d="M63.6171 376.842C64.2342 376.842 64.742 376.341 64.742 375.718C64.742 375.095 64.2406 374.594 63.6171 374.594C62.9936 374.594 62.4922 375.095 62.4922 375.718C62.4922 376.341 62.9936 376.842 63.6171 376.842Z" fill="#FAFAFA"/>
<path d="M51.1796 376.842C51.7967 376.842 52.3045 376.341 52.3045 375.718C52.3045 375.095 51.8031 374.594 51.1796 374.594C50.5561 374.594 50.0547 375.095 50.0547 375.718C50.0547 376.341 50.5561 376.842 51.1796 376.842Z" fill="#FAFAFA"/>
<path d="M38.7421 357.249C39.3592 357.249 39.867 356.747 39.867 356.124C39.867 355.501 39.3656 355 38.7421 355C38.1186 355 37.6172 355.501 37.6172 356.124C37.6172 356.747 38.1186 357.249 38.7421 357.249Z" fill="#FAFAFA"/>
<path d="M26.2968 357.249C26.9139 357.249 27.4217 356.747 27.4217 356.124C27.4217 355.501 26.9203 355 26.2968 355C25.6733 355 25.1719 355.501 25.1719 356.124C25.1719 356.747 25.6733 357.249 26.2968 357.249Z" fill="#FAFAFA"/>
<path d="M76.0546 357.249C76.6717 357.249 77.1795 356.747 77.1795 356.124C77.1795 355.501 76.6781 355 76.0546 355C75.4311 355 74.9297 355.501 74.9297 356.124C74.9297 356.747 75.4311 357.249 76.0546 357.249Z" fill="#FAFAFA"/>
<path d="M63.6171 357.249C64.2342 357.249 64.742 356.747 64.742 356.124C64.742 355.501 64.2406 355 63.6171 355C62.9936 355 62.4922 355.501 62.4922 356.124C62.4922 356.747 62.9936 357.249 63.6171 357.249Z" fill="#FAFAFA"/>
<path d="M51.1796 357.249C51.7967 357.249 52.3045 356.747 52.3045 356.124C52.3045 355.501 51.8031 355 51.1796 355C50.5561 355 50.0547 355.501 50.0547 356.124C50.0547 356.747 50.5561 357.249 51.1796 357.249Z" fill="#FAFAFA"/>
<path d="M38.7421 337.655C39.3592 337.655 39.867 337.154 39.867 336.531C39.867 335.907 39.3656 335.406 38.7421 335.406C38.1186 335.406 37.6172 335.907 37.6172 336.531C37.6172 337.154 38.1186 337.655 38.7421 337.655Z" fill="#FAFAFA"/>
<path d="M63.6171 337.655C64.2342 337.655 64.742 337.154 64.742 336.531C64.742 335.907 64.2406 335.406 63.6171 335.406C62.9936 335.406 62.4922 335.907 62.4922 336.531C62.4922 337.154 62.9936 337.655 63.6171 337.655Z" fill="#FAFAFA"/>
<path d="M51.1796 337.655C51.7967 337.655 52.3045 337.154 52.3045 336.531C52.3045 335.907 51.8031 335.406 51.1796 335.406C50.5561 335.406 50.0547 335.907 50.0547 336.531C50.0547 337.154 50.5561 337.655 51.1796 337.655Z" fill="#FAFAFA"/>
<path d="M32.4687 347.452C33.0858 347.452 33.5936 346.951 33.5936 346.327C33.5936 345.704 33.0922 345.203 32.4687 345.203C31.8451 345.203 31.3438 345.704 31.3438 346.327C31.3438 346.951 31.8451 347.452 32.4687 347.452Z" fill="#FAFAFA"/>
<path d="M69.789 347.452C70.4061 347.452 70.9139 346.951 70.9139 346.327C70.9139 345.704 70.4125 345.203 69.789 345.203C69.1655 345.203 68.6641 345.704 68.6641 346.327C68.6641 346.951 69.1655 347.452 69.789 347.452Z" fill="#FAFAFA"/>
<path d="M57.3515 347.452C57.9686 347.452 58.4764 346.951 58.4764 346.327C58.4764 345.704 57.975 345.203 57.3515 345.203C56.728 345.203 56.2266 345.704 56.2266 346.327C56.2266 346.951 56.728 347.452 57.3515 347.452Z" fill="#FAFAFA"/>
<path d="M44.9062 347.452C45.5233 347.452 46.0311 346.951 46.0311 346.327C46.0311 345.704 45.5297 345.203 44.9062 345.203C44.2826 345.203 43.7812 345.704 43.7812 346.327C43.7812 346.951 44.2826 347.452 44.9062 347.452Z" fill="#FAFAFA"/>
<path d="M57.3515 327.858C57.9686 327.858 58.4764 327.357 58.4764 326.734C58.4764 326.11 57.975 325.609 57.3515 325.609C56.728 325.609 56.2266 326.11 56.2266 326.734C56.2266 327.357 56.728 327.858 57.3515 327.858Z" fill="#FAFAFA"/>
<path d="M44.9062 327.858C45.5233 327.858 46.0311 327.357 46.0311 326.734C46.0311 326.11 45.5297 325.609 44.9062 325.609C44.2826 325.609 43.7812 326.11 43.7812 326.734C43.7812 327.357 44.2826 327.858 44.9062 327.858Z" fill="#FAFAFA"/>
<path d="M51.7031 318.061C52.3202 318.061 52.828 317.56 52.828 316.937C52.828 316.314 52.3266 315.812 51.7031 315.812C51.0795 315.812 50.5781 316.314 50.5781 316.937C50.5781 317.56 51.0795 318.061 51.7031 318.061Z" fill="#FAFAFA"/>
<path d="M32.4687 367.045C33.0858 367.045 33.5936 366.544 33.5936 365.921C33.5936 365.298 33.0922 364.797 32.4687 364.797C31.8451 364.797 31.3438 365.298 31.3438 365.921C31.3438 366.544 31.8451 367.045 32.4687 367.045Z" fill="#FAFAFA"/>
<path d="M20.0312 367.045C20.6483 367.045 21.1561 366.544 21.1561 365.921C21.1561 365.298 20.6547 364.797 20.0312 364.797C19.4076 364.797 18.9062 365.298 18.9062 365.921C18.9062 366.544 19.4076 367.045 20.0312 367.045Z" fill="#FAFAFA"/>
<path d="M82.2265 367.045C82.8436 367.045 83.3514 366.544 83.3514 365.921C83.3514 365.298 82.85 364.797 82.2265 364.797C81.603 364.797 81.1016 365.298 81.1016 365.921C81.1016 366.544 81.603 367.045 82.2265 367.045Z" fill="#FAFAFA"/>
<path d="M69.789 367.045C70.4061 367.045 70.9139 366.544 70.9139 365.921C70.9139 365.298 70.4125 364.797 69.789 364.797C69.1655 364.797 68.6641 365.298 68.6641 365.921C68.6641 366.544 69.1655 367.045 69.789 367.045Z" fill="#FAFAFA"/>
<path d="M57.3515 367.045C57.9686 367.045 58.4764 366.544 58.4764 365.921C58.4764 365.298 57.975 364.797 57.3515 364.797C56.728 364.797 56.2266 365.298 56.2266 365.921C56.2266 366.544 56.728 367.045 57.3515 367.045Z" fill="#FAFAFA"/>
<path d="M44.9062 367.045C45.5233 367.045 46.0311 366.544 46.0311 365.921C46.0311 365.298 45.5297 364.797 44.9062 364.797C44.2826 364.797 43.7812 365.298 43.7812 365.921C43.7812 366.544 44.2826 367.045 44.9062 367.045Z" fill="#FAFAFA"/>
<path d="M140.164 374.594C139.547 374.594 139.039 375.095 139.039 375.718C139.039 376.341 139.54 376.842 140.164 376.842C140.788 376.842 141.289 376.341 141.289 375.718C141.289 375.095 140.788 374.594 140.164 374.594Z" fill="#FAFAFA"/>
<path d="M127.726 374.594C127.109 374.594 126.602 375.095 126.602 375.718C126.602 376.341 127.103 376.842 127.726 376.842C128.35 376.842 128.851 376.341 128.851 375.718C128.851 375.095 128.35 374.594 127.726 374.594Z" fill="#FAFAFA"/>
<path d="M115.281 374.594C114.664 374.594 114.156 375.095 114.156 375.718C114.156 376.341 114.658 376.842 115.281 376.842C115.905 376.842 116.406 376.341 116.406 375.718C116.406 375.095 115.905 374.594 115.281 374.594Z" fill="#FAFAFA"/>
<path d="M189.914 374.594C189.297 374.594 188.789 375.095 188.789 375.718C188.789 376.341 189.29 376.842 189.914 376.842C190.538 376.842 191.039 376.341 191.039 375.718C191.039 375.095 190.538 374.594 189.914 374.594Z" fill="#FAFAFA"/>
<path d="M177.476 374.594C176.859 374.594 176.352 375.095 176.352 375.718C176.352 376.341 176.853 376.842 177.476 376.842C178.1 376.842 178.601 376.341 178.601 375.718C178.601 375.095 178.1 374.594 177.476 374.594Z" fill="#FAFAFA"/>
<path d="M165.039 374.594C164.422 374.594 163.914 375.095 163.914 375.718C163.914 376.341 164.415 376.842 165.039 376.842C165.663 376.842 166.164 376.341 166.164 375.718C166.164 375.095 165.663 374.594 165.039 374.594Z" fill="#FAFAFA"/>
<path d="M152.601 374.594C151.984 374.594 151.477 375.095 151.477 375.718C151.477 376.341 151.978 376.842 152.601 376.842C153.225 376.842 153.726 376.341 153.726 375.718C153.726 375.095 153.225 374.594 152.601 374.594Z" fill="#FAFAFA"/>
<path d="M140.164 355C139.547 355 139.039 355.501 139.039 356.124C139.039 356.747 139.54 357.249 140.164 357.249C140.788 357.249 141.289 356.747 141.289 356.124C141.289 355.501 140.788 355 140.164 355Z" fill="#FAFAFA"/>
<path d="M127.726 355C127.109 355 126.602 355.501 126.602 356.124C126.602 356.747 127.103 357.249 127.726 357.249C128.35 357.249 128.851 356.747 128.851 356.124C128.851 355.501 128.35 355 127.726 355Z" fill="#FAFAFA"/>
<path d="M177.476 355C176.859 355 176.352 355.501 176.352 356.124C176.352 356.747 176.853 357.249 177.476 357.249C178.1 357.249 178.601 356.747 178.601 356.124C178.601 355.501 178.1 355 177.476 355Z" fill="#FAFAFA"/>
<path d="M165.039 355C164.422 355 163.914 355.501 163.914 356.124C163.914 356.747 164.415 357.249 165.039 357.249C165.663 357.249 166.164 356.747 166.164 356.124C166.164 355.501 165.663 355 165.039 355Z" fill="#FAFAFA"/>
<path d="M152.601 355C151.984 355 151.477 355.501 151.477 356.124C151.477 356.747 151.978 357.249 152.601 357.249C153.225 357.249 153.726 356.747 153.726 356.124C153.726 355.501 153.225 355 152.601 355Z" fill="#FAFAFA"/>
<path d="M140.164 335.406C139.547 335.406 139.039 335.907 139.039 336.531C139.039 337.154 139.54 337.655 140.164 337.655C140.788 337.655 141.289 337.154 141.289 336.531C141.289 335.907 140.788 335.406 140.164 335.406Z" fill="#FAFAFA"/>
<path d="M165.039 335.406C164.422 335.406 163.914 335.907 163.914 336.531C163.914 337.154 164.415 337.655 165.039 337.655C165.663 337.655 166.164 337.154 166.164 336.531C166.164 335.907 165.663 335.406 165.039 335.406Z" fill="#FAFAFA"/>
<path d="M152.601 335.406C151.984 335.406 151.477 335.907 151.477 336.531C151.477 337.154 151.978 337.655 152.601 337.655C153.225 337.655 153.726 337.154 153.726 336.531C153.726 335.907 153.225 335.406 152.601 335.406Z" fill="#FAFAFA"/>
<path d="M133.891 345.203C133.273 345.203 132.766 345.704 132.766 346.327C132.766 346.951 133.267 347.452 133.891 347.452C134.514 347.452 135.015 346.951 135.015 346.327C135.015 345.704 134.514 345.203 133.891 345.203Z" fill="#FAFAFA"/>
<path d="M171.211 345.203C170.594 345.203 170.086 345.704 170.086 346.327C170.086 346.951 170.587 347.452 171.211 347.452C171.834 347.452 172.336 346.951 172.336 346.327C172.336 345.704 171.834 345.203 171.211 345.203Z" fill="#FAFAFA"/>
<path d="M158.773 345.203C158.156 345.203 157.648 345.704 157.648 346.327C157.648 346.951 158.15 347.452 158.773 347.452C159.397 347.452 159.898 346.951 159.898 346.327C159.898 345.704 159.397 345.203 158.773 345.203Z" fill="#FAFAFA"/>
<path d="M146.336 345.203C145.719 345.203 145.211 345.704 145.211 346.327C145.211 346.951 145.712 347.452 146.336 347.452C146.959 347.452 147.461 346.951 147.461 346.327C147.461 345.704 146.959 345.203 146.336 345.203Z" fill="#FAFAFA"/>
<path d="M158.773 325.609C158.156 325.609 157.648 326.11 157.648 326.734C157.648 327.357 158.15 327.858 158.773 327.858C159.397 327.858 159.898 327.357 159.898 326.734C159.898 326.11 159.397 325.609 158.773 325.609Z" fill="#FAFAFA"/>
<path d="M146.336 325.609C145.719 325.609 145.211 326.11 145.211 326.734C145.211 327.357 145.712 327.858 146.336 327.858C146.959 327.858 147.461 327.357 147.461 326.734C147.461 326.11 146.959 325.609 146.336 325.609Z" fill="#FAFAFA"/>
<path d="M153.125 315.812C152.508 315.812 152 316.314 152 316.937C152 317.56 152.501 318.061 153.125 318.061C153.748 318.061 154.25 317.56 154.25 316.937C154.25 316.314 153.748 315.812 153.125 315.812Z" fill="#FAFAFA"/>
<path d="M133.891 364.797C133.273 364.797 132.766 365.298 132.766 365.921C132.766 366.544 133.267 367.045 133.891 367.045C134.514 367.045 135.015 366.544 135.015 365.921C135.015 365.298 134.514 364.797 133.891 364.797Z" fill="#FAFAFA"/>
<path d="M121.453 364.797C120.836 364.797 120.328 365.298 120.328 365.921C120.328 366.544 120.83 367.045 121.453 367.045C122.077 367.045 122.578 366.544 122.578 365.921C122.578 365.298 122.077 364.797 121.453 364.797Z" fill="#FAFAFA"/>
<path d="M183.648 364.797C183.031 364.797 182.523 365.298 182.523 365.921C182.523 366.544 183.025 367.045 183.648 367.045C184.272 367.045 184.773 366.544 184.773 365.921C184.773 365.298 184.272 364.797 183.648 364.797Z" fill="#FAFAFA"/>
<path d="M171.211 364.797C170.594 364.797 170.086 365.298 170.086 365.921C170.086 366.544 170.587 367.045 171.211 367.045C171.834 367.045 172.336 366.544 172.336 365.921C172.336 365.298 171.834 364.797 171.211 364.797Z" fill="#FAFAFA"/>
<path d="M158.773 364.797C158.156 364.797 157.648 365.298 157.648 365.921C157.648 366.544 158.15 367.045 158.773 367.045C159.397 367.045 159.898 366.544 159.898 365.921C159.898 365.298 159.397 364.797 158.773 364.797Z" fill="#FAFAFA"/>
<path d="M146.336 364.797C145.719 364.797 145.211 365.298 145.211 365.921C145.211 366.544 145.712 367.045 146.336 367.045C146.959 367.045 147.461 366.544 147.461 365.921C147.461 365.298 146.959 364.797 146.336 364.797Z" fill="#FAFAFA"/>
<path d="M203.717 550.783V539.726H260.194C264.231 546.337 271.514 550.764 279.82 550.764C292.483 550.764 302.787 540.465 302.787 527.809C302.787 515.153 292.483 504.855 279.82 504.855C271.99 504.855 265.061 508.799 260.914 514.8H203.717V504.842H302.807V550.776H203.717V550.783ZM13.0257 304.651H2.15569V155.123H13.0257V304.651ZM246.207 468.294C242.189 461.766 234.996 457.391 226.794 457.34H302.807V468.294H246.207ZM249.588 479.922C249.537 476.343 248.656 472.964 247.139 469.964H302.807V479.922H249.588ZM246.625 491.55C248.309 488.575 249.35 485.196 249.556 481.592H302.807V491.55H246.625ZM245.59 493.22H302.813V503.178H228.022C235.311 502.748 241.694 498.899 245.59 493.22ZM203.717 481.341C204.25 493.047 213.603 502.484 225.27 503.178H203.717V481.341ZM126.013 469.932H202.045V503.172H126.013V469.932ZM202.045 538.056H126.013V504.848H202.045V538.056ZM256.897 526.428H203.717V516.47H259.867C258.17 519.438 257.115 522.824 256.903 526.428M258.523 527.816C258.523 516.078 268.075 506.532 279.82 506.532C291.564 506.532 301.116 516.078 301.116 527.816C301.116 539.553 291.564 549.1 279.82 549.1C268.075 549.1 258.523 539.553 258.523 527.816ZM203.717 528.098H256.858C256.903 531.67 257.771 535.049 259.275 538.056H203.717V528.098ZM202.045 550.648H192.3L202.045 540.909V550.648ZM2.14927 539.726H11.9265L2.14927 549.498V539.726ZM50.1868 306.322L2.15569 378.558V306.322H50.1868ZM25.7084 304.651H14.697V155.123H25.7084V304.651ZM38.2819 304.651H27.3797V155.123H38.2819V304.651ZM50.8489 304.651H39.9468V155.123H50.8489V304.651ZM151.764 178.2H52.5267V155.123H151.764V178.2ZM176.847 304.651H153.429V155.123H176.847V304.651ZM202.045 304.651H178.518V155.123H202.045V304.651ZM252.436 164.991H203.717V155.117H252.436V164.991ZM254.203 177.14V155.123H299.978L254.203 177.14ZM254.203 432.677L300.087 455.67H254.203V432.677ZM228.825 407.05H252.442V455.67H228.825V407.05ZM203.717 407.05H227.154V455.67H203.717V407.05ZM195.013 457.34H200.863L189.935 468.261H184.085L195.013 457.34ZM186.798 457.34H192.647L181.72 468.261H175.87L186.798 457.34ZM178.583 457.34H184.432L173.504 468.261H167.655L178.583 457.34ZM170.374 457.34H176.224L165.296 468.261H159.446L170.374 457.34ZM162.159 457.34H168.008L157.081 468.261H151.231L162.159 457.34ZM153.944 457.34H159.793L148.865 468.261H143.016L153.944 457.34ZM145.728 457.34H151.578L140.65 468.261H134.801L145.728 457.34ZM137.513 457.34H143.363L132.435 468.261H126.585L137.513 457.34ZM2.14927 457.34H11.9265L2.14927 467.111V457.34ZM2.14927 382.155H50.8489V405.379H2.14927V382.155ZM100.757 380.485H2.87565L51.8131 306.887L100.757 380.485ZM52.5267 280.573H151.764V304.651H52.5267V280.573ZM52.5267 229.557L102.101 278.909H52.5267V229.557ZM52.5267 229.21V179.87H102.088L52.5267 229.21ZM151.764 229.3L102.113 179.87H151.764V229.3ZM151.764 229.467V278.902H102.107L151.764 229.467ZM102.101 262.79L109.011 269.67L102.101 276.551L95.1903 269.67L102.101 262.79ZM94.0075 254.734L100.918 261.614L94.0075 268.495L87.0972 261.614L94.0075 254.734ZM85.9145 246.678L92.8247 253.558L85.9145 260.439L79.0042 253.558L85.9145 246.678ZM77.815 238.615L84.7253 245.495L77.815 252.376L70.9047 245.495L77.815 238.615ZM69.722 230.559L76.6322 237.439L69.722 244.32L62.8117 237.439L69.722 230.559ZM61.6289 222.503L68.5392 229.383L61.6289 236.264L54.7187 229.383L61.6289 222.503ZM69.722 214.446L76.6322 221.327L69.722 228.207L62.8117 221.327L69.722 214.446ZM77.815 206.384L84.7253 213.264L77.815 220.145L70.9047 213.264L77.815 206.384ZM85.9145 198.328L92.8247 205.208L85.9145 212.089L79.0042 205.208L85.9145 198.328ZM94.0075 190.271L100.918 197.152L94.0075 204.032L87.0972 197.152L94.0075 190.271ZM102.101 195.97L95.1903 189.089L102.101 182.209L109.011 189.089L102.101 195.97ZM110.194 204.032L103.283 197.152L110.194 190.271L117.104 197.152L110.194 204.032ZM118.287 212.089L111.376 205.208L118.287 198.328L125.197 205.208L118.287 212.089ZM126.38 220.145L119.469 213.264L126.38 206.384L133.29 213.264L126.38 220.145ZM134.473 228.201L127.562 221.32L134.473 214.44L141.383 221.32L134.473 228.201ZM142.572 236.264L135.662 229.383L142.572 222.503L149.482 229.383L142.572 236.264ZM134.473 244.32L127.562 237.439L134.473 230.559L141.383 237.439L134.473 244.32ZM126.38 252.376L119.469 245.495L126.38 238.615L133.29 245.495L126.38 252.376ZM118.287 260.432L111.376 253.552L118.287 246.671L125.197 253.552L118.287 260.432ZM102.101 246.678L109.011 253.558L102.101 260.439L95.1903 253.558L102.101 246.678ZM94.0075 238.615L100.918 245.495L94.0075 252.376L87.0972 245.495L94.0075 238.615ZM85.9145 230.559L92.8247 237.439L85.9145 244.32L79.0042 237.439L85.9145 230.559ZM84.7253 229.383L77.815 236.264L70.9047 229.383L77.815 222.503L84.7253 229.383ZM92.8247 221.327L85.9145 228.207L79.0042 221.327L85.9145 214.446L92.8247 221.327ZM100.918 213.264L94.0075 220.145L87.0972 213.264L94.0075 206.384L100.918 213.264ZM102.101 212.089L95.1903 205.208L102.101 198.328L109.011 205.208L102.101 212.089ZM110.194 220.145L103.283 213.264L110.194 206.384L117.104 213.264L110.194 220.145ZM118.287 228.201L111.376 221.32L118.287 214.44L125.197 221.32L118.287 228.201ZM119.469 229.383L126.38 222.503L133.29 229.383L126.38 236.264L119.469 229.383ZM111.376 237.439L118.287 230.559L125.197 237.439L118.287 244.32L111.376 237.439ZM110.194 238.615L117.104 245.495L110.194 252.376L103.283 245.495L110.194 238.615ZM102.101 230.559L109.011 237.439L102.101 244.32L95.1903 237.439L102.101 230.559ZM100.918 229.383L94.0075 236.264L87.0972 229.383L94.0075 222.503L100.918 229.383ZM110.194 222.503L117.104 229.383L110.194 236.264L103.283 229.383L110.194 222.503ZM102.101 228.201L95.1903 221.32L102.101 214.44L109.011 221.32L102.101 228.201ZM110.194 268.495L103.283 261.614L110.194 254.734L117.104 261.614L110.194 268.495ZM203.717 255.845H252.436V355.012H203.717V255.845ZM203.717 242.81H252.436V254.181H203.717V242.81ZM203.717 230.218H252.436V241.14H203.717V230.218ZM203.717 217.575H252.436V228.548H203.717V217.575ZM203.717 204.938H252.436V215.911H203.717V204.938ZM203.717 191.897H252.436V203.268H203.717V191.897ZM203.717 179.305H252.436V190.226H203.717V179.305ZM255.264 178.483L302.787 155.625V202.298L255.264 178.483ZM255.232 229.383L302.787 205.555V253.211L255.232 229.383ZM255.232 280.213L302.787 256.385V304.041L255.232 280.213ZM255.232 330.58L302.787 306.752V354.408L255.232 330.58ZM255.232 380.999L302.787 357.171V404.827L255.232 380.999ZM302.787 407.493V455.149L255.232 431.321L302.787 407.493ZM254.203 179.825L302.299 203.93L254.203 228.034V179.825ZM254.203 230.732L302.222 254.798L254.203 278.864V230.739V230.732ZM254.203 281.568L301.759 305.397L254.203 329.225V281.568ZM254.203 331.929L301.81 355.783L254.203 379.637V331.923V331.929ZM254.203 382.348L301.72 406.157L254.203 429.966V382.348ZM121.083 457.34H126.932L116.005 468.261H110.155L121.083 457.34ZM112.868 457.34H118.717L107.789 468.261H101.94L112.868 457.34ZM104.653 457.34H110.502L99.5743 468.261H93.7247L104.653 457.34ZM96.4373 457.34H102.287L91.3591 468.261H85.5095L96.4373 457.34ZM88.2222 457.34H94.0718L83.1439 468.261H77.2943L88.2222 457.34ZM80.007 457.34H85.8566L74.9288 468.261H69.0791L80.007 457.34ZM71.7918 457.34H77.6414L66.7136 468.261H60.864L71.7918 457.34ZM63.5766 457.34H69.4263L58.4984 468.261H52.6488L63.5766 457.34ZM55.3679 457.34H61.2175L50.2897 468.261H44.4401L55.3679 457.34ZM47.1527 457.34H53.0023L42.0745 468.261H36.2249L47.1527 457.34ZM38.9376 457.34H44.7872L33.8593 468.261H28.0097L38.9376 457.34ZM30.7224 457.34H36.572L25.6441 468.261H19.7945L30.7224 457.34ZM22.5072 457.34H28.3568L17.429 468.261H11.5794L22.5072 457.34ZM20.1417 457.34L9.2138 468.261H3.36419L14.292 457.34H20.1417ZM50.8489 455.67H2.14927V407.05H50.8489V455.67ZM151.719 418.08H52.5202V407.05H151.719V418.08ZM102.261 379.733L53.4459 306.322H151.07L102.255 379.733H102.261ZM52.5267 432.227H151.726V443.046H52.5267V432.227ZM52.5267 419.751H151.726V430.563H52.5267V419.751ZM103.765 380.485L152.703 306.887L201.197 380.485H103.765ZM151.719 405.379H52.5202V382.155H151.719V405.379ZM118.37 468.261L129.298 457.34H135.148L124.22 468.261H118.37ZM52.5267 444.722H151.726V455.676H52.5267V444.722ZM153.391 382.155H164.203V455.67H153.391V382.155ZM165.874 382.155H176.853V455.67H165.874V382.155ZM178.518 382.155H189.446V455.67H178.518V382.155ZM191.118 382.155H202.045V455.67H191.118V382.155ZM203.717 356.683H252.436V405.373H203.717V356.683ZM203.717 166.662H252.436V177.635H203.717V166.662ZM202.045 306.322V378.731L154.329 306.322H202.045ZM124.342 538.056H115.747C115.471 509.673 92.2912 486.674 63.8274 486.674C35.3635 486.674 12.19 509.68 11.9072 538.056H2.14284V469.932H124.336V538.056H124.342ZM116.005 550.648H110.155L121.083 539.726H126.932L116.005 550.648ZM124.22 550.648H118.37L129.298 539.726H135.148L124.22 550.648ZM132.435 550.648H126.585L137.513 539.726H143.363L132.435 550.648ZM140.65 550.648H134.801L145.728 539.726H151.578L140.65 550.648ZM148.865 550.648H143.016L153.944 539.726H159.793L148.865 550.648ZM157.081 550.648H151.231L162.159 539.726H168.008L157.081 550.648ZM165.296 550.648H159.446L170.374 539.726H176.224L165.296 550.648ZM173.511 550.648H167.661L178.589 539.726H184.439L173.511 550.648ZM181.726 550.648H175.876L186.804 539.726H192.654L181.726 550.648ZM184.085 550.648L195.013 539.726H200.863L189.935 550.648H184.085ZM20.1417 539.726L9.2138 550.648H3.36419L14.292 539.726H20.1417ZM106.17 538.056C105.893 514.954 87.0137 496.246 63.8338 496.246C40.6539 496.246 21.7744 514.954 21.498 538.056H13.5849C13.8614 510.598 36.2892 488.344 63.8338 488.344C91.3784 488.344 113.8 510.598 114.083 538.056H106.176H106.17ZM101.94 550.648L112.868 539.726H118.717L107.789 550.648H101.94ZM28.3568 539.726L17.429 550.648H11.5794L22.5072 539.726H28.3568ZM96.5916 538.056C96.3152 520.235 81.7297 505.825 63.8338 505.825C45.9378 505.825 31.3523 520.241 31.0759 538.056H23.1693C23.4457 515.879 41.5795 497.916 63.8338 497.916C86.088 497.916 104.222 515.873 104.498 538.056H96.5916ZM104.653 539.726H110.502L99.5743 550.648H93.7247L104.653 539.726ZM96.4373 539.726H102.287L91.3591 550.648H85.5095L96.4373 539.726ZM88.2222 539.726H94.0718L83.1439 550.648H77.2943L88.2222 539.726ZM80.007 539.726H85.8566L74.9288 550.648H69.0791L80.007 539.726ZM71.7918 539.726H77.6414L66.7136 550.648H60.864L71.7918 539.726ZM63.5766 539.726H69.4263L58.4984 550.648H52.6488L63.5766 539.726ZM55.3679 539.726H61.2175L50.2897 550.648H44.4401L55.3679 539.726ZM47.1527 539.726H53.0023L42.0745 550.648H36.2249L47.1527 539.726ZM38.9376 539.726H44.7872L33.8593 550.648H28.0097L38.9376 539.726ZM53.5166 538.056C53.7866 532.595 58.3056 528.24 63.8338 528.24C69.362 528.24 73.8745 532.602 74.151 538.056H53.523H53.5166ZM75.8223 538.056C75.5459 531.677 70.2876 526.569 63.8338 526.569C57.3799 526.569 52.1217 531.677 51.8453 538.056H43.9194C44.1958 527.314 53.0152 518.661 63.8274 518.661C74.6395 518.661 83.4589 527.314 83.7353 538.056H75.8158H75.8223ZM85.4131 538.056C85.1367 526.396 75.5651 516.99 63.8338 516.99C52.1024 516.99 42.5309 526.389 42.2545 538.056H32.7473C33.0237 521.16 46.857 507.495 63.8338 507.495C80.8105 507.495 94.6439 521.16 94.9203 538.056H85.4131ZM36.572 539.726L25.6441 550.648H19.7945L30.7224 539.726H36.572ZM202.045 468.261H192.3L202.045 458.522V468.261ZM203.717 479.215V457.34H226.498C214.265 457.417 204.276 467.105 203.717 479.215ZM226.646 501.553C214.908 501.553 205.362 492.012 205.362 480.281C205.362 468.551 214.908 459.01 226.646 459.01C238.384 459.01 247.93 468.551 247.93 480.281C247.93 492.012 238.384 501.553 226.646 501.553ZM0.484375 552.453H304.484V153.453H0.484375V552.453Z" fill="#FAFAFA"/>
</g>
<defs>
<filter id="filter0_f_2888_1786" x="-64.4434" y="53.8848" width="479.25" height="477.06" filterUnits="userSpaceOnUse" color-interpolation-filters="sRGB">
<feFlood flood-opacity="0" result="BackgroundImageFix"/>
<feBlend mode="normal" in="SourceGraphic" in2="BackgroundImageFix" result="shape"/>
<feGaussianBlur stdDeviation="50" result="effect1_foregroundBlur_2888_1786"/>
</filter>
<clipPath id="clip0_2888_1786">
<rect width="304" height="388" fill="white" transform="translate(0.5 0.734375)"/>
</clipPath>
</defs>
</svg>
