<svg width="304" height="257" viewBox="0 0 304 257" fill="none" xmlns="http://www.w3.org/2000/svg">
<mask id="mask0_1287_8083" style="mask-type:alpha" maskUnits="userSpaceOnUse" x="0" y="0" width="304" height="257">
<rect y="0.5" width="304" height="256" fill="#D9D9D9"/>
</mask>
<g mask="url(#mask0_1287_8083)">
<path d="M38.2577 244.889C38.8748 244.889 39.3827 244.388 39.3827 243.765C39.3827 243.142 38.8813 242.641 38.2577 242.641C37.6342 242.641 37.1328 243.142 37.1328 243.765C37.1328 244.388 37.6342 244.889 38.2577 244.889Z" fill="#D1D4D5"/>
<path d="M25.8124 244.889C26.4295 244.889 26.9374 244.388 26.9374 243.765C26.9374 243.142 26.436 242.641 25.8124 242.641C25.1889 242.641 24.6875 243.142 24.6875 243.765C24.6875 244.388 25.1889 244.889 25.8124 244.889Z" fill="#D1D4D5"/>
<path d="M13.3749 244.889C13.992 244.889 14.4999 244.388 14.4999 243.765C14.4999 243.142 13.9985 242.641 13.3749 242.641C12.7514 242.641 12.25 243.142 12.25 243.765C12.25 244.388 12.7514 244.889 13.3749 244.889Z" fill="#D1D4D5"/>
<path d="M88.0077 244.889C88.6248 244.889 89.1327 244.388 89.1327 243.765C89.1327 243.142 88.6313 242.641 88.0077 242.641C87.3842 242.641 86.8828 243.142 86.8828 243.765C86.8828 244.388 87.3842 244.889 88.0077 244.889Z" fill="#D1D4D5"/>
<path d="M75.5702 244.889C76.1873 244.889 76.6952 244.388 76.6952 243.765C76.6952 243.142 76.1938 242.641 75.5702 242.641C74.9467 242.641 74.4453 243.142 74.4453 243.765C74.4453 244.388 74.9467 244.889 75.5702 244.889Z" fill="#D1D4D5"/>
<path d="M63.1327 244.889C63.7498 244.889 64.2577 244.388 64.2577 243.765C64.2577 243.142 63.7563 242.641 63.1327 242.641C62.5092 242.641 62.0078 243.142 62.0078 243.765C62.0078 244.388 62.5092 244.889 63.1327 244.889Z" fill="#D1D4D5"/>
<path d="M50.6952 244.889C51.3123 244.889 51.8202 244.388 51.8202 243.765C51.8202 243.142 51.3188 242.641 50.6952 242.641C50.0717 242.641 49.5703 243.142 49.5703 243.765C49.5703 244.388 50.0717 244.889 50.6952 244.889Z" fill="#D1D4D5"/>
<path d="M38.2577 225.295C38.8748 225.295 39.3827 224.794 39.3827 224.171C39.3827 223.548 38.8813 223.047 38.2577 223.047C37.6342 223.047 37.1328 223.548 37.1328 224.171C37.1328 224.794 37.6342 225.295 38.2577 225.295Z" fill="#D1D4D5"/>
<path d="M25.8124 225.295C26.4295 225.295 26.9374 224.794 26.9374 224.171C26.9374 223.548 26.436 223.047 25.8124 223.047C25.1889 223.047 24.6875 223.548 24.6875 224.171C24.6875 224.794 25.1889 225.295 25.8124 225.295Z" fill="#D1D4D5"/>
<path d="M75.5702 225.295C76.1873 225.295 76.6952 224.794 76.6952 224.171C76.6952 223.548 76.1938 223.047 75.5702 223.047C74.9467 223.047 74.4453 223.548 74.4453 224.171C74.4453 224.794 74.9467 225.295 75.5702 225.295Z" fill="#D1D4D5"/>
<path d="M63.1327 225.295C63.7498 225.295 64.2577 224.794 64.2577 224.171C64.2577 223.548 63.7563 223.047 63.1327 223.047C62.5092 223.047 62.0078 223.548 62.0078 224.171C62.0078 224.794 62.5092 225.295 63.1327 225.295Z" fill="#D1D4D5"/>
<path d="M50.6952 225.295C51.3123 225.295 51.8202 224.794 51.8202 224.171C51.8202 223.548 51.3188 223.047 50.6952 223.047C50.0717 223.047 49.5703 223.548 49.5703 224.171C49.5703 224.794 50.0717 225.295 50.6952 225.295Z" fill="#D1D4D5"/>
<path d="M38.2577 205.702C38.8748 205.702 39.3827 205.201 39.3827 204.577C39.3827 203.954 38.8813 203.453 38.2577 203.453C37.6342 203.453 37.1328 203.954 37.1328 204.577C37.1328 205.201 37.6342 205.702 38.2577 205.702Z" fill="#D1D4D5"/>
<path d="M63.1327 205.702C63.7498 205.702 64.2577 205.201 64.2577 204.577C64.2577 203.954 63.7563 203.453 63.1327 203.453C62.5092 203.453 62.0078 203.954 62.0078 204.577C62.0078 205.201 62.5092 205.702 63.1327 205.702Z" fill="#D1D4D5"/>
<path d="M50.6952 205.702C51.3123 205.702 51.8202 205.201 51.8202 204.577C51.8202 203.954 51.3188 203.453 50.6952 203.453C50.0717 203.453 49.5703 203.954 49.5703 204.577C49.5703 205.201 50.0717 205.702 50.6952 205.702Z" fill="#D1D4D5"/>
<path d="M31.9843 215.499C32.6014 215.499 33.1092 214.997 33.1092 214.374C33.1092 213.751 32.6078 213.25 31.9843 213.25C31.3608 213.25 30.8594 213.751 30.8594 214.374C30.8594 214.997 31.3608 215.499 31.9843 215.499Z" fill="#D1D4D5"/>
<path d="M69.3046 215.499C69.9217 215.499 70.4295 214.997 70.4295 214.374C70.4295 213.751 69.9281 213.25 69.3046 213.25C68.6811 213.25 68.1797 213.751 68.1797 214.374C68.1797 214.997 68.6811 215.499 69.3046 215.499Z" fill="#D1D4D5"/>
<path d="M56.8671 215.499C57.4842 215.499 57.992 214.997 57.992 214.374C57.992 213.751 57.4906 213.25 56.8671 213.25C56.2436 213.25 55.7422 213.751 55.7422 214.374C55.7422 214.997 56.2436 215.499 56.8671 215.499Z" fill="#D1D4D5"/>
<path d="M44.4218 215.499C45.0389 215.499 45.5467 214.997 45.5467 214.374C45.5467 213.751 45.0453 213.25 44.4218 213.25C43.7983 213.25 43.2969 213.751 43.2969 214.374C43.2969 214.997 43.7983 215.499 44.4218 215.499Z" fill="#D1D4D5"/>
<path d="M56.8671 195.905C57.4842 195.905 57.992 195.404 57.992 194.781C57.992 194.157 57.4906 193.656 56.8671 193.656C56.2436 193.656 55.7422 194.157 55.7422 194.781C55.7422 195.404 56.2436 195.905 56.8671 195.905Z" fill="#D1D4D5"/>
<path d="M44.4218 195.905C45.0389 195.905 45.5467 195.404 45.5467 194.781C45.5467 194.157 45.0453 193.656 44.4218 193.656C43.7983 193.656 43.2969 194.157 43.2969 194.781C43.2969 195.404 43.7983 195.905 44.4218 195.905Z" fill="#D1D4D5"/>
<path d="M51.2187 186.108C51.8358 186.108 52.3436 185.607 52.3436 184.984C52.3436 184.36 51.8422 183.859 51.2187 183.859C50.5951 183.859 50.0938 184.36 50.0938 184.984C50.0938 185.607 50.5951 186.108 51.2187 186.108Z" fill="#D1D4D5"/>
<path d="M31.9843 235.092C32.6014 235.092 33.1092 234.591 33.1092 233.968C33.1092 233.345 32.6078 232.844 31.9843 232.844C31.3608 232.844 30.8594 233.345 30.8594 233.968C30.8594 234.591 31.3608 235.092 31.9843 235.092Z" fill="#D1D4D5"/>
<path d="M19.5468 235.092C20.1639 235.092 20.6717 234.591 20.6717 233.968C20.6717 233.345 20.1703 232.844 19.5468 232.844C18.9233 232.844 18.4219 233.345 18.4219 233.968C18.4219 234.591 18.9233 235.092 19.5468 235.092Z" fill="#D1D4D5"/>
<path d="M81.7421 235.092C82.3592 235.092 82.867 234.591 82.867 233.968C82.867 233.345 82.3656 232.844 81.7421 232.844C81.1186 232.844 80.6172 233.345 80.6172 233.968C80.6172 234.591 81.1186 235.092 81.7421 235.092Z" fill="#D1D4D5"/>
<path d="M69.3046 235.092C69.9217 235.092 70.4295 234.591 70.4295 233.968C70.4295 233.345 69.9281 232.844 69.3046 232.844C68.6811 232.844 68.1797 233.345 68.1797 233.968C68.1797 234.591 68.6811 235.092 69.3046 235.092Z" fill="#D1D4D5"/>
<path d="M56.8671 235.092C57.4842 235.092 57.992 234.591 57.992 233.968C57.992 233.345 57.4906 232.844 56.8671 232.844C56.2436 232.844 55.7422 233.345 55.7422 233.968C55.7422 234.591 56.2436 235.092 56.8671 235.092Z" fill="#D1D4D5"/>
<path d="M44.4218 235.092C45.0389 235.092 45.5467 234.591 45.5467 233.968C45.5467 233.345 45.0453 232.844 44.4218 232.844C43.7983 232.844 43.2969 233.345 43.2969 233.968C43.2969 234.591 43.7983 235.092 44.4218 235.092Z" fill="#D1D4D5"/>
<path d="M139.68 242.641C139.063 242.641 138.555 243.142 138.555 243.765C138.555 244.388 139.056 244.889 139.68 244.889C140.303 244.889 140.805 244.388 140.805 243.765C140.805 243.142 140.303 242.641 139.68 242.641Z" fill="#D1D4D5"/>
<path d="M127.242 242.641C126.625 242.641 126.117 243.142 126.117 243.765C126.117 244.388 126.619 244.889 127.242 244.889C127.866 244.889 128.367 244.388 128.367 243.765C128.367 243.142 127.866 242.641 127.242 242.641Z" fill="#D1D4D5"/>
<path d="M114.797 242.641C114.18 242.641 113.672 243.142 113.672 243.765C113.672 244.388 114.173 244.889 114.797 244.889C115.42 244.889 115.922 244.388 115.922 243.765C115.922 243.142 115.42 242.641 114.797 242.641Z" fill="#D1D4D5"/>
<path d="M189.43 242.641C188.813 242.641 188.305 243.142 188.305 243.765C188.305 244.388 188.806 244.889 189.43 244.889C190.053 244.889 190.555 244.388 190.555 243.765C190.555 243.142 190.053 242.641 189.43 242.641Z" fill="#D1D4D5"/>
<path d="M176.992 242.641C176.375 242.641 175.867 243.142 175.867 243.765C175.867 244.388 176.369 244.889 176.992 244.889C177.616 244.889 178.117 244.388 178.117 243.765C178.117 243.142 177.616 242.641 176.992 242.641Z" fill="#D1D4D5"/>
<path d="M164.555 242.641C163.938 242.641 163.43 243.142 163.43 243.765C163.43 244.388 163.931 244.889 164.555 244.889C165.178 244.889 165.68 244.388 165.68 243.765C165.68 243.142 165.178 242.641 164.555 242.641Z" fill="#D1D4D5"/>
<path d="M152.117 242.641C151.5 242.641 150.992 243.142 150.992 243.765C150.992 244.388 151.494 244.889 152.117 244.889C152.741 244.889 153.242 244.388 153.242 243.765C153.242 243.142 152.741 242.641 152.117 242.641Z" fill="#D1D4D5"/>
<path d="M139.68 223.047C139.063 223.047 138.555 223.548 138.555 224.171C138.555 224.794 139.056 225.295 139.68 225.295C140.303 225.295 140.805 224.794 140.805 224.171C140.805 223.548 140.303 223.047 139.68 223.047Z" fill="#D1D4D5"/>
<path d="M127.242 223.047C126.625 223.047 126.117 223.548 126.117 224.171C126.117 224.794 126.619 225.295 127.242 225.295C127.866 225.295 128.367 224.794 128.367 224.171C128.367 223.548 127.866 223.047 127.242 223.047Z" fill="#D1D4D5"/>
<path d="M176.992 223.047C176.375 223.047 175.867 223.548 175.867 224.171C175.867 224.794 176.369 225.295 176.992 225.295C177.616 225.295 178.117 224.794 178.117 224.171C178.117 223.548 177.616 223.047 176.992 223.047Z" fill="#D1D4D5"/>
<path d="M164.555 223.047C163.938 223.047 163.43 223.548 163.43 224.171C163.43 224.794 163.931 225.295 164.555 225.295C165.178 225.295 165.68 224.794 165.68 224.171C165.68 223.548 165.178 223.047 164.555 223.047Z" fill="#D1D4D5"/>
<path d="M152.117 223.047C151.5 223.047 150.992 223.548 150.992 224.171C150.992 224.794 151.494 225.295 152.117 225.295C152.741 225.295 153.242 224.794 153.242 224.171C153.242 223.548 152.741 223.047 152.117 223.047Z" fill="#D1D4D5"/>
<path d="M139.68 203.453C139.063 203.453 138.555 203.954 138.555 204.577C138.555 205.201 139.056 205.702 139.68 205.702C140.303 205.702 140.805 205.201 140.805 204.577C140.805 203.954 140.303 203.453 139.68 203.453Z" fill="#D1D4D5"/>
<path d="M164.555 203.453C163.938 203.453 163.43 203.954 163.43 204.577C163.43 205.201 163.931 205.702 164.555 205.702C165.178 205.702 165.68 205.201 165.68 204.577C165.68 203.954 165.178 203.453 164.555 203.453Z" fill="#D1D4D5"/>
<path d="M152.117 203.453C151.5 203.453 150.992 203.954 150.992 204.577C150.992 205.201 151.494 205.702 152.117 205.702C152.741 205.702 153.242 205.201 153.242 204.577C153.242 203.954 152.741 203.453 152.117 203.453Z" fill="#D1D4D5"/>
<path d="M133.406 213.25C132.789 213.25 132.281 213.751 132.281 214.374C132.281 214.997 132.783 215.499 133.406 215.499C134.03 215.499 134.531 214.997 134.531 214.374C134.531 213.751 134.03 213.25 133.406 213.25Z" fill="#D1D4D5"/>
<path d="M170.726 213.25C170.109 213.25 169.602 213.751 169.602 214.374C169.602 214.997 170.103 215.499 170.726 215.499C171.35 215.499 171.851 214.997 171.851 214.374C171.851 213.751 171.35 213.25 170.726 213.25Z" fill="#D1D4D5"/>
<path d="M158.289 213.25C157.672 213.25 157.164 213.751 157.164 214.374C157.164 214.997 157.665 215.499 158.289 215.499C158.913 215.499 159.414 214.997 159.414 214.374C159.414 213.751 158.913 213.25 158.289 213.25Z" fill="#D1D4D5"/>
<path d="M145.851 213.25C145.234 213.25 144.727 213.751 144.727 214.374C144.727 214.997 145.228 215.499 145.851 215.499C146.475 215.499 146.976 214.997 146.976 214.374C146.976 213.751 146.475 213.25 145.851 213.25Z" fill="#D1D4D5"/>
<path d="M158.289 193.656C157.672 193.656 157.164 194.157 157.164 194.781C157.164 195.404 157.665 195.905 158.289 195.905C158.913 195.905 159.414 195.404 159.414 194.781C159.414 194.157 158.913 193.656 158.289 193.656Z" fill="#D1D4D5"/>
<path d="M145.851 193.656C145.234 193.656 144.727 194.157 144.727 194.781C144.727 195.404 145.228 195.905 145.851 195.905C146.475 195.905 146.976 195.404 146.976 194.781C146.976 194.157 146.475 193.656 145.851 193.656Z" fill="#D1D4D5"/>
<path d="M152.641 183.859C152.023 183.859 151.516 184.36 151.516 184.984C151.516 185.607 152.017 186.108 152.641 186.108C153.264 186.108 153.765 185.607 153.765 184.984C153.765 184.36 153.264 183.859 152.641 183.859Z" fill="#D1D4D5"/>
<path d="M133.406 232.844C132.789 232.844 132.281 233.345 132.281 233.968C132.281 234.591 132.783 235.092 133.406 235.092C134.03 235.092 134.531 234.591 134.531 233.968C134.531 233.345 134.03 232.844 133.406 232.844Z" fill="#D1D4D5"/>
<path d="M120.969 232.844C120.352 232.844 119.844 233.345 119.844 233.968C119.844 234.591 120.345 235.092 120.969 235.092C121.592 235.092 122.094 234.591 122.094 233.968C122.094 233.345 121.592 232.844 120.969 232.844Z" fill="#D1D4D5"/>
<path d="M183.164 232.844C182.547 232.844 182.039 233.345 182.039 233.968C182.039 234.591 182.54 235.092 183.164 235.092C183.788 235.092 184.289 234.591 184.289 233.968C184.289 233.345 183.788 232.844 183.164 232.844Z" fill="#D1D4D5"/>
<path d="M170.726 232.844C170.109 232.844 169.602 233.345 169.602 233.968C169.602 234.591 170.103 235.092 170.726 235.092C171.35 235.092 171.851 234.591 171.851 233.968C171.851 233.345 171.35 232.844 170.726 232.844Z" fill="#D1D4D5"/>
<path d="M158.289 232.844C157.672 232.844 157.164 233.345 157.164 233.968C157.164 234.591 157.665 235.092 158.289 235.092C158.913 235.092 159.414 234.591 159.414 233.968C159.414 233.345 158.913 232.844 158.289 232.844Z" fill="#D1D4D5"/>
<path d="M145.851 232.844C145.234 232.844 144.727 233.345 144.727 233.968C144.727 234.591 145.228 235.092 145.851 235.092C146.475 235.092 146.976 234.591 146.976 233.968C146.976 233.345 146.475 232.844 145.851 232.844Z" fill="#D1D4D5"/>
<path d="M203.232 418.83V407.773H259.71C263.747 414.384 271.03 418.81 279.335 418.81C291.999 418.81 302.303 408.512 302.303 395.856C302.303 383.2 291.999 372.902 279.335 372.902C271.506 372.902 264.576 376.846 260.43 382.847H203.232V372.889H302.322V418.823H203.232V418.83ZM12.5413 172.698H1.67132V23.1703H12.5413V172.698ZM245.722 336.34C241.705 329.813 234.512 325.438 226.309 325.387H302.322V336.34H245.722ZM249.104 347.969C249.052 344.39 248.172 341.011 246.654 338.011H302.322V347.969H249.104ZM246.14 359.597C247.824 356.622 248.866 353.243 249.071 349.639H302.322V359.597H246.14ZM245.105 361.267H302.329V371.225H227.537C234.827 370.794 241.21 366.946 245.105 361.267ZM203.232 349.388C203.766 361.094 213.119 370.531 224.786 371.225H203.232V349.388ZM125.529 337.979H201.561V371.218H125.529V337.979ZM201.561 406.103H125.529V372.895H201.561V406.103ZM256.412 394.475H203.232V384.517H259.382C257.685 387.485 256.631 390.871 256.419 394.475M258.039 395.862C258.039 384.125 267.591 374.578 279.335 374.578C291.079 374.578 300.632 384.125 300.632 395.862C300.632 407.6 291.079 417.146 279.335 417.146C267.591 417.146 258.039 407.6 258.039 395.862ZM203.232 396.145H256.374C256.419 399.717 257.287 403.096 258.791 406.103H203.232V396.145ZM201.561 418.695H191.816L201.561 408.955V418.695ZM1.66489 407.773H11.4421L1.66489 417.545V407.773ZM49.7024 174.369L1.67132 246.604V174.369H49.7024ZM25.2241 172.698H14.2126V23.1703H25.2241V172.698ZM37.7975 172.698H26.8954V23.1703H37.7975V172.698ZM50.3645 172.698H39.4624V23.1703H50.3645V172.698ZM151.28 46.2468H52.0423V23.1703H151.28V46.2468ZM176.363 172.698H152.945V23.1703H176.363V172.698ZM201.561 172.698H178.034V23.1703H201.561V172.698ZM251.951 33.0382H203.232V23.1639H251.951V33.0382ZM253.719 45.1868V23.1703H299.494L253.719 45.1868ZM253.719 300.724L299.603 323.716H253.719V300.724ZM228.341 275.097H251.958V323.716H228.341V275.097ZM203.232 275.097H226.669V323.716H203.232V275.097ZM194.529 325.387H200.378L189.45 336.308H183.601L194.529 325.387ZM186.313 325.387H192.163L181.235 336.308H175.386L186.313 325.387ZM178.098 325.387H183.948L173.02 336.308H167.17L178.098 325.387ZM169.89 325.387H175.739L164.811 336.308H158.962L169.89 325.387ZM161.674 325.387H167.524L156.596 336.308H150.747L161.674 325.387ZM153.459 325.387H159.309L148.381 336.308H142.531L153.459 325.387ZM145.244 325.387H151.094L140.166 336.308H134.316L145.244 325.387ZM137.029 325.387H142.878L131.951 336.308H126.101L137.029 325.387ZM1.66489 325.387H11.4421L1.66489 335.158V325.387ZM1.66489 250.202H50.3645V273.426H1.66489V250.202ZM100.273 248.532H2.39127L51.3288 174.934L100.273 248.532ZM52.0423 148.62H151.28V172.698H52.0423V148.62ZM52.0423 97.6034L101.616 146.956H52.0423V97.6034ZM52.0423 97.2565V47.9171H101.603L52.0423 97.2565ZM151.28 97.3464L101.629 47.9171H151.28V97.3464ZM151.28 97.5135V146.949H101.623L151.28 97.5135ZM101.616 130.837L108.526 137.717L101.616 144.598L94.7059 137.717L101.616 130.837ZM93.5231 122.781L100.433 129.661L93.5231 136.542L86.6129 129.661L93.5231 122.781ZM85.4301 114.724L92.3403 121.605L85.4301 128.485L78.5198 121.605L85.4301 114.724ZM77.3306 106.662L84.2409 113.542L77.3306 120.423L70.4204 113.542L77.3306 106.662ZM69.2376 98.6056L76.1479 105.486L69.2376 112.367L62.3273 105.486L69.2376 98.6056ZM61.1445 90.5494L68.0548 97.4299L61.1445 104.31L54.2343 97.4299L61.1445 90.5494ZM69.2376 82.4932L76.1479 89.3737L69.2376 96.2543L62.3273 89.3737L69.2376 82.4932ZM77.3306 74.4306L84.2409 81.3111L77.3306 88.1917L70.4204 81.3111L77.3306 74.4306ZM85.4301 66.3744L92.3403 73.2549L85.4301 80.1355L78.5198 73.2549L85.4301 66.3744ZM93.5231 58.3182L100.433 65.1987L93.5231 72.0793L86.6129 65.1987L93.5231 58.3182ZM101.616 64.0167L94.7059 57.1361L101.616 50.2556L108.526 57.1361L101.616 64.0167ZM109.709 72.0793L102.799 65.1987L109.709 58.3182L116.619 65.1987L109.709 72.0793ZM117.802 80.1355L110.892 73.2549L117.802 66.3744L124.713 73.2549L117.802 80.1355ZM125.895 88.1917L118.985 81.3111L125.895 74.4306L132.806 81.3111L125.895 88.1917ZM133.988 96.2479L127.078 89.3673L133.988 82.4868L140.899 89.3673L133.988 96.2479ZM142.088 104.31L135.178 97.4299L142.088 90.5494L148.998 97.4299L142.088 104.31ZM133.988 112.367L127.078 105.486L133.988 98.6056L140.899 105.486L133.988 112.367ZM125.895 120.423L118.985 113.542L125.895 106.662L132.806 113.542L125.895 120.423ZM117.802 128.479L110.892 121.599L117.802 114.718L124.713 121.599L117.802 128.479ZM101.616 114.724L108.526 121.605L101.616 128.485L94.7059 121.605L101.616 114.724ZM93.5231 106.662L100.433 113.542L93.5231 120.423L86.6129 113.542L93.5231 106.662ZM85.4301 98.6056L92.3403 105.486L85.4301 112.367L78.5198 105.486L85.4301 98.6056ZM84.2409 97.4299L77.3306 104.31L70.4204 97.4299L77.3306 90.5494L84.2409 97.4299ZM92.3403 89.3737L85.4301 96.2543L78.5198 89.3737L85.4301 82.4932L92.3403 89.3737ZM100.433 81.3111L93.5231 88.1917L86.6129 81.3111L93.5231 74.4306L100.433 81.3111ZM101.616 80.1355L94.7059 73.2549L101.616 66.3744L108.526 73.2549L101.616 80.1355ZM109.709 88.1917L102.799 81.3111L109.709 74.4306L116.619 81.3111L109.709 88.1917ZM117.802 96.2479L110.892 89.3673L117.802 82.4868L124.713 89.3673L117.802 96.2479ZM118.985 97.4299L125.895 90.5494L132.806 97.4299L125.895 104.31L118.985 97.4299ZM110.892 105.486L117.802 98.6056L124.713 105.486L117.802 112.367L110.892 105.486ZM109.709 106.662L116.619 113.542L109.709 120.423L102.799 113.542L109.709 106.662ZM101.616 98.6056L108.526 105.486L101.616 112.367L94.7059 105.486L101.616 98.6056ZM100.433 97.4299L93.5231 104.31L86.6129 97.4299L93.5231 90.5494L100.433 97.4299ZM109.709 90.5494L116.619 97.4299L109.709 104.31L102.799 97.4299L109.709 90.5494ZM101.616 96.2479L94.7059 89.3673L101.616 82.4868L108.526 89.3673L101.616 96.2479ZM109.709 136.542L102.799 129.661L109.709 122.781L116.619 129.661L109.709 136.542ZM203.232 123.892H251.951V223.059H203.232V123.892ZM203.232 110.857H251.951V122.228H203.232V110.857ZM203.232 98.2651H251.951V109.187H203.232V98.2651ZM203.232 85.6219H251.951V96.5948H203.232V85.6219ZM203.232 72.9851H251.951V83.958H203.232V72.9851ZM203.232 59.9436H251.951V71.3148H203.232V59.9436ZM203.232 47.3518H251.951V58.2732H203.232V47.3518ZM254.78 46.5294L302.303 23.6714V70.3447L254.78 46.5294ZM254.747 97.4299L302.303 73.6019V121.258L254.747 97.4299ZM254.747 148.26L302.303 124.432V172.088L254.747 148.26ZM254.747 198.627L302.303 174.799V222.455L254.747 198.627ZM254.747 249.046L302.303 225.218V272.874L254.747 249.046ZM302.303 275.54V323.196L254.747 299.368L302.303 275.54ZM253.719 47.8722L301.814 71.9765L253.719 96.0808V47.8722ZM253.719 98.7791L301.737 122.845L253.719 146.911V98.7855V98.7791ZM253.719 149.615L301.274 173.443L253.719 197.271V149.615ZM253.719 199.976L301.326 223.83L253.719 247.684V199.97V199.976ZM253.719 250.395L301.236 274.204L253.719 298.012V250.395ZM120.598 325.387H126.448L115.52 336.308H109.671L120.598 325.387ZM112.383 325.387H118.233L107.305 336.308H101.455L112.383 325.387ZM104.168 325.387H110.018L99.0899 336.308H93.2403L104.168 325.387ZM95.953 325.387H101.803L90.8747 336.308H85.0251L95.953 325.387ZM87.7378 325.387H93.5874L82.6596 336.308H76.8099L87.7378 325.387ZM79.5226 325.387H85.3722L74.4444 336.308H68.5948L79.5226 325.387ZM71.3074 325.387H77.1571L66.2292 336.308H60.3796L71.3074 325.387ZM63.0923 325.387H68.9419L58.014 336.308H52.1644L63.0923 325.387ZM54.8835 325.387H60.7331L49.8053 336.308H43.9557L54.8835 325.387ZM46.6684 325.387H52.518L41.5901 336.308H35.7405L46.6684 325.387ZM38.4532 325.387H44.3028L33.3749 336.308H27.5253L38.4532 325.387ZM30.238 325.387H36.0876L25.1598 336.308H19.3102L30.238 325.387ZM22.0228 325.387H27.8724L16.9446 336.308H11.095L22.0228 325.387ZM19.6573 325.387L8.72943 336.308H2.87981L13.8077 325.387H19.6573ZM50.3645 323.716H1.66489V275.097H50.3645V323.716ZM151.235 286.127H52.0359V275.097H151.235V286.127ZM101.777 247.78L52.9615 174.369H150.586L101.77 247.78H101.777ZM52.0423 300.274H151.241V311.093H52.0423V300.274ZM52.0423 287.798H151.241V298.61H52.0423V287.798ZM103.281 248.532L152.219 174.934L200.712 248.532H103.281ZM151.235 273.426H52.0359V250.202H151.235V273.426ZM117.886 336.308L128.814 325.387H134.663L123.735 336.308H117.886ZM52.0423 312.769H151.241V323.723H52.0423V312.769ZM152.906 250.202H163.719V323.716H152.906V250.202ZM165.39 250.202H176.369V323.716H165.39V250.202ZM178.034 250.202H188.962V323.716H178.034V250.202ZM190.633 250.202H201.561V323.716H190.633V250.202ZM203.232 224.729H251.951V273.42H203.232V224.729ZM203.232 34.7086H251.951V45.6814H203.232V34.7086ZM201.561 174.369V246.778L153.845 174.369H201.561ZM123.858 406.103H115.263C114.987 377.72 91.8068 354.721 63.343 354.721C34.8791 354.721 11.7057 377.726 11.4228 406.103H1.65846V337.979H123.851V406.103H123.858ZM115.52 418.695H109.671L120.598 407.773H126.448L115.52 418.695ZM123.735 418.695H117.886L128.814 407.773H134.663L123.735 418.695ZM131.951 418.695H126.101L137.029 407.773H142.878L131.951 418.695ZM140.166 418.695H134.316L145.244 407.773H151.094L140.166 418.695ZM148.381 418.695H142.531L153.459 407.773H159.309L148.381 418.695ZM156.596 418.695H150.747L161.674 407.773H167.524L156.596 418.695ZM164.811 418.695H158.962L169.89 407.773H175.739L164.811 418.695ZM173.026 418.695H167.177L178.105 407.773H183.954L173.026 418.695ZM181.242 418.695H175.392L186.32 407.773H192.169L181.242 418.695ZM183.601 418.695L194.529 407.773H200.378L189.45 418.695H183.601ZM19.6573 407.773L8.72943 418.695H2.87981L13.8077 407.773H19.6573ZM105.685 406.103C105.409 383.001 86.5293 364.293 63.3494 364.293C40.1695 364.293 21.29 383.001 21.0136 406.103H13.1006C13.377 378.645 35.8048 356.391 63.3494 356.391C90.894 356.391 113.315 378.645 113.598 406.103H105.692H105.685ZM101.455 418.695L112.383 407.773H118.233L107.305 418.695H101.455ZM27.8724 407.773L16.9446 418.695H11.095L22.0228 407.773H27.8724ZM96.1072 406.103C95.8308 388.282 81.2454 373.872 63.3494 373.872C45.4534 373.872 30.868 388.288 30.5916 406.103H22.6849C22.9613 383.926 41.0952 365.963 63.3494 365.963C85.6037 365.963 103.737 383.92 104.014 406.103H96.1072ZM104.168 407.773H110.018L99.0899 418.695H93.2403L104.168 407.773ZM95.953 407.773H101.803L90.8747 418.695H85.0251L95.953 407.773ZM87.7378 407.773H93.5874L82.6596 418.695H76.8099L87.7378 407.773ZM79.5226 407.773H85.3722L74.4444 418.695H68.5948L79.5226 407.773ZM71.3074 407.773H77.1571L66.2292 418.695H60.3796L71.3074 407.773ZM63.0923 407.773H68.9419L58.014 418.695H52.1644L63.0923 407.773ZM54.8835 407.773H60.7331L49.8053 418.695H43.9557L54.8835 407.773ZM46.6684 407.773H52.518L41.5901 418.695H35.7405L46.6684 407.773ZM38.4532 407.773H44.3028L33.3749 418.695H27.5253L38.4532 407.773ZM53.0322 406.103C53.3022 400.642 57.8212 396.286 63.3494 396.286C68.8776 396.286 73.3902 400.649 73.6666 406.103H53.0386H53.0322ZM75.3379 406.103C75.0615 399.724 69.8033 394.616 63.3494 394.616C56.8955 394.616 51.6373 399.724 51.3609 406.103H43.435C43.7114 395.361 52.5308 386.708 63.343 386.708C74.1551 386.708 82.9745 395.361 83.2509 406.103H75.3315H75.3379ZM84.9287 406.103C84.6523 394.443 75.0808 385.037 63.3494 385.037C51.618 385.037 42.0465 394.436 41.7701 406.103H32.2629C32.5393 389.207 46.3727 375.542 63.3494 375.542C80.3261 375.542 94.1595 389.207 94.4359 406.103H84.9287ZM36.0876 407.773L25.1598 418.695H19.3102L30.238 407.773H36.0876ZM201.561 336.308H191.816L201.561 326.569V336.308ZM203.232 347.262V325.387H226.014C213.781 325.464 203.792 335.152 203.232 347.262ZM226.162 369.6C214.424 369.6 204.878 360.059 204.878 348.328C204.878 336.597 214.424 327.057 226.162 327.057C237.899 327.057 247.445 336.597 247.445 348.328C247.445 360.059 237.899 369.6 226.162 369.6ZM0 420.5H304V21.5H0V420.5Z" fill="#D1D4D5"/>
</g>
</svg>
