<svg width="304" height="289" viewBox="0 0 304 289" fill="none" xmlns="http://www.w3.org/2000/svg">
<mask id="mask0_1287_8619" style="mask-type:alpha" maskUnits="userSpaceOnUse" x="0" y="0" width="304" height="289">
<rect y="0.4375" width="304" height="288" fill="#D9D9D9"/>
</mask>
<g mask="url(#mask0_1287_8619)">
<path d="M186.799 385.949C186.799 385.726 186.733 385.508 186.61 385.323C186.486 385.137 186.31 384.993 186.105 384.907C185.899 384.822 185.673 384.8 185.455 384.843C185.237 384.887 185.036 384.994 184.879 385.152C184.722 385.309 184.614 385.51 184.571 385.729C184.528 385.947 184.55 386.174 184.635 386.38C184.72 386.586 184.864 386.762 185.049 386.886C185.234 387.01 185.452 387.076 185.674 387.076C185.972 387.074 186.257 386.955 186.468 386.744C186.678 386.533 186.798 386.247 186.799 385.949ZM192.147 381.06C192.147 380.837 192.081 380.619 191.957 380.434C191.833 380.248 191.657 380.104 191.451 380.018C191.246 379.933 191.019 379.911 190.801 379.955C190.582 379.999 190.382 380.107 190.225 380.266C190.068 380.424 189.961 380.625 189.918 380.844C189.876 381.064 189.899 381.29 189.985 381.496C190.071 381.702 190.216 381.878 190.402 382.001C190.588 382.124 190.806 382.189 191.029 382.187C191.176 382.187 191.322 382.158 191.458 382.102C191.595 382.045 191.718 381.962 191.822 381.857C191.926 381.752 192.008 381.628 192.064 381.491C192.12 381.354 192.148 381.208 192.147 381.06ZM197.29 385.949C197.29 385.726 197.224 385.507 197.1 385.322C196.976 385.136 196.8 384.992 196.594 384.907C196.388 384.822 196.162 384.8 195.943 384.844C195.725 384.888 195.524 384.996 195.367 385.154C195.21 385.312 195.104 385.514 195.061 385.733C195.018 385.952 195.041 386.179 195.128 386.385C195.214 386.59 195.359 386.766 195.545 386.889C195.731 387.012 195.949 387.077 196.171 387.076C196.469 387.074 196.753 386.955 196.963 386.743C197.172 386.532 197.29 386.247 197.29 385.949ZM202.645 381.06C202.645 380.837 202.579 380.62 202.455 380.434C202.331 380.249 202.156 380.104 201.95 380.019C201.745 379.934 201.518 379.911 201.3 379.955C201.082 379.998 200.882 380.106 200.724 380.263C200.567 380.421 200.46 380.622 200.416 380.84C200.373 381.059 200.395 381.286 200.48 381.492C200.566 381.698 200.71 381.874 200.895 381.998C201.08 382.121 201.297 382.187 201.52 382.187C201.818 382.187 202.104 382.069 202.315 381.857C202.526 381.646 202.645 381.359 202.645 381.06ZM207.787 385.949C207.787 385.726 207.721 385.508 207.598 385.323C207.474 385.137 207.298 384.993 207.093 384.907C206.887 384.822 206.661 384.8 206.443 384.843C206.225 384.887 206.024 384.994 205.867 385.152C205.709 385.309 205.602 385.51 205.559 385.729C205.515 385.947 205.538 386.174 205.623 386.38C205.708 386.586 205.852 386.762 206.037 386.886C206.222 387.01 206.44 387.076 206.662 387.076C206.96 387.074 207.245 386.955 207.456 386.744C207.666 386.533 207.785 386.247 207.787 385.949ZM213.135 381.06C213.135 380.837 213.069 380.619 212.945 380.434C212.821 380.248 212.645 380.104 212.439 380.018C212.233 379.933 212.007 379.911 211.789 379.955C211.57 379.999 211.37 380.107 211.213 380.266C211.056 380.424 210.949 380.625 210.906 380.844C210.864 381.064 210.887 381.29 210.973 381.496C211.059 381.702 211.204 381.878 211.39 382.001C211.576 382.124 211.794 382.189 212.017 382.187C212.164 382.187 212.31 382.158 212.446 382.102C212.582 382.045 212.706 381.962 212.81 381.857C212.914 381.752 212.996 381.628 213.052 381.491C213.108 381.354 213.136 381.208 213.135 381.06ZM218.278 385.949C218.278 385.726 218.212 385.507 218.088 385.322C217.964 385.136 217.788 384.992 217.582 384.907C217.376 384.822 217.149 384.8 216.931 384.844C216.713 384.888 216.512 384.996 216.355 385.154C216.198 385.312 216.092 385.514 216.049 385.733C216.006 385.952 216.029 386.179 216.115 386.385C216.202 386.59 216.347 386.766 216.533 386.889C216.718 387.012 216.937 387.077 217.159 387.076C217.457 387.074 217.741 386.955 217.951 386.743C218.16 386.532 218.278 386.247 218.278 385.949ZM223.633 381.06C223.633 380.837 223.567 380.62 223.443 380.434C223.319 380.249 223.144 380.104 222.938 380.019C222.733 379.934 222.506 379.911 222.288 379.955C222.07 379.998 221.869 380.106 221.712 380.263C221.555 380.421 221.448 380.622 221.404 380.84C221.361 381.059 221.383 381.286 221.468 381.492C221.553 381.698 221.698 381.874 221.883 381.998C222.068 382.121 222.285 382.187 222.508 382.187C222.656 382.188 222.802 382.16 222.939 382.103C223.076 382.047 223.2 381.964 223.305 381.859C223.41 381.754 223.492 381.63 223.549 381.493C223.605 381.356 223.633 381.209 223.633 381.06ZM228.775 385.949C228.775 385.726 228.709 385.508 228.585 385.323C228.462 385.137 228.286 384.993 228.081 384.907C227.875 384.822 227.649 384.8 227.431 384.843C227.212 384.887 227.012 384.994 226.855 385.152C226.697 385.309 226.59 385.51 226.547 385.729C226.503 385.947 226.526 386.174 226.611 386.38C226.696 386.586 226.84 386.762 227.025 386.886C227.21 387.01 227.428 387.076 227.65 387.076C227.948 387.076 228.235 386.957 228.446 386.746C228.657 386.534 228.775 386.248 228.775 385.949ZM234.13 381.06C234.13 380.837 234.064 380.62 233.94 380.434C233.816 380.249 233.641 380.104 233.435 380.019C233.23 379.934 233.004 379.911 232.785 379.955C232.567 379.998 232.367 380.106 232.209 380.263C232.052 380.421 231.945 380.622 231.901 380.84C231.858 381.059 231.88 381.286 231.965 381.492C232.051 381.698 232.195 381.874 232.38 381.998C232.565 382.121 232.782 382.187 233.005 382.187C233.303 382.187 233.589 382.069 233.8 381.857C234.011 381.646 234.13 381.359 234.13 381.06ZM239.272 385.949C239.272 385.726 239.206 385.508 239.083 385.323C238.959 385.137 238.783 384.993 238.578 384.907C238.372 384.822 238.146 384.8 237.928 384.843C237.71 384.887 237.509 384.994 237.352 385.152C237.195 385.309 237.087 385.51 237.044 385.729C237.001 385.947 237.023 386.174 237.108 386.38C237.193 386.586 237.337 386.762 237.522 386.886C237.707 387.01 237.925 387.076 238.147 387.076C238.445 387.074 238.73 386.955 238.941 386.744C239.151 386.533 239.271 386.247 239.272 385.949ZM244.62 381.06C244.62 380.837 244.554 380.619 244.43 380.434C244.306 380.248 244.13 380.104 243.924 380.018C243.719 379.933 243.492 379.911 243.274 379.955C243.055 379.999 242.855 380.107 242.698 380.266C242.541 380.424 242.434 380.625 242.391 380.844C242.349 381.064 242.372 381.29 242.458 381.496C242.544 381.702 242.689 381.878 242.875 382.001C243.061 382.124 243.279 382.189 243.502 382.187C243.649 382.187 243.795 382.158 243.931 382.102C244.068 382.045 244.191 381.962 244.295 381.857C244.399 381.752 244.481 381.628 244.537 381.491C244.593 381.354 244.621 381.208 244.62 381.06ZM249.763 385.949C249.763 385.726 249.697 385.507 249.573 385.322C249.449 385.136 249.273 384.992 249.067 384.907C248.861 384.822 248.635 384.8 248.416 384.844C248.198 384.888 247.997 384.996 247.84 385.154C247.683 385.312 247.577 385.514 247.534 385.733C247.491 385.952 247.514 386.179 247.601 386.385C247.687 386.59 247.832 386.766 248.018 386.889C248.204 387.012 248.422 387.077 248.644 387.076C248.942 387.074 249.226 386.955 249.436 386.743C249.645 386.532 249.763 386.247 249.763 385.949ZM255.118 381.06C255.118 380.837 255.052 380.62 254.928 380.434C254.804 380.249 254.629 380.104 254.423 380.019C254.218 379.934 253.991 379.911 253.773 379.955C253.555 379.998 253.355 380.106 253.197 380.263C253.04 380.421 252.933 380.622 252.889 380.84C252.846 381.059 252.868 381.286 252.953 381.492C253.038 381.698 253.183 381.874 253.368 381.998C253.553 382.121 253.77 382.187 253.993 382.187C254.141 382.188 254.287 382.16 254.424 382.103C254.561 382.047 254.685 381.964 254.79 381.859C254.895 381.754 254.977 381.63 255.034 381.493C255.09 381.356 255.118 381.209 255.118 381.06ZM260.26 385.949C260.26 385.726 260.194 385.508 260.07 385.323C259.947 385.137 259.771 384.993 259.566 384.907C259.36 384.822 259.134 384.8 258.916 384.843C258.697 384.887 258.497 384.994 258.34 385.152C258.182 385.309 258.075 385.51 258.032 385.729C257.988 385.947 258.011 386.174 258.096 386.38C258.181 386.586 258.325 386.762 258.51 386.886C258.695 387.01 258.913 387.076 259.135 387.076C259.434 387.076 259.72 386.957 259.931 386.746C260.142 386.534 260.26 386.248 260.26 385.949ZM265.615 381.06C265.615 380.837 265.549 380.62 265.425 380.434C265.302 380.249 265.126 380.104 264.92 380.019C264.715 379.934 264.489 379.911 264.27 379.955C264.052 379.998 263.852 380.106 263.694 380.263C263.537 380.421 263.43 380.622 263.387 380.84C263.343 381.059 263.365 381.286 263.451 381.492C263.536 381.698 263.68 381.874 263.865 381.998C264.05 382.121 264.267 382.187 264.49 382.187C264.788 382.187 265.074 382.069 265.285 381.857C265.496 381.646 265.615 381.359 265.615 381.06ZM270.757 385.949C270.757 385.726 270.691 385.508 270.568 385.323C270.444 385.137 270.268 384.993 270.063 384.907C269.857 384.822 269.631 384.8 269.413 384.843C269.195 384.887 268.994 384.994 268.837 385.152C268.68 385.309 268.572 385.51 268.529 385.729C268.486 385.947 268.508 386.174 268.593 386.38C268.678 386.586 268.822 386.762 269.007 386.886C269.192 387.01 269.41 387.076 269.632 387.076C269.93 387.074 270.215 386.955 270.426 386.744C270.637 386.533 270.756 386.247 270.757 385.949ZM92.0547 258.427C92.0535 258.65 92.1185 258.869 92.2416 259.055C92.3648 259.242 92.5404 259.387 92.7462 259.473C92.952 259.559 93.1787 259.582 93.3975 259.539C93.6164 259.496 93.8174 259.388 93.9751 259.23C94.1328 259.072 94.2401 258.871 94.2833 258.652C94.3265 258.432 94.3037 258.205 94.2177 257.999C94.1318 257.793 93.9866 257.617 93.8006 257.493C93.6146 257.37 93.3963 257.305 93.1732 257.306C92.8766 257.306 92.5921 257.424 92.3823 257.634C92.1726 257.845 92.0547 258.13 92.0547 258.427ZM92.0547 248.399C92.0535 248.622 92.1185 248.841 92.2416 249.028C92.3648 249.214 92.5404 249.359 92.7462 249.445C92.952 249.532 93.1787 249.554 93.3975 249.511C93.6164 249.468 93.8174 249.36 93.9751 249.202C94.1328 249.044 94.2401 248.843 94.2833 248.624C94.3265 248.404 94.3037 248.177 94.2177 247.971C94.1318 247.765 93.9866 247.589 93.8006 247.466C93.6146 247.342 93.3963 247.277 93.1732 247.278C92.8771 247.28 92.5936 247.399 92.3842 247.608C92.1748 247.818 92.0564 248.102 92.0547 248.399ZM86.9122 253.551C86.9148 253.773 86.9826 253.989 87.1072 254.173C87.2317 254.356 87.4075 254.498 87.6126 254.582C87.8176 254.666 88.0427 254.687 88.2597 254.643C88.4767 254.599 88.676 254.492 88.8325 254.335C88.9891 254.179 89.0959 253.979 89.1397 253.761C89.1836 253.544 89.1624 253.319 89.0788 253.113C88.9953 252.908 88.8531 252.732 88.6701 252.607C88.4871 252.482 88.2714 252.414 88.05 252.411C87.7534 252.411 87.4689 252.53 87.2591 252.74C87.0494 252.95 86.9315 253.235 86.9315 253.532M86.9315 243.504C86.9302 243.728 86.9953 243.946 87.1184 244.133C87.2415 244.319 87.4172 244.465 87.623 244.551C87.8288 244.637 88.0555 244.66 88.2743 244.616C88.4931 244.573 88.6941 244.466 88.8519 244.308C89.0096 244.15 89.1168 243.948 89.16 243.729C89.2032 243.51 89.1804 243.283 89.0945 243.076C89.0085 242.87 88.8634 242.694 88.6774 242.571C88.4914 242.447 88.273 242.382 88.05 242.384C87.7539 242.385 87.4704 242.504 87.261 242.714C87.0516 242.923 86.9332 243.208 86.9315 243.504ZM81.6219 258.42C81.6206 258.644 81.6855 258.862 81.8083 259.048C81.9311 259.235 82.1064 259.38 82.3118 259.466C82.5173 259.553 82.7436 259.576 82.9623 259.533C83.1809 259.49 83.382 259.383 83.5399 259.226C83.6979 259.069 83.8057 258.868 83.8496 258.649C83.8935 258.43 83.8716 258.203 83.7867 257.997C83.7017 257.791 83.5575 257.614 83.3724 257.49C83.1873 257.366 82.9695 257.3 82.7468 257.3C82.4495 257.3 82.1644 257.418 81.9536 257.628C81.7428 257.838 81.6236 258.123 81.6219 258.42ZM81.6219 248.393C81.6206 248.616 81.6855 248.834 81.8083 249.02C81.9311 249.207 82.1064 249.352 82.3118 249.438C82.5173 249.525 82.7436 249.548 82.9623 249.505C83.1809 249.462 83.382 249.356 83.5399 249.198C83.6979 249.041 83.8057 248.84 83.8496 248.621C83.8935 248.402 83.8716 248.175 83.7867 247.969C83.7017 247.763 83.5575 247.586 83.3724 247.462C83.1873 247.338 82.9695 247.272 82.7468 247.272C82.4501 247.274 82.1659 247.392 81.9554 247.602C81.745 247.811 81.6252 248.095 81.6219 248.393ZM76.4793 253.545C76.4781 253.768 76.543 253.987 76.6658 254.173C76.7886 254.359 76.9639 254.505 77.1693 254.591C77.3747 254.677 77.6011 254.7 77.8198 254.658C78.0384 254.615 78.2394 254.508 78.3974 254.351C78.5554 254.193 78.6632 253.992 78.7071 253.774C78.751 253.555 78.7291 253.328 78.6442 253.122C78.5592 252.915 78.415 252.739 78.2299 252.615C78.0448 252.491 77.827 252.424 77.6043 252.424C77.307 252.424 77.0219 252.542 76.8111 252.752C76.6003 252.962 76.481 253.247 76.4793 253.545ZM76.4793 243.517C76.4781 243.74 76.543 243.959 76.6658 244.145C76.7886 244.331 76.9639 244.477 77.1693 244.563C77.3747 244.649 77.6011 244.672 77.8198 244.63C78.0384 244.587 78.2394 244.48 78.3974 244.323C78.5554 244.165 78.6632 243.965 78.7071 243.746C78.751 243.527 78.7291 243.3 78.6442 243.094C78.5592 242.887 78.415 242.711 78.2299 242.587C78.0448 242.463 77.827 242.396 77.6043 242.396C77.3075 242.398 77.0233 242.517 76.8129 242.726C76.6025 242.936 76.4827 243.22 76.4793 243.517ZM71.1247 258.433C71.1234 258.656 71.1883 258.875 71.3111 259.061C71.434 259.247 71.6092 259.393 71.8147 259.479C72.0201 259.565 72.2465 259.589 72.4651 259.546C72.6837 259.503 72.8848 259.396 73.0428 259.239C73.2007 259.082 73.3085 258.881 73.3524 258.662C73.3964 258.443 73.3745 258.216 73.2895 258.01C73.2046 257.804 73.0604 257.627 72.8753 257.503C72.6901 257.379 72.4724 257.313 72.2496 257.313C71.9524 257.313 71.6672 257.431 71.4564 257.64C71.2457 257.85 71.1264 258.135 71.1247 258.433ZM71.1247 248.405C71.1234 248.629 71.1883 248.847 71.3111 249.033C71.434 249.22 71.6092 249.365 71.8147 249.451C72.0201 249.538 72.2465 249.561 72.4651 249.518C72.6837 249.475 72.8848 249.368 73.0428 249.211C73.2007 249.054 73.3085 248.853 73.3524 248.634C73.3964 248.415 73.3745 248.188 73.2895 247.982C73.2046 247.776 73.0604 247.599 72.8753 247.475C72.6901 247.351 72.4724 247.285 72.2496 247.285C71.9529 247.286 71.6687 247.405 71.4583 247.614C71.2479 247.824 71.1281 248.108 71.1247 248.405ZM65.9822 253.558C65.9809 253.781 66.0458 254 66.1686 254.186C66.2915 254.372 66.4667 254.517 66.6721 254.604C66.8776 254.69 67.104 254.713 67.3226 254.67C67.5412 254.628 67.7423 254.521 67.9002 254.364C68.0582 254.206 68.166 254.005 68.2099 253.787C68.2538 253.568 68.2319 253.341 68.147 253.134C68.062 252.928 67.9179 252.752 67.7327 252.628C67.5476 252.503 67.3299 252.437 67.1071 252.437C66.8099 252.437 66.5247 252.555 66.3139 252.765C66.1031 252.975 65.9839 253.26 65.9822 253.558ZM65.9822 243.53C65.9809 243.753 66.0458 243.972 66.1686 244.158C66.2915 244.344 66.4667 244.49 66.6721 244.576C66.8776 244.662 67.104 244.685 67.3226 244.643C67.5412 244.6 67.7423 244.493 67.9002 244.336C68.0582 244.178 68.166 243.977 68.2099 243.759C68.2538 243.54 68.2319 243.313 68.147 243.107C68.062 242.9 67.9179 242.724 67.7327 242.6C67.5476 242.476 67.3299 242.409 67.1071 242.409C66.8104 242.411 66.5262 242.529 66.3158 242.739C66.1053 242.949 65.9855 243.233 65.9822 243.53ZM60.634 258.446C60.6327 258.67 60.6977 258.888 60.8209 259.075C60.944 259.261 61.1196 259.407 61.3254 259.493C61.5312 259.579 61.7579 259.602 61.9767 259.558C62.1956 259.515 62.3966 259.408 62.5543 259.25C62.712 259.092 62.8193 258.89 62.8625 258.671C62.9057 258.452 62.8829 258.225 62.7969 258.018C62.711 257.812 62.5658 257.636 62.3798 257.513C62.1939 257.389 61.9755 257.324 61.7524 257.326C61.4558 257.326 61.1713 257.444 60.9616 257.654C60.7518 257.864 60.634 258.149 60.634 258.446ZM60.634 248.418C60.6327 248.642 60.6977 248.861 60.8209 249.047C60.944 249.233 61.1196 249.379 61.3254 249.465C61.5312 249.551 61.7579 249.574 61.9767 249.53C62.1956 249.487 62.3966 249.38 62.5543 249.222C62.712 249.064 62.8193 248.862 62.8625 248.643C62.9057 248.424 62.8829 248.197 62.7969 247.99C62.711 247.784 62.5658 247.608 62.3798 247.485C62.1939 247.362 61.9755 247.296 61.7524 247.298C61.4563 247.299 61.1728 247.418 60.9634 247.628C60.754 247.838 60.6356 248.122 60.634 248.418ZM55.4914 253.571C55.4982 253.795 55.5715 254.012 55.702 254.194C55.8324 254.376 56.0142 254.515 56.2239 254.593C56.4336 254.671 56.6619 254.685 56.8794 254.632C57.0969 254.58 57.2939 254.464 57.4451 254.298C57.5963 254.133 57.6949 253.926 57.7282 253.705C57.7616 253.483 57.7282 253.256 57.6323 253.054C57.5364 252.851 57.3824 252.682 57.19 252.567C56.9976 252.453 56.7755 252.399 56.5521 252.411C56.2554 252.411 55.9709 252.53 55.7612 252.74C55.5514 252.95 55.4336 253.235 55.4336 253.532M55.4336 243.504C55.4323 243.728 55.4974 243.946 55.6205 244.133C55.7436 244.319 55.9192 244.465 56.125 244.551C56.3309 244.637 56.5576 244.66 56.7764 244.616C56.9952 244.573 57.1962 244.466 57.3539 244.308C57.5116 244.15 57.6189 243.948 57.6621 243.729C57.7053 243.51 57.6825 243.283 57.5966 243.076C57.5106 242.87 57.3654 242.694 57.1795 242.571C56.9935 242.447 56.7751 242.382 56.5521 242.384C56.256 242.385 55.9724 242.504 55.763 242.714C55.5537 242.923 55.4353 243.208 55.4336 243.504ZM50.1239 258.42C50.1227 258.644 50.1875 258.862 50.3104 259.048C50.4332 259.235 50.6085 259.38 50.8139 259.466C51.0193 259.553 51.2457 259.576 51.4644 259.533C51.683 259.49 51.884 259.383 52.042 259.226C52.2 259.069 52.3077 258.868 52.3517 258.649C52.3956 258.43 52.3737 258.203 52.2888 257.997C52.2038 257.791 52.0596 257.614 51.8745 257.49C51.6894 257.366 51.4716 257.3 51.2489 257.3C50.9516 257.3 50.6665 257.418 50.4557 257.628C50.2449 257.838 50.1256 258.123 50.1239 258.42ZM50.1239 248.393C50.1227 248.616 50.1875 248.834 50.3104 249.02C50.4332 249.207 50.6085 249.352 50.8139 249.438C51.0193 249.525 51.2457 249.548 51.4644 249.505C51.683 249.462 51.884 249.356 52.042 249.198C52.2 249.041 52.3077 248.84 52.3517 248.621C52.3956 248.402 52.3737 248.175 52.2888 247.969C52.2038 247.763 52.0596 247.586 51.8745 247.462C51.6894 247.338 51.4716 247.272 51.2489 247.272C50.9521 247.274 50.6679 247.392 50.4575 247.602C50.2471 247.811 50.1273 248.095 50.1239 248.393ZM44.9814 253.545C44.9801 253.768 45.045 253.987 45.1679 254.173C45.2907 254.359 45.4659 254.505 45.6714 254.591C45.8768 254.677 46.1032 254.7 46.3218 254.658C46.5405 254.615 46.7415 254.508 46.8995 254.351C47.0574 254.193 47.1652 253.992 47.2092 253.774C47.2531 253.555 47.2312 253.328 47.1462 253.122C47.0613 252.915 46.9171 252.739 46.732 252.615C46.5468 252.491 46.3291 252.424 46.1063 252.424C45.8091 252.424 45.5239 252.542 45.3132 252.752C45.1024 252.962 44.9831 253.247 44.9814 253.545ZM44.9814 243.517C44.9801 243.74 45.045 243.959 45.1679 244.145C45.2907 244.331 45.4659 244.477 45.6714 244.563C45.8768 244.649 46.1032 244.672 46.3218 244.63C46.5405 244.587 46.7415 244.48 46.8995 244.323C47.0574 244.165 47.1652 243.965 47.2092 243.746C47.2531 243.527 47.2312 243.3 47.1462 243.094C47.0613 242.887 46.9171 242.711 46.732 242.587C46.5468 242.463 46.3291 242.396 46.1063 242.396C45.8096 242.398 45.5254 242.517 45.315 242.726C45.1046 242.936 44.9848 243.22 44.9814 243.517ZM39.6332 258.433C39.6319 258.657 39.697 258.876 39.8201 259.062C39.9432 259.248 40.1188 259.394 40.3247 259.48C40.5305 259.566 40.7572 259.589 40.976 259.545C41.1948 259.502 41.3958 259.395 41.5535 259.237C41.7113 259.079 41.8185 258.877 41.8617 258.658C41.9049 258.439 41.8821 258.212 41.7962 258.005C41.7102 257.799 41.5651 257.623 41.3791 257.5C41.1931 257.377 40.9747 257.311 40.7517 257.313C40.455 257.313 40.1706 257.431 39.9608 257.641C39.751 257.851 39.6332 258.136 39.6332 258.433ZM39.6332 248.405C39.6319 248.629 39.697 248.848 39.8201 249.034C39.9432 249.22 40.1188 249.366 40.3247 249.452C40.5305 249.538 40.7572 249.561 40.976 249.518C41.1948 249.474 41.3958 249.367 41.5535 249.209C41.7113 249.051 41.8185 248.849 41.8617 248.63C41.9049 248.411 41.8821 248.184 41.7962 247.978C41.7102 247.771 41.5651 247.595 41.3791 247.472C41.1931 247.349 40.9747 247.284 40.7517 247.285C40.4556 247.286 40.1721 247.405 39.9627 247.615C39.7533 247.825 39.6349 248.109 39.6332 248.405ZM34.4907 253.558C34.4894 253.781 34.5545 254 34.6776 254.186C34.8007 254.373 34.9763 254.518 35.1821 254.604C35.3879 254.69 35.6147 254.713 35.8335 254.67C36.0523 254.627 36.2533 254.519 36.411 254.361C36.5687 254.203 36.676 254.002 36.7192 253.783C36.7624 253.563 36.7396 253.336 36.6536 253.13C36.5677 252.924 36.4225 252.748 36.2366 252.624C36.0506 252.501 35.8322 252.436 35.6092 252.437C35.3125 252.437 35.028 252.555 34.8183 252.765C34.6085 252.976 34.4907 253.261 34.4907 253.558ZM34.4907 243.53C34.4894 243.753 34.5545 243.972 34.6776 244.159C34.8007 244.345 34.9763 244.49 35.1821 244.576C35.3879 244.663 35.6147 244.685 35.8335 244.642C36.0523 244.599 36.2533 244.491 36.411 244.333C36.5687 244.175 36.676 243.974 36.7192 243.755C36.7624 243.535 36.7396 243.308 36.6536 243.102C36.5677 242.896 36.4225 242.72 36.2366 242.597C36.0506 242.473 35.8322 242.408 35.6092 242.409C35.313 242.411 35.0295 242.53 34.8201 242.739C34.6107 242.949 34.4924 243.233 34.4907 243.53ZM29.136 258.446C29.1348 258.669 29.1996 258.888 29.3225 259.074C29.4453 259.26 29.6206 259.406 29.826 259.492C30.0314 259.578 30.2578 259.602 30.4764 259.559C30.6951 259.516 30.8961 259.409 31.0541 259.252C31.2121 259.094 31.3198 258.894 31.3638 258.675C31.4077 258.456 31.3858 258.229 31.3008 258.023C31.2159 257.816 31.0717 257.64 30.8866 257.516C30.7015 257.392 30.4837 257.326 30.261 257.326C29.9637 257.326 29.6786 257.443 29.4678 257.653C29.257 257.863 29.1377 258.148 29.136 258.446ZM29.136 248.418C29.1348 248.642 29.1996 248.86 29.3225 249.046C29.4453 249.232 29.6206 249.378 29.826 249.464C30.0314 249.55 30.2578 249.574 30.4764 249.531C30.6951 249.488 30.8961 249.381 31.0541 249.224C31.2121 249.067 31.3198 248.866 31.3638 248.647C31.4077 248.428 31.3858 248.201 31.3008 247.995C31.2159 247.789 31.0717 247.612 30.8866 247.488C30.7015 247.364 30.4837 247.298 30.261 247.298C29.9637 247.298 29.6786 247.416 29.4678 247.626C29.257 247.835 29.1377 248.121 29.136 248.418ZM10.3915 248.418C10.3979 248.195 10.3378 247.975 10.219 247.786C10.1002 247.597 9.92791 247.447 9.72413 247.356C9.52036 247.266 9.29426 247.238 9.07454 247.276C8.85482 247.314 8.6514 247.417 8.49012 247.571C8.32885 247.726 8.217 247.924 8.16877 248.143C8.12054 248.361 8.13812 248.588 8.21927 248.796C8.30042 249.005 8.44148 249.184 8.62453 249.311C8.80758 249.439 9.02436 249.509 9.24734 249.513C9.3953 249.514 9.54197 249.485 9.67883 249.429C9.8157 249.373 9.94005 249.29 10.0447 249.185C10.1493 249.08 10.2321 248.956 10.2884 248.818C10.3446 248.681 10.3731 248.534 10.3723 248.386M10.3723 258.414C10.3723 258.191 10.3063 257.973 10.1827 257.788C10.0591 257.602 9.88338 257.458 9.67783 257.373C9.47227 257.287 9.24609 257.265 9.02787 257.309C8.80966 257.352 8.60922 257.459 8.45189 257.617C8.29457 257.775 8.18743 257.975 8.14403 258.194C8.10062 258.413 8.1229 258.639 8.20804 258.845C8.29318 259.051 8.43737 259.227 8.62236 259.351C8.80735 259.475 9.02485 259.541 9.24734 259.541C9.3953 259.542 9.54197 259.513 9.67883 259.457C9.8157 259.401 9.94005 259.318 10.0447 259.213C10.1493 259.108 10.2321 258.983 10.2884 258.846C10.3446 258.709 10.3731 258.562 10.3723 258.414ZM15.7269 243.498C15.7269 243.275 15.6609 243.057 15.5373 242.872C15.4137 242.686 15.238 242.542 15.0325 242.456C14.8269 242.371 14.6007 242.349 14.3825 242.392C14.1643 242.436 13.9639 242.543 13.8065 242.701C13.6492 242.858 13.5421 243.059 13.4987 243.278C13.4553 243.497 13.4775 243.723 13.5627 243.929C13.6478 244.135 13.792 244.311 13.977 244.435C14.162 244.559 14.3795 244.625 14.602 244.625C14.9003 244.625 15.1865 244.506 15.3974 244.295C15.6084 244.083 15.7269 243.797 15.7269 243.498ZM15.7269 253.526C15.7244 253.303 15.6562 253.087 15.5311 252.903C15.406 252.719 15.2294 252.577 15.0236 252.494C14.8179 252.41 14.5921 252.39 14.3747 252.435C14.1574 252.48 13.9581 252.588 13.8021 252.746C13.6461 252.904 13.5402 253.105 13.4978 253.323C13.4555 253.542 13.4785 253.768 13.564 253.973C13.6495 254.178 13.7937 254.353 13.9784 254.476C14.1631 254.6 14.38 254.666 14.602 254.666C14.9003 254.666 15.1865 254.547 15.3974 254.335C15.6084 254.124 15.7269 253.837 15.7269 253.539M20.8694 248.386C20.8694 248.163 20.8034 247.945 20.6798 247.76C20.5562 247.575 20.3805 247.43 20.175 247.345C19.9694 247.26 19.7433 247.237 19.525 247.281C19.3068 247.324 19.1064 247.432 18.9491 247.589C18.7917 247.747 18.6846 247.948 18.6412 248.166C18.5978 248.385 18.6201 248.611 18.7052 248.817C18.7903 249.023 18.9345 249.199 19.1195 249.323C19.3045 249.447 19.522 249.513 19.7445 249.513C20.0429 249.513 20.329 249.394 20.5399 249.183C20.7509 248.972 20.8694 248.685 20.8694 248.386ZM20.8694 258.414C20.8694 258.191 20.8034 257.973 20.6798 257.788C20.5562 257.602 20.3805 257.458 20.175 257.373C19.9694 257.287 19.7433 257.265 19.525 257.309C19.3068 257.352 19.1064 257.459 18.9491 257.617C18.7917 257.775 18.6846 257.975 18.6412 258.194C18.5978 258.413 18.6201 258.639 18.7052 258.845C18.7903 259.051 18.9345 259.227 19.1195 259.351C19.3045 259.475 19.522 259.541 19.7445 259.541C20.0429 259.541 20.329 259.422 20.5399 259.211C20.7509 259 20.8694 258.713 20.8694 258.414ZM26.2176 243.498C26.2176 243.275 26.1515 243.056 26.0276 242.871C25.9037 242.685 25.7276 242.541 25.5217 242.456C25.3158 242.371 25.0893 242.349 24.8709 242.393C24.6525 242.437 24.4521 242.545 24.295 242.703C24.1379 242.861 24.0313 243.063 23.9886 243.282C23.946 243.501 23.9692 243.728 24.0553 243.934C24.1414 244.139 24.2866 244.315 24.4724 244.438C24.6583 244.561 24.8764 244.626 25.0991 244.625C25.2466 244.625 25.3925 244.596 25.5287 244.539C25.6648 244.482 25.7884 244.399 25.8923 244.294C25.9963 244.19 26.0785 244.065 26.1344 243.929C26.1902 243.792 26.2185 243.645 26.2176 243.498ZM26.2176 253.526C26.2176 253.302 26.1515 253.084 26.0276 252.899C25.9037 252.713 25.7276 252.569 25.5217 252.484C25.3158 252.399 25.0893 252.377 24.8709 252.421C24.6525 252.465 24.4521 252.573 24.295 252.731C24.1379 252.889 24.0313 253.091 23.9886 253.31C23.946 253.529 23.9692 253.756 24.0553 253.961C24.1414 254.167 24.2866 254.343 24.4724 254.466C24.6583 254.589 24.8764 254.654 25.0991 254.653C25.2466 254.653 25.3925 254.624 25.5287 254.567C25.6648 254.51 25.7884 254.427 25.8923 254.322C25.9963 254.217 26.0785 254.093 26.1344 253.956C26.1902 253.82 26.2185 253.673 26.2176 253.526ZM96.233 228.26H94.5553V233.927H96.233V228.26ZM96.233 218.522H94.5553V224.196H96.233V218.522ZM90.5377 228.26H88.8599V233.927H90.5377V228.26ZM90.5377 218.522H88.8599V224.196H90.5377V218.522ZM84.8359 228.26H83.1646V233.927H84.8359V228.26ZM84.8359 218.522H83.1646V224.196H84.8359V218.522ZM79.147 228.26H77.4757V233.927H79.147V228.26ZM79.147 218.522H77.4757V224.196H79.147V218.522ZM73.4517 228.26H71.7804V233.927H73.4517V228.26ZM73.4517 218.522H71.7804V224.196H73.4517V218.522ZM67.7563 228.26H66.085V233.927H67.7563V228.26ZM67.7563 218.522H66.085V224.196H67.7563V218.522ZM62.061 228.26H60.409V233.927H62.0803L62.061 228.26ZM62.061 218.522H60.409V224.196H62.0803L62.061 218.522ZM56.3657 228.26H54.6943V233.927H56.3657V228.26ZM56.3657 218.522H54.6943V224.196H56.3657V218.522ZM50.6703 228.26H48.999V233.927H50.6703V228.26ZM50.6703 218.522H48.999V224.196H50.6703V218.522ZM44.9814 228.26H43.3101V233.927H44.9814V228.26ZM44.9814 218.522H43.3101V224.196H44.9814V218.522ZM39.2796 228.26H37.6083V233.927H39.2796V228.26ZM39.2796 218.522H37.6083V224.196H39.2796V218.522ZM33.5843 228.26H31.913V233.927H33.5843V228.26ZM33.5843 218.522H31.913V224.196H33.5843V218.522ZM302.326 433.763H278.825V340.086H302.326V433.763ZM302.326 338.411H291.533V112.846H302.326V338.411ZM302.326 111.171H291.527C291.357 94.2382 284.525 78.0562 272.514 66.1422C260.503 54.2282 244.285 47.5449 227.383 47.5449C210.482 47.5449 194.263 54.2282 182.253 66.1422C170.242 78.0562 163.409 94.2382 163.24 111.171H152.846V37.1056H302.326V111.171ZM152.017 391.629C152.963 391.63 153.889 391.913 154.675 392.441C155.462 392.969 156.075 393.719 156.436 394.596C156.798 395.473 156.892 396.437 156.706 397.367C156.521 398.298 156.064 399.152 155.394 399.822C154.724 400.493 153.871 400.949 152.942 401.134C152.013 401.318 151.051 401.223 150.176 400.86C149.301 400.496 148.554 399.881 148.028 399.092C147.502 398.304 147.221 397.376 147.221 396.427C147.221 395.797 147.345 395.172 147.586 394.59C147.827 394.007 148.181 393.478 148.626 393.032C149.071 392.587 149.6 392.233 150.182 391.993C150.764 391.752 151.387 391.628 152.017 391.629ZM152.846 112.846H163.259V338.392H152.846V112.846ZM151.174 390.019C149.547 390.232 148.062 391.057 147.02 392.327C145.978 393.597 145.457 395.216 145.563 396.857C145.67 398.498 146.395 400.036 147.592 401.16C148.79 402.285 150.369 402.91 152.01 402.91C153.651 402.91 155.23 402.285 156.428 401.16C157.625 400.036 158.35 398.498 158.457 396.857C158.563 395.216 158.042 393.597 157 392.327C155.958 391.057 154.473 390.232 152.846 390.019V340.086H176.353V433.763H127.654V340.086H151.174V390.019ZM151.174 338.411H1.66855V314.91H151.174V338.411ZM151.174 313.236H147.78V302.325H151.174V313.236ZM146.115 313.236H142.721V302.325H146.115V313.236ZM141.05 313.236H137.675V302.325H141.05V313.236ZM136.004 313.236H132.629V302.325H136.004V313.236ZM130.958 313.236H127.59V302.325H130.958V313.236ZM125.918 313.236H122.543V302.325H125.918V313.236ZM120.872 313.236H117.504V302.325H120.872V313.236ZM115.826 313.236H112.477V302.325H115.845L115.826 313.236ZM110.786 313.236H107.412V302.325H110.786V313.236ZM105.74 313.236H102.372V302.325H105.74V313.236ZM100.701 313.236H97.3258V302.325H100.701V313.236ZM95.6545 313.236H92.2797V302.325H95.6545V313.236ZM90.6084 313.236H87.2401V302.325H90.6213L90.6084 313.236ZM85.5687 313.236H82.194V302.325H85.5687V313.236ZM80.5226 313.236H77.1222V302.325H80.4969L80.5226 313.236ZM75.483 313.236H72.0632V302.325H75.483V313.236ZM70.3919 313.236H67.0235V302.325H70.3919V313.236ZM65.3522 313.236H61.9774V302.325H65.3522V313.236ZM60.3061 313.236H56.9313V302.325H60.3061V313.236ZM55.26 313.236H51.8917V302.325H55.2664L55.26 313.236ZM50.2203 313.236H46.8456V302.325H50.2203V313.236ZM45.1743 313.236H41.7995V302.325H45.1743V313.236ZM40.1346 313.236H36.7598V302.325H40.1346V313.236ZM35.0885 313.236H31.7137V302.325H35.0885V313.236ZM30.0424 313.236H26.674V302.325H30.0424V313.236ZM25.0027 313.236H21.6279V302.325H25.0027V313.236ZM19.9566 313.236H16.5819V302.325H19.9566V313.236ZM14.9105 313.236H11.555V302.325H14.9234L14.9105 313.236ZM9.87086 313.236H6.49609V302.325H9.87086V313.236ZM151.174 300.619H1.66855V289.67H151.174V300.619ZM151.174 287.995H1.66855V264.423H151.174V287.995ZM151.174 262.748H102.455V213.942H151.174V262.748ZM151.174 212.268H128.92L151.174 189.881V212.268ZM151.174 187.504L126.561 212.268H103.735L151.174 164.924V187.504ZM151.174 162.56L101.369 212.268H52.0524V188.58H77.2443V163.333H102.443V138.093H127.641V112.846H151.174V162.56ZM151.174 111.171H125.976V136.418H100.778V161.658H75.5922V186.905H50.3939V212.261H25.1956V237.502H1.66855V173.451L138.286 37.112H151.174V111.171ZM135.92 37.1056L127.654 45.3494V37.112L135.92 37.1056ZM125.976 47.0304L115.048 57.9342V37.112H125.976V47.0304ZM113.377 59.6022L102.449 70.506V37.112H113.377V59.6022ZM100.778 72.1741L90.107 82.8267V37.0991H100.778V72.1741ZM88.4357 84.4948L77.2507 95.6497V37.112H88.4357V84.4948ZM75.5794 97.3178L64.6516 108.234V37.112H75.5794V97.3178ZM62.9802 109.903L52.0524 120.813V37.0863H62.9802V109.903ZM50.3746 122.481L40.0446 132.786V37.112H50.3746V122.481ZM38.3733 134.46L26.8669 145.944V37.0991H38.3733V134.46ZM25.1956 147.612L14.1906 158.56V37.112H25.1956V147.612ZM12.5193 160.261L1.66855 171.087V37.1249H12.5193V160.261ZM26.8669 237.502V213.936H100.791V237.495L26.8669 237.502ZM1.66855 239.208H100.784V262.781H1.66855V239.208ZM1.66855 302.325H4.82477V313.274H1.66855V302.325ZM1.66855 340.118H12.545V389.117H1.66855V340.118ZM14.2163 340.118H25.1956V389.117H14.2163V340.118ZM120.114 366.086L115.556 361.578H107.598L102.989 366.086H96.7601L92.2604 361.61H84.0453L79.5456 366.08H73.1174L68.5213 361.571H60.7047L56.1021 366.08H49.7382L45.1807 361.571H37.2226L32.6201 366.08H26.8347V340.086H125.976V366.086H120.114ZM125.983 367.761V389.072H26.8669V367.774H33.295L37.8976 363.265H44.4864L49.044 367.774H56.7578L61.3668 363.265H67.7949L72.391 367.774H80.1884L84.6881 363.304H91.5533L96.0016 367.761H103.632L108.234 363.252H114.823L119.381 367.761H125.983ZM1.66855 390.76H125.976V402.056H1.66855V390.76ZM1.66855 403.731H125.976V414.326H1.66855V403.731ZM1.66855 415.968H25.1956V433.731H1.66855V415.968ZM26.8669 415.968H125.976V433.731H26.8669V415.968ZM178.044 112.846H277.153V136.412H178.044V112.846ZM178.044 138.093H277.153V188.122L227.592 138.324L178.044 188.116V138.093ZM178.044 188.483L227.605 238.268L178.455 287.725L178.044 288.156V188.483ZM178.044 288.491L227.001 337.748L227.592 338.347L276.748 288.884L277.153 288.478V338.392H178.044V288.491ZM178.044 340.092H277.153V376.468H178.044V340.092ZM178.044 378.143H277.153V389.092H178.044V378.143ZM178.044 390.766H188.972V433.769H178.044V390.766ZM190.65 390.766H201.578V433.769H190.65V390.766ZM203.255 390.766H214.826V433.769H203.255V390.766ZM216.504 390.766H226.834V433.769H216.484L216.504 390.766ZM228.505 390.766H239.047V433.769H228.505V390.766ZM240.719 390.766H251.646V433.769H240.719V390.766ZM253.324 390.766H264.895V433.769H253.324V390.766ZM266.573 390.766H277.173V433.769H266.553L266.573 390.766ZM277.173 188.483V288.156L227.618 238.294L277.173 188.483ZM268.038 181.347L274.974 188.328L268.038 195.239L261.147 188.328L268.038 181.347ZM259.945 173.219L266.862 180.162L259.945 187.111L253.035 180.162L259.945 173.219ZM251.852 165.085L258.769 172.034L251.852 178.977L244.961 172.034L251.852 165.085ZM243.759 156.95L250.682 163.9L243.772 170.843L236.862 163.9L243.759 156.95ZM235.666 148.822L242.576 155.765L235.666 162.715L228.749 155.765L235.666 148.822ZM220.656 147.637L227.592 140.669L234.503 147.618L227.592 154.58L220.656 147.637ZM212.563 155.765L219.473 148.822L226.39 155.765L219.473 162.715L212.563 155.765ZM204.47 163.9L211.38 156.95L218.297 163.9L211.38 170.843L204.47 163.9ZM196.396 172.034L203.307 165.085L210.223 172.028L203.307 178.977L196.396 172.034ZM188.329 180.162L195.239 173.219L202.15 180.162L195.239 187.111L188.329 180.162ZM187.146 195.239L180.204 188.328L187.121 181.379L194.031 188.328L187.146 195.239ZM195.239 203.373L188.329 196.424L195.246 189.481L202.156 196.424L195.239 203.373ZM203.307 211.514L196.396 204.559L203.307 197.609L210.223 204.559L203.307 211.514ZM211.4 219.649L204.489 212.706L211.4 205.718L218.316 212.661L211.4 219.649ZM219.493 227.783L212.583 220.834L219.493 213.891L226.409 220.834L219.493 227.783ZM242.596 220.834L235.685 227.783L228.769 220.834L235.685 213.891L242.596 220.834ZM250.682 212.686L243.765 219.636L236.862 212.686L243.778 205.718L250.682 212.686ZM258.775 204.559L251.871 211.514L244.961 204.559L251.871 197.609L258.775 204.559ZM259.952 189.481L266.868 196.424L259.952 203.373L253.041 196.424L259.952 189.481ZM251.858 181.347L258.788 188.328L251.871 195.271L244.961 188.328L251.858 181.347ZM243.765 173.219L250.682 180.162L243.772 187.111L236.862 180.162L243.765 173.219ZM235.672 165.085L242.583 172.034L235.672 178.977L228.756 172.028L235.672 165.085ZM220.663 163.9L227.579 156.95L234.49 163.9L227.579 170.843L220.663 163.9ZM212.57 172.028L219.48 165.085L226.397 172.028L219.48 178.977L212.57 172.028ZM204.477 180.162L211.387 173.219L218.304 180.162L211.387 187.111L204.477 180.162ZM203.294 195.239L196.396 188.328L203.307 181.379L210.223 188.328L203.294 195.239ZM211.387 203.373L204.477 196.424L211.387 189.481L218.304 196.424L211.387 203.373ZM219.493 211.514L212.583 204.559L219.493 197.609L226.409 204.559L219.493 211.514ZM234.503 212.699L227.592 219.649L220.676 212.699L227.592 205.718L234.503 212.699ZM242.596 204.571L235.685 211.514L228.769 204.559L235.685 197.609L242.596 204.571ZM243.778 189.494L250.682 196.424L243.772 203.373L236.862 196.424L243.778 189.494ZM235.685 181.36L242.596 188.328L235.685 195.271L228.769 188.328L235.685 181.36ZM220.676 180.175L227.592 173.232L234.503 180.175L227.592 187.124L220.676 180.175ZM227.592 189.494L234.503 196.437L227.592 203.386L220.676 196.437L227.592 189.494ZM219.493 195.252L212.583 188.328L219.493 181.379L226.409 188.328L219.493 195.252ZM227.592 235.911L220.676 228.968L227.592 222.019L234.503 228.968L227.592 235.911ZM220.676 247.581L227.592 240.625L234.503 247.581L227.592 254.537L220.676 247.581ZM212.583 255.728L219.493 248.766L226.409 255.728L219.493 262.684L212.583 255.728ZM204.489 263.876L211.4 256.92L218.316 263.876L211.4 270.831L204.489 263.876ZM196.396 272.055L203.307 265.093L210.223 272.055L203.307 279.011L196.396 272.055ZM188.329 280.164L195.246 273.208L202.162 280.164L195.246 287.119L188.329 280.164ZM187.121 295.241L180.204 288.285L187.121 281.323L194.037 288.285L187.121 295.241ZM195.214 303.382L188.329 296.452L195.246 289.496L202.162 296.452L195.214 303.382ZM203.307 311.529L196.396 304.567L203.307 297.611L210.223 304.573L203.307 311.529ZM211.4 319.715L204.489 312.759L211.4 305.803L218.316 312.759L211.4 319.715ZM219.493 327.862L212.583 320.9L219.493 313.918L226.409 320.874L219.493 327.862ZM234.503 329.047L227.592 336.003L220.676 329.047L227.592 322.091L234.503 329.047ZM242.596 320.9L235.685 327.862L228.769 320.9L235.685 313.918L242.596 320.9ZM250.682 312.74L243.778 319.715L236.862 312.759L243.778 305.803L250.682 312.74ZM258.775 304.592L251.858 311.555L244.942 304.592L251.858 297.637L258.775 304.592ZM266.868 296.452L259.952 303.407L253.035 296.452L259.952 289.496L266.868 296.452ZM268.038 281.349L274.955 288.311L268.038 295.241L261.128 288.285L268.038 281.349ZM259.945 273.208L266.862 280.164L259.945 287.119L253.028 280.164L259.945 273.208ZM251.852 265.061L258.788 272.055L251.871 279.011L244.955 272.055L251.852 265.061ZM243.778 256.92L250.682 263.876L243.765 270.831L236.862 263.876L243.778 256.92ZM228.769 255.735L235.685 248.773L242.596 255.735L235.685 262.69L228.769 255.735ZM220.676 263.876L227.592 256.92L234.503 263.876L227.592 270.831L220.676 263.876ZM212.583 272.055L219.493 265.093L226.409 272.055L219.493 279.011L212.583 272.055ZM204.489 280.196L211.4 273.24L218.316 280.196L211.4 287.151L204.489 280.196ZM203.307 295.241L196.39 288.285L203.307 281.323L210.223 288.285L203.307 295.241ZM211.4 303.382L204.489 296.426L211.4 289.47L218.316 296.426L211.4 303.382ZM219.493 311.529L212.583 304.573L219.493 297.611L226.409 304.573L219.493 311.529ZM234.503 312.714L227.592 319.715L220.676 312.759L227.592 305.803L234.503 312.714ZM242.596 304.567L235.685 311.529L228.769 304.573L235.685 297.611L242.596 304.567ZM250.682 296.452L243.765 303.407L236.849 296.452L243.765 289.496L250.682 296.452ZM251.858 281.349L258.775 288.311L251.871 295.241L244.955 288.285L251.858 281.349ZM243.765 273.208L250.682 280.164L243.765 287.119L236.849 280.164L243.765 273.208ZM228.769 272.055L235.685 265.093L242.596 272.055L235.685 279.011L228.769 272.055ZM220.676 280.196L227.592 273.24L234.503 280.196L227.592 287.151L220.676 280.196ZM219.493 295.241L212.583 288.285L219.493 281.323L226.409 288.285L219.493 295.241ZM228.769 288.285L235.685 281.323L242.596 288.285L235.685 295.241L228.769 288.285ZM234.503 296.426L227.592 303.382L220.676 296.426L227.592 289.47L234.503 296.426ZM176.353 338.392H164.899V112.846H176.353V338.392ZM170.568 85.9246C172.183 82.4121 174.12 79.0573 176.353 75.9031V85.9246H170.568ZM178.044 85.9246V73.649C181.226 69.5652 184.896 65.8881 188.972 62.7001V85.9246H178.044ZM190.643 85.9246V61.4056C194.061 58.9083 197.723 56.7634 201.571 55.0037V85.9181L190.643 85.9246ZM203.242 85.9246V54.2695C206.772 52.7867 210.43 51.6312 214.17 50.8174V85.9246H203.242ZM215.842 85.9246V50.5018C219.446 49.8245 223.103 49.4667 226.769 49.4327V85.9246H215.842ZM228.441 85.9246V49.4198C232.11 49.4756 235.767 49.8593 239.369 50.5662V85.9246H228.441ZM241.04 85.9246V50.914C244.785 51.7515 248.443 52.9374 251.968 54.4563V85.9246H241.04ZM253.639 85.9246V55.2034C257.494 56.9979 261.155 59.1818 264.567 61.7212V85.9246H253.639ZM266.238 85.9246V63.0093C270.33 66.2722 274.001 70.0323 277.166 74.2029V85.9246H266.238ZM278.837 85.9246V76.515C280.885 79.4914 282.673 82.6397 284.179 85.9246H278.837ZM284.931 87.5991C288.093 95.0595 289.77 103.067 289.868 111.171H164.911C165.01 103.067 166.687 95.0595 169.848 87.5991H284.931ZM278.837 112.846H289.894V338.392H278.825L278.837 112.846ZM303.997 35.4375H-0.015625V435.438H303.997V35.4375Z" fill="#D1D4D5"/>
</g>
</svg>
