<svg width="305" height="389" viewBox="0 0 305 389" fill="none" xmlns="http://www.w3.org/2000/svg">
<g clip-path="url(#clip0_2888_1775)">
<g filter="url(#filter0_f_2888_1775)">
<ellipse cx="175.182" cy="292.415" rx="127.312" ry="149.918" transform="rotate(-46.3892 175.182 292.415)" fill="#A794B9"/>
</g>
</g>
<mask id="mask0_2888_1775" style="mask-type:alpha" maskUnits="userSpaceOnUse" x="0" y="100" width="305" height="289">
<rect x="0.484375" y="100.391" width="304" height="288" fill="#D9D9D9"/>
</mask>
<g mask="url(#mask0_2888_1775)">
<path d="M187.284 485.902C187.284 485.679 187.218 485.461 187.094 485.276C186.97 485.09 186.795 484.946 186.589 484.861C186.384 484.775 186.157 484.753 185.939 484.796C185.721 484.84 185.521 484.947 185.363 485.105C185.206 485.262 185.099 485.463 185.055 485.682C185.012 485.901 185.034 486.127 185.119 486.333C185.205 486.539 185.349 486.715 185.534 486.839C185.719 486.963 185.936 487.029 186.159 487.029C186.456 487.027 186.742 486.908 186.952 486.697C187.163 486.486 187.282 486.2 187.284 485.902ZM192.632 481.013C192.632 480.79 192.566 480.572 192.442 480.387C192.318 480.201 192.142 480.057 191.936 479.972C191.73 479.886 191.503 479.865 191.285 479.909C191.067 479.953 190.866 480.061 190.709 480.219C190.552 480.377 190.445 480.579 190.403 480.798C190.36 481.017 190.383 481.243 190.469 481.449C190.556 481.655 190.701 481.831 190.887 481.954C191.072 482.077 191.291 482.142 191.513 482.141C191.661 482.141 191.807 482.111 191.943 482.055C192.079 481.998 192.203 481.915 192.307 481.81C192.41 481.705 192.493 481.581 192.549 481.444C192.604 481.308 192.633 481.161 192.632 481.013ZM197.774 485.902C197.774 485.679 197.708 485.46 197.584 485.275C197.46 485.089 197.284 484.945 197.078 484.86C196.872 484.775 196.646 484.753 196.428 484.797C196.209 484.841 196.009 484.949 195.852 485.107C195.695 485.265 195.588 485.467 195.545 485.686C195.503 485.905 195.526 486.132 195.612 486.338C195.698 486.543 195.843 486.719 196.029 486.842C196.215 486.965 196.433 487.03 196.656 487.029C196.953 487.027 197.238 486.908 197.447 486.697C197.657 486.485 197.774 486.2 197.774 485.902ZM203.129 481.013C203.129 480.791 203.063 480.573 202.939 480.387C202.816 480.202 202.64 480.058 202.435 479.972C202.229 479.887 202.003 479.865 201.785 479.908C201.566 479.952 201.366 480.059 201.209 480.217C201.051 480.374 200.944 480.575 200.901 480.794C200.857 481.012 200.88 481.239 200.965 481.445C201.05 481.651 201.194 481.827 201.379 481.951C201.564 482.074 201.782 482.141 202.004 482.141C202.302 482.141 202.589 482.022 202.799 481.81C203.01 481.599 203.129 481.312 203.129 481.013ZM208.271 485.902C208.271 485.679 208.206 485.461 208.082 485.276C207.958 485.09 207.783 484.946 207.577 484.861C207.372 484.775 207.145 484.753 206.927 484.796C206.709 484.84 206.508 484.947 206.351 485.105C206.194 485.262 206.087 485.463 206.043 485.682C206 485.901 206.022 486.127 206.107 486.333C206.192 486.539 206.337 486.715 206.522 486.839C206.707 486.963 206.924 487.029 207.147 487.029C207.444 487.027 207.73 486.908 207.94 486.697C208.151 486.486 208.27 486.2 208.271 485.902ZM213.62 481.013C213.62 480.79 213.554 480.572 213.43 480.387C213.306 480.201 213.13 480.057 212.924 479.972C212.718 479.886 212.491 479.865 212.273 479.909C212.055 479.953 211.854 480.061 211.697 480.219C211.54 480.377 211.433 480.579 211.391 480.798C211.348 481.017 211.371 481.243 211.457 481.449C211.543 481.655 211.689 481.831 211.874 481.954C212.06 482.077 212.278 482.142 212.501 482.141C212.649 482.141 212.795 482.111 212.931 482.055C213.067 481.998 213.19 481.915 213.294 481.81C213.398 481.705 213.481 481.581 213.536 481.444C213.592 481.308 213.621 481.161 213.62 481.013ZM218.762 485.902C218.762 485.679 218.696 485.46 218.572 485.275C218.448 485.089 218.272 484.945 218.066 484.86C217.86 484.775 217.634 484.753 217.415 484.797C217.197 484.841 216.997 484.949 216.84 485.107C216.683 485.265 216.576 485.467 216.533 485.686C216.491 485.905 216.514 486.132 216.6 486.338C216.686 486.543 216.831 486.719 217.017 486.842C217.203 486.965 217.421 487.03 217.644 487.029C217.941 487.027 218.225 486.908 218.435 486.697C218.645 486.485 218.762 486.2 218.762 485.902ZM224.117 481.013C224.117 480.791 224.051 480.573 223.927 480.387C223.804 480.202 223.628 480.058 223.422 479.972C223.217 479.887 222.991 479.865 222.772 479.908C222.554 479.952 222.354 480.059 222.197 480.217C222.039 480.374 221.932 480.575 221.889 480.794C221.845 481.012 221.868 481.239 221.953 481.445C222.038 481.651 222.182 481.827 222.367 481.951C222.552 482.074 222.769 482.141 222.992 482.141C223.14 482.141 223.287 482.113 223.423 482.057C223.56 482 223.685 481.917 223.789 481.812C223.894 481.708 223.977 481.583 224.033 481.446C224.089 481.309 224.118 481.162 224.117 481.013ZM229.259 485.902C229.259 485.679 229.193 485.461 229.07 485.276C228.946 485.09 228.771 484.946 228.565 484.861C228.359 484.775 228.133 484.753 227.915 484.796C227.697 484.84 227.496 484.947 227.339 485.105C227.182 485.262 227.075 485.463 227.031 485.682C226.988 485.901 227.01 486.127 227.095 486.333C227.18 486.539 227.325 486.715 227.509 486.839C227.694 486.963 227.912 487.029 228.134 487.029C228.433 487.029 228.719 486.91 228.93 486.699C229.141 486.487 229.259 486.201 229.259 485.902ZM234.614 481.013C234.614 480.791 234.548 480.573 234.424 480.387C234.301 480.202 234.125 480.058 233.92 479.972C233.714 479.887 233.488 479.865 233.27 479.908C233.051 479.952 232.851 480.059 232.694 480.217C232.536 480.374 232.429 480.575 232.386 480.794C232.342 481.012 232.365 481.239 232.45 481.445C232.535 481.651 232.679 481.827 232.864 481.951C233.049 482.074 233.267 482.141 233.489 482.141C233.787 482.141 234.074 482.022 234.285 481.81C234.496 481.599 234.614 481.312 234.614 481.013ZM239.757 485.902C239.757 485.679 239.691 485.461 239.567 485.276C239.443 485.09 239.268 484.946 239.062 484.861C238.857 484.775 238.63 484.753 238.412 484.796C238.194 484.84 237.994 484.947 237.836 485.105C237.679 485.262 237.572 485.463 237.528 485.682C237.485 485.901 237.507 486.127 237.592 486.333C237.677 486.539 237.822 486.715 238.007 486.839C238.192 486.963 238.409 487.029 238.632 487.029C238.929 487.027 239.215 486.908 239.425 486.697C239.636 486.486 239.755 486.2 239.757 485.902ZM245.105 481.013C245.105 480.79 245.039 480.572 244.915 480.387C244.791 480.201 244.615 480.057 244.409 479.972C244.203 479.886 243.976 479.865 243.758 479.909C243.54 479.953 243.339 480.061 243.182 480.219C243.025 480.377 242.918 480.579 242.876 480.798C242.833 481.017 242.856 481.243 242.942 481.449C243.029 481.655 243.174 481.831 243.36 481.954C243.545 482.077 243.764 482.142 243.986 482.141C244.134 482.141 244.28 482.111 244.416 482.055C244.552 481.998 244.676 481.915 244.779 481.81C244.883 481.705 244.966 481.581 245.021 481.444C245.077 481.308 245.106 481.161 245.105 481.013ZM250.247 485.902C250.247 485.679 250.181 485.46 250.057 485.275C249.933 485.089 249.757 484.945 249.551 484.86C249.345 484.775 249.119 484.753 248.901 484.797C248.682 484.841 248.482 484.949 248.325 485.107C248.168 485.265 248.061 485.467 248.018 485.686C247.976 485.905 247.999 486.132 248.085 486.338C248.171 486.543 248.316 486.719 248.502 486.842C248.688 486.965 248.906 487.03 249.129 487.029C249.426 487.027 249.711 486.908 249.92 486.697C250.13 486.485 250.247 486.2 250.247 485.902ZM255.602 481.013C255.602 480.791 255.536 480.573 255.412 480.387C255.289 480.202 255.113 480.058 254.908 479.972C254.702 479.887 254.476 479.865 254.258 479.908C254.039 479.952 253.839 480.059 253.682 480.217C253.524 480.374 253.417 480.575 253.374 480.794C253.33 481.012 253.353 481.239 253.438 481.445C253.523 481.651 253.667 481.827 253.852 481.951C254.037 482.074 254.255 482.141 254.477 482.141C254.625 482.141 254.772 482.113 254.909 482.057C255.045 482 255.17 481.917 255.274 481.812C255.379 481.708 255.462 481.583 255.518 481.446C255.574 481.309 255.603 481.162 255.602 481.013ZM260.744 485.902C260.744 485.679 260.678 485.461 260.555 485.276C260.431 485.09 260.256 484.946 260.05 484.861C259.844 484.775 259.618 484.753 259.4 484.796C259.182 484.84 258.981 484.947 258.824 485.105C258.667 485.262 258.56 485.463 258.516 485.682C258.473 485.901 258.495 486.127 258.58 486.333C258.665 486.539 258.81 486.715 258.995 486.839C259.18 486.963 259.397 487.029 259.62 487.029C259.918 487.029 260.204 486.91 260.415 486.699C260.626 486.487 260.744 486.201 260.744 485.902ZM266.099 481.013C266.099 480.791 266.033 480.573 265.91 480.387C265.786 480.202 265.61 480.058 265.405 479.972C265.199 479.887 264.973 479.865 264.755 479.908C264.537 479.952 264.336 480.059 264.179 480.217C264.021 480.374 263.914 480.575 263.871 480.794C263.827 481.012 263.85 481.239 263.935 481.445C264.02 481.651 264.164 481.827 264.349 481.951C264.534 482.074 264.752 482.141 264.974 482.141C265.273 482.141 265.559 482.022 265.77 481.81C265.981 481.599 266.099 481.312 266.099 481.013ZM271.242 485.902C271.242 485.679 271.176 485.461 271.052 485.276C270.928 485.09 270.753 484.946 270.547 484.861C270.342 484.775 270.115 484.753 269.897 484.796C269.679 484.84 269.479 484.947 269.321 485.105C269.164 485.262 269.057 485.463 269.013 485.682C268.97 485.901 268.992 486.127 269.077 486.333C269.163 486.539 269.307 486.715 269.492 486.839C269.677 486.963 269.894 487.029 270.117 487.029C270.415 487.027 270.7 486.908 270.91 486.697C271.121 486.486 271.24 486.2 271.242 485.902ZM92.5391 358.38C92.5378 358.603 92.6029 358.822 92.726 359.009C92.8491 359.195 93.0248 359.34 93.2306 359.426C93.4364 359.513 93.6631 359.535 93.8819 359.492C94.1007 359.449 94.3018 359.341 94.4595 359.183C94.6172 359.025 94.7244 358.824 94.7676 358.605C94.8108 358.385 94.788 358.158 94.7021 357.952C94.6162 357.746 94.471 357.57 94.285 357.447C94.099 357.323 93.8806 357.258 93.6576 357.259C93.361 357.259 93.0765 357.377 92.8667 357.588C92.657 357.798 92.5391 358.083 92.5391 358.38ZM92.5391 348.352C92.5378 348.576 92.6029 348.794 92.726 348.981C92.8491 349.167 93.0248 349.313 93.2306 349.399C93.4364 349.485 93.6631 349.508 93.8819 349.464C94.1007 349.421 94.3018 349.314 94.4595 349.156C94.6172 348.998 94.7244 348.796 94.7676 348.577C94.8108 348.358 94.788 348.13 94.7021 347.924C94.6162 347.718 94.471 347.542 94.285 347.419C94.099 347.295 93.8806 347.23 93.6576 347.231C93.3615 347.233 93.078 347.352 92.8686 347.562C92.6592 347.771 92.5408 348.055 92.5391 348.352ZM87.3966 353.505C87.3991 353.726 87.467 353.942 87.5915 354.126C87.7161 354.309 87.8919 354.452 88.0969 354.535C88.302 354.619 88.5271 354.64 88.7441 354.596C88.9611 354.552 89.1603 354.445 89.3169 354.289C89.4734 354.132 89.5803 353.932 89.6241 353.715C89.6679 353.497 89.6467 353.272 89.5632 353.066C89.4797 352.861 89.3375 352.685 89.1545 352.56C88.9715 352.435 88.7558 352.367 88.5344 352.365C88.2377 352.365 87.9532 352.483 87.7435 352.693C87.5337 352.903 87.4159 353.188 87.4159 353.485M87.4159 343.457C87.4146 343.681 87.4797 343.9 87.6028 344.086C87.7259 344.272 87.9015 344.418 88.1073 344.504C88.3132 344.59 88.5399 344.613 88.7587 344.569C88.9775 344.526 89.1785 344.419 89.3362 344.261C89.4939 344.103 89.6012 343.901 89.6444 343.682C89.6876 343.463 89.6648 343.236 89.5789 343.029C89.4929 342.823 89.3477 342.647 89.1618 342.524C88.9758 342.401 88.7574 342.335 88.5344 342.337C88.2383 342.338 87.9547 342.457 87.7453 342.667C87.536 342.877 87.4176 343.161 87.4159 343.457ZM82.1062 358.374C82.105 358.597 82.1699 358.815 82.2927 359.001C82.4155 359.188 82.5908 359.333 82.7962 359.419C83.0016 359.506 83.228 359.529 83.4467 359.486C83.6653 359.443 83.8663 359.337 84.0243 359.179C84.1823 359.022 84.29 358.821 84.334 358.602C84.3779 358.383 84.356 358.156 84.2711 357.95C84.1861 357.744 84.0419 357.567 83.8568 357.443C83.6717 357.319 83.4539 357.253 83.2312 357.253C82.9339 357.253 82.6488 357.371 82.438 357.581C82.2272 357.791 82.1079 358.076 82.1062 358.374ZM82.1062 348.346C82.105 348.569 82.1699 348.787 82.2927 348.974C82.4155 349.16 82.5908 349.305 82.7962 349.392C83.0016 349.478 83.228 349.501 83.4467 349.458C83.6653 349.416 83.8663 349.309 84.0243 349.151C84.1823 348.994 84.29 348.793 84.334 348.574C84.3779 348.356 84.356 348.129 84.2711 347.922C84.1861 347.716 84.0419 347.54 83.8568 347.415C83.6717 347.291 83.4539 347.225 83.2312 347.225C82.9344 347.227 82.6502 347.345 82.4398 347.555C82.2294 347.764 82.1096 348.048 82.1062 348.346ZM76.9637 353.498C76.9624 353.721 77.0273 353.94 77.1502 354.126C77.273 354.312 77.4482 354.458 77.6537 354.544C77.8591 354.63 78.0855 354.653 78.3041 354.611C78.5228 354.568 78.7238 354.461 78.8818 354.304C79.0397 354.146 79.1475 353.946 79.1915 353.727C79.2354 353.508 79.2135 353.281 79.1285 353.075C79.0436 352.868 78.8994 352.692 78.7143 352.568C78.5291 352.444 78.3114 352.377 78.0886 352.377C77.7914 352.377 77.5062 352.495 77.2955 352.705C77.0847 352.915 76.9654 353.2 76.9637 353.498ZM76.9637 343.47C76.9624 343.693 77.0273 343.912 77.1502 344.098C77.273 344.284 77.4482 344.43 77.6537 344.516C77.8591 344.602 78.0855 344.626 78.3041 344.583C78.5228 344.54 78.7238 344.433 78.8818 344.276C79.0397 344.119 79.1475 343.918 79.1915 343.699C79.2354 343.48 79.2135 343.253 79.1285 343.047C79.0436 342.841 78.8994 342.664 78.7143 342.54C78.5291 342.416 78.3114 342.35 78.0886 342.35C77.7919 342.351 77.5077 342.47 77.2973 342.679C77.0869 342.889 76.9671 343.173 76.9637 343.47ZM71.6091 358.386C71.6078 358.61 71.6727 358.828 71.7955 359.014C71.9183 359.201 72.0936 359.346 72.299 359.432C72.5045 359.519 72.7308 359.542 72.9495 359.499C73.1681 359.456 73.3692 359.349 73.5271 359.192C73.6851 359.035 73.7929 358.834 73.8368 358.615C73.8807 358.396 73.8588 358.169 73.7739 357.963C73.6889 357.757 73.5448 357.58 73.3596 357.456C73.1745 357.332 72.9568 357.266 72.734 357.266C72.4368 357.266 72.1516 357.384 71.9408 357.594C71.73 357.804 71.6108 358.089 71.6091 358.386ZM71.6091 348.359C71.6078 348.582 71.6727 348.8 71.7955 348.986C71.9183 349.173 72.0936 349.318 72.299 349.404C72.5045 349.491 72.7308 349.514 72.9495 349.471C73.1681 349.428 73.3692 349.322 73.5271 349.164C73.6851 349.007 73.7929 348.806 73.8368 348.587C73.8807 348.368 73.8588 348.142 73.7739 347.935C73.6889 347.729 73.5448 347.552 73.3596 347.428C73.1745 347.304 72.9568 347.238 72.734 347.238C72.4373 347.24 72.1531 347.358 71.9427 347.568C71.7322 347.777 71.6124 348.061 71.6091 348.359ZM66.4665 353.511C66.4653 353.734 66.5302 353.953 66.653 354.139C66.7758 354.325 66.9511 354.471 67.1565 354.557C67.3619 354.643 67.5883 354.666 67.807 354.624C68.0256 354.581 68.2266 354.474 68.3846 354.317C68.5426 354.159 68.6504 353.958 68.6943 353.74C68.7382 353.521 68.7163 353.294 68.6314 353.088C68.5464 352.881 68.4022 352.705 68.2171 352.581C68.032 352.457 67.8142 352.39 67.5915 352.39C67.2942 352.39 67.0091 352.508 66.7983 352.718C66.5875 352.928 66.4682 353.213 66.4665 353.511ZM66.4665 343.483C66.4653 343.706 66.5302 343.925 66.653 344.111C66.7758 344.297 66.9511 344.443 67.1565 344.529C67.3619 344.615 67.5883 344.639 67.807 344.596C68.0256 344.553 68.2266 344.446 68.3846 344.289C68.5426 344.131 68.6504 343.931 68.6943 343.712C68.7382 343.493 68.7163 343.266 68.6314 343.06C68.5464 342.853 68.4022 342.677 68.2171 342.553C68.032 342.429 67.8142 342.362 67.5915 342.362C67.2947 342.364 67.0106 342.483 66.8001 342.692C66.5897 342.902 66.4699 343.186 66.4665 343.483ZM61.1183 358.399C61.1171 358.623 61.1821 358.842 61.3052 359.028C61.4284 359.214 61.604 359.36 61.8098 359.446C62.0156 359.532 62.2423 359.555 62.4611 359.511C62.6799 359.468 62.881 359.361 63.0387 359.203C63.1964 359.045 63.3037 358.843 63.3469 358.624C63.3901 358.405 63.3672 358.178 63.2813 357.971C63.1954 357.765 63.0502 357.589 62.8642 357.466C62.6782 357.343 62.4599 357.277 62.2368 357.279C61.9402 357.279 61.6557 357.397 61.4459 357.607C61.2362 357.817 61.1183 358.102 61.1183 358.399ZM61.1183 348.371C61.1171 348.595 61.1821 348.814 61.3052 349C61.4284 349.186 61.604 349.332 61.8098 349.418C62.0156 349.504 62.2423 349.527 62.4611 349.484C62.6799 349.44 62.881 349.333 63.0387 349.175C63.1964 349.017 63.3037 348.815 63.3469 348.596C63.3901 348.377 63.3672 348.15 63.2813 347.944C63.1954 347.737 63.0502 347.561 62.8642 347.438C62.6782 347.315 62.4599 347.25 62.2368 347.251C61.9407 347.252 61.6572 347.371 61.4478 347.581C61.2384 347.791 61.12 348.075 61.1183 348.371ZM55.9758 353.524C55.9826 353.748 56.0559 353.965 56.1863 354.147C56.3168 354.329 56.4985 354.468 56.7083 354.546C56.918 354.624 57.1462 354.638 57.3638 354.586C57.5813 354.533 57.7783 354.417 57.9295 354.251C58.0807 354.086 58.1792 353.879 58.2126 353.658C58.2459 353.436 58.2125 353.209 58.1167 353.007C58.0208 352.804 57.8668 352.635 57.6744 352.521C57.482 352.406 57.2599 352.352 57.0365 352.365C56.7398 352.365 56.4553 352.483 56.2456 352.693C56.0358 352.903 55.918 353.188 55.918 353.485M55.918 343.457C55.9167 343.681 55.9817 343.9 56.1049 344.086C56.228 344.272 56.4036 344.418 56.6094 344.504C56.8152 344.59 57.0419 344.613 57.2608 344.569C57.4796 344.526 57.6806 344.419 57.8383 344.261C57.996 344.103 58.1033 343.901 58.1465 343.682C58.1897 343.463 58.1669 343.236 58.0809 343.029C57.995 342.823 57.8498 342.647 57.6638 342.524C57.4779 342.401 57.2595 342.335 57.0365 342.337C56.7403 342.338 56.4568 342.457 56.2474 342.667C56.038 342.877 55.9196 343.161 55.918 343.457ZM50.6083 358.374C50.607 358.597 50.6719 358.815 50.7948 359.001C50.9176 359.188 51.0928 359.333 51.2983 359.419C51.5037 359.506 51.7301 359.529 51.9487 359.486C52.1674 359.443 52.3684 359.337 52.5264 359.179C52.6843 359.022 52.7921 358.821 52.836 358.602C52.88 358.383 52.8581 358.156 52.7731 357.95C52.6882 357.744 52.544 357.567 52.3589 357.443C52.1737 357.319 51.956 357.253 51.7332 357.253C51.436 357.253 51.1508 357.371 50.9401 357.581C50.7293 357.791 50.61 358.076 50.6083 358.374ZM50.6083 348.346C50.607 348.569 50.6719 348.787 50.7948 348.974C50.9176 349.16 51.0928 349.305 51.2983 349.392C51.5037 349.478 51.7301 349.501 51.9487 349.458C52.1674 349.416 52.3684 349.309 52.5264 349.151C52.6843 348.994 52.7921 348.793 52.836 348.574C52.88 348.356 52.8581 348.129 52.7731 347.922C52.6882 347.716 52.544 347.54 52.3589 347.415C52.1737 347.291 51.956 347.225 51.7332 347.225C51.4365 347.227 51.1523 347.345 50.9419 347.555C50.7315 347.764 50.6117 348.048 50.6083 348.346ZM45.4658 353.498C45.4645 353.721 45.5294 353.94 45.6522 354.126C45.7751 354.312 45.9503 354.458 46.1558 354.544C46.3612 354.63 46.5876 354.653 46.8062 354.611C47.0248 354.568 47.2259 354.461 47.3839 354.304C47.5418 354.146 47.6496 353.946 47.6935 353.727C47.7375 353.508 47.7156 353.281 47.6306 353.075C47.5457 352.868 47.4015 352.692 47.2164 352.568C47.0312 352.444 46.8135 352.377 46.5907 352.377C46.2935 352.377 46.0083 352.495 45.7975 352.705C45.5868 352.915 45.4675 353.2 45.4658 353.498ZM45.4658 343.47C45.4645 343.693 45.5294 343.912 45.6522 344.098C45.7751 344.284 45.9503 344.43 46.1558 344.516C46.3612 344.602 46.5876 344.626 46.8062 344.583C47.0248 344.54 47.2259 344.433 47.3839 344.276C47.5418 344.119 47.6496 343.918 47.6935 343.699C47.7375 343.48 47.7156 343.253 47.6306 343.047C47.5457 342.841 47.4015 342.664 47.2164 342.54C47.0312 342.416 46.8135 342.35 46.5907 342.35C46.294 342.351 46.0098 342.47 45.7994 342.679C45.589 342.889 45.4692 343.173 45.4658 343.47ZM40.1176 358.386C40.1163 358.61 40.1814 358.829 40.3045 359.015C40.4276 359.201 40.6032 359.347 40.809 359.433C41.0148 359.519 41.2416 359.542 41.4604 359.499C41.6792 359.455 41.8802 359.348 42.0379 359.19C42.1956 359.032 42.3029 358.83 42.3461 358.611C42.3893 358.392 42.3665 358.165 42.2805 357.959C42.1946 357.752 42.0494 357.576 41.8635 357.453C41.6775 357.33 41.4591 357.264 41.2361 357.266C40.9394 357.266 40.6549 357.384 40.4452 357.594C40.2354 357.804 40.1176 358.089 40.1176 358.386ZM40.1176 348.359C40.1163 348.582 40.1814 348.801 40.3045 348.987C40.4276 349.173 40.6032 349.319 40.809 349.405C41.0148 349.491 41.2416 349.514 41.4604 349.471C41.6792 349.427 41.8802 349.32 42.0379 349.162C42.1956 349.004 42.3029 348.803 42.3461 348.583C42.3893 348.364 42.3665 348.137 42.2805 347.931C42.1946 347.724 42.0494 347.549 41.8635 347.425C41.6775 347.302 41.4591 347.237 41.2361 347.238C40.9399 347.24 40.6564 347.358 40.447 347.568C40.2376 347.778 40.1193 348.062 40.1176 348.359ZM34.975 353.511C34.9738 353.734 35.0388 353.953 35.162 354.14C35.2851 354.326 35.4607 354.471 35.6665 354.557C35.8723 354.644 36.099 354.666 36.3178 354.623C36.5367 354.58 36.7377 354.472 36.8954 354.314C37.0531 354.156 37.1604 353.955 37.2036 353.736C37.2468 353.516 37.224 353.289 37.138 353.083C37.0521 352.877 36.9069 352.701 36.7209 352.578C36.535 352.454 36.3166 352.389 36.0935 352.39C35.7969 352.39 35.5124 352.508 35.3027 352.719C35.0929 352.929 34.975 353.214 34.975 353.511ZM34.975 343.483C34.9738 343.707 35.0388 343.925 35.162 344.112C35.2851 344.298 35.4607 344.443 35.6665 344.53C35.8723 344.616 36.099 344.639 36.3178 344.595C36.5367 344.552 36.7377 344.445 36.8954 344.286C37.0531 344.128 37.1604 343.927 37.2036 343.708C37.2468 343.489 37.224 343.261 37.138 343.055C37.0521 342.849 36.9069 342.673 36.7209 342.55C36.535 342.426 36.3166 342.361 36.0935 342.362C35.7974 342.364 35.5139 342.483 35.3045 342.693C35.0951 342.902 34.9767 343.186 34.975 343.483ZM29.6204 358.399C29.6191 358.622 29.684 358.841 29.8069 359.027C29.9297 359.213 30.1049 359.359 30.3104 359.445C30.5158 359.531 30.7422 359.555 30.9608 359.512C31.1795 359.469 31.3805 359.362 31.5385 359.205C31.6964 359.048 31.8042 358.847 31.8481 358.628C31.8921 358.409 31.8702 358.182 31.7852 357.976C31.7003 357.77 31.5561 357.593 31.371 357.469C31.1858 357.345 30.9681 357.279 30.7453 357.279C30.4481 357.279 30.1629 357.396 29.9522 357.606C29.7414 357.816 29.6221 358.101 29.6204 358.399ZM29.6204 348.371C29.6191 348.595 29.684 348.813 29.8069 348.999C29.9297 349.186 30.1049 349.331 30.3104 349.417C30.5158 349.504 30.7422 349.527 30.9608 349.484C31.1795 349.441 31.3805 349.335 31.5385 349.177C31.6964 349.02 31.8042 348.819 31.8481 348.6C31.8921 348.381 31.8702 348.154 31.7852 347.948C31.7003 347.742 31.5561 347.565 31.371 347.441C31.1858 347.317 30.9681 347.251 30.7453 347.251C30.4481 347.251 30.1629 347.369 29.9522 347.579C29.7414 347.789 29.6221 348.074 29.6204 348.371ZM10.8759 348.371C10.8823 348.148 10.8222 347.928 10.7034 347.739C10.5845 347.55 10.4123 347.4 10.2085 347.31C10.0047 347.219 9.77863 347.191 9.55891 347.229C9.33919 347.267 9.13577 347.37 8.9745 347.524C8.81322 347.679 8.70137 347.878 8.65314 348.096C8.60492 348.314 8.62249 348.541 8.70364 348.75C8.78479 348.958 8.92585 349.137 9.1089 349.265C9.29195 349.392 9.50874 349.462 9.73171 349.466C9.87968 349.467 10.0263 349.439 10.1632 349.382C10.3001 349.326 10.4244 349.243 10.5291 349.138C10.6337 349.033 10.7165 348.909 10.7727 348.772C10.829 348.634 10.8575 348.487 10.8566 348.339M10.8566 358.367C10.8566 358.144 10.7907 357.926 10.6671 357.741C10.5434 357.556 10.3678 357.411 10.1622 357.326C9.95665 357.24 9.73046 357.218 9.51225 357.262C9.29403 357.305 9.09359 357.412 8.93627 357.57C8.77894 357.728 8.67181 357.929 8.6284 358.147C8.585 358.366 8.60727 358.592 8.69242 358.798C8.77756 359.004 8.92174 359.18 9.10674 359.304C9.29173 359.428 9.50922 359.494 9.73171 359.494C9.87968 359.495 10.0263 359.466 10.1632 359.41C10.3001 359.354 10.4244 359.271 10.5291 359.166C10.6337 359.061 10.7165 358.937 10.7727 358.799C10.829 358.662 10.8575 358.515 10.8566 358.367ZM16.2113 343.451C16.2113 343.228 16.1453 343.01 16.0217 342.825C15.8981 342.639 15.7224 342.495 15.5169 342.41C15.3113 342.324 15.0851 342.302 14.8669 342.345C14.6487 342.389 14.4482 342.496 14.2909 342.654C14.1336 342.812 14.0265 343.012 13.983 343.231C13.9396 343.45 13.9619 343.676 14.0471 343.882C14.1322 344.088 14.2764 344.264 14.4614 344.388C14.6464 344.512 14.8639 344.578 15.0864 344.578C15.3847 344.578 15.6708 344.459 15.8818 344.248C16.0928 344.036 16.2113 343.75 16.2113 343.451ZM16.2113 353.479C16.2087 353.256 16.1406 353.04 16.0155 352.856C15.8903 352.672 15.7138 352.53 15.508 352.447C15.3022 352.363 15.0765 352.343 14.8591 352.388C14.6418 352.433 14.4425 352.541 14.2865 352.699C14.1304 352.857 14.0246 353.058 13.9822 353.276C13.9398 353.495 13.9628 353.721 14.0484 353.926C14.1339 354.131 14.278 354.306 14.4627 354.43C14.6474 354.553 14.8644 354.619 15.0864 354.619C15.3847 354.619 15.6708 354.5 15.8818 354.289C16.0928 354.077 16.2113 353.791 16.2113 353.492M21.3538 348.339C21.3538 348.116 21.2878 347.898 21.1642 347.713C21.0406 347.528 20.8649 347.383 20.6594 347.298C20.4538 347.213 20.2276 347.19 20.0094 347.234C19.7912 347.277 19.5908 347.385 19.4334 347.542C19.2761 347.7 19.169 347.901 19.1256 348.119C19.0822 348.338 19.1044 348.565 19.1896 348.771C19.2747 348.977 19.4189 349.153 19.6039 349.276C19.7889 349.4 20.0064 349.466 20.2289 349.466C20.5272 349.466 20.8134 349.348 21.0243 349.136C21.2353 348.925 21.3538 348.638 21.3538 348.339ZM21.3538 358.367C21.3538 358.144 21.2878 357.926 21.1642 357.741C21.0406 357.556 20.8649 357.411 20.6594 357.326C20.4538 357.24 20.2276 357.218 20.0094 357.262C19.7912 357.305 19.5908 357.412 19.4334 357.57C19.2761 357.728 19.169 357.929 19.1256 358.147C19.0822 358.366 19.1044 358.592 19.1896 358.798C19.2747 359.004 19.4189 359.18 19.6039 359.304C19.7889 359.428 20.0064 359.494 20.2289 359.494C20.5272 359.494 20.8134 359.375 21.0243 359.164C21.2353 358.953 21.3538 358.666 21.3538 358.367ZM26.702 343.451C26.702 343.228 26.6359 343.01 26.512 342.824C26.3881 342.639 26.212 342.494 26.0061 342.409C25.8002 342.324 25.5736 342.302 25.3553 342.346C25.1369 342.39 24.9364 342.498 24.7794 342.656C24.6223 342.815 24.5157 343.016 24.473 343.235C24.4303 343.454 24.4535 343.681 24.5397 343.887C24.6258 344.093 24.771 344.268 24.9568 344.391C25.1426 344.514 25.3608 344.579 25.5835 344.578C25.731 344.578 25.8769 344.549 26.013 344.492C26.1492 344.435 26.2728 344.352 26.3767 344.248C26.4807 344.143 26.5629 344.018 26.6187 343.882C26.6746 343.745 26.7029 343.599 26.702 343.451ZM26.702 353.479C26.702 353.256 26.6359 353.037 26.512 352.852C26.3881 352.666 26.212 352.522 26.0061 352.437C25.8002 352.352 25.5736 352.33 25.3553 352.374C25.1369 352.418 24.9364 352.526 24.7794 352.684C24.6223 352.842 24.5157 353.044 24.473 353.263C24.4303 353.482 24.4535 353.709 24.5397 353.915C24.6258 354.12 24.771 354.296 24.9568 354.419C25.1426 354.542 25.3608 354.607 25.5835 354.606C25.731 354.606 25.8769 354.577 26.013 354.52C26.1492 354.463 26.2728 354.38 26.3767 354.275C26.4807 354.171 26.5629 354.046 26.6187 353.91C26.6746 353.773 26.7029 353.626 26.702 353.479ZM96.7174 328.213H95.0397V333.88H96.7174V328.213ZM96.7174 318.475H95.0397V324.149H96.7174V318.475ZM91.0221 328.213H89.3443V333.88H91.0221V328.213ZM91.0221 318.475H89.3443V324.149H91.0221V318.475ZM85.3203 328.213H83.649V333.88H85.3203V328.213ZM85.3203 318.475H83.649V324.149H85.3203V318.475ZM79.6314 328.213H77.9601V333.88H79.6314V328.213ZM79.6314 318.475H77.9601V324.149H79.6314V318.475ZM73.9361 328.213H72.2647V333.88H73.9361V328.213ZM73.9361 318.475H72.2647V324.149H73.9361V318.475ZM68.2407 328.213H66.5694V333.88H68.2407V328.213ZM68.2407 318.475H66.5694V324.149H68.2407V318.475ZM62.5454 328.213H60.8933V333.88H62.5647L62.5454 328.213ZM62.5454 318.475H60.8933V324.149H62.5647L62.5454 318.475ZM56.85 328.213H55.1787V333.88H56.85V328.213ZM56.85 318.475H55.1787V324.149H56.85V318.475ZM51.1547 328.213H49.4834V333.88H51.1547V328.213ZM51.1547 318.475H49.4834V324.149H51.1547V318.475ZM45.4658 328.213H43.7945V333.88H45.4658V328.213ZM45.4658 318.475H43.7945V324.149H45.4658V318.475ZM39.764 328.213H38.0927V333.88H39.764V328.213ZM39.764 318.475H38.0927V324.149H39.764V318.475ZM34.0687 328.213H32.3974V333.88H34.0687V328.213ZM34.0687 318.475H32.3974V324.149H34.0687V318.475ZM302.81 533.716H279.309V440.039H302.81V533.716ZM302.81 438.365H292.017V212.799H302.81V438.365ZM302.81 211.124H292.011C291.842 194.191 285.009 178.009 272.999 166.095C260.988 154.181 244.769 147.498 227.868 147.498C210.966 147.498 194.748 154.181 182.737 166.095C170.726 178.009 163.894 194.191 163.724 211.124H153.33V137.059H302.81V211.124ZM152.501 491.582C153.448 491.584 154.373 491.866 155.16 492.394C155.946 492.922 156.559 493.672 156.921 494.549C157.282 495.426 157.376 496.39 157.191 497.321C157.005 498.251 156.548 499.105 155.878 499.776C155.208 500.446 154.355 500.902 153.426 501.087C152.498 501.272 151.535 501.176 150.66 500.813C149.786 500.449 149.038 499.835 148.512 499.046C147.986 498.257 147.705 497.329 147.705 496.381C147.705 495.75 147.83 495.125 148.071 494.543C148.312 493.96 148.665 493.431 149.11 492.985C149.556 492.54 150.084 492.187 150.666 491.946C151.248 491.705 151.871 491.581 152.501 491.582ZM153.33 212.799H163.744V438.345H153.33V212.799ZM151.659 489.972C150.032 490.185 148.546 491.01 147.504 492.28C146.462 493.55 145.941 495.169 146.048 496.81C146.154 498.451 146.88 499.989 148.077 501.113C149.274 502.238 150.854 502.863 152.494 502.863C154.135 502.863 155.715 502.238 156.912 501.113C158.109 499.989 158.835 498.451 158.941 496.81C159.048 495.169 158.527 493.55 157.485 492.28C156.443 491.01 154.957 490.185 153.33 489.972V440.039H176.838V533.716H128.138V440.039H151.659V489.972ZM151.659 438.365H2.15293V414.863H151.659V438.365ZM151.659 413.189H148.265V402.278H151.659V413.189ZM146.6 413.189H143.206V402.278H146.6V413.189ZM141.534 413.189H138.16V402.278H141.534V413.189ZM136.488 413.189H133.114V402.278H136.488V413.189ZM131.442 413.189H128.074V402.278H131.442V413.189ZM126.403 413.189H123.028V402.278H126.403V413.189ZM121.357 413.189H117.988V402.278H121.357V413.189ZM116.31 413.189H112.961V402.278H116.33L116.31 413.189ZM111.271 413.189H107.896V402.278H111.271V413.189ZM106.225 413.189H102.856V402.278H106.225V413.189ZM101.185 413.189H97.8102V402.278H101.185V413.189ZM96.1389 413.189H92.7641V402.278H96.1389V413.189ZM91.0928 413.189H87.7244V402.278H91.1056L91.0928 413.189ZM86.0531 413.189H82.6783V402.278H86.0531V413.189ZM81.007 413.189H77.6065V402.278H80.9813L81.007 413.189ZM75.9673 413.189H72.5476V402.278H75.9673V413.189ZM70.8763 413.189H67.5079V402.278H70.8763V413.189ZM65.8366 413.189H62.4618V402.278H65.8366V413.189ZM60.7905 413.189H57.4157V402.278H60.7905V413.189ZM55.7444 413.189H52.376V402.278H55.7508L55.7444 413.189ZM50.7047 413.189H47.3299V402.278H50.7047V413.189ZM45.6586 413.189H42.2839V402.278H45.6586V413.189ZM40.619 413.189H37.2442V402.278H40.619V413.189ZM35.5729 413.189H32.1981V402.278H35.5729V413.189ZM30.5268 413.189H27.1584V402.278H30.5268V413.189ZM25.4871 413.189H22.1123V402.278H25.4871V413.189ZM20.441 413.189H17.0662V402.278H20.441V413.189ZM15.3949 413.189H12.0394V402.278H15.4078L15.3949 413.189ZM10.3552 413.189H6.98046V402.278H10.3552V413.189ZM151.659 400.572H2.15293V389.623H151.659V400.572ZM151.659 387.948H2.15293V364.376H151.659V387.948ZM151.659 362.702H102.94V313.895H151.659V362.702ZM151.659 312.221H129.405L151.659 289.834V312.221ZM151.659 287.457L127.045 312.221H104.219L151.659 264.877V287.457ZM151.659 262.513L101.854 312.221H52.5368V288.533H77.7287V263.286H102.927V238.046H128.125V212.799H151.659V262.513ZM151.659 211.124H126.46V236.371H101.262V261.611H76.0766V286.858H50.8783V312.214H25.6799V337.455H2.15293V273.404L138.77 137.065H151.659V211.124ZM136.405 137.059L128.138 145.303V137.065L136.405 137.059ZM126.46 146.984L115.533 157.887V137.065H126.46V146.984ZM113.861 159.555L102.933 170.459V137.065H113.861V159.555ZM101.262 172.127L90.5914 182.78V137.052H101.262V172.127ZM88.9201 184.448L77.7351 195.603V137.065H88.9201V184.448ZM76.0638 197.271L65.1359 208.188V137.065H76.0638V197.271ZM63.4646 209.856L52.5368 220.766V137.039H63.4646V209.856ZM50.859 222.434L40.529 232.739V137.065H50.859V222.434ZM38.8577 234.413L27.3513 245.897V137.052H38.8577V234.413ZM25.6799 247.565L14.675 258.514V137.065H25.6799V247.565ZM13.0036 260.214L2.15293 271.04V137.078H13.0036V260.214ZM27.3513 337.455V313.889H101.275V337.448L27.3513 337.455ZM2.15293 339.162H101.269V362.734H2.15293V339.162ZM2.15293 402.278H5.30914V413.227H2.15293V402.278ZM2.15293 440.071H13.0294V489.071H2.15293V440.071ZM14.7007 440.071H25.6799V489.071H14.7007V440.071ZM120.598 466.039L116.04 461.531H108.082L103.473 466.039H97.2445L92.7448 461.563H84.5296L80.0299 466.033H73.6018L69.0057 461.525H61.189L56.5865 466.033H50.2226L45.6651 461.525H37.707L33.1045 466.033H27.3191V440.039H126.46V466.039H120.598ZM126.467 467.714V489.025H27.3513V467.727H33.7794L38.382 463.218H44.9708L49.5284 467.727H57.2422L61.8511 463.218H68.2793L72.8754 467.727H80.6728L85.1725 463.257H92.0377L96.486 467.714H104.116L108.719 463.206H115.308L119.865 467.714H126.467ZM2.15293 490.713H126.46V502.01H2.15293V490.713ZM2.15293 503.684H126.46V514.279H2.15293V503.684ZM2.15293 515.921H25.6799V533.684H2.15293V515.921ZM27.3513 515.921H126.46V533.684H27.3513V515.921ZM178.528 212.799H277.638V236.365H178.528V212.799ZM178.528 238.046H277.638V288.075L228.077 238.278L178.528 288.069V238.046ZM178.528 288.436L228.089 338.221L178.94 387.678L178.528 388.109V288.436ZM178.528 388.444L227.485 437.701L228.077 438.3L277.233 388.837L277.638 388.431V438.345H178.528V388.444ZM178.528 440.046H277.638V476.421H178.528V440.046ZM178.528 478.096H277.638V489.045H178.528V478.096ZM178.528 490.719H189.456V533.723H178.528V490.719ZM191.134 490.719H202.062V533.723H191.134V490.719ZM203.74 490.719H215.31V533.723H203.74V490.719ZM216.988 490.719H227.318V533.723H216.969L216.988 490.719ZM228.989 490.719H239.532V533.723H228.989V490.719ZM241.203 490.719H252.131V533.723H241.203V490.719ZM253.808 490.719H265.379V533.723H253.808V490.719ZM267.057 490.719H277.657V533.723H267.038L267.057 490.719ZM277.657 288.436V388.109L228.102 338.247L277.657 288.436ZM268.523 281.3L275.459 288.282L268.523 295.192L261.632 288.282L268.523 281.3ZM260.429 273.172L267.346 280.115L260.429 287.064L253.519 280.115L260.429 273.172ZM252.336 265.038L259.253 271.987L252.336 278.93L245.445 271.987L252.336 265.038ZM244.243 256.903L251.167 263.853L244.256 270.796L237.346 263.853L244.243 256.903ZM236.15 248.776L243.061 255.718L236.15 262.668L229.234 255.718L236.15 248.776ZM221.141 247.591L228.077 240.622L234.987 247.571L228.077 254.533L221.141 247.591ZM213.048 255.718L219.958 248.776L226.875 255.718L219.958 262.668L213.048 255.718ZM204.955 263.853L211.865 256.903L218.782 263.853L211.865 270.796L204.955 263.853ZM196.881 271.987L203.791 265.038L210.708 271.981L203.791 278.93L196.881 271.987ZM188.813 280.115L195.724 273.172L202.634 280.115L195.724 287.064L188.813 280.115ZM187.631 295.192L180.688 288.282L187.605 281.332L194.515 288.282L187.631 295.192ZM195.724 303.327L188.813 296.377L195.73 289.434L202.64 296.377L195.724 303.327ZM203.791 311.467L196.881 304.512L203.791 297.562L210.708 304.512L203.791 311.467ZM211.884 319.602L204.974 312.659L211.884 305.671L218.801 312.614L211.884 319.602ZM219.977 327.736L213.067 320.787L219.977 313.844L226.894 320.787L219.977 327.736ZM243.08 320.787L236.17 327.736L229.253 320.787L236.17 313.844L243.08 320.787ZM251.167 312.64L244.25 319.589L237.346 312.64L244.263 305.671L251.167 312.64ZM259.26 304.512L252.356 311.467L245.445 304.512L252.356 297.562L259.26 304.512ZM260.436 289.434L267.353 296.377L260.436 303.327L253.526 296.377L260.436 289.434ZM252.343 281.3L259.272 288.282L252.356 295.224L245.445 288.282L252.343 281.3ZM244.25 273.172L251.167 280.115L244.256 287.064L237.346 280.115L244.25 273.172ZM236.157 265.038L243.067 271.987L236.157 278.93L229.24 271.981L236.157 265.038ZM221.147 263.853L228.064 256.903L234.974 263.853L228.064 270.796L221.147 263.853ZM213.054 271.981L219.964 265.038L226.881 271.981L219.964 278.93L213.054 271.981ZM204.961 280.115L211.871 273.172L218.788 280.115L211.871 287.064L204.961 280.115ZM203.778 295.192L196.881 288.282L203.791 281.332L210.708 288.282L203.778 295.192ZM211.871 303.327L204.961 296.377L211.871 289.434L218.788 296.377L211.871 303.327ZM219.977 311.467L213.067 304.512L219.977 297.562L226.894 304.512L219.977 311.467ZM234.987 312.652L228.077 319.602L221.16 312.652L228.077 305.671L234.987 312.652ZM243.08 304.525L236.17 311.467L229.253 304.512L236.17 297.562L243.08 304.525ZM244.263 289.447L251.167 296.377L244.256 303.327L237.346 296.377L244.263 289.447ZM236.17 281.313L243.08 288.282L236.17 295.224L229.253 288.282L236.17 281.313ZM221.16 280.128L228.077 273.185L234.987 280.128L228.077 287.077L221.16 280.128ZM228.077 289.447L234.987 296.39L228.077 303.339L221.16 296.39L228.077 289.447ZM219.977 295.205L213.067 288.282L219.977 281.332L226.894 288.282L219.977 295.205ZM228.077 335.864L221.16 328.921L228.077 321.972L234.987 328.921L228.077 335.864ZM221.16 347.534L228.077 340.578L234.987 347.534L228.077 354.49L221.16 347.534ZM213.067 355.681L219.977 348.719L226.894 355.681L219.977 362.637L213.067 355.681ZM204.974 363.829L211.884 356.873L218.801 363.829L211.884 370.784L204.974 363.829ZM196.881 372.008L203.791 365.046L210.708 372.008L203.791 378.964L196.881 372.008ZM188.813 380.117L195.73 373.161L202.647 380.117L195.73 387.072L188.813 380.117ZM187.605 395.194L180.688 388.238L187.605 381.276L194.522 388.238L187.605 395.194ZM195.698 403.335L188.813 396.405L195.73 389.449L202.647 396.405L195.698 403.335ZM203.791 411.482L196.881 404.52L203.791 397.564L210.708 404.526L203.791 411.482ZM211.884 419.668L204.974 412.712L211.884 405.756L218.801 412.712L211.884 419.668ZM219.977 427.815L213.067 420.853L219.977 413.871L226.894 420.827L219.977 427.815ZM234.987 429L228.077 435.956L221.16 429L228.077 422.044L234.987 429ZM243.08 420.853L236.17 427.815L229.253 420.853L236.17 413.871L243.08 420.853ZM251.167 412.693L244.263 419.668L237.346 412.712L244.263 405.756L251.167 412.693ZM259.26 404.545L252.343 411.508L245.426 404.545L252.343 397.59L259.26 404.545ZM267.353 396.405L260.436 403.36L253.519 396.405L260.436 389.449L267.353 396.405ZM268.523 381.302L275.439 388.264L268.523 395.194L261.612 388.238L268.523 381.302ZM260.429 373.161L267.346 380.117L260.429 387.072L253.513 380.117L260.429 373.161ZM252.336 365.014L259.272 372.008L252.356 378.964L245.439 372.008L252.336 365.014ZM244.263 356.873L251.167 363.829L244.25 370.784L237.346 363.829L244.263 356.873ZM229.253 355.688L236.17 348.726L243.08 355.688L236.17 362.644L229.253 355.688ZM221.16 363.829L228.077 356.873L234.987 363.829L228.077 370.784L221.16 363.829ZM213.067 372.008L219.977 365.046L226.894 372.008L219.977 378.964L213.067 372.008ZM204.974 380.149L211.884 373.193L218.801 380.149L211.884 387.105L204.974 380.149ZM203.791 395.194L196.874 388.238L203.791 381.276L210.708 388.238L203.791 395.194ZM211.884 403.335L204.974 396.379L211.884 389.423L218.801 396.379L211.884 403.335ZM219.977 411.482L213.067 404.526L219.977 397.564L226.894 404.526L219.977 411.482ZM234.987 412.667L228.077 419.668L221.16 412.712L228.077 405.756L234.987 412.667ZM243.08 404.52L236.17 411.482L229.253 404.526L236.17 397.564L243.08 404.52ZM251.167 396.405L244.25 403.36L237.333 396.405L244.25 389.449L251.167 396.405ZM252.343 381.302L259.26 388.264L252.356 395.194L245.439 388.238L252.343 381.302ZM244.25 373.161L251.167 380.117L244.25 387.072L237.333 380.117L244.25 373.161ZM229.253 372.008L236.17 365.046L243.08 372.008L236.17 378.964L229.253 372.008ZM221.16 380.149L228.077 373.193L234.987 380.149L228.077 387.105L221.16 380.149ZM219.977 395.194L213.067 388.238L219.977 381.276L226.894 388.238L219.977 395.194ZM229.253 388.238L236.17 381.276L243.08 388.238L236.17 395.194L229.253 388.238ZM234.987 396.379L228.077 403.335L221.16 396.379L228.077 389.423L234.987 396.379ZM176.838 438.345H165.383V212.799H176.838V438.345ZM171.053 185.878C172.668 182.365 174.604 179.01 176.838 175.856V185.878H171.053ZM178.528 185.878V173.602C181.71 169.518 185.38 165.841 189.456 162.653V185.878H178.528ZM191.128 185.878V161.359C194.546 158.861 198.207 156.717 202.055 154.957V185.871L191.128 185.878ZM203.727 185.878V154.223C207.257 152.74 210.914 151.584 214.655 150.771V185.878H203.727ZM216.326 185.878V150.455C219.93 149.778 223.587 149.42 227.254 149.386V185.878H216.326ZM228.925 185.878V149.373C232.595 149.429 236.252 149.812 239.853 150.519V185.878H228.925ZM241.524 185.878V150.867C245.269 151.705 248.928 152.89 252.452 154.409V185.878H241.524ZM254.123 185.878V155.157C257.978 156.951 261.64 159.135 265.051 161.674V185.878H254.123ZM266.723 185.878V162.962C270.814 166.225 274.485 169.985 277.651 174.156V185.878H266.723ZM279.322 185.878V176.468C281.37 179.445 283.157 182.593 284.664 185.878H279.322ZM285.416 187.552C288.577 195.013 290.254 203.02 290.353 211.124H165.396C165.494 203.02 167.171 195.013 170.333 187.552H285.416ZM279.322 212.799H290.378V438.345H279.309L279.322 212.799ZM304.482 135.391H0.46875V535.391H304.482V135.391Z" fill="#FAFAFA"/>
</g>
<defs>
<filter id="filter0_f_2888_1775" x="-64.4434" y="53.8848" width="479.25" height="477.06" filterUnits="userSpaceOnUse" color-interpolation-filters="sRGB">
<feFlood flood-opacity="0" result="BackgroundImageFix"/>
<feBlend mode="normal" in="SourceGraphic" in2="BackgroundImageFix" result="shape"/>
<feGaussianBlur stdDeviation="50" result="effect1_foregroundBlur_2888_1775"/>
</filter>
<clipPath id="clip0_2888_1775">
<rect width="304" height="388" fill="white" transform="translate(0.5 0.734375)"/>
</clipPath>
</defs>
</svg>
