<svg width="305" height="389" viewBox="0 0 305 389" fill="none" xmlns="http://www.w3.org/2000/svg">
<g clip-path="url(#clip0_2888_1301)">
<g filter="url(#filter0_f_2888_1301)">
<ellipse cx="175.182" cy="292.415" rx="127.312" ry="149.918" transform="rotate(-46.3892 175.182 292.415)" fill="#83B4B2"/>
</g>
</g>
<mask id="mask0_2888_1301" style="mask-type:alpha" maskUnits="userSpaceOnUse" x="0" y="109" width="305" height="278">
<rect x="0.484375" y="109.953" width="304" height="277" fill="#D9D9D9"/>
</mask>
<g mask="url(#mask0_2888_1301)">
<path d="M101.252 575.294H2.16207V598.757H101.252V575.294ZM302.813 202.867H291.943V503.473H302.813V202.867ZM216.226 275.138L289.076 202.873H216.226V275.138ZM203.678 503.473H214.548V202.867H203.678V503.473ZM102.923 213.859H202.013V202.867H102.923V213.859ZM2.16207 213.859H6.10252V202.867H2.16207V213.859ZM15.3591 551.124L7.24032 544.896H2.16207V551.124H15.3591ZM101.252 552.796H2.16207V573.629H101.252V552.796ZM302.813 575.294H292.348L302.813 596.173V575.294ZM253.04 505.266C261.628 505.928 269.335 509.766 274.992 515.609H302.813V505.266H253.04ZM290.272 467.366H216.226V503.588H290.272V467.366ZM290.272 290.598H216.907L290.272 363.371V290.598ZM290.272 276.308V204.043L217.422 276.308H290.272ZM290.272 454.747H216.226V465.694H290.272V454.747ZM216.226 364.869H289.41L216.226 292.269V364.869ZM216.226 377.487H290.272V366.54H216.226V377.487ZM216.226 453.076H290.272V379.159H216.226V453.076ZM290.272 277.98H216.226V288.927H290.272V277.98ZM202.007 431.297H188.135V503.595H202.007V431.297ZM102.923 276.784H202.013V215.53H102.923V276.784ZM37.0541 379.898C37.0541 374.1 32.3358 369.381 26.5376 369.381C20.7394 369.381 16.0212 374.1 16.0212 379.898C16.0212 385.696 20.7394 390.414 26.5376 390.414C32.3358 390.414 37.0541 385.696 37.0541 379.898ZM50.8553 485.178V290.598H27.1676V337.569C30.3367 337.98 32.7922 340.693 32.7922 343.971C32.7922 347.532 29.8931 350.431 26.3319 350.431C22.7707 350.431 19.8716 347.532 19.8716 343.971C19.8716 340.693 22.3272 337.98 25.4963 337.569V290.598H2.15567V400.995C2.1621 394.278 7.626 388.82 14.3434 388.82C21.0608 388.82 26.1069 393.886 26.4926 400.262C26.7433 396.225 28.9546 392.716 32.1944 390.684C30.4974 391.578 28.5753 392.092 26.5248 392.092C19.8009 392.092 14.337 386.622 14.337 379.904C14.337 373.187 19.8074 367.717 26.5248 367.717C33.2422 367.717 38.7125 373.187 38.7125 379.904C38.7125 384.256 36.4113 388.074 32.9722 390.228C34.6692 389.334 36.5913 388.82 38.6418 388.82C45.3657 388.82 50.8296 394.291 50.8296 401.008C50.8296 407.282 46.0663 412.456 39.966 413.119C46.0663 413.781 50.8296 418.962 50.8296 425.236C50.8296 431.105 46.6577 436.022 41.1231 437.173C46.6577 438.323 50.8296 443.234 50.8296 449.11C50.8296 454.985 46.6577 459.896 41.1231 461.047C46.6577 462.197 50.8296 467.109 50.8296 472.984C50.8296 479.708 45.3592 485.172 38.6418 485.172C31.9244 485.172 26.8783 480.106 26.4926 473.73C26.1005 480.1 20.8101 485.172 14.3434 485.172C7.8767 485.172 2.1621 479.708 2.15567 472.997V485.191H50.8553V485.178ZM2.16207 503.595H50.8618V486.849H2.16207V503.595ZM2.16207 511.656H7.26602L15.5969 505.26H2.16207V511.656ZM2.16207 527.437H7.26602L16.4454 520.391L7.24032 513.327H2.15567V527.437H2.16207ZM31.5001 544.066L22.3015 537.008H18.1039L8.90523 544.066L18.0975 551.124H22.3015L31.4937 544.066H31.5001ZM38.7961 544.896H33.1651L25.0463 551.124H46.9149L38.7961 544.896ZM63.0816 544.066L53.883 537.008H49.6597L40.4739 544.054L49.679 551.118H53.883L63.0752 544.06L63.0816 544.066ZM70.2426 544.896H64.7465L56.6278 551.124H78.3549L70.2362 544.896H70.2426ZM94.5024 544.066L85.3038 537.008H81.1062L71.9075 544.066L81.0998 551.124H85.3038L94.496 544.066H94.5024ZM101.252 544.896H96.1738L88.055 551.124H101.252V544.896ZM214.555 561.667H102.923V573.629H214.555V561.667ZM102.923 597.034L113.388 575.294H102.923V597.034ZM279.8 598.654H302.19L290.992 576.329L279.794 598.654H279.8ZM302.813 564.013H274.195C268.429 569.593 260.722 573.179 252.191 573.623H302.813V564.013ZM302.813 552.796H281.922C280.424 556.318 278.348 559.539 275.815 562.342H302.813V552.796ZM302.813 540.955H284.609C284.448 544.51 283.754 547.93 282.584 551.124H302.813V540.955ZM302.813 529.108H283.059C284.075 532.322 284.628 535.735 284.641 539.277H302.813V529.108ZM217.794 539.412C217.794 557.386 232.412 572.003 250.385 572.003C268.358 572.003 282.976 557.386 282.976 539.412C282.976 521.439 268.358 506.822 250.385 506.822C232.412 506.822 217.794 521.439 217.794 539.412ZM216.226 536.912C217.447 520.064 230.901 506.558 247.73 505.266H216.226V536.912ZM102.923 519.042H214.555V505.26H102.923V519.042ZM174.256 503.595H186.464V431.297H174.256V503.595ZM202.007 412.778H195.572L190.97 408.252H184.381L179.823 412.778H172.09L167.488 408.246H161.027L156.431 412.778H148.634L144.141 408.317H137.275L132.814 412.778H125.197L120.594 408.252H114.005L109.448 412.778H102.917V429.626H202.007V412.778ZM102.923 379.281V411.107H108.767L113.324 406.581H121.289L125.891 411.107H132.133L136.594 406.645H144.835L149.328 411.107H155.75L160.346 406.575H168.175L172.778 411.107H179.142L183.699 406.581H191.658L196.26 411.107H202.007V379.281H102.917H102.923ZM202.007 328.177L152.6 377.397L102.923 327.913V377.616H202.013V328.183L202.007 328.177ZM202.007 327.508V278.462H152.767L202.007 327.508ZM112.128 334.727L119.039 327.843L112.128 320.958L105.218 327.843L112.128 334.727ZM120.221 342.788L127.132 335.904L120.221 329.019L113.311 335.904L120.221 342.788ZM128.315 350.849L135.225 343.965L128.315 337.08L121.404 343.965L128.315 350.849ZM136.414 358.916L143.324 352.032L136.414 345.147L129.504 352.032L136.414 358.916ZM144.507 366.977L151.417 360.093L144.507 353.208L137.597 360.093L144.507 366.977ZM152.6 361.276L145.69 368.16L152.6 375.045L159.51 368.16L152.6 361.276ZM160.693 353.208L153.783 360.093L160.693 366.977L167.603 360.093L160.693 353.208ZM168.786 345.147L161.876 352.032L168.786 358.916L175.696 352.032L168.786 345.147ZM176.879 337.086L169.969 343.971L176.879 350.855L183.789 343.971L176.879 337.086ZM184.972 329.019L178.062 335.904L184.972 342.788L191.882 335.904L184.972 329.019ZM193.072 320.958L186.161 327.843L193.072 334.727L199.982 327.843L193.072 320.958ZM184.972 312.897L178.062 319.782L184.972 326.666L191.882 319.782L184.972 312.897ZM176.879 304.836L169.969 311.721L176.879 318.605L183.789 311.721L176.879 304.836ZM168.786 296.769L161.876 303.654L168.786 310.538L175.696 303.654L168.786 296.769ZM160.693 288.708L153.783 295.593L160.693 302.477L167.603 295.593L160.693 288.708ZM152.6 294.41L159.51 287.525L152.6 280.641L145.69 287.525L152.6 294.41ZM144.507 302.477L151.417 295.593L144.507 288.708L137.597 295.593L144.507 302.477ZM136.414 310.538L143.324 303.654L136.414 296.769L129.504 303.654L136.414 310.538ZM128.315 318.599L135.225 311.714L128.315 304.83L121.404 311.714L128.315 318.599ZM127.132 319.782L120.221 312.897L113.311 319.782L120.221 326.666L127.132 319.782ZM135.225 327.843L128.315 320.958L121.404 327.843L128.315 334.727L135.225 327.843ZM143.324 335.904L136.414 329.019L129.504 335.904L136.414 342.788L143.324 335.904ZM151.417 343.971L144.507 337.086L137.597 343.971L144.507 350.855L151.417 343.971ZM152.6 345.147L145.69 352.032L152.6 358.916L159.51 352.032L152.6 345.147ZM160.693 337.086L153.783 343.971L160.693 350.855L167.603 343.971L160.693 337.086ZM168.786 329.019L161.876 335.904L168.786 342.788L175.696 335.904L168.786 329.019ZM169.969 327.843L176.879 334.727L183.789 327.843L176.879 320.958L169.969 327.843ZM161.876 319.782L168.786 326.666L175.696 319.782L168.786 312.897L161.876 319.782ZM153.783 311.714L160.693 318.599L167.603 311.714L160.693 304.83L153.783 311.714ZM152.6 310.538L159.51 303.654L152.6 296.769L145.69 303.654L152.6 310.538ZM144.507 318.599L151.417 311.714L144.507 304.83L137.597 311.714L144.507 318.599ZM143.324 319.782L136.414 312.897L129.504 319.782L136.414 326.666L143.324 319.782ZM151.417 327.843L144.507 320.958L137.597 327.843L144.507 334.727L151.417 327.843ZM152.6 329.019L145.69 335.904L152.6 342.788L159.51 335.904L152.6 329.019ZM159.51 319.782L152.6 312.897L145.69 319.782L152.6 326.666L159.51 319.782ZM153.783 327.843L160.693 334.727L167.603 327.843L160.693 320.958L153.783 327.843ZM102.923 327.772L152.433 278.455H102.923V327.772ZM52.5266 411.107H59.9447V290.598H52.5266V411.107ZM52.5266 448.139H101.246V431.291H52.5266V448.139ZM52.5266 466.659H101.246V449.81H52.5266V466.659ZM52.5266 485.127H101.246V468.33H52.5266V485.127ZM101.252 412.778H52.5331V429.626H101.252V412.778ZM93.6989 411.107H101.252V290.598H93.6989V411.107ZM92.0276 305.518V290.598H77.7186L92.0276 305.518ZM61.616 305.486L75.8929 290.598H61.616V305.486ZM92.0276 409.127L77.6414 394.123V411.107H92.0276V409.127ZM77.6414 310.757L92.0276 325.754V307.928L77.6414 292.925V310.75V310.757ZM61.616 325.721L75.9701 310.757V292.931L61.616 307.896V325.721ZM75.9701 373.888L61.616 388.852V406.678L75.9701 391.713V373.888ZM92.0276 388.884L77.6414 373.888V391.713L92.0276 406.71V388.884ZM92.0276 368.649L77.6414 353.645V371.471L92.0276 386.467V368.642V368.649ZM92.0276 348.406L77.6414 333.403V351.228L92.0276 366.225V348.4V348.406ZM75.9701 330.993V313.167L61.616 328.132V345.957L75.9701 330.993ZM75.9701 351.235V333.409L61.616 348.374V366.199L75.9701 351.235ZM75.9701 353.652L61.616 368.616V386.442L75.9701 371.477V353.652ZM92.0276 328.171L77.6414 313.174V330.999L92.0276 346.002V328.177V328.171ZM75.9701 411.107V394.123L61.616 409.088V411.107H75.9701ZM117.059 431.297H102.917V503.595H117.059V431.297ZM130.944 431.297H118.73V503.595H130.944V431.297ZM144.822 431.297H132.609V503.595H144.822V431.297ZM158.707 431.297H146.493V503.595H158.707V431.297ZM160.378 503.595H172.585V431.297H160.378V503.595ZM101.252 486.798H52.5331V503.595H101.252V486.798ZM33.1458 511.656H38.8411L47.172 505.26H24.8149L33.1458 511.656ZM18.1039 519.556H22.3079L31.5001 512.498L22.3079 505.44H18.1039L8.91162 512.498L18.1039 519.556ZM49.3961 536.14L49.3704 536.173L49.3961 536.205V536.14ZM53.883 535.337L63.0752 528.279L53.883 521.221H49.6533L40.461 528.279L49.6533 535.337H53.883ZM85.3038 535.337L94.496 528.279L85.3038 521.221H81.0998L71.9075 528.279L81.0998 535.337H85.3038ZM214.555 549.08H102.923V559.989H214.555V549.08ZM102.923 531.628H214.555V520.719H102.923V531.628ZM96.1481 511.656H101.252V505.26H87.8172L96.1481 511.656ZM64.7273 511.656H70.2683L78.5992 505.26H56.4028L64.7337 511.656H64.7273ZM85.3038 519.556L94.496 512.498L85.3038 505.44H81.0998L71.9075 512.498L81.0998 519.556H85.3038ZM214.555 533.293H102.923V547.409H214.555V533.293ZM96.1416 527.437H101.246V513.327H96.1609L86.9558 520.391L96.1352 527.437H96.1416ZM64.7208 527.437H70.2683L79.4477 520.391L70.2426 513.327H64.7401L55.535 520.391L64.7144 527.437H64.7208ZM49.6597 519.556H53.8894L63.0816 512.498L53.8894 505.44H49.6854L40.4803 512.504L49.6597 519.549V519.556ZM39.0854 512.491H39.0918L39.0854 512.472V512.491ZM49.3961 520.359L49.3704 520.391L49.3961 520.424V520.359ZM33.1651 513.327L23.9599 520.391L33.1393 527.437H38.8218L48.0012 520.391L38.7961 513.327H33.1586H33.1651ZM248.579 573.623C231.358 572.723 217.473 559.044 216.226 541.907V573.623H248.579ZM202.701 597.954L214.06 575.301H191.343L202.701 597.954ZM177.252 597.992L188.63 575.301H165.874L177.252 597.992ZM153.764 598.744H175.767L164.544 576.355L153.77 598.744H153.764ZM152.561 597.394L163.194 575.301H141.486L152.561 597.394ZM129.304 598.744H151.372L140.117 576.291L129.311 598.744H129.304ZM115.22 575.339L103.952 598.751H126.958L115.22 575.339ZM128.122 597.343L138.735 575.294H117.072L128.128 597.343H128.122ZM201.184 598.654L189.986 576.329L178.743 598.751H198.735V598.661H201.178L201.184 598.654ZM278.405 597.696L289.635 575.294H267.169L278.399 597.696H278.405ZM254.628 598.654H277.017L265.819 576.329L254.621 598.654H254.628ZM253.213 597.741L264.469 575.294H241.958L253.213 597.741ZM229.41 598.654H251.799L240.601 576.329L229.404 598.654H229.41ZM215.41 576.323L204.212 598.648H226.601L215.403 576.323H215.41ZM228.009 597.716L239.252 575.294H216.766L228.009 597.716ZM96.1416 543.224H101.246V529.108H96.1673L86.9622 536.173L96.1481 543.218L96.1416 543.224ZM64.7208 543.224H70.2683L79.4541 536.179L70.249 529.114H64.753L55.5414 536.179L64.7273 543.224H64.7208ZM33.1393 543.224H38.8218L48.0077 536.179L38.8025 529.114H33.1715L23.9664 536.179L33.1522 543.224H33.1393ZM18.1039 535.337H22.3079L31.5001 528.279L22.3079 521.221H18.1039L8.91162 528.279L18.1039 535.337ZM26.3384 339.182C23.6964 339.182 21.5494 341.329 21.5494 343.971C21.5494 346.613 23.6964 348.76 26.3384 348.76C28.9803 348.76 31.1273 346.613 31.1273 343.971C31.1273 341.329 28.9803 339.182 26.3384 339.182ZM46.6899 265.265H2.16207V276.784H70.1269C60.6518 276.636 52.2116 272.169 46.6899 265.265ZM41.6566 246.179C41.6566 262.141 54.6415 275.132 70.609 275.132C86.5765 275.132 99.5614 262.147 99.5614 246.179C99.5614 230.212 86.5765 217.227 70.609 217.227C54.6415 217.227 41.6566 230.212 41.6566 246.179ZM2.16207 238.157H41.0588C42.1709 234.075 44.1058 230.328 46.6706 227.114H2.15567V238.157H2.16207ZM40.6538 252.543H2.15567V263.593H45.4364C43.1608 260.315 41.5088 256.58 40.6538 252.543ZM2.16207 250.872H40.3517C40.1139 249.342 39.9917 247.774 39.9917 246.173C39.9917 243.994 40.2231 241.873 40.6603 239.822H2.1685V250.866L2.16207 250.872ZM2.16207 425.223C2.16207 418.955 6.92534 413.787 13.0257 413.119C6.93177 412.456 2.16849 407.282 2.16207 401.021V425.223ZM2.16207 449.09C2.16207 443.228 6.34039 438.317 11.8686 437.166C6.34039 436.016 2.16849 431.111 2.16207 425.242V449.084V449.09ZM14.3499 462.448C8.55166 462.448 3.83341 467.166 3.83341 472.965C3.83341 478.763 8.55166 483.481 14.3499 483.481C20.148 483.481 24.8663 478.763 24.8663 472.965C24.8663 467.166 20.148 462.448 14.3499 462.448ZM28.1318 472.971C28.1318 478.769 32.8501 483.488 38.6483 483.488C44.4465 483.488 49.1647 478.769 49.1647 472.971C49.1647 467.173 44.4465 462.455 38.6483 462.455C32.8501 462.455 28.1318 467.173 28.1318 472.971ZM28.1318 449.103C28.1318 454.901 32.8501 459.62 38.6483 459.62C44.4465 459.62 49.1647 454.901 49.1647 449.103C49.1647 443.305 44.4465 438.587 38.6483 438.587C32.8501 438.587 28.1318 443.305 28.1318 449.103ZM28.1318 425.236C28.1318 431.034 32.8501 435.752 38.6483 435.752C44.4465 435.752 49.1647 431.034 49.1647 425.236C49.1647 419.437 44.4465 414.719 38.6483 414.719C32.8501 414.719 28.1318 419.437 28.1318 425.236ZM38.6483 411.524C44.4465 411.524 49.1647 406.806 49.1647 401.008C49.1647 395.21 44.4465 390.491 38.6483 390.491C32.8501 390.491 28.1318 395.21 28.1318 401.008C28.1318 406.806 32.8501 411.524 38.6483 411.524ZM24.8663 401.008C24.8663 395.21 20.148 390.491 14.3499 390.491C8.55166 390.491 3.83341 395.21 3.83341 401.008C3.83341 406.806 8.55166 411.524 14.3499 411.524C20.148 411.524 24.8663 406.806 24.8663 401.008ZM24.8663 425.236C24.8663 419.437 20.148 414.719 14.3499 414.719C8.55166 414.719 3.83341 419.437 3.83341 425.236C3.83341 431.034 8.55166 435.752 14.3499 435.752C20.148 435.752 24.8663 431.034 24.8663 425.236ZM26.4991 448.351C26.8398 442.817 30.8702 438.265 36.167 437.166C30.8702 436.067 26.8333 431.516 26.4991 425.981C26.1584 431.516 22.1279 436.067 16.8311 437.166C22.1279 438.265 26.1584 442.817 26.4991 448.351ZM24.8663 449.103C24.8663 443.305 20.148 438.587 14.3499 438.587C8.55166 438.587 3.83341 443.305 3.83341 449.103C3.83341 454.901 8.55166 459.62 14.3499 459.62C20.148 459.62 24.8663 454.901 24.8663 449.103ZM26.4991 401.754C26.1327 407.68 21.5301 412.482 15.674 413.119C21.5237 413.755 26.1327 418.557 26.4991 424.483C26.8655 418.557 31.468 413.755 37.324 413.119C31.4744 412.482 26.8655 407.687 26.4991 401.754ZM26.4991 472.219C26.8398 466.684 30.8702 462.133 36.167 461.034C30.8702 459.935 26.8333 455.384 26.4991 449.849C26.1584 455.384 22.1279 459.935 16.8311 461.034C22.1279 462.133 26.1584 466.684 26.4991 472.219ZM2.16207 472.958C2.16207 467.096 6.34039 462.185 11.8686 461.034C6.34039 459.883 2.16849 454.979 2.16207 449.11V472.952V472.958ZM101.252 278.455H2.16207V288.927H101.252V278.455ZM302.813 517.28H276.503C279.042 520.269 281.079 523.702 282.481 527.443H302.813V517.28ZM2.16207 543.224H7.26602L16.4519 536.179L7.24032 529.114H2.16207V543.231V543.224ZM2.16207 215.53V225.436H48.1041C53.703 219.368 61.7189 215.556 70.609 215.556C87.4958 215.556 101.233 229.293 101.233 246.179C101.233 263.066 87.7593 276.527 71.0911 276.79H101.252V215.537H2.16207V215.53ZM97.4401 213.859H101.252V202.867H97.4401V213.859ZM92.169 213.859H95.7752V202.867H92.169V213.859ZM86.8915 213.859H90.4977V202.867H86.8915V213.859ZM81.614 213.859H85.2202V202.867H81.614V213.859ZM76.3429 213.859H79.9491V202.867H76.3429V213.859ZM71.0654 213.859H74.6716V202.867H71.0654V213.859ZM65.7943 213.859H69.3941V202.867H65.7943V213.859ZM60.5168 213.859H64.123V202.867H60.5168V213.859ZM55.2393 213.859H58.8455V202.867H55.2393V213.859ZM49.9682 213.859H53.5744V202.867H49.9682V213.859ZM44.6907 213.859H48.2969V202.867H44.6907V213.859ZM39.4196 213.859H43.0194V202.867H39.4196V213.859ZM34.1421 213.859H37.7483V202.867H34.1421V213.859ZM28.8646 213.859H32.4708V202.867H28.8646V213.859ZM23.5935 213.859H27.1997V202.867H23.5935V213.859ZM18.316 213.859H21.9222V202.867H18.316V213.859ZM13.045 213.859H16.6511V202.867H13.045V213.859ZM11.3736 202.867H7.77387V213.859H11.3736V202.867ZM202.007 201.195H304.484V600.428H0.484328V201.195H202.007Z" fill="#FAFAFA"/>
<path d="M299.595 382.086C299.981 382.086 300.289 382.401 300.289 382.78C300.289 383.159 299.974 383.474 299.595 383.474C299.216 383.474 298.901 383.159 298.901 382.78C298.901 382.401 299.216 382.086 299.595 382.086Z" fill="#FAFAFA"/>
<path d="M299.595 375.586C299.981 375.586 300.289 375.901 300.289 376.28C300.289 376.659 299.974 376.974 299.595 376.974C299.216 376.974 298.901 376.659 298.901 376.28C298.901 375.901 299.216 375.586 299.595 375.586Z" fill="#FAFAFA"/>
<path d="M299.595 369.086C299.981 369.086 300.289 369.401 300.289 369.78C300.289 370.159 299.974 370.474 299.595 370.474C299.216 370.474 298.901 370.159 298.901 369.78C298.901 369.401 299.216 369.086 299.595 369.086Z" fill="#FAFAFA"/>
<path d="M299.595 362.586C299.981 362.586 300.289 362.901 300.289 363.28C300.289 363.659 299.974 363.974 299.595 363.974C299.216 363.974 298.901 363.666 298.901 363.28C298.901 362.894 299.216 362.586 299.595 362.586Z" fill="#FAFAFA"/>
<path d="M299.595 356.078C299.981 356.078 300.289 356.393 300.289 356.772C300.289 357.152 299.974 357.467 299.595 357.467C299.216 357.467 298.901 357.158 298.901 356.772C298.901 356.387 299.216 356.078 299.595 356.078Z" fill="#FAFAFA"/>
<path d="M299.595 349.586C299.981 349.586 300.289 349.901 300.289 350.28C300.289 350.659 299.974 350.974 299.595 350.974C299.216 350.974 298.901 350.666 298.901 350.28C298.901 349.894 299.216 349.586 299.595 349.586Z" fill="#FAFAFA"/>
<path d="M299.595 343.078C299.981 343.078 300.289 343.393 300.289 343.772C300.289 344.152 299.974 344.467 299.595 344.467C299.216 344.467 298.901 344.158 298.901 343.772C298.901 343.387 299.216 343.078 299.595 343.078Z" fill="#FAFAFA"/>
<path d="M299.595 336.578C299.981 336.578 300.289 336.893 300.289 337.272C300.289 337.652 299.974 337.967 299.595 337.967C299.216 337.967 298.901 337.658 298.901 337.272C298.901 336.887 299.216 336.578 299.595 336.578Z" fill="#FAFAFA"/>
<path d="M299.595 330.07C299.981 330.07 300.289 330.385 300.289 330.765C300.289 331.144 299.974 331.459 299.595 331.459C299.216 331.459 298.901 331.15 298.901 330.765C298.901 330.379 299.216 330.07 299.595 330.07Z" fill="#FAFAFA"/>
<path d="M299.595 323.578C299.981 323.578 300.289 323.893 300.289 324.272C300.289 324.652 299.974 324.967 299.595 324.967C299.216 324.967 298.901 324.658 298.901 324.272C298.901 323.887 299.216 323.578 299.595 323.578Z" fill="#FAFAFA"/>
<path d="M299.595 317.078C299.981 317.078 300.289 317.393 300.289 317.772C300.289 318.152 299.974 318.467 299.595 318.467C299.216 318.467 298.901 318.158 298.901 317.772C298.901 317.387 299.216 317.078 299.595 317.078Z" fill="#FAFAFA"/>
<path d="M299.595 310.57C299.981 310.57 300.289 310.885 300.289 311.265C300.289 311.644 299.974 311.959 299.595 311.959C299.216 311.959 298.901 311.65 298.901 311.265C298.901 310.879 299.216 310.57 299.595 310.57Z" fill="#FAFAFA"/>
<path d="M299.595 304.07C299.981 304.07 300.289 304.385 300.289 304.765C300.289 305.144 299.974 305.459 299.595 305.459C299.216 305.459 298.901 305.15 298.901 304.765C298.901 304.379 299.216 304.07 299.595 304.07Z" fill="#FAFAFA"/>
<path d="M299.595 297.562C299.981 297.562 300.289 297.877 300.289 298.257C300.289 298.636 299.974 298.951 299.595 298.951C299.216 298.951 298.901 298.642 298.901 298.257C298.901 297.871 299.216 297.562 299.595 297.562Z" fill="#FAFAFA"/>
<path d="M299.595 291.07C299.981 291.07 300.289 291.385 300.289 291.765C300.289 292.144 299.974 292.459 299.595 292.459C299.216 292.459 298.901 292.15 298.901 291.765C298.901 291.379 299.216 291.07 299.595 291.07Z" fill="#FAFAFA"/>
<path d="M299.595 284.562C299.981 284.562 300.289 284.877 300.289 285.257C300.289 285.636 299.974 285.951 299.595 285.951C299.216 285.951 298.901 285.642 298.901 285.257C298.901 284.871 299.216 284.562 299.595 284.562Z" fill="#FAFAFA"/>
<path d="M299.595 278.062C299.981 278.062 300.289 278.377 300.289 278.757C300.289 279.136 299.974 279.451 299.595 279.451C299.216 279.451 298.901 279.142 298.901 278.757C298.901 278.371 299.216 278.062 299.595 278.062Z" fill="#FAFAFA"/>
<path d="M299.595 271.555C299.981 271.555 300.289 271.87 300.289 272.249C300.289 272.628 299.974 272.943 299.595 272.943C299.216 272.943 298.901 272.635 298.901 272.249C298.901 271.863 299.216 271.555 299.595 271.555Z" fill="#FAFAFA"/>
<path d="M299.595 265.062C299.981 265.062 300.289 265.377 300.289 265.757C300.289 266.136 299.974 266.451 299.595 266.451C299.216 266.451 298.901 266.142 298.901 265.757C298.901 265.371 299.216 265.062 299.595 265.062Z" fill="#FAFAFA"/>
<path d="M299.595 258.562C299.981 258.562 300.289 258.877 300.289 259.257C300.289 259.636 299.974 259.951 299.595 259.951C299.216 259.951 298.901 259.642 298.901 259.257C298.901 258.871 299.216 258.562 299.595 258.562Z" fill="#FAFAFA"/>
<path d="M299.595 252.055C299.981 252.055 300.289 252.37 300.289 252.749C300.289 253.128 299.974 253.443 299.595 253.443C299.216 253.443 298.901 253.135 298.901 252.749C298.901 252.363 299.216 252.055 299.595 252.055Z" fill="#FAFAFA"/>
<path d="M299.595 245.555C299.981 245.555 300.289 245.87 300.289 246.249C300.289 246.628 299.974 246.943 299.595 246.943C299.216 246.943 298.901 246.635 298.901 246.249C298.901 245.863 299.216 245.555 299.595 245.555Z" fill="#FAFAFA"/>
<path d="M299.595 239.047C299.981 239.047 300.289 239.362 300.289 239.741C300.289 240.12 299.974 240.435 299.595 240.435C299.216 240.435 298.901 240.127 298.901 239.741C298.901 239.355 299.216 239.047 299.595 239.047Z" fill="#FAFAFA"/>
<path d="M299.595 232.555C299.981 232.555 300.289 232.87 300.289 233.249C300.289 233.628 299.974 233.943 299.595 233.943C299.216 233.943 298.901 233.635 298.901 233.249C298.901 232.863 299.216 232.555 299.595 232.555Z" fill="#FAFAFA"/>
<path d="M299.595 226.047C299.981 226.047 300.289 226.362 300.289 226.741C300.289 227.12 299.974 227.435 299.595 227.435C299.216 227.435 298.901 227.127 298.901 226.741C298.901 226.355 299.216 226.047 299.595 226.047Z" fill="#FAFAFA"/>
<path d="M299.595 219.547C299.981 219.547 300.289 219.862 300.289 220.241C300.289 220.62 299.974 220.935 299.595 220.935C299.216 220.935 298.901 220.627 298.901 220.241C298.901 219.855 299.216 219.547 299.595 219.547Z" fill="#FAFAFA"/>
<path d="M299.595 213.047C299.981 213.047 300.289 213.362 300.289 213.741C300.289 214.12 299.974 214.435 299.595 214.435C299.216 214.435 298.901 214.127 298.901 213.741C298.901 213.355 299.216 213.047 299.595 213.047Z" fill="#FAFAFA"/>
<path d="M299.595 206.547C299.981 206.547 300.289 206.862 300.289 207.241C300.289 207.62 299.974 207.935 299.595 207.935C299.216 207.935 298.901 207.627 298.901 207.241C298.901 206.855 299.216 206.547 299.595 206.547Z" fill="#FAFAFA"/>
<path d="M295.165 382.086C295.551 382.086 295.859 382.401 295.859 382.78C295.859 383.159 295.544 383.474 295.165 383.474C294.786 383.474 294.471 383.159 294.471 382.78C294.471 382.401 294.786 382.086 295.165 382.086Z" fill="#FAFAFA"/>
<path d="M295.165 375.586C295.551 375.586 295.859 375.901 295.859 376.28C295.859 376.659 295.544 376.974 295.165 376.974C294.786 376.974 294.471 376.659 294.471 376.28C294.471 375.901 294.786 375.586 295.165 375.586Z" fill="#FAFAFA"/>
<path d="M295.165 369.086C295.551 369.086 295.859 369.401 295.859 369.78C295.859 370.159 295.544 370.474 295.165 370.474C294.786 370.474 294.471 370.159 294.471 369.78C294.471 369.401 294.786 369.086 295.165 369.086Z" fill="#FAFAFA"/>
<path d="M295.165 362.586C295.551 362.586 295.859 362.901 295.859 363.28C295.859 363.659 295.544 363.974 295.165 363.974C294.786 363.974 294.471 363.666 294.471 363.28C294.471 362.894 294.786 362.586 295.165 362.586Z" fill="#FAFAFA"/>
<path d="M295.165 356.078C295.551 356.078 295.859 356.393 295.859 356.772C295.859 357.152 295.544 357.467 295.165 357.467C294.786 357.467 294.471 357.158 294.471 356.772C294.471 356.387 294.786 356.078 295.165 356.078Z" fill="#FAFAFA"/>
<path d="M295.165 349.586C295.551 349.586 295.859 349.901 295.859 350.28C295.859 350.659 295.544 350.974 295.165 350.974C294.786 350.974 294.471 350.666 294.471 350.28C294.471 349.894 294.786 349.586 295.165 349.586Z" fill="#FAFAFA"/>
<path d="M295.165 343.078C295.551 343.078 295.859 343.393 295.859 343.772C295.859 344.152 295.544 344.467 295.165 344.467C294.786 344.467 294.471 344.158 294.471 343.772C294.471 343.387 294.786 343.078 295.165 343.078Z" fill="#FAFAFA"/>
<path d="M295.165 336.578C295.551 336.578 295.859 336.893 295.859 337.272C295.859 337.652 295.544 337.967 295.165 337.967C294.786 337.967 294.471 337.658 294.471 337.272C294.471 336.887 294.786 336.578 295.165 336.578Z" fill="#FAFAFA"/>
<path d="M295.165 330.07C295.551 330.07 295.859 330.385 295.859 330.765C295.859 331.144 295.544 331.459 295.165 331.459C294.786 331.459 294.471 331.15 294.471 330.765C294.471 330.379 294.786 330.07 295.165 330.07Z" fill="#FAFAFA"/>
<path d="M295.165 323.578C295.551 323.578 295.859 323.893 295.859 324.272C295.859 324.652 295.544 324.967 295.165 324.967C294.786 324.967 294.471 324.658 294.471 324.272C294.471 323.887 294.786 323.578 295.165 323.578Z" fill="#FAFAFA"/>
<path d="M295.165 317.078C295.551 317.078 295.859 317.393 295.859 317.772C295.859 318.152 295.544 318.467 295.165 318.467C294.786 318.467 294.471 318.158 294.471 317.772C294.471 317.387 294.786 317.078 295.165 317.078Z" fill="#FAFAFA"/>
<path d="M295.165 310.57C295.551 310.57 295.859 310.885 295.859 311.265C295.859 311.644 295.544 311.959 295.165 311.959C294.786 311.959 294.471 311.65 294.471 311.265C294.471 310.879 294.786 310.57 295.165 310.57Z" fill="#FAFAFA"/>
<path d="M295.165 304.07C295.551 304.07 295.859 304.385 295.859 304.765C295.859 305.144 295.544 305.459 295.165 305.459C294.786 305.459 294.471 305.15 294.471 304.765C294.471 304.379 294.786 304.07 295.165 304.07Z" fill="#FAFAFA"/>
<path d="M295.165 297.562C295.551 297.562 295.859 297.877 295.859 298.257C295.859 298.636 295.544 298.951 295.165 298.951C294.786 298.951 294.471 298.642 294.471 298.257C294.471 297.871 294.786 297.562 295.165 297.562Z" fill="#FAFAFA"/>
<path d="M295.165 291.07C295.551 291.07 295.859 291.385 295.859 291.765C295.859 292.144 295.544 292.459 295.165 292.459C294.786 292.459 294.471 292.15 294.471 291.765C294.471 291.379 294.786 291.07 295.165 291.07Z" fill="#FAFAFA"/>
<path d="M295.165 284.562C295.551 284.562 295.859 284.877 295.859 285.257C295.859 285.636 295.544 285.951 295.165 285.951C294.786 285.951 294.471 285.642 294.471 285.257C294.471 284.871 294.786 284.562 295.165 284.562Z" fill="#FAFAFA"/>
<path d="M295.165 278.062C295.551 278.062 295.859 278.377 295.859 278.757C295.859 279.136 295.544 279.451 295.165 279.451C294.786 279.451 294.471 279.142 294.471 278.757C294.471 278.371 294.786 278.062 295.165 278.062Z" fill="#FAFAFA"/>
<path d="M295.165 271.555C295.551 271.555 295.859 271.87 295.859 272.249C295.859 272.628 295.544 272.943 295.165 272.943C294.786 272.943 294.471 272.635 294.471 272.249C294.471 271.863 294.786 271.555 295.165 271.555Z" fill="#FAFAFA"/>
<path d="M295.165 265.062C295.551 265.062 295.859 265.377 295.859 265.757C295.859 266.136 295.544 266.451 295.165 266.451C294.786 266.451 294.471 266.142 294.471 265.757C294.471 265.371 294.786 265.062 295.165 265.062Z" fill="#FAFAFA"/>
<path d="M295.165 258.562C295.551 258.562 295.859 258.877 295.859 259.257C295.859 259.636 295.544 259.951 295.165 259.951C294.786 259.951 294.471 259.642 294.471 259.257C294.471 258.871 294.786 258.562 295.165 258.562Z" fill="#FAFAFA"/>
<path d="M295.165 252.055C295.551 252.055 295.859 252.37 295.859 252.749C295.859 253.128 295.544 253.443 295.165 253.443C294.786 253.443 294.471 253.135 294.471 252.749C294.471 252.363 294.786 252.055 295.165 252.055Z" fill="#FAFAFA"/>
<path d="M295.165 245.555C295.551 245.555 295.859 245.87 295.859 246.249C295.859 246.628 295.544 246.943 295.165 246.943C294.786 246.943 294.471 246.635 294.471 246.249C294.471 245.863 294.786 245.555 295.165 245.555Z" fill="#FAFAFA"/>
<path d="M295.165 239.047C295.551 239.047 295.859 239.362 295.859 239.741C295.859 240.12 295.544 240.435 295.165 240.435C294.786 240.435 294.471 240.127 294.471 239.741C294.471 239.355 294.786 239.047 295.165 239.047Z" fill="#FAFAFA"/>
<path d="M295.165 232.555C295.551 232.555 295.859 232.87 295.859 233.249C295.859 233.628 295.544 233.943 295.165 233.943C294.786 233.943 294.471 233.635 294.471 233.249C294.471 232.863 294.786 232.555 295.165 232.555Z" fill="#FAFAFA"/>
<path d="M295.165 226.047C295.551 226.047 295.859 226.362 295.859 226.741C295.859 227.12 295.544 227.435 295.165 227.435C294.786 227.435 294.471 227.127 294.471 226.741C294.471 226.355 294.786 226.047 295.165 226.047Z" fill="#FAFAFA"/>
<path d="M295.165 219.547C295.551 219.547 295.859 219.862 295.859 220.241C295.859 220.62 295.544 220.935 295.165 220.935C294.786 220.935 294.471 220.627 294.471 220.241C294.471 219.855 294.786 219.547 295.165 219.547Z" fill="#FAFAFA"/>
<path d="M295.165 213.047C295.551 213.047 295.859 213.362 295.859 213.741C295.859 214.12 295.544 214.435 295.165 214.435C294.786 214.435 294.471 214.127 294.471 213.741C294.471 213.355 294.786 213.047 295.165 213.047Z" fill="#FAFAFA"/>
<path d="M295.165 206.547C295.551 206.547 295.859 206.862 295.859 207.241C295.859 207.62 295.544 207.935 295.165 207.935C294.786 207.935 294.471 207.627 294.471 207.241C294.471 206.855 294.786 206.547 295.165 206.547Z" fill="#FAFAFA"/>
<path d="M211.329 383.474C210.944 383.474 210.635 383.166 210.635 382.78C210.635 382.394 210.95 382.086 211.329 382.086C211.708 382.086 212.023 382.401 212.023 382.78C212.023 383.159 211.708 383.474 211.329 383.474Z" fill="#FAFAFA"/>
<path d="M211.329 376.982C210.944 376.982 210.635 376.674 210.635 376.288C210.635 375.902 210.95 375.594 211.329 375.594C211.708 375.594 212.023 375.909 212.023 376.288C212.023 376.667 211.708 376.982 211.329 376.982Z" fill="#FAFAFA"/>
<path d="M211.329 370.474C210.944 370.474 210.635 370.166 210.635 369.78C210.635 369.394 210.95 369.086 211.329 369.086C211.708 369.086 212.023 369.401 212.023 369.78C212.023 370.159 211.708 370.474 211.329 370.474Z" fill="#FAFAFA"/>
<path d="M211.329 363.974C210.944 363.974 210.635 363.666 210.635 363.28C210.635 362.894 210.95 362.586 211.329 362.586C211.708 362.586 212.023 362.894 212.023 363.28C212.023 363.666 211.708 363.974 211.329 363.974Z" fill="#FAFAFA"/>
<path d="M211.329 357.474C210.944 357.474 210.635 357.166 210.635 356.78C210.635 356.394 210.95 356.086 211.329 356.086C211.708 356.086 212.023 356.394 212.023 356.78C212.023 357.166 211.708 357.474 211.329 357.474Z" fill="#FAFAFA"/>
<path d="M211.329 350.974C210.944 350.974 210.635 350.666 210.635 350.28C210.635 349.894 210.95 349.586 211.329 349.586C211.708 349.586 212.023 349.894 212.023 350.28C212.023 350.666 211.708 350.974 211.329 350.974Z" fill="#FAFAFA"/>
<path d="M211.329 344.474C210.944 344.474 210.635 344.166 210.635 343.78C210.635 343.394 210.95 343.086 211.329 343.086C211.708 343.086 212.023 343.394 212.023 343.78C212.023 344.166 211.708 344.474 211.329 344.474Z" fill="#FAFAFA"/>
<path d="M211.329 337.967C210.944 337.967 210.635 337.658 210.635 337.272C210.635 336.887 210.95 336.578 211.329 336.578C211.708 336.578 212.023 336.887 212.023 337.272C212.023 337.658 211.708 337.967 211.329 337.967Z" fill="#FAFAFA"/>
<path d="M211.329 331.467C210.944 331.467 210.635 331.158 210.635 330.772C210.635 330.387 210.95 330.078 211.329 330.078C211.708 330.078 212.023 330.387 212.023 330.772C212.023 331.158 211.708 331.467 211.329 331.467Z" fill="#FAFAFA"/>
<path d="M211.329 324.967C210.944 324.967 210.635 324.658 210.635 324.272C210.635 323.887 210.95 323.578 211.329 323.578C211.708 323.578 212.023 323.887 212.023 324.272C212.023 324.658 211.708 324.967 211.329 324.967Z" fill="#FAFAFA"/>
<path d="M211.329 318.467C210.944 318.467 210.635 318.158 210.635 317.772C210.635 317.387 210.95 317.078 211.329 317.078C211.708 317.078 212.023 317.387 212.023 317.772C212.023 318.158 211.708 318.467 211.329 318.467Z" fill="#FAFAFA"/>
<path d="M211.329 311.959C210.944 311.959 210.635 311.65 210.635 311.265C210.635 310.879 210.95 310.57 211.329 310.57C211.708 310.57 212.023 310.879 212.023 311.265C212.023 311.65 211.708 311.959 211.329 311.959Z" fill="#FAFAFA"/>
<path d="M211.329 305.459C210.944 305.459 210.635 305.15 210.635 304.765C210.635 304.379 210.95 304.07 211.329 304.07C211.708 304.07 212.023 304.379 212.023 304.765C212.023 305.15 211.708 305.459 211.329 305.459Z" fill="#FAFAFA"/>
<path d="M211.329 298.959C210.944 298.959 210.635 298.65 210.635 298.265C210.635 297.879 210.95 297.57 211.329 297.57C211.708 297.57 212.023 297.879 212.023 298.265C212.023 298.65 211.708 298.959 211.329 298.959Z" fill="#FAFAFA"/>
<path d="M211.329 292.459C210.944 292.459 210.635 292.15 210.635 291.765C210.635 291.379 210.95 291.07 211.329 291.07C211.708 291.07 212.023 291.379 212.023 291.765C212.023 292.15 211.708 292.459 211.329 292.459Z" fill="#FAFAFA"/>
<path d="M211.329 285.959C210.944 285.959 210.635 285.65 210.635 285.265C210.635 284.879 210.95 284.57 211.329 284.57C211.708 284.57 212.023 284.879 212.023 285.265C212.023 285.65 211.708 285.959 211.329 285.959Z" fill="#FAFAFA"/>
<path d="M211.329 279.451C210.944 279.451 210.635 279.142 210.635 278.757C210.635 278.371 210.95 278.062 211.329 278.062C211.708 278.062 212.023 278.371 212.023 278.757C212.023 279.142 211.708 279.451 211.329 279.451Z" fill="#FAFAFA"/>
<path d="M211.329 272.951C210.944 272.951 210.635 272.642 210.635 272.257C210.635 271.871 210.95 271.562 211.329 271.562C211.708 271.562 212.023 271.871 212.023 272.257C212.023 272.642 211.708 272.951 211.329 272.951Z" fill="#FAFAFA"/>
<path d="M211.329 266.451C210.944 266.451 210.635 266.142 210.635 265.757C210.635 265.371 210.95 265.062 211.329 265.062C211.708 265.062 212.023 265.371 212.023 265.757C212.023 266.142 211.708 266.451 211.329 266.451Z" fill="#FAFAFA"/>
<path d="M211.329 259.951C210.944 259.951 210.635 259.642 210.635 259.257C210.635 258.871 210.95 258.562 211.329 258.562C211.708 258.562 212.023 258.871 212.023 259.257C212.023 259.642 211.708 259.951 211.329 259.951Z" fill="#FAFAFA"/>
<path d="M211.329 253.443C210.944 253.443 210.635 253.135 210.635 252.749C210.635 252.363 210.95 252.055 211.329 252.055C211.708 252.055 212.023 252.363 212.023 252.749C212.023 253.135 211.708 253.443 211.329 253.443Z" fill="#FAFAFA"/>
<path d="M211.329 246.943C210.944 246.943 210.635 246.635 210.635 246.249C210.635 245.863 210.95 245.555 211.329 245.555C211.708 245.555 212.023 245.863 212.023 246.249C212.023 246.635 211.708 246.943 211.329 246.943Z" fill="#FAFAFA"/>
<path d="M211.329 240.443C210.944 240.443 210.635 240.135 210.635 239.749C210.635 239.363 210.95 239.055 211.329 239.055C211.708 239.055 212.023 239.363 212.023 239.749C212.023 240.135 211.708 240.443 211.329 240.443Z" fill="#FAFAFA"/>
<path d="M211.329 233.943C210.944 233.943 210.635 233.635 210.635 233.249C210.635 232.863 210.95 232.555 211.329 232.555C211.708 232.555 212.023 232.863 212.023 233.249C212.023 233.635 211.708 233.943 211.329 233.943Z" fill="#FAFAFA"/>
<path d="M211.329 227.443C210.944 227.443 210.635 227.135 210.635 226.749C210.635 226.363 210.95 226.055 211.329 226.055C211.708 226.055 212.023 226.363 212.023 226.749C212.023 227.135 211.708 227.443 211.329 227.443Z" fill="#FAFAFA"/>
<path d="M211.329 220.935C210.944 220.935 210.635 220.627 210.635 220.241C210.635 219.855 210.95 219.547 211.329 219.547C211.708 219.547 212.023 219.855 212.023 220.241C212.023 220.627 211.708 220.935 211.329 220.935Z" fill="#FAFAFA"/>
<path d="M211.329 214.435C210.944 214.435 210.635 214.127 210.635 213.741C210.635 213.355 210.95 213.047 211.329 213.047C211.708 213.047 212.023 213.355 212.023 213.741C212.023 214.127 211.708 214.435 211.329 214.435Z" fill="#FAFAFA"/>
<path d="M211.329 207.935C210.944 207.935 210.635 207.627 210.635 207.241C210.635 206.855 210.95 206.547 211.329 206.547C211.708 206.547 212.023 206.855 212.023 207.241C212.023 207.627 211.708 207.935 211.329 207.935Z" fill="#FAFAFA"/>
<path d="M206.907 383.474C206.522 383.474 206.213 383.166 206.213 382.78C206.213 382.394 206.528 382.086 206.907 382.086C207.287 382.086 207.602 382.401 207.602 382.78C207.602 383.159 207.287 383.474 206.907 383.474Z" fill="#FAFAFA"/>
<path d="M206.907 376.982C206.522 376.982 206.213 376.674 206.213 376.288C206.213 375.902 206.528 375.594 206.907 375.594C207.287 375.594 207.602 375.909 207.602 376.288C207.602 376.667 207.287 376.982 206.907 376.982Z" fill="#FAFAFA"/>
<path d="M206.907 370.474C206.522 370.474 206.213 370.166 206.213 369.78C206.213 369.394 206.528 369.086 206.907 369.086C207.287 369.086 207.602 369.401 207.602 369.78C207.602 370.159 207.287 370.474 206.907 370.474Z" fill="#FAFAFA"/>
<path d="M206.907 363.974C206.522 363.974 206.213 363.666 206.213 363.28C206.213 362.894 206.528 362.586 206.907 362.586C207.287 362.586 207.602 362.894 207.602 363.28C207.602 363.666 207.287 363.974 206.907 363.974Z" fill="#FAFAFA"/>
<path d="M206.907 357.474C206.522 357.474 206.213 357.166 206.213 356.78C206.213 356.394 206.528 356.086 206.907 356.086C207.287 356.086 207.602 356.394 207.602 356.78C207.602 357.166 207.287 357.474 206.907 357.474Z" fill="#FAFAFA"/>
<path d="M206.907 350.974C206.522 350.974 206.213 350.666 206.213 350.28C206.213 349.894 206.528 349.586 206.907 349.586C207.287 349.586 207.602 349.894 207.602 350.28C207.602 350.666 207.287 350.974 206.907 350.974Z" fill="#FAFAFA"/>
<path d="M206.907 344.474C206.522 344.474 206.213 344.166 206.213 343.78C206.213 343.394 206.528 343.086 206.907 343.086C207.287 343.086 207.602 343.394 207.602 343.78C207.602 344.166 207.287 344.474 206.907 344.474Z" fill="#FAFAFA"/>
<path d="M206.907 337.967C206.522 337.967 206.213 337.658 206.213 337.272C206.213 336.887 206.528 336.578 206.907 336.578C207.287 336.578 207.602 336.887 207.602 337.272C207.602 337.658 207.287 337.967 206.907 337.967Z" fill="#FAFAFA"/>
<path d="M206.907 331.467C206.522 331.467 206.213 331.158 206.213 330.772C206.213 330.387 206.528 330.078 206.907 330.078C207.287 330.078 207.602 330.387 207.602 330.772C207.602 331.158 207.287 331.467 206.907 331.467Z" fill="#FAFAFA"/>
<path d="M206.907 324.967C206.522 324.967 206.213 324.658 206.213 324.272C206.213 323.887 206.528 323.578 206.907 323.578C207.287 323.578 207.602 323.887 207.602 324.272C207.602 324.658 207.287 324.967 206.907 324.967Z" fill="#FAFAFA"/>
<path d="M206.907 318.467C206.522 318.467 206.213 318.158 206.213 317.772C206.213 317.387 206.528 317.078 206.907 317.078C207.287 317.078 207.602 317.387 207.602 317.772C207.602 318.158 207.287 318.467 206.907 318.467Z" fill="#FAFAFA"/>
<path d="M206.907 311.959C206.522 311.959 206.213 311.65 206.213 311.265C206.213 310.879 206.528 310.57 206.907 310.57C207.287 310.57 207.602 310.879 207.602 311.265C207.602 311.65 207.287 311.959 206.907 311.959Z" fill="#FAFAFA"/>
<path d="M206.907 305.459C206.522 305.459 206.213 305.15 206.213 304.765C206.213 304.379 206.528 304.07 206.907 304.07C207.287 304.07 207.602 304.379 207.602 304.765C207.602 305.15 207.287 305.459 206.907 305.459Z" fill="#FAFAFA"/>
<path d="M206.907 298.959C206.522 298.959 206.213 298.65 206.213 298.265C206.213 297.879 206.528 297.57 206.907 297.57C207.287 297.57 207.602 297.879 207.602 298.265C207.602 298.65 207.287 298.959 206.907 298.959Z" fill="#FAFAFA"/>
<path d="M206.907 292.459C206.522 292.459 206.213 292.15 206.213 291.765C206.213 291.379 206.528 291.07 206.907 291.07C207.287 291.07 207.602 291.379 207.602 291.765C207.602 292.15 207.287 292.459 206.907 292.459Z" fill="#FAFAFA"/>
<path d="M206.907 285.959C206.522 285.959 206.213 285.65 206.213 285.265C206.213 284.879 206.528 284.57 206.907 284.57C207.287 284.57 207.602 284.879 207.602 285.265C207.602 285.65 207.287 285.959 206.907 285.959Z" fill="#FAFAFA"/>
<path d="M206.907 279.451C206.522 279.451 206.213 279.142 206.213 278.757C206.213 278.371 206.528 278.062 206.907 278.062C207.287 278.062 207.602 278.371 207.602 278.757C207.602 279.142 207.287 279.451 206.907 279.451Z" fill="#FAFAFA"/>
<path d="M206.907 272.951C206.522 272.951 206.213 272.642 206.213 272.257C206.213 271.871 206.528 271.562 206.907 271.562C207.287 271.562 207.602 271.871 207.602 272.257C207.602 272.642 207.287 272.951 206.907 272.951Z" fill="#FAFAFA"/>
<path d="M206.907 266.451C206.522 266.451 206.213 266.142 206.213 265.757C206.213 265.371 206.528 265.062 206.907 265.062C207.287 265.062 207.602 265.371 207.602 265.757C207.602 266.142 207.287 266.451 206.907 266.451Z" fill="#FAFAFA"/>
<path d="M206.907 259.951C206.522 259.951 206.213 259.642 206.213 259.257C206.213 258.871 206.528 258.562 206.907 258.562C207.287 258.562 207.602 258.871 207.602 259.257C207.602 259.642 207.287 259.951 206.907 259.951Z" fill="#FAFAFA"/>
<path d="M206.907 253.443C206.522 253.443 206.213 253.135 206.213 252.749C206.213 252.363 206.528 252.055 206.907 252.055C207.287 252.055 207.602 252.363 207.602 252.749C207.602 253.135 207.287 253.443 206.907 253.443Z" fill="#FAFAFA"/>
<path d="M206.907 246.943C206.522 246.943 206.213 246.635 206.213 246.249C206.213 245.863 206.528 245.555 206.907 245.555C207.287 245.555 207.602 245.863 207.602 246.249C207.602 246.635 207.287 246.943 206.907 246.943Z" fill="#FAFAFA"/>
<path d="M206.907 240.443C206.522 240.443 206.213 240.135 206.213 239.749C206.213 239.363 206.528 239.055 206.907 239.055C207.287 239.055 207.602 239.363 207.602 239.749C207.602 240.135 207.287 240.443 206.907 240.443Z" fill="#FAFAFA"/>
<path d="M206.907 233.943C206.522 233.943 206.213 233.635 206.213 233.249C206.213 232.863 206.528 232.555 206.907 232.555C207.287 232.555 207.602 232.863 207.602 233.249C207.602 233.635 207.287 233.943 206.907 233.943Z" fill="#FAFAFA"/>
<path d="M206.907 227.443C206.522 227.443 206.213 227.135 206.213 226.749C206.213 226.363 206.528 226.055 206.907 226.055C207.287 226.055 207.602 226.363 207.602 226.749C207.602 227.135 207.287 227.443 206.907 227.443Z" fill="#FAFAFA"/>
<path d="M206.907 220.935C206.522 220.935 206.213 220.627 206.213 220.241C206.213 219.855 206.528 219.547 206.907 219.547C207.287 219.547 207.602 219.855 207.602 220.241C207.602 220.627 207.287 220.935 206.907 220.935Z" fill="#FAFAFA"/>
<path d="M206.907 214.435C206.522 214.435 206.213 214.127 206.213 213.741C206.213 213.355 206.528 213.047 206.907 213.047C207.287 213.047 207.602 213.355 207.602 213.741C207.602 214.127 207.287 214.435 206.907 214.435Z" fill="#FAFAFA"/>
<path d="M206.907 207.935C206.522 207.935 206.213 207.627 206.213 207.241C206.213 206.855 206.528 206.547 206.907 206.547C207.287 206.547 207.602 206.855 207.602 207.241C207.602 207.627 207.287 207.935 206.907 207.935Z" fill="#FAFAFA"/>
<path d="M70.6108 269.538C83.4928 269.538 93.9771 259.054 93.9771 246.172C93.9771 233.29 83.4928 222.806 70.6108 222.806C57.7288 222.806 47.2445 233.29 47.2445 246.172C47.2445 259.054 57.7288 269.538 70.6108 269.538ZM70.6108 221.141C84.4185 221.141 95.6484 232.371 95.6484 246.178C95.6484 259.986 84.4185 271.216 70.6108 271.216C56.8031 271.216 45.5732 259.986 45.5732 246.178C45.5732 232.371 56.8031 221.141 70.6108 221.141Z" fill="#FAFAFA"/>
<path d="M70.6109 263.951C80.4139 263.951 88.3912 255.973 88.3912 246.17C88.3912 236.367 80.4139 228.39 70.6109 228.39C60.808 228.39 52.8307 236.367 52.8307 246.17C52.8307 255.973 60.808 263.951 70.6109 263.951ZM70.6109 226.719C81.3395 226.719 90.0625 235.448 90.0625 246.17C90.0625 256.892 81.3395 265.622 70.6109 265.622C59.8823 265.622 51.1593 256.899 51.1593 246.17C51.1593 235.442 59.8888 226.719 70.6109 226.719Z" fill="#FAFAFA"/>
<path d="M70.6056 257.444C76.8152 257.444 81.8677 252.392 81.8677 246.182C81.8677 239.972 76.8152 234.92 70.6056 234.92C64.396 234.92 59.3435 239.972 59.3435 246.182C59.3435 252.392 64.396 257.444 70.6056 257.444ZM70.6056 233.242C77.7409 233.242 83.5391 239.047 83.5391 246.176C83.5391 253.304 77.7344 259.109 70.6056 259.109C63.4768 259.109 57.6722 253.304 57.6722 246.176C57.6722 239.047 63.4768 233.242 70.6056 233.242Z" fill="#FAFAFA"/>
<path d="M70.61 251.474C73.5284 251.474 75.9068 249.096 75.9068 246.178C75.9068 243.259 73.5284 240.881 70.61 240.881C67.6916 240.881 65.3132 243.259 65.3132 246.178C65.3132 249.096 67.6916 251.474 70.61 251.474ZM70.61 239.203C74.454 239.203 77.5781 242.327 77.5781 246.171C77.5781 250.015 74.454 253.139 70.61 253.139C66.766 253.139 63.6419 250.015 63.6419 246.171C63.6419 242.327 66.766 239.203 70.61 239.203Z" fill="#FAFAFA"/>
<path d="M222.678 386.933C221.965 386.933 221.38 386.354 221.38 385.634C221.38 384.914 221.958 384.336 222.678 384.336C223.398 384.336 223.977 384.914 223.977 385.634C223.977 386.354 223.398 386.933 222.678 386.933Z" fill="#FAFAFA"/>
<path d="M234.803 386.933C234.09 386.933 233.505 386.354 233.505 385.634C233.505 384.914 234.083 384.336 234.803 384.336C235.523 384.336 236.102 384.914 236.102 385.634C236.102 386.354 235.523 386.933 234.803 386.933Z" fill="#FAFAFA"/>
<path d="M246.928 386.933C246.215 386.933 245.63 386.354 245.63 385.634C245.63 384.914 246.208 384.336 246.928 384.336C247.648 384.336 248.227 384.914 248.227 385.634C248.227 386.354 247.648 386.933 246.928 386.933Z" fill="#FAFAFA"/>
<path d="M259.053 386.933C258.34 386.933 257.755 386.354 257.755 385.634C257.755 384.914 258.333 384.336 259.053 384.336C259.773 384.336 260.352 384.914 260.352 385.634C260.352 386.354 259.773 386.933 259.053 386.933Z" fill="#FAFAFA"/>
<path d="M271.17 386.933C270.457 386.933 269.872 386.354 269.872 385.634C269.872 384.914 270.45 384.336 271.17 384.336C271.89 384.336 272.469 384.914 272.469 385.634C272.469 386.354 271.89 386.933 271.17 386.933Z" fill="#FAFAFA"/>
<path d="M283.287 386.933C282.574 386.933 281.989 386.354 281.989 385.634C281.989 384.914 282.568 384.336 283.287 384.336C284.007 384.336 284.586 384.914 284.586 385.634C284.586 386.354 284.007 386.933 283.287 386.933Z" fill="#FAFAFA"/>
</g>
<defs>
<filter id="filter0_f_2888_1301" x="-64.4434" y="53.8848" width="479.25" height="477.06" filterUnits="userSpaceOnUse" color-interpolation-filters="sRGB">
<feFlood flood-opacity="0" result="BackgroundImageFix"/>
<feBlend mode="normal" in="SourceGraphic" in2="BackgroundImageFix" result="shape"/>
<feGaussianBlur stdDeviation="50" result="effect1_foregroundBlur_2888_1301"/>
</filter>
<clipPath id="clip0_2888_1301">
<rect width="304" height="388" fill="white" transform="translate(0.5 0.734375)"/>
</clipPath>
</defs>
</svg>
