<svg width="304" height="277" viewBox="0 0 304 277" fill="none" xmlns="http://www.w3.org/2000/svg">
<mask id="mask0_1287_8149" style="mask-type:alpha" maskUnits="userSpaceOnUse" x="0" y="0" width="304" height="277">
<rect width="304" height="277" fill="#D9D9D9"/>
</mask>
<g mask="url(#mask0_1287_8149)">
<path d="M100.768 465.341H1.6777V488.804H100.768V465.341ZM302.329 92.9135H291.459V393.519H302.329V92.9135ZM215.742 165.185L288.592 92.9199H215.742V165.185ZM203.194 393.519H214.064V92.9135H203.194V393.519ZM102.439 103.906H201.529V92.9135H102.439V103.906ZM1.6777 103.906H5.61816V92.9135H1.6777V103.906ZM14.8747 441.171L6.75595 434.942H1.6777V441.171H14.8747ZM100.768 442.843H1.6777V463.676H100.768V442.843ZM302.329 465.341H291.864L302.329 486.22V465.341ZM252.556 395.313C261.144 395.975 268.851 399.813 274.508 405.656H302.329V395.313H252.556ZM289.787 357.413H215.742V393.635H289.787V357.413ZM289.787 180.645H216.423L289.787 253.418V180.645ZM289.787 166.355V94.0899L216.937 166.355H289.787ZM289.787 344.794H215.742V355.741H289.787V344.794ZM215.742 254.916H288.926L215.742 182.316V254.916ZM215.742 267.534H289.787V256.587H215.742V267.534ZM215.742 343.123H289.787V269.205H215.742V343.123ZM289.787 168.026H215.742V178.974H289.787V168.026ZM201.522 321.344H187.65V393.642H201.522V321.344ZM102.439 166.831H201.529V105.577H102.439V166.831ZM36.5697 269.945C36.5697 264.147 31.8514 259.428 26.0533 259.428C20.2551 259.428 15.5368 264.147 15.5368 269.945C15.5368 275.743 20.2551 280.461 26.0533 280.461C31.8514 280.461 36.5697 275.743 36.5697 269.945ZM50.3709 375.225V180.645H26.6832V227.615C29.8523 228.027 32.3078 230.739 32.3078 234.018C32.3078 237.579 29.4088 240.478 25.8476 240.478C22.2863 240.478 19.3873 237.579 19.3873 234.018C19.3873 230.739 21.8428 228.027 25.0119 227.615V180.645H1.6713V291.042C1.67773 284.325 7.14163 278.867 13.859 278.867C20.5764 278.867 25.6226 283.932 26.0083 290.309C26.2589 286.272 28.4702 282.762 31.71 280.731C30.013 281.625 28.091 282.139 26.0404 282.139C19.3166 282.139 13.8526 276.669 13.8526 269.951C13.8526 263.234 19.323 257.763 26.0404 257.763C32.7578 257.763 38.2281 263.234 38.2281 269.951C38.2281 274.303 35.9269 278.121 32.4878 280.275C34.1848 279.381 36.1069 278.867 38.1575 278.867C44.8813 278.867 50.3452 284.337 50.3452 291.055C50.3452 297.329 45.582 302.503 39.4817 303.165C45.582 303.828 50.3452 309.009 50.3452 315.283C50.3452 321.151 46.1733 326.069 40.6387 327.22C46.1733 328.37 50.3452 333.281 50.3452 339.157C50.3452 345.032 46.1733 349.943 40.6387 351.094C46.1733 352.244 50.3452 357.155 50.3452 363.031C50.3452 369.755 44.8749 375.219 38.1575 375.219C31.44 375.219 26.394 370.153 26.0083 363.776C25.6161 370.147 20.3257 375.219 13.859 375.219C7.39233 375.219 1.67773 369.755 1.6713 363.044V375.238H50.3709V375.225ZM1.6777 393.642H50.3774V376.896H1.6777V393.642ZM1.6777 401.703H6.78165L15.1125 395.307H1.6777V401.703ZM1.6777 417.484H6.78165L15.9611 410.438L6.75595 403.374H1.6713V417.484H1.6777ZM31.0158 434.113L21.8171 427.055H17.6195L8.42084 434.113L17.6131 441.171H21.8171L31.0093 434.113H31.0158ZM38.3117 434.942H32.6807L24.5619 441.171H46.4305L38.3117 434.942ZM62.5973 434.113L53.3986 427.055H49.1753L39.9895 434.1L49.1946 441.165H53.3986L62.5909 434.107L62.5973 434.113ZM69.7582 434.942H64.2622L56.1434 441.171H77.8706L69.7518 434.942H69.7582ZM94.0181 434.113L84.8194 427.055H80.6218L71.4231 434.113L80.6154 441.171H84.8194L94.0116 434.113H94.0181ZM100.768 434.942H95.6894L87.5706 441.171H100.768V434.942ZM214.07 451.714H102.439V463.676H214.07V451.714ZM102.439 487.081L112.904 465.341H102.439V487.081ZM279.316 488.701H301.705L290.507 466.376L279.309 488.701H279.316ZM302.329 454.06H273.711C267.945 459.639 260.237 463.226 251.707 463.67H302.329V454.06ZM302.329 442.843H281.437C279.939 446.365 277.863 449.586 275.33 452.388H302.329V442.843ZM302.329 431.002H284.124C283.963 434.557 283.269 437.977 282.099 441.171H302.329V431.002ZM302.329 419.155H282.575C283.591 422.369 284.143 425.782 284.156 429.324H302.329V419.155ZM217.31 429.459C217.31 447.432 231.928 462.05 249.901 462.05C267.874 462.05 282.491 447.432 282.491 429.459C282.491 411.486 267.874 396.869 249.901 396.869C231.928 396.869 217.31 411.486 217.31 429.459ZM215.742 426.959C216.963 410.111 230.417 396.605 247.246 395.313H215.742V426.959ZM102.439 409.088H214.07V395.307H102.439V409.088ZM173.772 393.642H185.979V321.344H173.772V393.642ZM201.522 302.825H195.088L190.485 298.299H183.896L179.339 302.825H171.606L167.003 298.293H160.543L155.947 302.825H148.15L143.656 298.364H136.791L132.33 302.825H124.712L120.11 298.299H113.521L108.964 302.825H102.433V319.673H201.522V302.825ZM102.439 269.328V301.153H108.282L112.84 296.628H120.804L125.407 301.153H131.648L136.11 296.692H144.35L148.844 301.153H155.265L159.862 296.622H167.691L172.294 301.153H178.658L183.215 296.628H191.173L195.776 301.153H201.522V269.328H102.433H102.439ZM201.522 218.224L152.116 267.444L102.439 217.96V267.663H201.529V218.23L201.522 218.224ZM201.522 217.555V168.509H152.283L201.522 217.555ZM111.644 224.774L118.554 217.89L111.644 211.005L104.734 217.89L111.644 224.774ZM119.737 232.835L126.647 225.951L119.737 219.066L112.827 225.951L119.737 232.835ZM127.83 240.896L134.74 234.011L127.83 227.127L120.92 234.011L127.83 240.896ZM135.93 248.963L142.84 242.079L135.93 235.194L129.019 242.079L135.93 248.963ZM144.023 257.024L150.933 250.14L144.023 243.255L137.112 250.14L144.023 257.024ZM152.116 251.322L145.205 258.207L152.116 265.091L159.026 258.207L152.116 251.322ZM160.209 243.255L153.298 250.14L160.209 257.024L167.119 250.14L160.209 243.255ZM168.302 235.194L161.392 242.079L168.302 248.963L175.212 242.079L168.302 235.194ZM176.395 227.133L169.485 234.018L176.395 240.902L183.305 234.018L176.395 227.133ZM184.488 219.066L177.578 225.951L184.488 232.835L191.398 225.951L184.488 219.066ZM192.587 211.005L185.677 217.89L192.587 224.774L199.498 217.89L192.587 211.005ZM184.488 202.944L177.578 209.829L184.488 216.713L191.398 209.829L184.488 202.944ZM176.395 194.883L169.485 201.768L176.395 208.652L183.305 201.768L176.395 194.883ZM168.302 186.816L161.392 193.7L168.302 200.585L175.212 193.7L168.302 186.816ZM160.209 178.755L153.298 185.64L160.209 192.524L167.119 185.64L160.209 178.755ZM152.116 184.457L159.026 177.572L152.116 170.688L145.205 177.572L152.116 184.457ZM144.023 192.524L150.933 185.64L144.023 178.755L137.112 185.64L144.023 192.524ZM135.93 200.585L142.84 193.7L135.93 186.816L129.019 193.7L135.93 200.585ZM127.83 208.646L134.74 201.761L127.83 194.877L120.92 201.761L127.83 208.646ZM126.647 209.829L119.737 202.944L112.827 209.829L119.737 216.713L126.647 209.829ZM134.74 217.89L127.83 211.005L120.92 217.89L127.83 224.774L134.74 217.89ZM142.84 225.951L135.93 219.066L129.019 225.951L135.93 232.835L142.84 225.951ZM150.933 234.018L144.023 227.133L137.112 234.018L144.023 240.902L150.933 234.018ZM152.116 235.194L145.205 242.079L152.116 248.963L159.026 242.079L152.116 235.194ZM160.209 227.133L153.298 234.018L160.209 240.902L167.119 234.018L160.209 227.133ZM168.302 219.066L161.392 225.951L168.302 232.835L175.212 225.951L168.302 219.066ZM169.485 217.89L176.395 224.774L183.305 217.89L176.395 211.005L169.485 217.89ZM161.392 209.829L168.302 216.713L175.212 209.829L168.302 202.944L161.392 209.829ZM153.298 201.761L160.209 208.646L167.119 201.761L160.209 194.877L153.298 201.761ZM152.116 200.585L159.026 193.7L152.116 186.816L145.205 193.7L152.116 200.585ZM144.023 208.646L150.933 201.761L144.023 194.877L137.112 201.761L144.023 208.646ZM142.84 209.829L135.93 202.944L129.019 209.829L135.93 216.713L142.84 209.829ZM150.933 217.89L144.023 211.005L137.112 217.89L144.023 224.774L150.933 217.89ZM152.116 219.066L145.205 225.951L152.116 232.835L159.026 225.951L152.116 219.066ZM159.026 209.829L152.116 202.944L145.205 209.829L152.116 216.713L159.026 209.829ZM153.298 217.89L160.209 224.774L167.119 217.89L160.209 211.005L153.298 217.89ZM102.439 217.819L151.949 168.502H102.439V217.819ZM52.0423 301.153H59.4603V180.645H52.0423V301.153ZM52.0423 338.186H100.761V321.338H52.0423V338.186ZM52.0423 356.705H100.761V339.857H52.0423V356.705ZM52.0423 375.174H100.761V358.377H52.0423V375.174ZM100.768 302.825H52.0487V319.673H100.768V302.825ZM93.2146 301.153H100.768V180.645H93.2146V301.153ZM91.5432 195.565V180.645H77.2342L91.5432 195.565ZM61.1317 195.532L75.4086 180.645H61.1317V195.532ZM91.5432 299.174L77.157 284.17V301.153H91.5432V299.174ZM77.157 200.804L91.5432 215.8V197.975L77.157 182.972V200.797V200.804ZM61.1317 215.768L75.4857 200.804V182.978L61.1317 197.943V215.768ZM75.4857 263.934L61.1317 278.899V296.724L75.4857 281.76V263.934ZM91.5432 278.931L77.157 263.934V281.76L91.5432 296.757V278.931ZM91.5432 258.695L77.157 243.692V261.517L91.5432 276.514V258.689V258.695ZM91.5432 238.453L77.157 223.45V241.275L91.5432 256.272V238.447V238.453ZM75.4857 221.039V203.214L61.1317 218.179V236.004L75.4857 221.039ZM75.4857 241.282V223.456L61.1317 238.421V256.246L75.4857 241.282ZM75.4857 243.699L61.1317 258.663V276.489L75.4857 261.524V243.699ZM91.5432 218.217L77.157 203.221V221.046L91.5432 236.049V218.224V218.217ZM75.4857 301.153V284.17L61.1317 299.135V301.153H75.4857ZM116.574 321.344H102.433V393.642H116.574V321.344ZM130.459 321.344H118.246V393.642H130.459V321.344ZM144.338 321.344H132.124V393.642H144.338V321.344ZM158.222 321.344H146.009V393.642H158.222V321.344ZM159.894 393.642H172.101V321.344H159.894V393.642ZM100.768 376.845H52.0487V393.642H100.768V376.845ZM32.6614 401.703H38.3567L46.6876 395.307H24.3305L32.6614 401.703ZM17.6195 409.603H21.8235L31.0158 402.545L21.8235 395.486H17.6195L8.42725 402.545L17.6195 409.603ZM48.9118 426.187L48.886 426.219L48.9118 426.252V426.187ZM53.3986 425.384L62.5909 418.326L53.3986 411.268H49.1689L39.9766 418.326L49.1689 425.384H53.3986ZM84.8194 425.384L94.0116 418.326L84.8194 411.268H80.6154L71.4231 418.326L80.6154 425.384H84.8194ZM214.07 439.127H102.439V450.036H214.07V439.127ZM102.439 421.675H214.07V410.766H102.439V421.675ZM95.6637 401.703H100.768V395.307H87.3328L95.6637 401.703ZM64.2429 401.703H69.7839L78.1148 395.307H55.9184L64.2493 401.703H64.2429ZM84.8194 409.603L94.0116 402.545L84.8194 395.486H80.6154L71.4231 402.545L80.6154 409.603H84.8194ZM214.07 423.34H102.439V437.456H214.07V423.34ZM95.6572 417.484H100.761V403.374H95.6765L86.4714 410.438L95.6508 417.484H95.6572ZM64.2365 417.484H69.7839L78.9634 410.438L69.7582 403.374H64.2558L55.0506 410.438L64.23 417.484H64.2365ZM49.1753 409.603H53.405L62.5973 402.545L53.405 395.486H49.201L39.9959 402.551L49.1753 409.596V409.603ZM38.601 402.538H38.6074L38.601 402.519V402.538ZM48.9118 410.406L48.886 410.438L48.9118 410.47V410.406ZM32.6807 403.374L23.4756 410.438L32.655 417.484H38.3374L47.5168 410.438L38.3117 403.374H32.6743H32.6807ZM248.094 463.67C230.873 462.77 216.989 449.091 215.742 431.953V463.67H248.094ZM202.217 488L213.575 465.348H190.858L202.217 488ZM176.768 488.039L188.145 465.348H165.39L176.768 488.039ZM153.279 488.791H175.283L164.059 466.402L153.286 488.791H153.279ZM152.077 487.441L162.709 465.348H141.001L152.077 487.441ZM128.82 488.791H150.888L139.632 466.338L128.826 488.791H128.82ZM114.736 465.386L103.467 488.798H126.474L114.736 465.386ZM127.637 487.39L138.25 465.341H116.587L127.644 487.39H127.637ZM200.7 488.701L189.502 466.376L178.259 488.798H198.251V488.708H200.693L200.7 488.701ZM277.921 487.743L289.151 465.341H266.685L277.915 487.743H277.921ZM254.143 488.701H276.533L265.335 466.376L254.137 488.701H254.143ZM252.729 487.788L263.985 465.341H241.473L252.729 487.788ZM228.926 488.701H251.315L240.117 466.376L228.919 488.701H228.926ZM214.925 466.37L203.727 488.695H226.117L214.919 466.37H214.925ZM227.524 487.763L238.767 465.341H216.281L227.524 487.763ZM95.6572 433.271H100.761V419.155H95.683L86.4778 426.219L95.6637 433.265L95.6572 433.271ZM64.2365 433.271H69.7839L78.9698 426.226L69.7647 419.161H64.2686L55.0571 426.226L64.2429 433.271H64.2365ZM32.655 433.271H38.3374L47.5233 426.226L38.3182 419.161H32.6871L23.482 426.226L32.6678 433.271H32.655ZM17.6195 425.384H21.8235L31.0158 418.326L21.8235 411.268H17.6195L8.42725 418.326L17.6195 425.384ZM25.854 229.229C23.212 229.229 21.065 231.376 21.065 234.018C21.065 236.66 23.212 238.807 25.854 238.807C28.496 238.807 30.6429 236.66 30.6429 234.018C30.6429 231.376 28.496 229.229 25.854 229.229ZM46.2055 155.312H1.6777V166.831H69.6425C60.1674 166.683 51.7273 162.215 46.2055 155.312ZM41.1723 136.226C41.1723 152.187 54.1571 165.179 70.1246 165.179C86.0922 165.179 99.077 152.194 99.077 136.226C99.077 120.259 86.0922 107.274 70.1246 107.274C54.1571 107.274 41.1723 120.259 41.1723 136.226ZM1.6777 128.204H40.5745C41.6865 124.122 43.6214 120.375 46.1862 117.16H1.6713V128.204H1.6777ZM40.1695 142.59H1.6713V153.64H44.952C42.6765 150.362 41.0244 146.627 40.1695 142.59ZM1.6777 140.919H39.8673C39.6295 139.389 39.5074 137.821 39.5074 136.22C39.5074 134.041 39.7388 131.92 40.1759 129.869H1.68411V140.912L1.6777 140.919ZM1.6777 315.27C1.6777 309.002 6.44098 303.834 12.5413 303.165C6.44739 302.503 1.68411 297.329 1.6777 291.068V315.27ZM1.6777 339.137C1.6777 333.275 5.85602 328.364 11.3842 327.213C5.85602 326.062 1.68411 321.158 1.6777 315.289V339.131V339.137ZM13.8655 352.495C8.06729 352.495 3.34903 357.213 3.34903 363.012C3.34903 368.81 8.06729 373.528 13.8655 373.528C19.6637 373.528 24.3819 368.81 24.3819 363.012C24.3819 357.213 19.6637 352.495 13.8655 352.495ZM27.6474 363.018C27.6474 368.816 32.3657 373.534 38.1639 373.534C43.9621 373.534 48.6803 368.816 48.6803 363.018C48.6803 357.22 43.9621 352.501 38.1639 352.501C32.3657 352.501 27.6474 357.22 27.6474 363.018ZM27.6474 339.15C27.6474 344.948 32.3657 349.667 38.1639 349.667C43.9621 349.667 48.6803 344.948 48.6803 339.15C48.6803 333.352 43.9621 328.634 38.1639 328.634C32.3657 328.634 27.6474 333.352 27.6474 339.15ZM27.6474 315.283C27.6474 321.081 32.3657 325.799 38.1639 325.799C43.9621 325.799 48.6803 321.081 48.6803 315.283C48.6803 309.484 43.9621 304.766 38.1639 304.766C32.3657 304.766 27.6474 309.484 27.6474 315.283ZM38.1639 301.571C43.9621 301.571 48.6803 296.853 48.6803 291.055C48.6803 285.257 43.9621 280.538 38.1639 280.538C32.3657 280.538 27.6474 285.257 27.6474 291.055C27.6474 296.853 32.3657 301.571 38.1639 301.571ZM24.3819 291.055C24.3819 285.257 19.6637 280.538 13.8655 280.538C8.06729 280.538 3.34903 285.257 3.34903 291.055C3.34903 296.853 8.06729 301.571 13.8655 301.571C19.6637 301.571 24.3819 296.853 24.3819 291.055ZM24.3819 315.283C24.3819 309.484 19.6637 304.766 13.8655 304.766C8.06729 304.766 3.34903 309.484 3.34903 315.283C3.34903 321.081 8.06729 325.799 13.8655 325.799C19.6637 325.799 24.3819 321.081 24.3819 315.283ZM26.0147 338.398C26.3554 332.863 30.3858 328.312 35.6826 327.213C30.3858 326.114 26.349 321.563 26.0147 316.028C25.674 321.563 21.6435 326.114 16.3467 327.213C21.6435 328.312 25.674 332.863 26.0147 338.398ZM24.3819 339.15C24.3819 333.352 19.6637 328.634 13.8655 328.634C8.06729 328.634 3.34903 333.352 3.34903 339.15C3.34903 344.948 8.06729 349.667 13.8655 349.667C19.6637 349.667 24.3819 344.948 24.3819 339.15ZM26.0147 291.8C25.6483 297.727 21.0457 302.529 15.1897 303.165C21.0393 303.802 25.6483 308.604 26.0147 314.53C26.3811 308.604 30.9836 303.802 36.8397 303.165C30.9901 302.529 26.3811 297.734 26.0147 291.8ZM26.0147 362.266C26.3554 356.731 30.3858 352.18 35.6826 351.081C30.3858 349.982 26.349 345.43 26.0147 339.896C25.674 345.43 21.6435 349.982 16.3467 351.081C21.6435 352.18 25.674 356.731 26.0147 362.266ZM1.6777 363.005C1.6777 357.143 5.85602 352.231 11.3842 351.081C5.85602 349.93 1.68411 345.026 1.6777 339.157V362.999V363.005ZM100.768 168.502H1.6777V178.974H100.768V168.502ZM302.329 407.327H276.018C278.557 410.316 280.595 413.749 281.996 417.49H302.329V407.327ZM1.6777 433.271H6.78165L15.9675 426.226L6.75595 419.161H1.6777V433.278V433.271ZM1.6777 105.577V115.483H47.6197C53.2186 109.415 61.2345 105.603 70.1246 105.603C87.0114 105.603 100.748 119.34 100.748 136.226C100.748 153.113 87.2749 166.574 70.6068 166.837H100.768V105.583H1.6777V105.577ZM96.9557 103.906H100.768V92.9135H96.9557V103.906ZM91.6846 103.906H95.2908V92.9135H91.6846V103.906ZM86.4072 103.906H90.0133V92.9135H86.4072V103.906ZM81.1296 103.906H84.7358V92.9135H81.1296V103.906ZM75.8586 103.906H79.4648V92.9135H75.8586V103.906ZM70.581 103.906H74.1872V92.9135H70.581V103.906ZM65.31 103.906H68.9097V92.9135H65.31V103.906ZM60.0325 103.906H63.6386V92.9135H60.0325V103.906ZM54.7549 103.906H58.3611V92.9135H54.7549V103.906ZM49.4839 103.906H53.0901V92.9135H49.4839V103.906ZM44.2064 103.906H47.8125V92.9135H44.2064V103.906ZM38.9353 103.906H42.535V92.9135H38.9353V103.906ZM33.6577 103.906H37.2639V92.9135H33.6577V103.906ZM28.3802 103.906H31.9864V92.9135H28.3802V103.906ZM23.1092 103.906H26.7153V92.9135H23.1092V103.906ZM17.8316 103.906H21.4379V92.9135H17.8316V103.906ZM12.5606 103.906H16.1668V92.9135H12.5606V103.906ZM10.8893 92.9135H7.28949V103.906H10.8893V92.9135ZM201.522 91.2422H304V490.475H-6.10352e-05V91.2422H201.522Z" fill="#D1D4D5"/>
<path d="M299.11 272.133C299.496 272.133 299.805 272.448 299.805 272.827C299.805 273.206 299.49 273.521 299.11 273.521C298.731 273.521 298.416 273.206 298.416 272.827C298.416 272.448 298.731 272.133 299.11 272.133Z" fill="#D1D4D5"/>
<path d="M299.11 265.633C299.496 265.633 299.805 265.948 299.805 266.327C299.805 266.706 299.49 267.021 299.11 267.021C298.731 267.021 298.416 266.706 298.416 266.327C298.416 265.948 298.731 265.633 299.11 265.633Z" fill="#D1D4D5"/>
<path d="M299.11 259.133C299.496 259.133 299.805 259.448 299.805 259.827C299.805 260.206 299.49 260.521 299.11 260.521C298.731 260.521 298.416 260.206 298.416 259.827C298.416 259.448 298.731 259.133 299.11 259.133Z" fill="#D1D4D5"/>
<path d="M299.11 252.633C299.496 252.633 299.805 252.948 299.805 253.327C299.805 253.706 299.49 254.021 299.11 254.021C298.731 254.021 298.416 253.713 298.416 253.327C298.416 252.941 298.731 252.633 299.11 252.633Z" fill="#D1D4D5"/>
<path d="M299.11 246.125C299.496 246.125 299.805 246.44 299.805 246.819C299.805 247.199 299.49 247.513 299.11 247.513C298.731 247.513 298.416 247.205 298.416 246.819C298.416 246.434 298.731 246.125 299.11 246.125Z" fill="#D1D4D5"/>
<path d="M299.11 239.633C299.496 239.633 299.805 239.948 299.805 240.327C299.805 240.706 299.49 241.021 299.11 241.021C298.731 241.021 298.416 240.713 298.416 240.327C298.416 239.941 298.731 239.633 299.11 239.633Z" fill="#D1D4D5"/>
<path d="M299.11 233.125C299.496 233.125 299.805 233.44 299.805 233.819C299.805 234.199 299.49 234.513 299.11 234.513C298.731 234.513 298.416 234.205 298.416 233.819C298.416 233.434 298.731 233.125 299.11 233.125Z" fill="#D1D4D5"/>
<path d="M299.11 226.625C299.496 226.625 299.805 226.94 299.805 227.319C299.805 227.698 299.49 228.013 299.11 228.013C298.731 228.013 298.416 227.705 298.416 227.319C298.416 226.934 298.731 226.625 299.11 226.625Z" fill="#D1D4D5"/>
<path d="M299.11 220.117C299.496 220.117 299.805 220.432 299.805 220.811C299.805 221.191 299.49 221.506 299.11 221.506C298.731 221.506 298.416 221.197 298.416 220.811C298.416 220.426 298.731 220.117 299.11 220.117Z" fill="#D1D4D5"/>
<path d="M299.11 213.625C299.496 213.625 299.805 213.94 299.805 214.319C299.805 214.699 299.49 215.013 299.11 215.013C298.731 215.013 298.416 214.705 298.416 214.319C298.416 213.934 298.731 213.625 299.11 213.625Z" fill="#D1D4D5"/>
<path d="M299.11 207.125C299.496 207.125 299.805 207.44 299.805 207.819C299.805 208.198 299.49 208.513 299.11 208.513C298.731 208.513 298.416 208.205 298.416 207.819C298.416 207.434 298.731 207.125 299.11 207.125Z" fill="#D1D4D5"/>
<path d="M299.11 200.617C299.496 200.617 299.805 200.932 299.805 201.311C299.805 201.691 299.49 202.006 299.11 202.006C298.731 202.006 298.416 201.697 298.416 201.311C298.416 200.926 298.731 200.617 299.11 200.617Z" fill="#D1D4D5"/>
<path d="M299.11 194.117C299.496 194.117 299.805 194.432 299.805 194.811C299.805 195.191 299.49 195.506 299.11 195.506C298.731 195.506 298.416 195.197 298.416 194.811C298.416 194.426 298.731 194.117 299.11 194.117Z" fill="#D1D4D5"/>
<path d="M299.11 187.609C299.496 187.609 299.805 187.924 299.805 188.304C299.805 188.683 299.49 188.998 299.11 188.998C298.731 188.998 298.416 188.689 298.416 188.304C298.416 187.918 298.731 187.609 299.11 187.609Z" fill="#D1D4D5"/>
<path d="M299.11 181.117C299.496 181.117 299.805 181.432 299.805 181.811C299.805 182.191 299.49 182.506 299.11 182.506C298.731 182.506 298.416 182.197 298.416 181.811C298.416 181.426 298.731 181.117 299.11 181.117Z" fill="#D1D4D5"/>
<path d="M299.11 174.609C299.496 174.609 299.805 174.924 299.805 175.304C299.805 175.683 299.49 175.998 299.11 175.998C298.731 175.998 298.416 175.689 298.416 175.304C298.416 174.918 298.731 174.609 299.11 174.609Z" fill="#D1D4D5"/>
<path d="M299.11 168.109C299.496 168.109 299.805 168.424 299.805 168.804C299.805 169.183 299.49 169.498 299.11 169.498C298.731 169.498 298.416 169.189 298.416 168.804C298.416 168.418 298.731 168.109 299.11 168.109Z" fill="#D1D4D5"/>
<path d="M299.11 161.602C299.496 161.602 299.805 161.917 299.805 162.296C299.805 162.675 299.49 162.99 299.11 162.99C298.731 162.99 298.416 162.681 298.416 162.296C298.416 161.91 298.731 161.602 299.11 161.602Z" fill="#D1D4D5"/>
<path d="M299.11 155.109C299.496 155.109 299.805 155.424 299.805 155.804C299.805 156.183 299.49 156.498 299.11 156.498C298.731 156.498 298.416 156.189 298.416 155.804C298.416 155.418 298.731 155.109 299.11 155.109Z" fill="#D1D4D5"/>
<path d="M299.11 148.609C299.496 148.609 299.805 148.924 299.805 149.304C299.805 149.683 299.49 149.998 299.11 149.998C298.731 149.998 298.416 149.689 298.416 149.304C298.416 148.918 298.731 148.609 299.11 148.609Z" fill="#D1D4D5"/>
<path d="M299.11 142.102C299.496 142.102 299.805 142.417 299.805 142.796C299.805 143.175 299.49 143.49 299.11 143.49C298.731 143.49 298.416 143.181 298.416 142.796C298.416 142.41 298.731 142.102 299.11 142.102Z" fill="#D1D4D5"/>
<path d="M299.11 135.602C299.496 135.602 299.805 135.917 299.805 136.296C299.805 136.675 299.49 136.99 299.11 136.99C298.731 136.99 298.416 136.681 298.416 136.296C298.416 135.91 298.731 135.602 299.11 135.602Z" fill="#D1D4D5"/>
<path d="M299.11 129.094C299.496 129.094 299.805 129.409 299.805 129.788C299.805 130.167 299.49 130.482 299.11 130.482C298.731 130.482 298.416 130.174 298.416 129.788C298.416 129.402 298.731 129.094 299.11 129.094Z" fill="#D1D4D5"/>
<path d="M299.11 122.602C299.496 122.602 299.805 122.917 299.805 123.296C299.805 123.675 299.49 123.99 299.11 123.99C298.731 123.99 298.416 123.681 298.416 123.296C298.416 122.91 298.731 122.602 299.11 122.602Z" fill="#D1D4D5"/>
<path d="M299.11 116.094C299.496 116.094 299.805 116.409 299.805 116.788C299.805 117.167 299.49 117.482 299.11 117.482C298.731 117.482 298.416 117.174 298.416 116.788C298.416 116.402 298.731 116.094 299.11 116.094Z" fill="#D1D4D5"/>
<path d="M299.11 109.594C299.496 109.594 299.805 109.909 299.805 110.288C299.805 110.667 299.49 110.982 299.11 110.982C298.731 110.982 298.416 110.674 298.416 110.288C298.416 109.902 298.731 109.594 299.11 109.594Z" fill="#D1D4D5"/>
<path d="M299.11 103.094C299.496 103.094 299.805 103.409 299.805 103.788C299.805 104.167 299.49 104.482 299.11 104.482C298.731 104.482 298.416 104.174 298.416 103.788C298.416 103.402 298.731 103.094 299.11 103.094Z" fill="#D1D4D5"/>
<path d="M299.11 96.5938C299.496 96.5938 299.805 96.9087 299.805 97.288C299.805 97.6673 299.49 97.9822 299.11 97.9822C298.731 97.9822 298.416 97.6737 298.416 97.288C298.416 96.9023 298.731 96.5938 299.11 96.5938Z" fill="#D1D4D5"/>
<path d="M294.681 272.133C295.066 272.133 295.375 272.448 295.375 272.827C295.375 273.206 295.06 273.521 294.681 273.521C294.301 273.521 293.987 273.206 293.987 272.827C293.987 272.448 294.301 272.133 294.681 272.133Z" fill="#D1D4D5"/>
<path d="M294.681 265.633C295.066 265.633 295.375 265.948 295.375 266.327C295.375 266.706 295.06 267.021 294.681 267.021C294.301 267.021 293.987 266.706 293.987 266.327C293.987 265.948 294.301 265.633 294.681 265.633Z" fill="#D1D4D5"/>
<path d="M294.681 259.133C295.066 259.133 295.375 259.448 295.375 259.827C295.375 260.206 295.06 260.521 294.681 260.521C294.301 260.521 293.987 260.206 293.987 259.827C293.987 259.448 294.301 259.133 294.681 259.133Z" fill="#D1D4D5"/>
<path d="M294.681 252.633C295.066 252.633 295.375 252.948 295.375 253.327C295.375 253.706 295.06 254.021 294.681 254.021C294.301 254.021 293.987 253.713 293.987 253.327C293.987 252.941 294.301 252.633 294.681 252.633Z" fill="#D1D4D5"/>
<path d="M294.681 246.125C295.066 246.125 295.375 246.44 295.375 246.819C295.375 247.199 295.06 247.513 294.681 247.513C294.301 247.513 293.987 247.205 293.987 246.819C293.987 246.434 294.301 246.125 294.681 246.125Z" fill="#D1D4D5"/>
<path d="M294.681 239.633C295.066 239.633 295.375 239.948 295.375 240.327C295.375 240.706 295.06 241.021 294.681 241.021C294.301 241.021 293.987 240.713 293.987 240.327C293.987 239.941 294.301 239.633 294.681 239.633Z" fill="#D1D4D5"/>
<path d="M294.681 233.125C295.066 233.125 295.375 233.44 295.375 233.819C295.375 234.199 295.06 234.513 294.681 234.513C294.301 234.513 293.987 234.205 293.987 233.819C293.987 233.434 294.301 233.125 294.681 233.125Z" fill="#D1D4D5"/>
<path d="M294.681 226.625C295.066 226.625 295.375 226.94 295.375 227.319C295.375 227.698 295.06 228.013 294.681 228.013C294.301 228.013 293.987 227.705 293.987 227.319C293.987 226.934 294.301 226.625 294.681 226.625Z" fill="#D1D4D5"/>
<path d="M294.681 220.117C295.066 220.117 295.375 220.432 295.375 220.811C295.375 221.191 295.06 221.506 294.681 221.506C294.301 221.506 293.987 221.197 293.987 220.811C293.987 220.426 294.301 220.117 294.681 220.117Z" fill="#D1D4D5"/>
<path d="M294.681 213.625C295.066 213.625 295.375 213.94 295.375 214.319C295.375 214.699 295.06 215.013 294.681 215.013C294.301 215.013 293.987 214.705 293.987 214.319C293.987 213.934 294.301 213.625 294.681 213.625Z" fill="#D1D4D5"/>
<path d="M294.681 207.125C295.066 207.125 295.375 207.44 295.375 207.819C295.375 208.198 295.06 208.513 294.681 208.513C294.301 208.513 293.987 208.205 293.987 207.819C293.987 207.434 294.301 207.125 294.681 207.125Z" fill="#D1D4D5"/>
<path d="M294.681 200.617C295.066 200.617 295.375 200.932 295.375 201.311C295.375 201.691 295.06 202.006 294.681 202.006C294.301 202.006 293.987 201.697 293.987 201.311C293.987 200.926 294.301 200.617 294.681 200.617Z" fill="#D1D4D5"/>
<path d="M294.681 194.117C295.066 194.117 295.375 194.432 295.375 194.811C295.375 195.191 295.06 195.506 294.681 195.506C294.301 195.506 293.987 195.197 293.987 194.811C293.987 194.426 294.301 194.117 294.681 194.117Z" fill="#D1D4D5"/>
<path d="M294.681 187.609C295.066 187.609 295.375 187.924 295.375 188.304C295.375 188.683 295.06 188.998 294.681 188.998C294.301 188.998 293.987 188.689 293.987 188.304C293.987 187.918 294.301 187.609 294.681 187.609Z" fill="#D1D4D5"/>
<path d="M294.681 181.117C295.066 181.117 295.375 181.432 295.375 181.811C295.375 182.191 295.06 182.506 294.681 182.506C294.301 182.506 293.987 182.197 293.987 181.811C293.987 181.426 294.301 181.117 294.681 181.117Z" fill="#D1D4D5"/>
<path d="M294.681 174.609C295.066 174.609 295.375 174.924 295.375 175.304C295.375 175.683 295.06 175.998 294.681 175.998C294.301 175.998 293.987 175.689 293.987 175.304C293.987 174.918 294.301 174.609 294.681 174.609Z" fill="#D1D4D5"/>
<path d="M294.681 168.109C295.066 168.109 295.375 168.424 295.375 168.804C295.375 169.183 295.06 169.498 294.681 169.498C294.301 169.498 293.987 169.189 293.987 168.804C293.987 168.418 294.301 168.109 294.681 168.109Z" fill="#D1D4D5"/>
<path d="M294.681 161.602C295.066 161.602 295.375 161.917 295.375 162.296C295.375 162.675 295.06 162.99 294.681 162.99C294.301 162.99 293.987 162.681 293.987 162.296C293.987 161.91 294.301 161.602 294.681 161.602Z" fill="#D1D4D5"/>
<path d="M294.681 155.109C295.066 155.109 295.375 155.424 295.375 155.804C295.375 156.183 295.06 156.498 294.681 156.498C294.301 156.498 293.987 156.189 293.987 155.804C293.987 155.418 294.301 155.109 294.681 155.109Z" fill="#D1D4D5"/>
<path d="M294.681 148.609C295.066 148.609 295.375 148.924 295.375 149.304C295.375 149.683 295.06 149.998 294.681 149.998C294.301 149.998 293.987 149.689 293.987 149.304C293.987 148.918 294.301 148.609 294.681 148.609Z" fill="#D1D4D5"/>
<path d="M294.681 142.102C295.066 142.102 295.375 142.417 295.375 142.796C295.375 143.175 295.06 143.49 294.681 143.49C294.301 143.49 293.987 143.181 293.987 142.796C293.987 142.41 294.301 142.102 294.681 142.102Z" fill="#D1D4D5"/>
<path d="M294.681 135.602C295.066 135.602 295.375 135.917 295.375 136.296C295.375 136.675 295.06 136.99 294.681 136.99C294.301 136.99 293.987 136.681 293.987 136.296C293.987 135.91 294.301 135.602 294.681 135.602Z" fill="#D1D4D5"/>
<path d="M294.681 129.094C295.066 129.094 295.375 129.409 295.375 129.788C295.375 130.167 295.06 130.482 294.681 130.482C294.301 130.482 293.987 130.174 293.987 129.788C293.987 129.402 294.301 129.094 294.681 129.094Z" fill="#D1D4D5"/>
<path d="M294.681 122.602C295.066 122.602 295.375 122.917 295.375 123.296C295.375 123.675 295.06 123.99 294.681 123.99C294.301 123.99 293.987 123.681 293.987 123.296C293.987 122.91 294.301 122.602 294.681 122.602Z" fill="#D1D4D5"/>
<path d="M294.681 116.094C295.066 116.094 295.375 116.409 295.375 116.788C295.375 117.167 295.06 117.482 294.681 117.482C294.301 117.482 293.987 117.174 293.987 116.788C293.987 116.402 294.301 116.094 294.681 116.094Z" fill="#D1D4D5"/>
<path d="M294.681 109.594C295.066 109.594 295.375 109.909 295.375 110.288C295.375 110.667 295.06 110.982 294.681 110.982C294.301 110.982 293.987 110.674 293.987 110.288C293.987 109.902 294.301 109.594 294.681 109.594Z" fill="#D1D4D5"/>
<path d="M294.681 103.094C295.066 103.094 295.375 103.409 295.375 103.788C295.375 104.167 295.06 104.482 294.681 104.482C294.301 104.482 293.987 104.174 293.987 103.788C293.987 103.402 294.301 103.094 294.681 103.094Z" fill="#D1D4D5"/>
<path d="M294.681 96.5938C295.066 96.5938 295.375 96.9087 295.375 97.288C295.375 97.6673 295.06 97.9822 294.681 97.9822C294.301 97.9822 293.987 97.6737 293.987 97.288C293.987 96.9023 294.301 96.5938 294.681 96.5938Z" fill="#D1D4D5"/>
<path d="M210.845 273.521C210.459 273.521 210.151 273.213 210.151 272.827C210.151 272.441 210.466 272.133 210.845 272.133C211.224 272.133 211.539 272.448 211.539 272.827C211.539 273.206 211.224 273.521 210.845 273.521Z" fill="#D1D4D5"/>
<path d="M210.845 267.029C210.459 267.029 210.151 266.721 210.151 266.335C210.151 265.949 210.466 265.641 210.845 265.641C211.224 265.641 211.539 265.956 211.539 266.335C211.539 266.714 211.224 267.029 210.845 267.029Z" fill="#D1D4D5"/>
<path d="M210.845 260.521C210.459 260.521 210.151 260.213 210.151 259.827C210.151 259.441 210.466 259.133 210.845 259.133C211.224 259.133 211.539 259.448 211.539 259.827C211.539 260.206 211.224 260.521 210.845 260.521Z" fill="#D1D4D5"/>
<path d="M210.845 254.021C210.459 254.021 210.151 253.713 210.151 253.327C210.151 252.941 210.466 252.633 210.845 252.633C211.224 252.633 211.539 252.941 211.539 253.327C211.539 253.713 211.224 254.021 210.845 254.021Z" fill="#D1D4D5"/>
<path d="M210.845 247.521C210.459 247.521 210.151 247.213 210.151 246.827C210.151 246.441 210.466 246.133 210.845 246.133C211.224 246.133 211.539 246.441 211.539 246.827C211.539 247.213 211.224 247.521 210.845 247.521Z" fill="#D1D4D5"/>
<path d="M210.845 241.021C210.459 241.021 210.151 240.713 210.151 240.327C210.151 239.941 210.466 239.633 210.845 239.633C211.224 239.633 211.539 239.941 211.539 240.327C211.539 240.713 211.224 241.021 210.845 241.021Z" fill="#D1D4D5"/>
<path d="M210.845 234.521C210.459 234.521 210.151 234.213 210.151 233.827C210.151 233.441 210.466 233.133 210.845 233.133C211.224 233.133 211.539 233.441 211.539 233.827C211.539 234.213 211.224 234.521 210.845 234.521Z" fill="#D1D4D5"/>
<path d="M210.845 228.013C210.459 228.013 210.151 227.705 210.151 227.319C210.151 226.934 210.466 226.625 210.845 226.625C211.224 226.625 211.539 226.934 211.539 227.319C211.539 227.705 211.224 228.013 210.845 228.013Z" fill="#D1D4D5"/>
<path d="M210.845 221.513C210.459 221.513 210.151 221.205 210.151 220.819C210.151 220.434 210.466 220.125 210.845 220.125C211.224 220.125 211.539 220.434 211.539 220.819C211.539 221.205 211.224 221.513 210.845 221.513Z" fill="#D1D4D5"/>
<path d="M210.845 215.013C210.459 215.013 210.151 214.705 210.151 214.319C210.151 213.934 210.466 213.625 210.845 213.625C211.224 213.625 211.539 213.934 211.539 214.319C211.539 214.705 211.224 215.013 210.845 215.013Z" fill="#D1D4D5"/>
<path d="M210.845 208.513C210.459 208.513 210.151 208.205 210.151 207.819C210.151 207.434 210.466 207.125 210.845 207.125C211.224 207.125 211.539 207.434 211.539 207.819C211.539 208.205 211.224 208.513 210.845 208.513Z" fill="#D1D4D5"/>
<path d="M210.845 202.006C210.459 202.006 210.151 201.697 210.151 201.311C210.151 200.926 210.466 200.617 210.845 200.617C211.224 200.617 211.539 200.926 211.539 201.311C211.539 201.697 211.224 202.006 210.845 202.006Z" fill="#D1D4D5"/>
<path d="M210.845 195.506C210.459 195.506 210.151 195.197 210.151 194.811C210.151 194.426 210.466 194.117 210.845 194.117C211.224 194.117 211.539 194.426 211.539 194.811C211.539 195.197 211.224 195.506 210.845 195.506Z" fill="#D1D4D5"/>
<path d="M210.845 189.006C210.459 189.006 210.151 188.697 210.151 188.311C210.151 187.926 210.466 187.617 210.845 187.617C211.224 187.617 211.539 187.926 211.539 188.311C211.539 188.697 211.224 189.006 210.845 189.006Z" fill="#D1D4D5"/>
<path d="M210.845 182.506C210.459 182.506 210.151 182.197 210.151 181.811C210.151 181.426 210.466 181.117 210.845 181.117C211.224 181.117 211.539 181.426 211.539 181.811C211.539 182.197 211.224 182.506 210.845 182.506Z" fill="#D1D4D5"/>
<path d="M210.845 176.006C210.459 176.006 210.151 175.697 210.151 175.311C210.151 174.926 210.466 174.617 210.845 174.617C211.224 174.617 211.539 174.926 211.539 175.311C211.539 175.697 211.224 176.006 210.845 176.006Z" fill="#D1D4D5"/>
<path d="M210.845 169.498C210.459 169.498 210.151 169.189 210.151 168.804C210.151 168.418 210.466 168.109 210.845 168.109C211.224 168.109 211.539 168.418 211.539 168.804C211.539 169.189 211.224 169.498 210.845 169.498Z" fill="#D1D4D5"/>
<path d="M210.845 162.998C210.459 162.998 210.151 162.689 210.151 162.304C210.151 161.918 210.466 161.609 210.845 161.609C211.224 161.609 211.539 161.918 211.539 162.304C211.539 162.689 211.224 162.998 210.845 162.998Z" fill="#D1D4D5"/>
<path d="M210.845 156.498C210.459 156.498 210.151 156.189 210.151 155.804C210.151 155.418 210.466 155.109 210.845 155.109C211.224 155.109 211.539 155.418 211.539 155.804C211.539 156.189 211.224 156.498 210.845 156.498Z" fill="#D1D4D5"/>
<path d="M210.845 149.998C210.459 149.998 210.151 149.689 210.151 149.304C210.151 148.918 210.466 148.609 210.845 148.609C211.224 148.609 211.539 148.918 211.539 149.304C211.539 149.689 211.224 149.998 210.845 149.998Z" fill="#D1D4D5"/>
<path d="M210.845 143.49C210.459 143.49 210.151 143.181 210.151 142.796C210.151 142.41 210.466 142.102 210.845 142.102C211.224 142.102 211.539 142.41 211.539 142.796C211.539 143.181 211.224 143.49 210.845 143.49Z" fill="#D1D4D5"/>
<path d="M210.845 136.99C210.459 136.99 210.151 136.681 210.151 136.296C210.151 135.91 210.466 135.602 210.845 135.602C211.224 135.602 211.539 135.91 211.539 136.296C211.539 136.681 211.224 136.99 210.845 136.99Z" fill="#D1D4D5"/>
<path d="M210.845 130.49C210.459 130.49 210.151 130.181 210.151 129.796C210.151 129.41 210.466 129.102 210.845 129.102C211.224 129.102 211.539 129.41 211.539 129.796C211.539 130.181 211.224 130.49 210.845 130.49Z" fill="#D1D4D5"/>
<path d="M210.845 123.99C210.459 123.99 210.151 123.681 210.151 123.296C210.151 122.91 210.466 122.602 210.845 122.602C211.224 122.602 211.539 122.91 211.539 123.296C211.539 123.681 211.224 123.99 210.845 123.99Z" fill="#D1D4D5"/>
<path d="M210.845 117.49C210.459 117.49 210.151 117.181 210.151 116.796C210.151 116.41 210.466 116.102 210.845 116.102C211.224 116.102 211.539 116.41 211.539 116.796C211.539 117.181 211.224 117.49 210.845 117.49Z" fill="#D1D4D5"/>
<path d="M210.845 110.982C210.459 110.982 210.151 110.674 210.151 110.288C210.151 109.902 210.466 109.594 210.845 109.594C211.224 109.594 211.539 109.902 211.539 110.288C211.539 110.674 211.224 110.982 210.845 110.982Z" fill="#D1D4D5"/>
<path d="M210.845 104.482C210.459 104.482 210.151 104.174 210.151 103.788C210.151 103.402 210.466 103.094 210.845 103.094C211.224 103.094 211.539 103.402 211.539 103.788C211.539 104.174 211.224 104.482 210.845 104.482Z" fill="#D1D4D5"/>
<path d="M210.845 97.9822C210.459 97.9822 210.151 97.6737 210.151 97.288C210.151 96.9023 210.466 96.5938 210.845 96.5938C211.224 96.5938 211.539 96.9023 211.539 97.288C211.539 97.6737 211.224 97.9822 210.845 97.9822Z" fill="#D1D4D5"/>
<path d="M206.423 273.521C206.037 273.521 205.729 273.213 205.729 272.827C205.729 272.441 206.044 272.133 206.423 272.133C206.802 272.133 207.117 272.448 207.117 272.827C207.117 273.206 206.802 273.521 206.423 273.521Z" fill="#D1D4D5"/>
<path d="M206.423 267.029C206.037 267.029 205.729 266.721 205.729 266.335C205.729 265.949 206.044 265.641 206.423 265.641C206.802 265.641 207.117 265.956 207.117 266.335C207.117 266.714 206.802 267.029 206.423 267.029Z" fill="#D1D4D5"/>
<path d="M206.423 260.521C206.037 260.521 205.729 260.213 205.729 259.827C205.729 259.441 206.044 259.133 206.423 259.133C206.802 259.133 207.117 259.448 207.117 259.827C207.117 260.206 206.802 260.521 206.423 260.521Z" fill="#D1D4D5"/>
<path d="M206.423 254.021C206.037 254.021 205.729 253.713 205.729 253.327C205.729 252.941 206.044 252.633 206.423 252.633C206.802 252.633 207.117 252.941 207.117 253.327C207.117 253.713 206.802 254.021 206.423 254.021Z" fill="#D1D4D5"/>
<path d="M206.423 247.521C206.037 247.521 205.729 247.213 205.729 246.827C205.729 246.441 206.044 246.133 206.423 246.133C206.802 246.133 207.117 246.441 207.117 246.827C207.117 247.213 206.802 247.521 206.423 247.521Z" fill="#D1D4D5"/>
<path d="M206.423 241.021C206.037 241.021 205.729 240.713 205.729 240.327C205.729 239.941 206.044 239.633 206.423 239.633C206.802 239.633 207.117 239.941 207.117 240.327C207.117 240.713 206.802 241.021 206.423 241.021Z" fill="#D1D4D5"/>
<path d="M206.423 234.521C206.037 234.521 205.729 234.213 205.729 233.827C205.729 233.441 206.044 233.133 206.423 233.133C206.802 233.133 207.117 233.441 207.117 233.827C207.117 234.213 206.802 234.521 206.423 234.521Z" fill="#D1D4D5"/>
<path d="M206.423 228.013C206.037 228.013 205.729 227.705 205.729 227.319C205.729 226.934 206.044 226.625 206.423 226.625C206.802 226.625 207.117 226.934 207.117 227.319C207.117 227.705 206.802 228.013 206.423 228.013Z" fill="#D1D4D5"/>
<path d="M206.423 221.513C206.037 221.513 205.729 221.205 205.729 220.819C205.729 220.434 206.044 220.125 206.423 220.125C206.802 220.125 207.117 220.434 207.117 220.819C207.117 221.205 206.802 221.513 206.423 221.513Z" fill="#D1D4D5"/>
<path d="M206.423 215.013C206.037 215.013 205.729 214.705 205.729 214.319C205.729 213.934 206.044 213.625 206.423 213.625C206.802 213.625 207.117 213.934 207.117 214.319C207.117 214.705 206.802 215.013 206.423 215.013Z" fill="#D1D4D5"/>
<path d="M206.423 208.513C206.037 208.513 205.729 208.205 205.729 207.819C205.729 207.434 206.044 207.125 206.423 207.125C206.802 207.125 207.117 207.434 207.117 207.819C207.117 208.205 206.802 208.513 206.423 208.513Z" fill="#D1D4D5"/>
<path d="M206.423 202.006C206.037 202.006 205.729 201.697 205.729 201.311C205.729 200.926 206.044 200.617 206.423 200.617C206.802 200.617 207.117 200.926 207.117 201.311C207.117 201.697 206.802 202.006 206.423 202.006Z" fill="#D1D4D5"/>
<path d="M206.423 195.506C206.037 195.506 205.729 195.197 205.729 194.811C205.729 194.426 206.044 194.117 206.423 194.117C206.802 194.117 207.117 194.426 207.117 194.811C207.117 195.197 206.802 195.506 206.423 195.506Z" fill="#D1D4D5"/>
<path d="M206.423 189.006C206.037 189.006 205.729 188.697 205.729 188.311C205.729 187.926 206.044 187.617 206.423 187.617C206.802 187.617 207.117 187.926 207.117 188.311C207.117 188.697 206.802 189.006 206.423 189.006Z" fill="#D1D4D5"/>
<path d="M206.423 182.506C206.037 182.506 205.729 182.197 205.729 181.811C205.729 181.426 206.044 181.117 206.423 181.117C206.802 181.117 207.117 181.426 207.117 181.811C207.117 182.197 206.802 182.506 206.423 182.506Z" fill="#D1D4D5"/>
<path d="M206.423 176.006C206.037 176.006 205.729 175.697 205.729 175.311C205.729 174.926 206.044 174.617 206.423 174.617C206.802 174.617 207.117 174.926 207.117 175.311C207.117 175.697 206.802 176.006 206.423 176.006Z" fill="#D1D4D5"/>
<path d="M206.423 169.498C206.037 169.498 205.729 169.189 205.729 168.804C205.729 168.418 206.044 168.109 206.423 168.109C206.802 168.109 207.117 168.418 207.117 168.804C207.117 169.189 206.802 169.498 206.423 169.498Z" fill="#D1D4D5"/>
<path d="M206.423 162.998C206.037 162.998 205.729 162.689 205.729 162.304C205.729 161.918 206.044 161.609 206.423 161.609C206.802 161.609 207.117 161.918 207.117 162.304C207.117 162.689 206.802 162.998 206.423 162.998Z" fill="#D1D4D5"/>
<path d="M206.423 156.498C206.037 156.498 205.729 156.189 205.729 155.804C205.729 155.418 206.044 155.109 206.423 155.109C206.802 155.109 207.117 155.418 207.117 155.804C207.117 156.189 206.802 156.498 206.423 156.498Z" fill="#D1D4D5"/>
<path d="M206.423 149.998C206.037 149.998 205.729 149.689 205.729 149.304C205.729 148.918 206.044 148.609 206.423 148.609C206.802 148.609 207.117 148.918 207.117 149.304C207.117 149.689 206.802 149.998 206.423 149.998Z" fill="#D1D4D5"/>
<path d="M206.423 143.49C206.037 143.49 205.729 143.181 205.729 142.796C205.729 142.41 206.044 142.102 206.423 142.102C206.802 142.102 207.117 142.41 207.117 142.796C207.117 143.181 206.802 143.49 206.423 143.49Z" fill="#D1D4D5"/>
<path d="M206.423 136.99C206.037 136.99 205.729 136.681 205.729 136.296C205.729 135.91 206.044 135.602 206.423 135.602C206.802 135.602 207.117 135.91 207.117 136.296C207.117 136.681 206.802 136.99 206.423 136.99Z" fill="#D1D4D5"/>
<path d="M206.423 130.49C206.037 130.49 205.729 130.181 205.729 129.796C205.729 129.41 206.044 129.102 206.423 129.102C206.802 129.102 207.117 129.41 207.117 129.796C207.117 130.181 206.802 130.49 206.423 130.49Z" fill="#D1D4D5"/>
<path d="M206.423 123.99C206.037 123.99 205.729 123.681 205.729 123.296C205.729 122.91 206.044 122.602 206.423 122.602C206.802 122.602 207.117 122.91 207.117 123.296C207.117 123.681 206.802 123.99 206.423 123.99Z" fill="#D1D4D5"/>
<path d="M206.423 117.49C206.037 117.49 205.729 117.181 205.729 116.796C205.729 116.41 206.044 116.102 206.423 116.102C206.802 116.102 207.117 116.41 207.117 116.796C207.117 117.181 206.802 117.49 206.423 117.49Z" fill="#D1D4D5"/>
<path d="M206.423 110.982C206.037 110.982 205.729 110.674 205.729 110.288C205.729 109.902 206.044 109.594 206.423 109.594C206.802 109.594 207.117 109.902 207.117 110.288C207.117 110.674 206.802 110.982 206.423 110.982Z" fill="#D1D4D5"/>
<path d="M206.423 104.482C206.037 104.482 205.729 104.174 205.729 103.788C205.729 103.402 206.044 103.094 206.423 103.094C206.802 103.094 207.117 103.402 207.117 103.788C207.117 104.174 206.802 104.482 206.423 104.482Z" fill="#D1D4D5"/>
<path d="M206.423 97.9822C206.037 97.9822 205.729 97.6737 205.729 97.288C205.729 96.9023 206.044 96.5938 206.423 96.5938C206.802 96.5938 207.117 96.9023 207.117 97.288C207.117 97.6737 206.802 97.9822 206.423 97.9822Z" fill="#D1D4D5"/>
<path d="M70.1264 159.585C83.0084 159.585 93.4927 149.101 93.4927 136.219C93.4927 123.337 83.0084 112.852 70.1264 112.852C57.2444 112.852 46.7601 123.337 46.7601 136.219C46.7601 149.101 57.2444 159.585 70.1264 159.585ZM70.1264 111.188C83.9341 111.188 95.1641 122.417 95.1641 136.225C95.1641 150.033 83.9341 161.263 70.1264 161.263C56.3188 161.263 45.0888 150.033 45.0888 136.225C45.0888 122.417 56.3188 111.188 70.1264 111.188Z" fill="#D1D4D5"/>
<path d="M70.1266 153.997C79.9295 153.997 87.9068 146.02 87.9068 136.217C87.9068 126.414 79.9295 118.437 70.1266 118.437C60.3236 118.437 52.3463 126.414 52.3463 136.217C52.3463 146.02 60.3236 153.997 70.1266 153.997ZM70.1266 116.766C80.8551 116.766 89.5781 125.495 89.5781 136.217C89.5781 146.939 80.8551 155.669 70.1266 155.669C59.398 155.669 50.675 146.946 50.675 136.217C50.675 125.489 59.4044 116.766 70.1266 116.766Z" fill="#D1D4D5"/>
<path d="M70.1213 147.491C76.3308 147.491 81.3834 142.439 81.3834 136.229C81.3834 130.019 76.3308 124.967 70.1213 124.967C63.9117 124.967 58.8591 130.019 58.8591 136.229C58.8591 142.439 63.9117 147.491 70.1213 147.491ZM70.1213 123.289C77.2565 123.289 83.0547 129.094 83.0547 136.222C83.0547 143.351 77.2501 149.156 70.1213 149.156C62.9924 149.156 57.1878 143.351 57.1878 136.222C57.1878 129.094 62.9924 123.289 70.1213 123.289Z" fill="#D1D4D5"/>
<path d="M70.1256 141.521C73.044 141.521 75.4224 139.143 75.4224 136.225C75.4224 133.306 73.044 130.928 70.1256 130.928C67.2073 130.928 64.8288 133.306 64.8288 136.225C64.8288 139.143 67.2073 141.521 70.1256 141.521ZM70.1256 129.25C73.9697 129.25 77.0938 132.374 77.0938 136.218C77.0938 140.062 73.9697 143.186 70.1256 143.186C66.2816 143.186 63.1575 140.062 63.1575 136.218C63.1575 132.374 66.2816 129.25 70.1256 129.25Z" fill="#D1D4D5"/>
<path d="M222.194 276.98C221.48 276.98 220.895 276.401 220.895 275.681C220.895 274.961 221.474 274.383 222.194 274.383C222.914 274.383 223.492 274.961 223.492 275.681C223.492 276.401 222.914 276.98 222.194 276.98Z" fill="#D1D4D5"/>
<path d="M234.319 276.98C233.605 276.98 233.02 276.401 233.02 275.681C233.02 274.961 233.599 274.383 234.319 274.383C235.039 274.383 235.617 274.961 235.617 275.681C235.617 276.401 235.039 276.98 234.319 276.98Z" fill="#D1D4D5"/>
<path d="M246.444 276.98C245.73 276.98 245.145 276.401 245.145 275.681C245.145 274.961 245.724 274.383 246.444 274.383C247.164 274.383 247.742 274.961 247.742 275.681C247.742 276.401 247.164 276.98 246.444 276.98Z" fill="#D1D4D5"/>
<path d="M258.569 276.98C257.855 276.98 257.27 276.401 257.27 275.681C257.27 274.961 257.849 274.383 258.569 274.383C259.289 274.383 259.867 274.961 259.867 275.681C259.867 276.401 259.289 276.98 258.569 276.98Z" fill="#D1D4D5"/>
<path d="M270.686 276.98C269.972 276.98 269.387 276.401 269.387 275.681C269.387 274.961 269.966 274.383 270.686 274.383C271.406 274.383 271.984 274.961 271.984 275.681C271.984 276.401 271.406 276.98 270.686 276.98Z" fill="#D1D4D5"/>
<path d="M282.803 276.98C282.09 276.98 281.505 276.401 281.505 275.681C281.505 274.961 282.083 274.383 282.803 274.383C283.523 274.383 284.102 274.961 284.102 275.681C284.102 276.401 283.523 276.98 282.803 276.98Z" fill="#D1D4D5"/>
</g>
</svg>
